<svg width="100" height="100" viewBox="0 0 100 100" fill="none" xmlns="http://www.w3.org/2000/svg">
<path d="M100 57.1429L100 42.8571L25 42.8571L25 28.5714L12.5 28.5714L12.5 42.8571L-2.49779e-06 42.8571L-1.87335e-06 57.1429L12.5 57.1429L12.5 71.4286L25 71.4286L25 57.1429L100 57.1429ZM37.5 85.7143L25 85.7143L25 71.4286L37.5 71.4286L37.5 85.7143ZM37.5 85.7143L50 85.7143L50 100L37.5 100L37.5 85.7143ZM37.5 14.2857L25 14.2857L25 28.5714L37.5 28.5714L37.5 14.2857ZM37.5 14.2857L50 14.2857L50 5.44382e-06L37.5 5.99022e-06L37.5 14.2857Z" fill="black"/>
</svg>
