<svg width="100" height="100" viewBox="0 0 100 100" fill="none" xmlns="http://www.w3.org/2000/svg">
<path d="M5.75605e-06 42.8571L5.1316e-06 57.1429L75 57.1429L75 71.4286L87.5 71.4286L87.5 57.1429L100 57.1429L100 42.8571L87.5 42.8571L87.5 28.5714L75 28.5714L75 42.8571L5.75605e-06 42.8571ZM62.5 14.2857L75 14.2857L75 28.5714L62.5 28.5714L62.5 14.2857ZM62.5 14.2857L50 14.2857L50 -2.18557e-06L62.5 -1.63918e-06L62.5 14.2857ZM62.5 85.7143L75 85.7143L75 71.4286L62.5 71.4286L62.5 85.7143ZM62.5 85.7143L50 85.7143L50 100L62.5 100L62.5 85.7143Z" fill="black"/>
</svg>
