<?xml version="1.0" encoding="UTF-8"?>
<!DOCTYPE svg PUBLIC "-//W3C//DTD SVG 1.1//EN" "http://www.w3.org/Graphics/SVG/1.1/DTD/svg11.dtd">
<svg xmlns="http://www.w3.org/2000/svg" version="1.1" width="256px" height="256px" style="shape-rendering:geometricPrecision; text-rendering:geometricPrecision; image-rendering:optimizeQuality; fill-rule:evenodd; clip-rule:evenodd" xmlns:xlink="http://www.w3.org/1999/xlink">
<g><path style="opacity:1" fill="#de3cf0" d="M 87.5,7.5 C 87.5,10.1667 87.5,12.8333 87.5,15.5C 82.1667,15.5 76.8333,15.5 71.5,15.5C 71.5,12.8333 71.5,10.1667 71.5,7.5C 76.8333,7.5 82.1667,7.5 87.5,7.5 Z"/></g>
<g><path style="opacity:1" fill="#9620f1" d="M 87.5,7.5 C 135.5,7.5 183.5,7.5 231.5,7.5C 231.5,10.1667 231.5,12.8333 231.5,15.5C 231.5,55.5 231.5,95.5 231.5,135.5C 228.833,135.5 226.167,135.5 223.5,135.5C 223.5,138.167 223.5,140.833 223.5,143.5C 220.833,143.5 218.167,143.5 215.5,143.5C 215.5,146.167 215.5,148.833 215.5,151.5C 170.167,151.5 124.833,151.5 79.5,151.5C 79.5,148.833 79.5,146.167 79.5,143.5C 122.167,143.5 164.833,143.5 207.5,143.5C 207.5,103.5 207.5,63.5 207.5,23.5C 207.5,20.8333 207.5,18.1667 207.5,15.5C 167.5,15.5 127.5,15.5 87.5,15.5C 87.5,12.8333 87.5,10.1667 87.5,7.5 Z"/></g>
<g><path style="opacity:1" fill="#de3cf0" d="M 71.5,15.5 C 71.5,18.1667 71.5,20.8333 71.5,23.5C 68.8333,23.5 66.1667,23.5 63.5,23.5C 63.5,20.8333 63.5,18.1667 63.5,15.5C 66.1667,15.5 68.8333,15.5 71.5,15.5 Z"/></g>
<g><path style="opacity:1" fill="#feddde" d="M 71.5,15.5 C 76.8333,15.5 82.1667,15.5 87.5,15.5C 127.5,15.5 167.5,15.5 207.5,15.5C 207.5,18.1667 207.5,20.8333 207.5,23.5C 162.167,23.5 116.833,23.5 71.5,23.5C 71.5,20.8333 71.5,18.1667 71.5,15.5 Z"/></g>
<g><path style="opacity:1" fill="#000590" d="M 231.5,15.5 C 234.167,15.5 236.833,15.5 239.5,15.5C 239.5,52.8333 239.5,90.1667 239.5,127.5C 242.167,127.5 244.833,127.5 247.5,127.5C 247.5,130.167 247.5,132.833 247.5,135.5C 242.167,135.5 236.833,135.5 231.5,135.5C 231.5,95.5 231.5,55.5 231.5,15.5 Z"/></g>
<g><path style="opacity:1" fill="#de3cf0" d="M 63.5,23.5 C 63.5,63.5 63.5,103.5 63.5,143.5C 60.8333,143.5 58.1667,143.5 55.5,143.5C 55.5,103.5 55.5,63.5 55.5,23.5C 58.1667,23.5 60.8333,23.5 63.5,23.5 Z"/></g>
<g><path style="opacity:1" fill="#feddde" d="M 63.5,23.5 C 66.1667,23.5 68.8333,23.5 71.5,23.5C 71.5,63.5 71.5,103.5 71.5,143.5C 68.8333,143.5 66.1667,143.5 63.5,143.5C 63.5,103.5 63.5,63.5 63.5,23.5 Z"/></g>
<g><path style="opacity:1" fill="#55d3f1" d="M 71.5,23.5 C 116.833,23.5 162.167,23.5 207.5,23.5C 207.5,63.5 207.5,103.5 207.5,143.5C 164.833,143.5 122.167,143.5 79.5,143.5C 76.8333,143.5 74.1667,143.5 71.5,143.5C 71.5,103.5 71.5,63.5 71.5,23.5 Z M 183.5,47.5 C 183.5,71.5 183.5,95.5 183.5,119.5C 154.167,119.5 124.833,119.5 95.5,119.5C 95.5,95.5 95.5,71.5 95.5,47.5C 124.833,47.5 154.167,47.5 183.5,47.5 Z"/></g>
<g><path style="opacity:1" fill="#9620f1" d="M 191.5,31.5 C 191.5,63.5 191.5,95.5 191.5,127.5C 154.167,127.5 116.833,127.5 79.5,127.5C 79.5,95.5 79.5,63.5 79.5,31.5C 116.833,31.5 154.167,31.5 191.5,31.5 Z M 183.5,47.5 C 183.5,71.5 183.5,95.5 183.5,119.5C 154.167,119.5 124.833,119.5 95.5,119.5C 95.5,95.5 95.5,71.5 95.5,47.5C 124.833,47.5 154.167,47.5 183.5,47.5 Z"/></g>
<g><path style="opacity:1" fill="#feddde" d="M 191.5,31.5 C 194.167,31.5 196.833,31.5 199.5,31.5C 199.5,66.1667 199.5,100.833 199.5,135.5C 159.5,135.5 119.5,135.5 79.5,135.5C 79.5,132.833 79.5,130.167 79.5,127.5C 116.833,127.5 154.167,127.5 191.5,127.5C 191.5,95.5 191.5,63.5 191.5,31.5 Z"/></g>
<g><path style="opacity:1" fill="#000590" d="M 183.5,47.5 C 154.167,47.5 124.833,47.5 95.5,47.5C 95.5,71.5 95.5,95.5 95.5,119.5C 92.8333,119.5 90.1667,119.5 87.5,119.5C 87.5,92.8333 87.5,66.1667 87.5,39.5C 119.5,39.5 151.5,39.5 183.5,39.5C 183.5,42.1667 183.5,44.8333 183.5,47.5 Z"/></g>
<g><path style="opacity:1" fill="#00fffe" d="M 111.5,55.5 C 111.5,58.1667 111.5,60.8333 111.5,63.5C 111.5,66.1667 111.5,68.8333 111.5,71.5C 108.833,71.5 106.167,71.5 103.5,71.5C 103.5,66.1667 103.5,60.8333 103.5,55.5C 106.167,55.5 108.833,55.5 111.5,55.5 Z"/></g>
<g><path style="opacity:1" fill="#000590" d="M 111.5,55.5 C 127.5,55.5 143.5,55.5 159.5,55.5C 159.5,60.8333 159.5,66.1667 159.5,71.5C 156.833,71.5 154.167,71.5 151.5,71.5C 151.5,68.8333 151.5,66.1667 151.5,63.5C 140.833,63.5 130.167,63.5 119.5,63.5C 116.833,63.5 114.167,63.5 111.5,63.5C 111.5,60.8333 111.5,58.1667 111.5,55.5 Z"/></g>
<g><path style="opacity:1" fill="#9620f1" d="M 111.5,63.5 C 114.167,63.5 116.833,63.5 119.5,63.5C 119.5,68.8333 119.5,74.1667 119.5,79.5C 116.833,79.5 114.167,79.5 111.5,79.5C 111.5,76.8333 111.5,74.1667 111.5,71.5C 111.5,68.8333 111.5,66.1667 111.5,63.5 Z"/></g>
<g><path style="opacity:1" fill="#feddde" d="M 119.5,63.5 C 130.167,63.5 140.833,63.5 151.5,63.5C 151.5,66.1667 151.5,68.8333 151.5,71.5C 146.167,71.5 140.833,71.5 135.5,71.5C 132.833,71.5 130.167,71.5 127.5,71.5C 127.5,74.1667 127.5,76.8333 127.5,79.5C 124.833,79.5 122.167,79.5 119.5,79.5C 119.5,74.1667 119.5,68.8333 119.5,63.5 Z"/></g>
<g><path style="opacity:1" fill="#000590" d="M 135.5,71.5 C 135.5,74.1667 135.5,76.8333 135.5,79.5C 132.833,79.5 130.167,79.5 127.5,79.5C 127.5,76.8333 127.5,74.1667 127.5,71.5C 130.167,71.5 132.833,71.5 135.5,71.5 Z"/></g>
<g><path style="opacity:1" fill="#1469f1" d="M 135.5,71.5 C 140.833,71.5 146.167,71.5 151.5,71.5C 154.167,71.5 156.833,71.5 159.5,71.5C 162.167,71.5 164.833,71.5 167.5,71.5C 167.5,74.1667 167.5,76.8333 167.5,79.5C 156.833,79.5 146.167,79.5 135.5,79.5C 135.5,76.8333 135.5,74.1667 135.5,71.5 Z"/></g>
<g><path style="opacity:1" fill="#000590" d="M 167.5,71.5 C 170.167,71.5 172.833,71.5 175.5,71.5C 175.5,82.1667 175.5,92.8333 175.5,103.5C 159.5,103.5 143.5,103.5 127.5,103.5C 127.5,100.833 127.5,98.1667 127.5,95.5C 130.167,95.5 132.833,95.5 135.5,95.5C 146.167,95.5 156.833,95.5 167.5,95.5C 167.5,90.1667 167.5,84.8333 167.5,79.5C 167.5,76.8333 167.5,74.1667 167.5,71.5 Z"/></g>
<g><path style="opacity:1" fill="#00fffe" d="M 111.5,79.5 C 111.5,82.1667 111.5,84.8333 111.5,87.5C 108.833,87.5 106.167,87.5 103.5,87.5C 103.5,84.8333 103.5,82.1667 103.5,79.5C 106.167,79.5 108.833,79.5 111.5,79.5 Z"/></g>
<g><path style="opacity:1" fill="#000590" d="M 111.5,79.5 C 114.167,79.5 116.833,79.5 119.5,79.5C 122.167,79.5 124.833,79.5 127.5,79.5C 127.5,82.1667 127.5,84.8333 127.5,87.5C 122.167,87.5 116.833,87.5 111.5,87.5C 111.5,84.8333 111.5,82.1667 111.5,79.5 Z"/></g>
<g><path style="opacity:1" fill="#9620f1" d="M 127.5,79.5 C 130.167,79.5 132.833,79.5 135.5,79.5C 135.5,84.8333 135.5,90.1667 135.5,95.5C 132.833,95.5 130.167,95.5 127.5,95.5C 127.5,92.8333 127.5,90.1667 127.5,87.5C 127.5,84.8333 127.5,82.1667 127.5,79.5 Z"/></g>
<g><path style="opacity:1" fill="#feddde" d="M 135.5,79.5 C 146.167,79.5 156.833,79.5 167.5,79.5C 167.5,84.8333 167.5,90.1667 167.5,95.5C 156.833,95.5 146.167,95.5 135.5,95.5C 135.5,90.1667 135.5,84.8333 135.5,79.5 Z"/></g>
<g><path style="opacity:1" fill="#000590" d="M 231.5,135.5 C 231.5,138.167 231.5,140.833 231.5,143.5C 228.833,143.5 226.167,143.5 223.5,143.5C 223.5,140.833 223.5,138.167 223.5,135.5C 226.167,135.5 228.833,135.5 231.5,135.5 Z"/></g>
<g><path style="opacity:1" fill="#9620f1" d="M 231.5,135.5 C 236.833,135.5 242.167,135.5 247.5,135.5C 247.5,138.167 247.5,140.833 247.5,143.5C 244.833,143.5 242.167,143.5 239.5,143.5C 239.5,146.167 239.5,148.833 239.5,151.5C 236.833,151.5 234.167,151.5 231.5,151.5C 231.5,154.167 231.5,156.833 231.5,159.5C 228.833,159.5 226.167,159.5 223.5,159.5C 220.833,159.5 218.167,159.5 215.5,159.5C 215.5,156.833 215.5,154.167 215.5,151.5C 218.167,151.5 220.833,151.5 223.5,151.5C 223.5,148.833 223.5,146.167 223.5,143.5C 226.167,143.5 228.833,143.5 231.5,143.5C 231.5,140.833 231.5,138.167 231.5,135.5 Z"/></g>
<g><path style="opacity:1" fill="#000590" d="M 247.5,135.5 C 250.167,135.5 252.833,135.5 255.5,135.5C 255.5,159.5 255.5,183.5 255.5,207.5C 252.833,207.5 250.167,207.5 247.5,207.5C 247.5,188.833 247.5,170.167 247.5,151.5C 247.5,148.833 247.5,146.167 247.5,143.5C 247.5,140.833 247.5,138.167 247.5,135.5 Z"/></g>
<g><path style="opacity:1" fill="#de3cf0" d="M 63.5,143.5 C 66.1667,143.5 68.8333,143.5 71.5,143.5C 74.1667,143.5 76.8333,143.5 79.5,143.5C 79.5,146.167 79.5,148.833 79.5,151.5C 74.1667,151.5 68.8333,151.5 63.5,151.5C 63.5,148.833 63.5,146.167 63.5,143.5 Z"/></g>
<g><path style="opacity:1" fill="#000590" d="M 223.5,143.5 C 223.5,146.167 223.5,148.833 223.5,151.5C 220.833,151.5 218.167,151.5 215.5,151.5C 215.5,148.833 215.5,146.167 215.5,143.5C 218.167,143.5 220.833,143.5 223.5,143.5 Z"/></g>
<g><path style="opacity:1" fill="#55d3f1" d="M 247.5,143.5 C 247.5,146.167 247.5,148.833 247.5,151.5C 244.833,151.5 242.167,151.5 239.5,151.5C 239.5,148.833 239.5,146.167 239.5,143.5C 242.167,143.5 244.833,143.5 247.5,143.5 Z"/></g>
<g><path style="opacity:1" fill="#de3cf0" d="M 63.5,151.5 C 63.5,154.167 63.5,156.833 63.5,159.5C 58.1667,159.5 52.8333,159.5 47.5,159.5C 47.5,156.833 47.5,154.167 47.5,151.5C 52.8333,151.5 58.1667,151.5 63.5,151.5 Z"/></g>
<g><path style="opacity:1" fill="#9620f1" d="M 63.5,151.5 C 68.8333,151.5 74.1667,151.5 79.5,151.5C 79.5,154.167 79.5,156.833 79.5,159.5C 74.1667,159.5 68.8333,159.5 63.5,159.5C 63.5,156.833 63.5,154.167 63.5,151.5 Z"/></g>
<g><path style="opacity:1" fill="#000590" d="M 79.5,151.5 C 124.833,151.5 170.167,151.5 215.5,151.5C 215.5,154.167 215.5,156.833 215.5,159.5C 170.167,159.5 124.833,159.5 79.5,159.5C 79.5,156.833 79.5,154.167 79.5,151.5 Z"/></g>
<g><path style="opacity:1" fill="#55d3f1" d="M 239.5,151.5 C 239.5,154.167 239.5,156.833 239.5,159.5C 236.833,159.5 234.167,159.5 231.5,159.5C 231.5,156.833 231.5,154.167 231.5,151.5C 234.167,151.5 236.833,151.5 239.5,151.5 Z"/></g>
<g><path style="opacity:1" fill="#9620f1" d="M 239.5,151.5 C 242.167,151.5 244.833,151.5 247.5,151.5C 247.5,170.167 247.5,188.833 247.5,207.5C 244.833,207.5 242.167,207.5 239.5,207.5C 239.5,210.167 239.5,212.833 239.5,215.5C 234.167,215.5 228.833,215.5 223.5,215.5C 223.5,218.167 223.5,220.833 223.5,223.5C 220.833,223.5 218.167,223.5 215.5,223.5C 215.5,226.167 215.5,228.833 215.5,231.5C 212.833,231.5 210.167,231.5 207.5,231.5C 207.5,234.167 207.5,236.833 207.5,239.5C 204.833,239.5 202.167,239.5 199.5,239.5C 199.5,242.167 199.5,244.833 199.5,247.5C 196.833,247.5 194.167,247.5 191.5,247.5C 191.5,244.833 191.5,242.167 191.5,239.5C 191.5,236.833 191.5,234.167 191.5,231.5C 191.5,228.833 191.5,226.167 191.5,223.5C 194.167,223.5 196.833,223.5 199.5,223.5C 202.167,223.5 204.833,223.5 207.5,223.5C 207.5,220.833 207.5,218.167 207.5,215.5C 210.167,215.5 212.833,215.5 215.5,215.5C 215.5,212.833 215.5,210.167 215.5,207.5C 218.167,207.5 220.833,207.5 223.5,207.5C 223.5,194.167 223.5,180.833 223.5,167.5C 226.167,167.5 228.833,167.5 231.5,167.5C 231.5,164.833 231.5,162.167 231.5,159.5C 234.167,159.5 236.833,159.5 239.5,159.5C 239.5,156.833 239.5,154.167 239.5,151.5 Z"/></g>
<g><path style="opacity:1" fill="#de3cf0" d="M 47.5,159.5 C 47.5,162.167 47.5,164.833 47.5,167.5C 44.8333,167.5 42.1667,167.5 39.5,167.5C 39.5,164.833 39.5,162.167 39.5,159.5C 42.1667,159.5 44.8333,159.5 47.5,159.5 Z"/></g>
<g><path style="opacity:1" fill="#feddde" d="M 47.5,159.5 C 52.8333,159.5 58.1667,159.5 63.5,159.5C 68.8333,159.5 74.1667,159.5 79.5,159.5C 124.833,159.5 170.167,159.5 215.5,159.5C 218.167,159.5 220.833,159.5 223.5,159.5C 223.5,162.167 223.5,164.833 223.5,167.5C 164.833,167.5 106.167,167.5 47.5,167.5C 47.5,164.833 47.5,162.167 47.5,159.5 Z"/></g>
<g><path style="opacity:1" fill="#55d3f1" d="M 223.5,159.5 C 226.167,159.5 228.833,159.5 231.5,159.5C 231.5,162.167 231.5,164.833 231.5,167.5C 228.833,167.5 226.167,167.5 223.5,167.5C 223.5,164.833 223.5,162.167 223.5,159.5 Z"/></g>
<g><path style="opacity:1" fill="#de3cf0" d="M 39.5,167.5 C 39.5,183.5 39.5,199.5 39.5,215.5C 36.8333,215.5 34.1667,215.5 31.5,215.5C 31.5,199.5 31.5,183.5 31.5,167.5C 34.1667,167.5 36.8333,167.5 39.5,167.5 Z"/></g>
<g><path style="opacity:1" fill="#feddde" d="M 39.5,167.5 C 42.1667,167.5 44.8333,167.5 47.5,167.5C 47.5,180.833 47.5,194.167 47.5,207.5C 52.8333,207.5 58.1667,207.5 63.5,207.5C 63.5,210.167 63.5,212.833 63.5,215.5C 58.1667,215.5 52.8333,215.5 47.5,215.5C 47.5,218.167 47.5,220.833 47.5,223.5C 42.1667,223.5 36.8333,223.5 31.5,223.5C 31.5,220.833 31.5,218.167 31.5,215.5C 34.1667,215.5 36.8333,215.5 39.5,215.5C 39.5,199.5 39.5,183.5 39.5,167.5 Z"/></g>
<g><path style="opacity:1" fill="#55d3f1" d="M 47.5,167.5 C 106.167,167.5 164.833,167.5 223.5,167.5C 223.5,180.833 223.5,194.167 223.5,207.5C 220.833,207.5 218.167,207.5 215.5,207.5C 212.833,207.5 210.167,207.5 207.5,207.5C 202.167,207.5 196.833,207.5 191.5,207.5C 188.833,207.5 186.167,207.5 183.5,207.5C 178.167,207.5 172.833,207.5 167.5,207.5C 164.833,207.5 162.167,207.5 159.5,207.5C 154.167,207.5 148.833,207.5 143.5,207.5C 140.833,207.5 138.167,207.5 135.5,207.5C 130.167,207.5 124.833,207.5 119.5,207.5C 116.833,207.5 114.167,207.5 111.5,207.5C 106.167,207.5 100.833,207.5 95.5,207.5C 90.1667,207.5 84.8333,207.5 79.5,207.5C 74.1667,207.5 68.8333,207.5 63.5,207.5C 58.1667,207.5 52.8333,207.5 47.5,207.5C 47.5,194.167 47.5,180.833 47.5,167.5 Z"/></g>
<g><path style="opacity:1" fill="#1469f1" d="M 135.5,175.5 C 135.5,178.167 135.5,180.833 135.5,183.5C 135.5,186.167 135.5,188.833 135.5,191.5C 132.833,191.5 130.167,191.5 127.5,191.5C 127.5,186.167 127.5,180.833 127.5,175.5C 130.167,175.5 132.833,175.5 135.5,175.5 Z"/></g>
<g><path style="opacity:1" fill="#9620f1" d="M 135.5,175.5 C 159.5,175.5 183.5,175.5 207.5,175.5C 207.5,178.167 207.5,180.833 207.5,183.5C 183.5,183.5 159.5,183.5 135.5,183.5C 135.5,180.833 135.5,178.167 135.5,175.5 Z"/></g>
<g><path style="opacity:1" fill="#9ae933" d="M 79.5,191.5 C 74.1667,191.5 68.8333,191.5 63.5,191.5C 63.5,188.833 63.5,186.167 63.5,183.5C 68.8333,183.5 74.1667,183.5 79.5,183.5C 79.5,186.167 79.5,188.833 79.5,191.5 Z"/></g>
<g><path style="opacity:1" fill="#000590" d="M 135.5,183.5 C 159.5,183.5 183.5,183.5 207.5,183.5C 207.5,186.167 207.5,188.833 207.5,191.5C 199.5,191.5 191.5,191.5 183.5,191.5C 172.833,191.5 162.167,191.5 151.5,191.5C 146.167,191.5 140.833,191.5 135.5,191.5C 135.5,188.833 135.5,186.167 135.5,183.5 Z"/></g>
<g><path style="opacity:1" fill="#00b359" d="M 63.5,191.5 C 68.8333,191.5 74.1667,191.5 79.5,191.5C 79.5,194.167 79.5,196.833 79.5,199.5C 74.1667,199.5 68.8333,199.5 63.5,199.5C 63.5,196.833 63.5,194.167 63.5,191.5 Z"/></g>
<g><path style="opacity:1" fill="#1469f1" d="M 151.5,191.5 C 162.167,191.5 172.833,191.5 183.5,191.5C 183.5,194.167 183.5,196.833 183.5,199.5C 172.833,199.5 162.167,199.5 151.5,199.5C 151.5,196.833 151.5,194.167 151.5,191.5 Z"/></g>
<g><path style="opacity:1" fill="#9620f1" d="M 63.5,207.5 C 68.8333,207.5 74.1667,207.5 79.5,207.5C 79.5,210.167 79.5,212.833 79.5,215.5C 76.8333,215.5 74.1667,215.5 71.5,215.5C 68.8333,215.5 66.1667,215.5 63.5,215.5C 63.5,212.833 63.5,210.167 63.5,207.5 Z"/></g>
<g><path style="opacity:1" fill="#feddde" d="M 79.5,207.5 C 84.8333,207.5 90.1667,207.5 95.5,207.5C 95.5,210.167 95.5,212.833 95.5,215.5C 92.8333,215.5 90.1667,215.5 87.5,215.5C 87.5,218.167 87.5,220.833 87.5,223.5C 82.1667,223.5 76.8333,223.5 71.5,223.5C 71.5,220.833 71.5,218.167 71.5,215.5C 74.1667,215.5 76.8333,215.5 79.5,215.5C 79.5,212.833 79.5,210.167 79.5,207.5 Z"/></g>
<g><path style="opacity:1" fill="#9620f1" d="M 95.5,207.5 C 100.833,207.5 106.167,207.5 111.5,207.5C 111.5,210.167 111.5,212.833 111.5,215.5C 108.833,215.5 106.167,215.5 103.5,215.5C 100.833,215.5 98.1667,215.5 95.5,215.5C 95.5,212.833 95.5,210.167 95.5,207.5 Z"/></g>
<g><path style="opacity:1" fill="#feddde" d="M 111.5,207.5 C 114.167,207.5 116.833,207.5 119.5,207.5C 119.5,210.167 119.5,212.833 119.5,215.5C 116.833,215.5 114.167,215.5 111.5,215.5C 111.5,212.833 111.5,210.167 111.5,207.5 Z"/></g>
<g><path style="opacity:1" fill="#9620f1" d="M 119.5,207.5 C 124.833,207.5 130.167,207.5 135.5,207.5C 135.5,210.167 135.5,212.833 135.5,215.5C 132.833,215.5 130.167,215.5 127.5,215.5C 124.833,215.5 122.167,215.5 119.5,215.5C 119.5,212.833 119.5,210.167 119.5,207.5 Z"/></g>
<g><path style="opacity:1" fill="#feddde" d="M 135.5,207.5 C 138.167,207.5 140.833,207.5 143.5,207.5C 143.5,210.167 143.5,212.833 143.5,215.5C 140.833,215.5 138.167,215.5 135.5,215.5C 135.5,212.833 135.5,210.167 135.5,207.5 Z"/></g>
<g><path style="opacity:1" fill="#9620f1" d="M 143.5,207.5 C 148.833,207.5 154.167,207.5 159.5,207.5C 159.5,210.167 159.5,212.833 159.5,215.5C 156.833,215.5 154.167,215.5 151.5,215.5C 148.833,215.5 146.167,215.5 143.5,215.5C 143.5,212.833 143.5,210.167 143.5,207.5 Z"/></g>
<g><path style="opacity:1" fill="#feddde" d="M 159.5,207.5 C 162.167,207.5 164.833,207.5 167.5,207.5C 167.5,210.167 167.5,212.833 167.5,215.5C 164.833,215.5 162.167,215.5 159.5,215.5C 159.5,212.833 159.5,210.167 159.5,207.5 Z"/></g>
<g><path style="opacity:1" fill="#9620f1" d="M 167.5,207.5 C 172.833,207.5 178.167,207.5 183.5,207.5C 183.5,210.167 183.5,212.833 183.5,215.5C 180.833,215.5 178.167,215.5 175.5,215.5C 172.833,215.5 170.167,215.5 167.5,215.5C 167.5,212.833 167.5,210.167 167.5,207.5 Z"/></g>
<g><path style="opacity:1" fill="#feddde" d="M 183.5,207.5 C 186.167,207.5 188.833,207.5 191.5,207.5C 191.5,210.167 191.5,212.833 191.5,215.5C 188.833,215.5 186.167,215.5 183.5,215.5C 183.5,212.833 183.5,210.167 183.5,207.5 Z"/></g>
<g><path style="opacity:1" fill="#9620f1" d="M 191.5,207.5 C 196.833,207.5 202.167,207.5 207.5,207.5C 207.5,210.167 207.5,212.833 207.5,215.5C 204.833,215.5 202.167,215.5 199.5,215.5C 196.833,215.5 194.167,215.5 191.5,215.5C 191.5,212.833 191.5,210.167 191.5,207.5 Z"/></g>
<g><path style="opacity:1" fill="#feddde" d="M 207.5,207.5 C 210.167,207.5 212.833,207.5 215.5,207.5C 215.5,210.167 215.5,212.833 215.5,215.5C 212.833,215.5 210.167,215.5 207.5,215.5C 207.5,212.833 207.5,210.167 207.5,207.5 Z"/></g>
<g><path style="opacity:1" fill="#000590" d="M 247.5,207.5 C 247.5,210.167 247.5,212.833 247.5,215.5C 244.833,215.5 242.167,215.5 239.5,215.5C 239.5,212.833 239.5,210.167 239.5,207.5C 242.167,207.5 244.833,207.5 247.5,207.5 Z"/></g>
<g><path style="opacity:1" fill="#de3cf0" d="M 31.5,215.5 C 31.5,218.167 31.5,220.833 31.5,223.5C 26.1667,223.5 20.8333,223.5 15.5,223.5C 15.5,220.833 15.5,218.167 15.5,215.5C 20.8333,215.5 26.1667,215.5 31.5,215.5 Z"/></g>
<g><path style="opacity:1" fill="#9620f1" d="M 63.5,215.5 C 63.5,218.167 63.5,220.833 63.5,223.5C 60.8333,223.5 58.1667,223.5 55.5,223.5C 55.5,226.167 55.5,228.833 55.5,231.5C 47.5,231.5 39.5,231.5 31.5,231.5C 31.5,228.833 31.5,226.167 31.5,223.5C 36.8333,223.5 42.1667,223.5 47.5,223.5C 47.5,220.833 47.5,218.167 47.5,215.5C 52.8333,215.5 58.1667,215.5 63.5,215.5 Z"/></g>
<g><path style="opacity:1" fill="#000590" d="M 63.5,215.5 C 66.1667,215.5 68.8333,215.5 71.5,215.5C 71.5,218.167 71.5,220.833 71.5,223.5C 68.8333,223.5 66.1667,223.5 63.5,223.5C 63.5,220.833 63.5,218.167 63.5,215.5 Z"/></g>
<g><path style="opacity:1" fill="#9620f1" d="M 95.5,215.5 C 95.5,218.167 95.5,220.833 95.5,223.5C 92.8333,223.5 90.1667,223.5 87.5,223.5C 87.5,220.833 87.5,218.167 87.5,215.5C 90.1667,215.5 92.8333,215.5 95.5,215.5 Z"/></g>
<g><path style="opacity:1" fill="#000590" d="M 95.5,215.5 C 98.1667,215.5 100.833,215.5 103.5,215.5C 103.5,218.167 103.5,220.833 103.5,223.5C 100.833,223.5 98.1667,223.5 95.5,223.5C 95.5,220.833 95.5,218.167 95.5,215.5 Z"/></g>
<g><path style="opacity:1" fill="#feddde" d="M 103.5,215.5 C 106.167,215.5 108.833,215.5 111.5,215.5C 111.5,218.167 111.5,220.833 111.5,223.5C 108.833,223.5 106.167,223.5 103.5,223.5C 103.5,220.833 103.5,218.167 103.5,215.5 Z"/></g>
<g><path style="opacity:1" fill="#9620f1" d="M 111.5,215.5 C 114.167,215.5 116.833,215.5 119.5,215.5C 119.5,218.167 119.5,220.833 119.5,223.5C 116.833,223.5 114.167,223.5 111.5,223.5C 111.5,220.833 111.5,218.167 111.5,215.5 Z"/></g>
<g><path style="opacity:1" fill="#000590" d="M 119.5,215.5 C 122.167,215.5 124.833,215.5 127.5,215.5C 127.5,218.167 127.5,220.833 127.5,223.5C 124.833,223.5 122.167,223.5 119.5,223.5C 119.5,220.833 119.5,218.167 119.5,215.5 Z"/></g>
<g><path style="opacity:1" fill="#feddde" d="M 127.5,215.5 C 130.167,215.5 132.833,215.5 135.5,215.5C 135.5,218.167 135.5,220.833 135.5,223.5C 132.833,223.5 130.167,223.5 127.5,223.5C 127.5,220.833 127.5,218.167 127.5,215.5 Z"/></g>
<g><path style="opacity:1" fill="#9620f1" d="M 135.5,215.5 C 138.167,215.5 140.833,215.5 143.5,215.5C 143.5,218.167 143.5,220.833 143.5,223.5C 140.833,223.5 138.167,223.5 135.5,223.5C 135.5,220.833 135.5,218.167 135.5,215.5 Z"/></g>
<g><path style="opacity:1" fill="#000590" d="M 143.5,215.5 C 146.167,215.5 148.833,215.5 151.5,215.5C 151.5,218.167 151.5,220.833 151.5,223.5C 148.833,223.5 146.167,223.5 143.5,223.5C 143.5,220.833 143.5,218.167 143.5,215.5 Z"/></g>
<g><path style="opacity:1" fill="#feddde" d="M 151.5,215.5 C 154.167,215.5 156.833,215.5 159.5,215.5C 159.5,218.167 159.5,220.833 159.5,223.5C 156.833,223.5 154.167,223.5 151.5,223.5C 151.5,220.833 151.5,218.167 151.5,215.5 Z"/></g>
<g><path style="opacity:1" fill="#9620f1" d="M 159.5,215.5 C 162.167,215.5 164.833,215.5 167.5,215.5C 167.5,218.167 167.5,220.833 167.5,223.5C 164.833,223.5 162.167,223.5 159.5,223.5C 159.5,220.833 159.5,218.167 159.5,215.5 Z"/></g>
<g><path style="opacity:1" fill="#000590" d="M 167.5,215.5 C 170.167,215.5 172.833,215.5 175.5,215.5C 175.5,218.167 175.5,220.833 175.5,223.5C 172.833,223.5 170.167,223.5 167.5,223.5C 167.5,220.833 167.5,218.167 167.5,215.5 Z"/></g>
<g><path style="opacity:1" fill="#feddde" d="M 175.5,215.5 C 178.167,215.5 180.833,215.5 183.5,215.5C 183.5,218.167 183.5,220.833 183.5,223.5C 180.833,223.5 178.167,223.5 175.5,223.5C 175.5,220.833 175.5,218.167 175.5,215.5 Z"/></g>
<g><path style="opacity:1" fill="#9620f1" d="M 183.5,215.5 C 186.167,215.5 188.833,215.5 191.5,215.5C 191.5,218.167 191.5,220.833 191.5,223.5C 188.833,223.5 186.167,223.5 183.5,223.5C 183.5,220.833 183.5,218.167 183.5,215.5 Z"/></g>
<g><path style="opacity:1" fill="#000590" d="M 191.5,215.5 C 194.167,215.5 196.833,215.5 199.5,215.5C 199.5,218.167 199.5,220.833 199.5,223.5C 196.833,223.5 194.167,223.5 191.5,223.5C 191.5,220.833 191.5,218.167 191.5,215.5 Z"/></g>
<g><path style="opacity:1" fill="#feddde" d="M 199.5,215.5 C 202.167,215.5 204.833,215.5 207.5,215.5C 207.5,218.167 207.5,220.833 207.5,223.5C 204.833,223.5 202.167,223.5 199.5,223.5C 199.5,220.833 199.5,218.167 199.5,215.5 Z"/></g>
<g><path style="opacity:1" fill="#000590" d="M 239.5,215.5 C 239.5,218.167 239.5,220.833 239.5,223.5C 234.167,223.5 228.833,223.5 223.5,223.5C 223.5,220.833 223.5,218.167 223.5,215.5C 228.833,215.5 234.167,215.5 239.5,215.5 Z"/></g>
<g><path style="opacity:1" fill="#de3cf0" d="M -0.5,223.5 C 4.83333,223.5 10.1667,223.5 15.5,223.5C 15.5,226.167 15.5,228.833 15.5,231.5C 12.8333,231.5 10.1667,231.5 7.5,231.5C 7.5,236.833 7.5,242.167 7.5,247.5C 4.83333,247.5 2.16667,247.5 -0.5,247.5C -0.5,239.5 -0.5,231.5 -0.5,223.5 Z"/></g>
<g><path style="opacity:1" fill="#feddde" d="M 15.5,223.5 C 20.8333,223.5 26.1667,223.5 31.5,223.5C 31.5,226.167 31.5,228.833 31.5,231.5C 39.5,231.5 47.5,231.5 55.5,231.5C 58.1667,231.5 60.8333,231.5 63.5,231.5C 71.5,231.5 79.5,231.5 87.5,231.5C 90.1667,231.5 92.8333,231.5 95.5,231.5C 100.833,231.5 106.167,231.5 111.5,231.5C 114.167,231.5 116.833,231.5 119.5,231.5C 124.833,231.5 130.167,231.5 135.5,231.5C 138.167,231.5 140.833,231.5 143.5,231.5C 148.833,231.5 154.167,231.5 159.5,231.5C 162.167,231.5 164.833,231.5 167.5,231.5C 172.833,231.5 178.167,231.5 183.5,231.5C 186.167,231.5 188.833,231.5 191.5,231.5C 191.5,234.167 191.5,236.833 191.5,239.5C 132.833,239.5 74.1667,239.5 15.5,239.5C 15.5,242.167 15.5,244.833 15.5,247.5C 12.8333,247.5 10.1667,247.5 7.5,247.5C 7.5,242.167 7.5,236.833 7.5,231.5C 10.1667,231.5 12.8333,231.5 15.5,231.5C 15.5,228.833 15.5,226.167 15.5,223.5 Z"/></g>
<g><path style="opacity:1" fill="#000590" d="M 63.5,223.5 C 63.5,226.167 63.5,228.833 63.5,231.5C 60.8333,231.5 58.1667,231.5 55.5,231.5C 55.5,228.833 55.5,226.167 55.5,223.5C 58.1667,223.5 60.8333,223.5 63.5,223.5 Z"/></g>
<g><path style="opacity:1" fill="#9620f1" d="M 63.5,223.5 C 66.1667,223.5 68.8333,223.5 71.5,223.5C 76.8333,223.5 82.1667,223.5 87.5,223.5C 87.5,226.167 87.5,228.833 87.5,231.5C 79.5,231.5 71.5,231.5 63.5,231.5C 63.5,228.833 63.5,226.167 63.5,223.5 Z"/></g>
<g><path style="opacity:1" fill="#000590" d="M 87.5,223.5 C 90.1667,223.5 92.8333,223.5 95.5,223.5C 95.5,226.167 95.5,228.833 95.5,231.5C 92.8333,231.5 90.1667,231.5 87.5,231.5C 87.5,228.833 87.5,226.167 87.5,223.5 Z"/></g>
<g><path style="opacity:1" fill="#9620f1" d="M 95.5,223.5 C 98.1667,223.5 100.833,223.5 103.5,223.5C 106.167,223.5 108.833,223.5 111.5,223.5C 111.5,226.167 111.5,228.833 111.5,231.5C 106.167,231.5 100.833,231.5 95.5,231.5C 95.5,228.833 95.5,226.167 95.5,223.5 Z"/></g>
<g><path style="opacity:1" fill="#000590" d="M 111.5,223.5 C 114.167,223.5 116.833,223.5 119.5,223.5C 119.5,226.167 119.5,228.833 119.5,231.5C 116.833,231.5 114.167,231.5 111.5,231.5C 111.5,228.833 111.5,226.167 111.5,223.5 Z"/></g>
<g><path style="opacity:1" fill="#9620f1" d="M 119.5,223.5 C 122.167,223.5 124.833,223.5 127.5,223.5C 130.167,223.5 132.833,223.5 135.5,223.5C 135.5,226.167 135.5,228.833 135.5,231.5C 130.167,231.5 124.833,231.5 119.5,231.5C 119.5,228.833 119.5,226.167 119.5,223.5 Z"/></g>
<g><path style="opacity:1" fill="#000590" d="M 135.5,223.5 C 138.167,223.5 140.833,223.5 143.5,223.5C 143.5,226.167 143.5,228.833 143.5,231.5C 140.833,231.5 138.167,231.5 135.5,231.5C 135.5,228.833 135.5,226.167 135.5,223.5 Z"/></g>
<g><path style="opacity:1" fill="#9620f1" d="M 143.5,223.5 C 146.167,223.5 148.833,223.5 151.5,223.5C 154.167,223.5 156.833,223.5 159.5,223.5C 159.5,226.167 159.5,228.833 159.5,231.5C 154.167,231.5 148.833,231.5 143.5,231.5C 143.5,228.833 143.5,226.167 143.5,223.5 Z"/></g>
<g><path style="opacity:1" fill="#000590" d="M 159.5,223.5 C 162.167,223.5 164.833,223.5 167.5,223.5C 167.5,226.167 167.5,228.833 167.5,231.5C 164.833,231.5 162.167,231.5 159.5,231.5C 159.5,228.833 159.5,226.167 159.5,223.5 Z"/></g>
<g><path style="opacity:1" fill="#9620f1" d="M 167.5,223.5 C 170.167,223.5 172.833,223.5 175.5,223.5C 178.167,223.5 180.833,223.5 183.5,223.5C 183.5,226.167 183.5,228.833 183.5,231.5C 178.167,231.5 172.833,231.5 167.5,231.5C 167.5,228.833 167.5,226.167 167.5,223.5 Z"/></g>
<g><path style="opacity:1" fill="#000590" d="M 183.5,223.5 C 186.167,223.5 188.833,223.5 191.5,223.5C 191.5,226.167 191.5,228.833 191.5,231.5C 188.833,231.5 186.167,231.5 183.5,231.5C 183.5,228.833 183.5,226.167 183.5,223.5 Z"/></g>
<g><path style="opacity:1" fill="#000590" d="M 223.5,223.5 C 223.5,226.167 223.5,228.833 223.5,231.5C 220.833,231.5 218.167,231.5 215.5,231.5C 215.5,228.833 215.5,226.167 215.5,223.5C 218.167,223.5 220.833,223.5 223.5,223.5 Z"/></g>
<g><path style="opacity:1" fill="#000590" d="M 215.5,231.5 C 215.5,234.167 215.5,236.833 215.5,239.5C 212.833,239.5 210.167,239.5 207.5,239.5C 207.5,236.833 207.5,234.167 207.5,231.5C 210.167,231.5 212.833,231.5 215.5,231.5 Z"/></g>
<g><path style="opacity:1" fill="#55d3f1" d="M 191.5,239.5 C 191.5,242.167 191.5,244.833 191.5,247.5C 132.833,247.5 74.1667,247.5 15.5,247.5C 15.5,244.833 15.5,242.167 15.5,239.5C 74.1667,239.5 132.833,239.5 191.5,239.5 Z"/></g>
<g><path style="opacity:1" fill="#000590" d="M 207.5,239.5 C 207.5,242.167 207.5,244.833 207.5,247.5C 204.833,247.5 202.167,247.5 199.5,247.5C 199.5,244.833 199.5,242.167 199.5,239.5C 202.167,239.5 204.833,239.5 207.5,239.5 Z"/></g>
<g><path style="opacity:1" fill="#de3cf0" d="M 7.5,247.5 C 10.1667,247.5 12.8333,247.5 15.5,247.5C 15.5,250.167 15.5,252.833 15.5,255.5C 12.8333,255.5 10.1667,255.5 7.5,255.5C 7.5,252.833 7.5,250.167 7.5,247.5 Z"/></g>
<g><path style="opacity:1" fill="#000590" d="M 15.5,247.5 C 74.1667,247.5 132.833,247.5 191.5,247.5C 194.167,247.5 196.833,247.5 199.5,247.5C 199.5,250.167 199.5,252.833 199.5,255.5C 138.167,255.5 76.8333,255.5 15.5,255.5C 15.5,252.833 15.5,250.167 15.5,247.5 Z"/></g>
</svg>
