<?xml version="1.0" encoding="UTF-8"?>
<!DOCTYPE svg PUBLIC "-//W3C//DTD SVG 1.1//EN" "http://www.w3.org/Graphics/SVG/1.1/DTD/svg11.dtd">
<svg xmlns="http://www.w3.org/2000/svg" version="1.1" width="512px" height="512px" style="shape-rendering:geometricPrecision; text-rendering:geometricPrecision; image-rendering:optimizeQuality; fill-rule:evenodd; clip-rule:evenodd" xmlns:xlink="http://www.w3.org/1999/xlink">
<g><path style="opacity:1" fill="#de3cf0" d="M 271.5,79.5 C 271.5,84.8333 271.5,90.1667 271.5,95.5C 266.167,95.5 260.833,95.5 255.5,95.5C 250.167,95.5 244.833,95.5 239.5,95.5C 239.5,90.1667 239.5,84.8333 239.5,79.5C 250.167,79.5 260.833,79.5 271.5,79.5 Z"/></g>
<g><path style="opacity:1" fill="#000590" d="M 271.5,79.5 C 282.167,79.5 292.833,79.5 303.5,79.5C 303.5,84.8333 303.5,90.1667 303.5,95.5C 298.167,95.5 292.833,95.5 287.5,95.5C 282.167,95.5 276.833,95.5 271.5,95.5C 271.5,90.1667 271.5,84.8333 271.5,79.5 Z"/></g>
<g><path style="opacity:1" fill="#de3cf0" d="M 239.5,95.5 C 239.5,100.833 239.5,106.167 239.5,111.5C 234.167,111.5 228.833,111.5 223.5,111.5C 223.5,106.167 223.5,100.833 223.5,95.5C 228.833,95.5 234.167,95.5 239.5,95.5 Z"/></g>
<g><path style="opacity:1" fill="#feb7dd" d="M 239.5,95.5 C 244.833,95.5 250.167,95.5 255.5,95.5C 255.5,100.833 255.5,106.167 255.5,111.5C 250.167,111.5 244.833,111.5 239.5,111.5C 239.5,106.167 239.5,100.833 239.5,95.5 Z"/></g>
<g><path style="opacity:1" fill="#55d3f1" d="M 255.5,95.5 C 260.833,95.5 266.167,95.5 271.5,95.5C 276.833,95.5 282.167,95.5 287.5,95.5C 287.5,100.833 287.5,106.167 287.5,111.5C 287.5,116.833 287.5,122.167 287.5,127.5C 292.833,127.5 298.167,127.5 303.5,127.5C 303.5,132.833 303.5,138.167 303.5,143.5C 271.5,143.5 239.5,143.5 207.5,143.5C 207.5,138.167 207.5,132.833 207.5,127.5C 212.833,127.5 218.167,127.5 223.5,127.5C 228.833,127.5 234.167,127.5 239.5,127.5C 239.5,122.167 239.5,116.833 239.5,111.5C 244.833,111.5 250.167,111.5 255.5,111.5C 255.5,106.167 255.5,100.833 255.5,95.5 Z"/></g>
<g><path style="opacity:1" fill="#9620f1" d="M 287.5,95.5 C 292.833,95.5 298.167,95.5 303.5,95.5C 303.5,100.833 303.5,106.167 303.5,111.5C 298.167,111.5 292.833,111.5 287.5,111.5C 287.5,106.167 287.5,100.833 287.5,95.5 Z"/></g>
<g><path style="opacity:1" fill="#000590" d="M 303.5,95.5 C 308.833,95.5 314.167,95.5 319.5,95.5C 319.5,100.833 319.5,106.167 319.5,111.5C 314.167,111.5 308.833,111.5 303.5,111.5C 303.5,106.167 303.5,100.833 303.5,95.5 Z"/></g>
<g><path style="opacity:1" fill="#de3cf0" d="M 143.5,127.5 C 138.167,127.5 132.833,127.5 127.5,127.5C 122.167,127.5 116.833,127.5 111.5,127.5C 111.5,122.167 111.5,116.833 111.5,111.5C 122.167,111.5 132.833,111.5 143.5,111.5C 143.5,116.833 143.5,122.167 143.5,127.5 Z"/></g>
<g><path style="opacity:1" fill="#de3cf0" d="M 223.5,111.5 C 223.5,116.833 223.5,122.167 223.5,127.5C 218.167,127.5 212.833,127.5 207.5,127.5C 207.5,122.167 207.5,116.833 207.5,111.5C 212.833,111.5 218.167,111.5 223.5,111.5 Z"/></g>
<g><path style="opacity:1" fill="#feb7dd" d="M 223.5,111.5 C 228.833,111.5 234.167,111.5 239.5,111.5C 239.5,116.833 239.5,122.167 239.5,127.5C 234.167,127.5 228.833,127.5 223.5,127.5C 223.5,122.167 223.5,116.833 223.5,111.5 Z"/></g>
<g><path style="opacity:1" fill="#000590" d="M 287.5,111.5 C 292.833,111.5 298.167,111.5 303.5,111.5C 303.5,116.833 303.5,122.167 303.5,127.5C 298.167,127.5 292.833,127.5 287.5,127.5C 287.5,122.167 287.5,116.833 287.5,111.5 Z"/></g>
<g><path style="opacity:1" fill="#9620f1" d="M 303.5,111.5 C 308.833,111.5 314.167,111.5 319.5,111.5C 319.5,116.833 319.5,122.167 319.5,127.5C 314.167,127.5 308.833,127.5 303.5,127.5C 303.5,122.167 303.5,116.833 303.5,111.5 Z"/></g>
<g><path style="opacity:1" fill="#000590" d="M 319.5,111.5 C 324.833,111.5 330.167,111.5 335.5,111.5C 335.5,116.833 335.5,122.167 335.5,127.5C 346.167,127.5 356.833,127.5 367.5,127.5C 367.5,132.833 367.5,138.167 367.5,143.5C 383.5,143.5 399.5,143.5 415.5,143.5C 420.833,143.5 426.167,143.5 431.5,143.5C 431.5,148.833 431.5,154.167 431.5,159.5C 404.833,159.5 378.167,159.5 351.5,159.5C 351.5,154.167 351.5,148.833 351.5,143.5C 346.167,143.5 340.833,143.5 335.5,143.5C 330.167,143.5 324.833,143.5 319.5,143.5C 319.5,148.833 319.5,154.167 319.5,159.5C 314.167,159.5 308.833,159.5 303.5,159.5C 303.5,154.167 303.5,148.833 303.5,143.5C 303.5,138.167 303.5,132.833 303.5,127.5C 308.833,127.5 314.167,127.5 319.5,127.5C 319.5,122.167 319.5,116.833 319.5,111.5 Z"/></g>
<g><path style="opacity:1" fill="#000590" d="M 431.5,127.5 C 426.167,127.5 420.833,127.5 415.5,127.5C 399.5,127.5 383.5,127.5 367.5,127.5C 367.5,122.167 367.5,116.833 367.5,111.5C 388.833,111.5 410.167,111.5 431.5,111.5C 431.5,116.833 431.5,122.167 431.5,127.5 Z"/></g>
<g><path style="opacity:1" fill="#de3cf0" d="M 111.5,127.5 C 111.5,132.833 111.5,138.167 111.5,143.5C 111.5,148.833 111.5,154.167 111.5,159.5C 106.167,159.5 100.833,159.5 95.5,159.5C 95.5,154.167 95.5,148.833 95.5,143.5C 90.1667,143.5 84.8333,143.5 79.5,143.5C 79.5,138.167 79.5,132.833 79.5,127.5C 90.1667,127.5 100.833,127.5 111.5,127.5 Z"/></g>
<g><path style="opacity:1" fill="#feb7dd" d="M 111.5,127.5 C 116.833,127.5 122.167,127.5 127.5,127.5C 127.5,132.833 127.5,138.167 127.5,143.5C 122.167,143.5 116.833,143.5 111.5,143.5C 111.5,138.167 111.5,132.833 111.5,127.5 Z"/></g>
<g><path style="opacity:1" fill="#9620f1" d="M 127.5,127.5 C 132.833,127.5 138.167,127.5 143.5,127.5C 143.5,132.833 143.5,138.167 143.5,143.5C 138.167,143.5 132.833,143.5 127.5,143.5C 127.5,138.167 127.5,132.833 127.5,127.5 Z"/></g>
<g><path style="opacity:1" fill="#000590" d="M 143.5,127.5 C 159.5,127.5 175.5,127.5 191.5,127.5C 191.5,132.833 191.5,138.167 191.5,143.5C 180.833,143.5 170.167,143.5 159.5,143.5C 154.167,143.5 148.833,143.5 143.5,143.5C 143.5,138.167 143.5,132.833 143.5,127.5 Z"/></g>
<g><path style="opacity:1" fill="#de3cf0" d="M 191.5,127.5 C 196.833,127.5 202.167,127.5 207.5,127.5C 207.5,132.833 207.5,138.167 207.5,143.5C 207.5,148.833 207.5,154.167 207.5,159.5C 202.167,159.5 196.833,159.5 191.5,159.5C 191.5,154.167 191.5,148.833 191.5,143.5C 191.5,138.167 191.5,132.833 191.5,127.5 Z"/></g>
<g><path style="opacity:1" fill="#feb7dd" d="M 367.5,127.5 C 383.5,127.5 399.5,127.5 415.5,127.5C 415.5,132.833 415.5,138.167 415.5,143.5C 399.5,143.5 383.5,143.5 367.5,143.5C 367.5,138.167 367.5,132.833 367.5,127.5 Z"/></g>
<g><path style="opacity:1" fill="#9620f1" d="M 415.5,127.5 C 420.833,127.5 426.167,127.5 431.5,127.5C 431.5,132.833 431.5,138.167 431.5,143.5C 426.167,143.5 420.833,143.5 415.5,143.5C 415.5,138.167 415.5,132.833 415.5,127.5 Z"/></g>
<g><path style="opacity:1" fill="#000590" d="M 431.5,127.5 C 447.5,127.5 463.5,127.5 479.5,127.5C 479.5,132.833 479.5,138.167 479.5,143.5C 474.167,143.5 468.833,143.5 463.5,143.5C 458.167,143.5 452.833,143.5 447.5,143.5C 442.167,143.5 436.833,143.5 431.5,143.5C 431.5,138.167 431.5,132.833 431.5,127.5 Z"/></g>
<g><path style="opacity:1" fill="#de3cf0" d="M 79.5,143.5 C 79.5,148.833 79.5,154.167 79.5,159.5C 74.1667,159.5 68.8333,159.5 63.5,159.5C 63.5,154.167 63.5,148.833 63.5,143.5C 68.8333,143.5 74.1667,143.5 79.5,143.5 Z"/></g>
<g><path style="opacity:1" fill="#55d3f1" d="M 79.5,143.5 C 84.8333,143.5 90.1667,143.5 95.5,143.5C 95.5,148.833 95.5,154.167 95.5,159.5C 90.1667,159.5 84.8333,159.5 79.5,159.5C 79.5,154.167 79.5,148.833 79.5,143.5 Z"/></g>
<g><path style="opacity:1" fill="#000590" d="M 111.5,143.5 C 116.833,143.5 122.167,143.5 127.5,143.5C 132.833,143.5 138.167,143.5 143.5,143.5C 143.5,148.833 143.5,154.167 143.5,159.5C 132.833,159.5 122.167,159.5 111.5,159.5C 111.5,154.167 111.5,148.833 111.5,143.5 Z"/></g>
<g><path style="opacity:1" fill="#9620f1" d="M 143.5,143.5 C 148.833,143.5 154.167,143.5 159.5,143.5C 159.5,148.833 159.5,154.167 159.5,159.5C 154.167,159.5 148.833,159.5 143.5,159.5C 143.5,154.167 143.5,148.833 143.5,143.5 Z"/></g>
<g><path style="opacity:1" fill="#55d3f1" d="M 159.5,143.5 C 170.167,143.5 180.833,143.5 191.5,143.5C 191.5,148.833 191.5,154.167 191.5,159.5C 180.833,159.5 170.167,159.5 159.5,159.5C 159.5,154.167 159.5,148.833 159.5,143.5 Z"/></g>
<g><path style="opacity:1" fill="#9620f1" d="M 207.5,143.5 C 239.5,143.5 271.5,143.5 303.5,143.5C 303.5,148.833 303.5,154.167 303.5,159.5C 271.5,159.5 239.5,159.5 207.5,159.5C 207.5,154.167 207.5,148.833 207.5,143.5 Z"/></g>
<g><path style="opacity:1" fill="#9620f1" d="M 335.5,143.5 C 335.5,148.833 335.5,154.167 335.5,159.5C 330.167,159.5 324.833,159.5 319.5,159.5C 319.5,154.167 319.5,148.833 319.5,143.5C 324.833,143.5 330.167,143.5 335.5,143.5 Z"/></g>
<g><path style="opacity:1" fill="#55d3f1" d="M 335.5,143.5 C 340.833,143.5 346.167,143.5 351.5,143.5C 351.5,148.833 351.5,154.167 351.5,159.5C 346.167,159.5 340.833,159.5 335.5,159.5C 335.5,154.167 335.5,148.833 335.5,143.5 Z"/></g>
<g><path style="opacity:1" fill="#9620f1" d="M 431.5,143.5 C 436.833,143.5 442.167,143.5 447.5,143.5C 447.5,148.833 447.5,154.167 447.5,159.5C 442.167,159.5 436.833,159.5 431.5,159.5C 431.5,154.167 431.5,148.833 431.5,143.5 Z"/></g>
<g><path style="opacity:1" fill="#55d3f1" d="M 447.5,143.5 C 452.833,143.5 458.167,143.5 463.5,143.5C 463.5,148.833 463.5,154.167 463.5,159.5C 458.167,159.5 452.833,159.5 447.5,159.5C 447.5,154.167 447.5,148.833 447.5,143.5 Z"/></g>
<g><path style="opacity:1" fill="#9620f1" d="M 463.5,143.5 C 468.833,143.5 474.167,143.5 479.5,143.5C 479.5,164.833 479.5,186.167 479.5,207.5C 474.167,207.5 468.833,207.5 463.5,207.5C 463.5,212.833 463.5,218.167 463.5,223.5C 458.167,223.5 452.833,223.5 447.5,223.5C 447.5,207.5 447.5,191.5 447.5,175.5C 447.5,170.167 447.5,164.833 447.5,159.5C 452.833,159.5 458.167,159.5 463.5,159.5C 463.5,154.167 463.5,148.833 463.5,143.5 Z"/></g>
<g><path style="opacity:1" fill="#000590" d="M 479.5,143.5 C 484.833,143.5 490.167,143.5 495.5,143.5C 495.5,228.833 495.5,314.167 495.5,399.5C 490.167,399.5 484.833,399.5 479.5,399.5C 479.5,404.833 479.5,410.167 479.5,415.5C 474.167,415.5 468.833,415.5 463.5,415.5C 463.5,420.833 463.5,426.167 463.5,431.5C 458.167,431.5 452.833,431.5 447.5,431.5C 447.5,426.167 447.5,420.833 447.5,415.5C 442.167,415.5 436.833,415.5 431.5,415.5C 431.5,410.167 431.5,404.833 431.5,399.5C 436.833,399.5 442.167,399.5 447.5,399.5C 447.5,394.167 447.5,388.833 447.5,383.5C 442.167,383.5 436.833,383.5 431.5,383.5C 431.5,378.167 431.5,372.833 431.5,367.5C 436.833,367.5 442.167,367.5 447.5,367.5C 447.5,362.167 447.5,356.833 447.5,351.5C 442.167,351.5 436.833,351.5 431.5,351.5C 431.5,346.167 431.5,340.833 431.5,335.5C 436.833,335.5 442.167,335.5 447.5,335.5C 447.5,330.167 447.5,324.833 447.5,319.5C 442.167,319.5 436.833,319.5 431.5,319.5C 431.5,314.167 431.5,308.833 431.5,303.5C 436.833,303.5 442.167,303.5 447.5,303.5C 447.5,298.167 447.5,292.833 447.5,287.5C 442.167,287.5 436.833,287.5 431.5,287.5C 431.5,282.167 431.5,276.833 431.5,271.5C 436.833,271.5 442.167,271.5 447.5,271.5C 447.5,266.167 447.5,260.833 447.5,255.5C 442.167,255.5 436.833,255.5 431.5,255.5C 431.5,250.167 431.5,244.833 431.5,239.5C 426.167,239.5 420.833,239.5 415.5,239.5C 415.5,244.833 415.5,250.167 415.5,255.5C 410.167,255.5 404.833,255.5 399.5,255.5C 399.5,250.167 399.5,244.833 399.5,239.5C 394.167,239.5 388.833,239.5 383.5,239.5C 383.5,244.833 383.5,250.167 383.5,255.5C 378.167,255.5 372.833,255.5 367.5,255.5C 367.5,250.167 367.5,244.833 367.5,239.5C 362.167,239.5 356.833,239.5 351.5,239.5C 351.5,244.833 351.5,250.167 351.5,255.5C 346.167,255.5 340.833,255.5 335.5,255.5C 335.5,250.167 335.5,244.833 335.5,239.5C 330.167,239.5 324.833,239.5 319.5,239.5C 319.5,234.167 319.5,228.833 319.5,223.5C 362.167,223.5 404.833,223.5 447.5,223.5C 452.833,223.5 458.167,223.5 463.5,223.5C 463.5,218.167 463.5,212.833 463.5,207.5C 468.833,207.5 474.167,207.5 479.5,207.5C 479.5,186.167 479.5,164.833 479.5,143.5 Z"/></g>
<g><path style="opacity:1" fill="#de3cf0" d="M 63.5,159.5 C 63.5,164.833 63.5,170.167 63.5,175.5C 58.1667,175.5 52.8333,175.5 47.5,175.5C 47.5,170.167 47.5,164.833 47.5,159.5C 52.8333,159.5 58.1667,159.5 63.5,159.5 Z"/></g>
<g><path style="opacity:1" fill="#feb7dd" d="M 63.5,159.5 C 68.8333,159.5 74.1667,159.5 79.5,159.5C 84.8333,159.5 90.1667,159.5 95.5,159.5C 100.833,159.5 106.167,159.5 111.5,159.5C 122.167,159.5 132.833,159.5 143.5,159.5C 148.833,159.5 154.167,159.5 159.5,159.5C 170.167,159.5 180.833,159.5 191.5,159.5C 196.833,159.5 202.167,159.5 207.5,159.5C 239.5,159.5 271.5,159.5 303.5,159.5C 308.833,159.5 314.167,159.5 319.5,159.5C 324.833,159.5 330.167,159.5 335.5,159.5C 340.833,159.5 346.167,159.5 351.5,159.5C 378.167,159.5 404.833,159.5 431.5,159.5C 436.833,159.5 442.167,159.5 447.5,159.5C 447.5,164.833 447.5,170.167 447.5,175.5C 319.5,175.5 191.5,175.5 63.5,175.5C 63.5,170.167 63.5,164.833 63.5,159.5 Z"/></g>
<g><path style="opacity:1" fill="#de3cf0" d="M 47.5,175.5 C 47.5,191.5 47.5,207.5 47.5,223.5C 42.1667,223.5 36.8333,223.5 31.5,223.5C 31.5,207.5 31.5,191.5 31.5,175.5C 36.8333,175.5 42.1667,175.5 47.5,175.5 Z"/></g>
<g><path style="opacity:1" fill="#feb7dd" d="M 47.5,175.5 C 52.8333,175.5 58.1667,175.5 63.5,175.5C 63.5,191.5 63.5,207.5 63.5,223.5C 58.1667,223.5 52.8333,223.5 47.5,223.5C 47.5,207.5 47.5,191.5 47.5,175.5 Z"/></g>
<g><path style="opacity:1" fill="#55d3f1" d="M 63.5,175.5 C 191.5,175.5 319.5,175.5 447.5,175.5C 447.5,191.5 447.5,207.5 447.5,223.5C 404.833,223.5 362.167,223.5 319.5,223.5C 319.5,218.167 319.5,212.833 319.5,207.5C 308.833,207.5 298.167,207.5 287.5,207.5C 287.5,202.167 287.5,196.833 287.5,191.5C 260.833,191.5 234.167,191.5 207.5,191.5C 207.5,196.833 207.5,202.167 207.5,207.5C 196.833,207.5 186.167,207.5 175.5,207.5C 175.5,212.833 175.5,218.167 175.5,223.5C 170.167,223.5 164.833,223.5 159.5,223.5C 127.5,223.5 95.5,223.5 63.5,223.5C 63.5,207.5 63.5,191.5 63.5,175.5 Z"/></g>
<g><path style="opacity:1" fill="#000590" d="M 287.5,207.5 C 260.833,207.5 234.167,207.5 207.5,207.5C 207.5,202.167 207.5,196.833 207.5,191.5C 234.167,191.5 260.833,191.5 287.5,191.5C 287.5,196.833 287.5,202.167 287.5,207.5 Z"/></g>
<g><path style="opacity:1" fill="#de3cf0" d="M 207.5,207.5 C 207.5,212.833 207.5,218.167 207.5,223.5C 196.833,223.5 186.167,223.5 175.5,223.5C 175.5,218.167 175.5,212.833 175.5,207.5C 186.167,207.5 196.833,207.5 207.5,207.5 Z"/></g>
<g><path style="opacity:1" fill="#55d3f1" d="M 207.5,207.5 C 234.167,207.5 260.833,207.5 287.5,207.5C 287.5,212.833 287.5,218.167 287.5,223.5C 298.167,223.5 308.833,223.5 319.5,223.5C 319.5,228.833 319.5,234.167 319.5,239.5C 314.167,239.5 308.833,239.5 303.5,239.5C 303.5,244.833 303.5,250.167 303.5,255.5C 298.167,255.5 292.833,255.5 287.5,255.5C 287.5,250.167 287.5,244.833 287.5,239.5C 282.167,239.5 276.833,239.5 271.5,239.5C 271.5,234.167 271.5,228.833 271.5,223.5C 255.5,223.5 239.5,223.5 223.5,223.5C 218.167,223.5 212.833,223.5 207.5,223.5C 207.5,218.167 207.5,212.833 207.5,207.5 Z"/></g>
<g><path style="opacity:1" fill="#000590" d="M 287.5,207.5 C 298.167,207.5 308.833,207.5 319.5,207.5C 319.5,212.833 319.5,218.167 319.5,223.5C 308.833,223.5 298.167,223.5 287.5,223.5C 287.5,218.167 287.5,212.833 287.5,207.5 Z"/></g>
<g><path style="opacity:1" fill="#9620f1" d="M 31.5,223.5 C 36.8333,223.5 42.1667,223.5 47.5,223.5C 47.5,228.833 47.5,234.167 47.5,239.5C 47.5,298.167 47.5,356.833 47.5,415.5C 42.1667,415.5 36.8333,415.5 31.5,415.5C 31.5,351.5 31.5,287.5 31.5,223.5 Z"/></g>
<g><path style="opacity:1" fill="#000590" d="M 47.5,223.5 C 52.8333,223.5 58.1667,223.5 63.5,223.5C 95.5,223.5 127.5,223.5 159.5,223.5C 159.5,228.833 159.5,234.167 159.5,239.5C 154.167,239.5 148.833,239.5 143.5,239.5C 138.167,239.5 132.833,239.5 127.5,239.5C 127.5,244.833 127.5,250.167 127.5,255.5C 122.167,255.5 116.833,255.5 111.5,255.5C 111.5,250.167 111.5,244.833 111.5,239.5C 106.167,239.5 100.833,239.5 95.5,239.5C 95.5,244.833 95.5,250.167 95.5,255.5C 90.1667,255.5 84.8333,255.5 79.5,255.5C 79.5,250.167 79.5,244.833 79.5,239.5C 68.8333,239.5 58.1667,239.5 47.5,239.5C 47.5,234.167 47.5,228.833 47.5,223.5 Z"/></g>
<g><path style="opacity:1" fill="#feb7dd" d="M 159.5,223.5 C 164.833,223.5 170.167,223.5 175.5,223.5C 186.167,223.5 196.833,223.5 207.5,223.5C 212.833,223.5 218.167,223.5 223.5,223.5C 223.5,228.833 223.5,234.167 223.5,239.5C 207.5,239.5 191.5,239.5 175.5,239.5C 170.167,239.5 164.833,239.5 159.5,239.5C 159.5,234.167 159.5,228.833 159.5,223.5 Z"/></g>
<g><path style="opacity:1" fill="#9620f1" d="M 223.5,223.5 C 239.5,223.5 255.5,223.5 271.5,223.5C 271.5,228.833 271.5,234.167 271.5,239.5C 276.833,239.5 282.167,239.5 287.5,239.5C 287.5,244.833 287.5,250.167 287.5,255.5C 276.833,255.5 266.167,255.5 255.5,255.5C 255.5,250.167 255.5,244.833 255.5,239.5C 244.833,239.5 234.167,239.5 223.5,239.5C 223.5,234.167 223.5,228.833 223.5,223.5 Z"/></g>
<g><path style="opacity:1" fill="#1469f1" d="M 47.5,239.5 C 58.1667,239.5 68.8333,239.5 79.5,239.5C 79.5,244.833 79.5,250.167 79.5,255.5C 74.1667,255.5 68.8333,255.5 63.5,255.5C 63.5,260.833 63.5,266.167 63.5,271.5C 68.8333,271.5 74.1667,271.5 79.5,271.5C 79.5,276.833 79.5,282.167 79.5,287.5C 74.1667,287.5 68.8333,287.5 63.5,287.5C 63.5,292.833 63.5,298.167 63.5,303.5C 68.8333,303.5 74.1667,303.5 79.5,303.5C 79.5,308.833 79.5,314.167 79.5,319.5C 74.1667,319.5 68.8333,319.5 63.5,319.5C 63.5,324.833 63.5,330.167 63.5,335.5C 68.8333,335.5 74.1667,335.5 79.5,335.5C 79.5,340.833 79.5,346.167 79.5,351.5C 74.1667,351.5 68.8333,351.5 63.5,351.5C 63.5,356.833 63.5,362.167 63.5,367.5C 68.8333,367.5 74.1667,367.5 79.5,367.5C 79.5,372.833 79.5,378.167 79.5,383.5C 74.1667,383.5 68.8333,383.5 63.5,383.5C 63.5,388.833 63.5,394.167 63.5,399.5C 68.8333,399.5 74.1667,399.5 79.5,399.5C 79.5,404.833 79.5,410.167 79.5,415.5C 68.8333,415.5 58.1667,415.5 47.5,415.5C 47.5,356.833 47.5,298.167 47.5,239.5 Z"/></g>
<g><path style="opacity:1" fill="#1469f1" d="M 111.5,255.5 C 106.167,255.5 100.833,255.5 95.5,255.5C 95.5,250.167 95.5,244.833 95.5,239.5C 100.833,239.5 106.167,239.5 111.5,239.5C 111.5,244.833 111.5,250.167 111.5,255.5 Z"/></g>
<g><path style="opacity:1" fill="#1469f1" d="M 143.5,239.5 C 143.5,244.833 143.5,250.167 143.5,255.5C 138.167,255.5 132.833,255.5 127.5,255.5C 127.5,250.167 127.5,244.833 127.5,239.5C 132.833,239.5 138.167,239.5 143.5,239.5 Z"/></g>
<g><path style="opacity:1" fill="#feb7dd" d="M 143.5,239.5 C 148.833,239.5 154.167,239.5 159.5,239.5C 159.5,244.833 159.5,250.167 159.5,255.5C 154.167,255.5 148.833,255.5 143.5,255.5C 143.5,250.167 143.5,244.833 143.5,239.5 Z"/></g>
<g><path style="opacity:1" fill="#9620f1" d="M 159.5,239.5 C 164.833,239.5 170.167,239.5 175.5,239.5C 175.5,244.833 175.5,250.167 175.5,255.5C 170.167,255.5 164.833,255.5 159.5,255.5C 159.5,250.167 159.5,244.833 159.5,239.5 Z"/></g>
<g><path style="opacity:1" fill="#55d3f1" d="M 175.5,239.5 C 191.5,239.5 207.5,239.5 223.5,239.5C 234.167,239.5 244.833,239.5 255.5,239.5C 255.5,244.833 255.5,250.167 255.5,255.5C 228.833,255.5 202.167,255.5 175.5,255.5C 175.5,250.167 175.5,244.833 175.5,239.5 Z"/></g>
<g><path style="opacity:1" fill="#9620f1" d="M 319.5,239.5 C 324.833,239.5 330.167,239.5 335.5,239.5C 335.5,244.833 335.5,250.167 335.5,255.5C 330.167,255.5 324.833,255.5 319.5,255.5C 319.5,260.833 319.5,266.167 319.5,271.5C 314.167,271.5 308.833,271.5 303.5,271.5C 298.167,271.5 292.833,271.5 287.5,271.5C 287.5,266.167 287.5,260.833 287.5,255.5C 292.833,255.5 298.167,255.5 303.5,255.5C 303.5,250.167 303.5,244.833 303.5,239.5C 308.833,239.5 314.167,239.5 319.5,239.5 Z"/></g>
<g><path style="opacity:1" fill="#1469f1" d="M 367.5,255.5 C 362.167,255.5 356.833,255.5 351.5,255.5C 351.5,250.167 351.5,244.833 351.5,239.5C 356.833,239.5 362.167,239.5 367.5,239.5C 367.5,244.833 367.5,250.167 367.5,255.5 Z"/></g>
<g><path style="opacity:1" fill="#1469f1" d="M 399.5,255.5 C 394.167,255.5 388.833,255.5 383.5,255.5C 383.5,250.167 383.5,244.833 383.5,239.5C 388.833,239.5 394.167,239.5 399.5,239.5C 399.5,244.833 399.5,250.167 399.5,255.5 Z"/></g>
<g><path style="opacity:1" fill="#1469f1" d="M 431.5,255.5 C 426.167,255.5 420.833,255.5 415.5,255.5C 415.5,250.167 415.5,244.833 415.5,239.5C 420.833,239.5 426.167,239.5 431.5,239.5C 431.5,244.833 431.5,250.167 431.5,255.5 Z"/></g>
<g><path style="opacity:1" fill="#3037d6" d="M 463.5,239.5 C 468.833,239.5 474.167,239.5 479.5,239.5C 479.5,244.833 479.5,250.167 479.5,255.5C 474.167,255.5 468.833,255.5 463.5,255.5C 463.5,250.167 463.5,244.833 463.5,239.5 Z"/></g>
<g><path style="opacity:1" fill="#000590" d="M 79.5,255.5 C 79.5,260.833 79.5,266.167 79.5,271.5C 74.1667,271.5 68.8333,271.5 63.5,271.5C 63.5,266.167 63.5,260.833 63.5,255.5C 68.8333,255.5 74.1667,255.5 79.5,255.5 Z"/></g>
<g><path style="opacity:1" fill="#1469f1" d="M 79.5,255.5 C 84.8333,255.5 90.1667,255.5 95.5,255.5C 95.5,260.833 95.5,266.167 95.5,271.5C 90.1667,271.5 84.8333,271.5 79.5,271.5C 79.5,266.167 79.5,260.833 79.5,255.5 Z"/></g>
<g><path style="opacity:1" fill="#000590" d="M 95.5,255.5 C 100.833,255.5 106.167,255.5 111.5,255.5C 111.5,260.833 111.5,266.167 111.5,271.5C 106.167,271.5 100.833,271.5 95.5,271.5C 95.5,266.167 95.5,260.833 95.5,255.5 Z"/></g>
<g><path style="opacity:1" fill="#1469f1" d="M 111.5,255.5 C 116.833,255.5 122.167,255.5 127.5,255.5C 127.5,260.833 127.5,266.167 127.5,271.5C 122.167,271.5 116.833,271.5 111.5,271.5C 111.5,266.167 111.5,260.833 111.5,255.5 Z"/></g>
<g><path style="opacity:1" fill="#de3cf0" d="M 127.5,255.5 C 132.833,255.5 138.167,255.5 143.5,255.5C 143.5,260.833 143.5,266.167 143.5,271.5C 138.167,271.5 132.833,271.5 127.5,271.5C 127.5,266.167 127.5,260.833 127.5,255.5 Z"/></g>
<g><path style="opacity:1" fill="#55d3f1" d="M 143.5,255.5 C 148.833,255.5 154.167,255.5 159.5,255.5C 164.833,255.5 170.167,255.5 175.5,255.5C 175.5,260.833 175.5,266.167 175.5,271.5C 170.167,271.5 164.833,271.5 159.5,271.5C 154.167,271.5 148.833,271.5 143.5,271.5C 143.5,266.167 143.5,260.833 143.5,255.5 Z"/></g>
<g><path style="opacity:1" fill="#000590" d="M 175.5,255.5 C 202.167,255.5 228.833,255.5 255.5,255.5C 255.5,260.833 255.5,266.167 255.5,271.5C 228.833,271.5 202.167,271.5 175.5,271.5C 175.5,266.167 175.5,260.833 175.5,255.5 Z"/></g>
<g><path style="opacity:1" fill="#55d3f1" d="M 255.5,255.5 C 266.167,255.5 276.833,255.5 287.5,255.5C 287.5,260.833 287.5,266.167 287.5,271.5C 282.167,271.5 276.833,271.5 271.5,271.5C 266.167,271.5 260.833,271.5 255.5,271.5C 255.5,266.167 255.5,260.833 255.5,255.5 Z"/></g>
<g><path style="opacity:1" fill="#000590" d="M 335.5,255.5 C 335.5,260.833 335.5,266.167 335.5,271.5C 330.167,271.5 324.833,271.5 319.5,271.5C 319.5,266.167 319.5,260.833 319.5,255.5C 324.833,255.5 330.167,255.5 335.5,255.5 Z"/></g>
<g><path style="opacity:1" fill="#9620f1" d="M 335.5,255.5 C 340.833,255.5 346.167,255.5 351.5,255.5C 351.5,260.833 351.5,266.167 351.5,271.5C 346.167,271.5 340.833,271.5 335.5,271.5C 335.5,266.167 335.5,260.833 335.5,255.5 Z"/></g>
<g><path style="opacity:1" fill="#000590" d="M 351.5,255.5 C 356.833,255.5 362.167,255.5 367.5,255.5C 367.5,260.833 367.5,266.167 367.5,271.5C 372.833,271.5 378.167,271.5 383.5,271.5C 383.5,276.833 383.5,282.167 383.5,287.5C 378.167,287.5 372.833,287.5 367.5,287.5C 367.5,292.833 367.5,298.167 367.5,303.5C 372.833,303.5 378.167,303.5 383.5,303.5C 383.5,308.833 383.5,314.167 383.5,319.5C 378.167,319.5 372.833,319.5 367.5,319.5C 367.5,324.833 367.5,330.167 367.5,335.5C 372.833,335.5 378.167,335.5 383.5,335.5C 383.5,340.833 383.5,346.167 383.5,351.5C 378.167,351.5 372.833,351.5 367.5,351.5C 367.5,356.833 367.5,362.167 367.5,367.5C 362.167,367.5 356.833,367.5 351.5,367.5C 351.5,372.833 351.5,378.167 351.5,383.5C 346.167,383.5 340.833,383.5 335.5,383.5C 335.5,388.833 335.5,394.167 335.5,399.5C 330.167,399.5 324.833,399.5 319.5,399.5C 319.5,394.167 319.5,388.833 319.5,383.5C 319.5,356.833 319.5,330.167 319.5,303.5C 319.5,298.167 319.5,292.833 319.5,287.5C 324.833,287.5 330.167,287.5 335.5,287.5C 335.5,282.167 335.5,276.833 335.5,271.5C 340.833,271.5 346.167,271.5 351.5,271.5C 351.5,266.167 351.5,260.833 351.5,255.5 Z"/></g>
<g><path style="opacity:1" fill="#1469f1" d="M 367.5,255.5 C 372.833,255.5 378.167,255.5 383.5,255.5C 383.5,260.833 383.5,266.167 383.5,271.5C 378.167,271.5 372.833,271.5 367.5,271.5C 367.5,266.167 367.5,260.833 367.5,255.5 Z"/></g>
<g><path style="opacity:1" fill="#000590" d="M 383.5,255.5 C 388.833,255.5 394.167,255.5 399.5,255.5C 399.5,260.833 399.5,266.167 399.5,271.5C 394.167,271.5 388.833,271.5 383.5,271.5C 383.5,266.167 383.5,260.833 383.5,255.5 Z"/></g>
<g><path style="opacity:1" fill="#1469f1" d="M 399.5,255.5 C 404.833,255.5 410.167,255.5 415.5,255.5C 415.5,260.833 415.5,266.167 415.5,271.5C 410.167,271.5 404.833,271.5 399.5,271.5C 399.5,266.167 399.5,260.833 399.5,255.5 Z"/></g>
<g><path style="opacity:1" fill="#000590" d="M 415.5,255.5 C 420.833,255.5 426.167,255.5 431.5,255.5C 431.5,260.833 431.5,266.167 431.5,271.5C 426.167,271.5 420.833,271.5 415.5,271.5C 415.5,266.167 415.5,260.833 415.5,255.5 Z"/></g>
<g><path style="opacity:1" fill="#1469f1" d="M 431.5,255.5 C 436.833,255.5 442.167,255.5 447.5,255.5C 447.5,260.833 447.5,266.167 447.5,271.5C 442.167,271.5 436.833,271.5 431.5,271.5C 431.5,266.167 431.5,260.833 431.5,255.5 Z"/></g>
<g><path style="opacity:1" fill="#000590" d="M 79.5,271.5 C 84.8333,271.5 90.1667,271.5 95.5,271.5C 95.5,276.833 95.5,282.167 95.5,287.5C 90.1667,287.5 84.8333,287.5 79.5,287.5C 79.5,282.167 79.5,276.833 79.5,271.5 Z"/></g>
<g><path style="opacity:1" fill="#1469f1" d="M 95.5,271.5 C 100.833,271.5 106.167,271.5 111.5,271.5C 111.5,276.833 111.5,282.167 111.5,287.5C 106.167,287.5 100.833,287.5 95.5,287.5C 95.5,282.167 95.5,276.833 95.5,271.5 Z"/></g>
<g><path style="opacity:1" fill="#de3cf0" d="M 111.5,271.5 C 116.833,271.5 122.167,271.5 127.5,271.5C 127.5,276.833 127.5,282.167 127.5,287.5C 122.167,287.5 116.833,287.5 111.5,287.5C 111.5,282.167 111.5,276.833 111.5,271.5 Z"/></g>
<g><path style="opacity:1" fill="#55d3f1" d="M 127.5,271.5 C 132.833,271.5 138.167,271.5 143.5,271.5C 143.5,276.833 143.5,282.167 143.5,287.5C 143.5,292.833 143.5,298.167 143.5,303.5C 138.167,303.5 132.833,303.5 127.5,303.5C 127.5,298.167 127.5,292.833 127.5,287.5C 127.5,282.167 127.5,276.833 127.5,271.5 Z"/></g>
<g><path style="opacity:1" fill="#1469f1" d="M 143.5,271.5 C 148.833,271.5 154.167,271.5 159.5,271.5C 159.5,276.833 159.5,282.167 159.5,287.5C 154.167,287.5 148.833,287.5 143.5,287.5C 143.5,282.167 143.5,276.833 143.5,271.5 Z"/></g>
<g><path style="opacity:1" fill="#000590" d="M 159.5,271.5 C 164.833,271.5 170.167,271.5 175.5,271.5C 175.5,276.833 175.5,282.167 175.5,287.5C 170.167,287.5 164.833,287.5 159.5,287.5C 159.5,282.167 159.5,276.833 159.5,271.5 Z"/></g>
<g><path style="opacity:1" fill="#1469f1" d="M 175.5,271.5 C 202.167,271.5 228.833,271.5 255.5,271.5C 255.5,276.833 255.5,282.167 255.5,287.5C 260.833,287.5 266.167,287.5 271.5,287.5C 271.5,292.833 271.5,298.167 271.5,303.5C 276.833,303.5 282.167,303.5 287.5,303.5C 287.5,330.167 287.5,356.833 287.5,383.5C 282.167,383.5 276.833,383.5 271.5,383.5C 271.5,388.833 271.5,394.167 271.5,399.5C 266.167,399.5 260.833,399.5 255.5,399.5C 255.5,404.833 255.5,410.167 255.5,415.5C 228.833,415.5 202.167,415.5 175.5,415.5C 175.5,410.167 175.5,404.833 175.5,399.5C 170.167,399.5 164.833,399.5 159.5,399.5C 159.5,394.167 159.5,388.833 159.5,383.5C 154.167,383.5 148.833,383.5 143.5,383.5C 143.5,356.833 143.5,330.167 143.5,303.5C 148.833,303.5 154.167,303.5 159.5,303.5C 159.5,298.167 159.5,292.833 159.5,287.5C 164.833,287.5 170.167,287.5 175.5,287.5C 175.5,282.167 175.5,276.833 175.5,271.5 Z"/></g>
<g><path style="opacity:1" fill="#000590" d="M 255.5,271.5 C 260.833,271.5 266.167,271.5 271.5,271.5C 271.5,276.833 271.5,282.167 271.5,287.5C 266.167,287.5 260.833,287.5 255.5,287.5C 255.5,282.167 255.5,276.833 255.5,271.5 Z"/></g>
<g><path style="opacity:1" fill="#1469f1" d="M 271.5,271.5 C 276.833,271.5 282.167,271.5 287.5,271.5C 287.5,276.833 287.5,282.167 287.5,287.5C 282.167,287.5 276.833,287.5 271.5,287.5C 271.5,282.167 271.5,276.833 271.5,271.5 Z"/></g>
<g><path style="opacity:1" fill="#55d3f1" d="M 287.5,271.5 C 292.833,271.5 298.167,271.5 303.5,271.5C 303.5,276.833 303.5,282.167 303.5,287.5C 303.5,292.833 303.5,298.167 303.5,303.5C 298.167,303.5 292.833,303.5 287.5,303.5C 287.5,298.167 287.5,292.833 287.5,287.5C 287.5,282.167 287.5,276.833 287.5,271.5 Z"/></g>
<g><path style="opacity:1" fill="#000590" d="M 303.5,271.5 C 308.833,271.5 314.167,271.5 319.5,271.5C 319.5,276.833 319.5,282.167 319.5,287.5C 314.167,287.5 308.833,287.5 303.5,287.5C 303.5,282.167 303.5,276.833 303.5,271.5 Z"/></g>
<g><path style="opacity:1" fill="#9620f1" d="M 319.5,271.5 C 324.833,271.5 330.167,271.5 335.5,271.5C 335.5,276.833 335.5,282.167 335.5,287.5C 330.167,287.5 324.833,287.5 319.5,287.5C 319.5,282.167 319.5,276.833 319.5,271.5 Z"/></g>
<g><path style="opacity:1" fill="#1469f1" d="M 383.5,271.5 C 388.833,271.5 394.167,271.5 399.5,271.5C 399.5,276.833 399.5,282.167 399.5,287.5C 394.167,287.5 388.833,287.5 383.5,287.5C 383.5,282.167 383.5,276.833 383.5,271.5 Z"/></g>
<g><path style="opacity:1" fill="#000590" d="M 399.5,271.5 C 404.833,271.5 410.167,271.5 415.5,271.5C 415.5,276.833 415.5,282.167 415.5,287.5C 410.167,287.5 404.833,287.5 399.5,287.5C 399.5,282.167 399.5,276.833 399.5,271.5 Z"/></g>
<g><path style="opacity:1" fill="#1469f1" d="M 415.5,271.5 C 420.833,271.5 426.167,271.5 431.5,271.5C 431.5,276.833 431.5,282.167 431.5,287.5C 426.167,287.5 420.833,287.5 415.5,287.5C 415.5,282.167 415.5,276.833 415.5,271.5 Z"/></g>
<g><path style="opacity:1" fill="#3037d6" d="M 463.5,271.5 C 468.833,271.5 474.167,271.5 479.5,271.5C 479.5,276.833 479.5,282.167 479.5,287.5C 474.167,287.5 468.833,287.5 463.5,287.5C 463.5,282.167 463.5,276.833 463.5,271.5 Z"/></g>
<g><path style="opacity:1" fill="#000590" d="M 79.5,287.5 C 79.5,292.833 79.5,298.167 79.5,303.5C 74.1667,303.5 68.8333,303.5 63.5,303.5C 63.5,298.167 63.5,292.833 63.5,287.5C 68.8333,287.5 74.1667,287.5 79.5,287.5 Z"/></g>
<g><path style="opacity:1" fill="#1469f1" d="M 79.5,287.5 C 84.8333,287.5 90.1667,287.5 95.5,287.5C 95.5,292.833 95.5,298.167 95.5,303.5C 90.1667,303.5 84.8333,303.5 79.5,303.5C 79.5,298.167 79.5,292.833 79.5,287.5 Z"/></g>
<g><path style="opacity:1" fill="#de3cf0" d="M 95.5,287.5 C 100.833,287.5 106.167,287.5 111.5,287.5C 111.5,292.833 111.5,298.167 111.5,303.5C 111.5,330.167 111.5,356.833 111.5,383.5C 111.5,388.833 111.5,394.167 111.5,399.5C 106.167,399.5 100.833,399.5 95.5,399.5C 95.5,394.167 95.5,388.833 95.5,383.5C 95.5,378.167 95.5,372.833 95.5,367.5C 95.5,362.167 95.5,356.833 95.5,351.5C 95.5,346.167 95.5,340.833 95.5,335.5C 95.5,330.167 95.5,324.833 95.5,319.5C 95.5,314.167 95.5,308.833 95.5,303.5C 95.5,298.167 95.5,292.833 95.5,287.5 Z"/></g>
<g><path style="opacity:1" fill="#9620f1" d="M 111.5,287.5 C 116.833,287.5 122.167,287.5 127.5,287.5C 127.5,292.833 127.5,298.167 127.5,303.5C 122.167,303.5 116.833,303.5 111.5,303.5C 111.5,298.167 111.5,292.833 111.5,287.5 Z"/></g>
<g><path style="opacity:1" fill="#000590" d="M 143.5,287.5 C 148.833,287.5 154.167,287.5 159.5,287.5C 159.5,292.833 159.5,298.167 159.5,303.5C 154.167,303.5 148.833,303.5 143.5,303.5C 143.5,298.167 143.5,292.833 143.5,287.5 Z"/></g>
<g><path style="opacity:1" fill="#55d3f1" d="M 207.5,287.5 C 207.5,292.833 207.5,298.167 207.5,303.5C 202.167,303.5 196.833,303.5 191.5,303.5C 191.5,298.167 191.5,292.833 191.5,287.5C 196.833,287.5 202.167,287.5 207.5,287.5 Z"/></g>
<g><path style="opacity:1" fill="#feb7dd" d="M 207.5,287.5 C 212.833,287.5 218.167,287.5 223.5,287.5C 223.5,292.833 223.5,298.167 223.5,303.5C 218.167,303.5 212.833,303.5 207.5,303.5C 207.5,298.167 207.5,292.833 207.5,287.5 Z"/></g>
<g><path style="opacity:1" fill="#55d3f1" d="M 223.5,287.5 C 228.833,287.5 234.167,287.5 239.5,287.5C 239.5,292.833 239.5,298.167 239.5,303.5C 234.167,303.5 228.833,303.5 223.5,303.5C 223.5,298.167 223.5,292.833 223.5,287.5 Z"/></g>
<g><path style="opacity:1" fill="#000590" d="M 271.5,287.5 C 276.833,287.5 282.167,287.5 287.5,287.5C 287.5,292.833 287.5,298.167 287.5,303.5C 282.167,303.5 276.833,303.5 271.5,303.5C 271.5,298.167 271.5,292.833 271.5,287.5 Z"/></g>
<g><path style="opacity:1" fill="#1469f1" d="M 303.5,287.5 C 308.833,287.5 314.167,287.5 319.5,287.5C 319.5,292.833 319.5,298.167 319.5,303.5C 314.167,303.5 308.833,303.5 303.5,303.5C 303.5,298.167 303.5,292.833 303.5,287.5 Z"/></g>
<g><path style="opacity:1" fill="#1469f1" d="M 383.5,287.5 C 383.5,292.833 383.5,298.167 383.5,303.5C 378.167,303.5 372.833,303.5 367.5,303.5C 367.5,298.167 367.5,292.833 367.5,287.5C 372.833,287.5 378.167,287.5 383.5,287.5 Z"/></g>
<g><path style="opacity:1" fill="#000590" d="M 383.5,287.5 C 388.833,287.5 394.167,287.5 399.5,287.5C 399.5,292.833 399.5,298.167 399.5,303.5C 394.167,303.5 388.833,303.5 383.5,303.5C 383.5,298.167 383.5,292.833 383.5,287.5 Z"/></g>
<g><path style="opacity:1" fill="#1469f1" d="M 399.5,287.5 C 404.833,287.5 410.167,287.5 415.5,287.5C 415.5,292.833 415.5,298.167 415.5,303.5C 410.167,303.5 404.833,303.5 399.5,303.5C 399.5,298.167 399.5,292.833 399.5,287.5 Z"/></g>
<g><path style="opacity:1" fill="#000590" d="M 415.5,287.5 C 420.833,287.5 426.167,287.5 431.5,287.5C 431.5,292.833 431.5,298.167 431.5,303.5C 426.167,303.5 420.833,303.5 415.5,303.5C 415.5,298.167 415.5,292.833 415.5,287.5 Z"/></g>
<g><path style="opacity:1" fill="#1469f1" d="M 431.5,287.5 C 436.833,287.5 442.167,287.5 447.5,287.5C 447.5,292.833 447.5,298.167 447.5,303.5C 442.167,303.5 436.833,303.5 431.5,303.5C 431.5,298.167 431.5,292.833 431.5,287.5 Z"/></g>
<g><path style="opacity:1" fill="#000590" d="M 79.5,303.5 C 84.8333,303.5 90.1667,303.5 95.5,303.5C 95.5,308.833 95.5,314.167 95.5,319.5C 90.1667,319.5 84.8333,319.5 79.5,319.5C 79.5,314.167 79.5,308.833 79.5,303.5 Z"/></g>
<g><path style="opacity:1" fill="#55d3f1" d="M 111.5,303.5 C 116.833,303.5 122.167,303.5 127.5,303.5C 127.5,330.167 127.5,356.833 127.5,383.5C 122.167,383.5 116.833,383.5 111.5,383.5C 111.5,356.833 111.5,330.167 111.5,303.5 Z"/></g>
<g><path style="opacity:1" fill="#000590" d="M 127.5,303.5 C 132.833,303.5 138.167,303.5 143.5,303.5C 143.5,330.167 143.5,356.833 143.5,383.5C 138.167,383.5 132.833,383.5 127.5,383.5C 127.5,356.833 127.5,330.167 127.5,303.5 Z"/></g>
<g><path style="opacity:1" fill="#55d3f1" d="M 191.5,303.5 C 191.5,308.833 191.5,314.167 191.5,319.5C 186.167,319.5 180.833,319.5 175.5,319.5C 175.5,314.167 175.5,308.833 175.5,303.5C 180.833,303.5 186.167,303.5 191.5,303.5 Z"/></g>
<g><path style="opacity:1" fill="#feb7dd" d="M 191.5,303.5 C 196.833,303.5 202.167,303.5 207.5,303.5C 207.5,308.833 207.5,314.167 207.5,319.5C 202.167,319.5 196.833,319.5 191.5,319.5C 191.5,314.167 191.5,308.833 191.5,303.5 Z"/></g>
<g><path style="opacity:1" fill="#000590" d="M 287.5,303.5 C 292.833,303.5 298.167,303.5 303.5,303.5C 303.5,330.167 303.5,356.833 303.5,383.5C 298.167,383.5 292.833,383.5 287.5,383.5C 287.5,356.833 287.5,330.167 287.5,303.5 Z"/></g>
<g><path style="opacity:1" fill="#55d3f1" d="M 303.5,303.5 C 308.833,303.5 314.167,303.5 319.5,303.5C 319.5,330.167 319.5,356.833 319.5,383.5C 314.167,383.5 308.833,383.5 303.5,383.5C 303.5,356.833 303.5,330.167 303.5,303.5 Z"/></g>
<g><path style="opacity:1" fill="#1469f1" d="M 383.5,303.5 C 388.833,303.5 394.167,303.5 399.5,303.5C 399.5,308.833 399.5,314.167 399.5,319.5C 394.167,319.5 388.833,319.5 383.5,319.5C 383.5,314.167 383.5,308.833 383.5,303.5 Z"/></g>
<g><path style="opacity:1" fill="#000590" d="M 399.5,303.5 C 404.833,303.5 410.167,303.5 415.5,303.5C 415.5,308.833 415.5,314.167 415.5,319.5C 410.167,319.5 404.833,319.5 399.5,319.5C 399.5,314.167 399.5,308.833 399.5,303.5 Z"/></g>
<g><path style="opacity:1" fill="#1469f1" d="M 415.5,303.5 C 420.833,303.5 426.167,303.5 431.5,303.5C 431.5,308.833 431.5,314.167 431.5,319.5C 426.167,319.5 420.833,319.5 415.5,319.5C 415.5,314.167 415.5,308.833 415.5,303.5 Z"/></g>
<g><path style="opacity:1" fill="#3037d6" d="M 463.5,303.5 C 468.833,303.5 474.167,303.5 479.5,303.5C 479.5,308.833 479.5,314.167 479.5,319.5C 474.167,319.5 468.833,319.5 463.5,319.5C 463.5,314.167 463.5,308.833 463.5,303.5 Z"/></g>
<g><path style="opacity:1" fill="#000590" d="M 79.5,319.5 C 79.5,324.833 79.5,330.167 79.5,335.5C 74.1667,335.5 68.8333,335.5 63.5,335.5C 63.5,330.167 63.5,324.833 63.5,319.5C 68.8333,319.5 74.1667,319.5 79.5,319.5 Z"/></g>
<g><path style="opacity:1" fill="#1469f1" d="M 79.5,319.5 C 84.8333,319.5 90.1667,319.5 95.5,319.5C 95.5,324.833 95.5,330.167 95.5,335.5C 90.1667,335.5 84.8333,335.5 79.5,335.5C 79.5,330.167 79.5,324.833 79.5,319.5 Z"/></g>
<g><path style="opacity:1" fill="#55d3f1" d="M 175.5,319.5 C 175.5,324.833 175.5,330.167 175.5,335.5C 170.167,335.5 164.833,335.5 159.5,335.5C 159.5,330.167 159.5,324.833 159.5,319.5C 164.833,319.5 170.167,319.5 175.5,319.5 Z"/></g>
<g><path style="opacity:1" fill="#feb7dd" d="M 175.5,319.5 C 180.833,319.5 186.167,319.5 191.5,319.5C 191.5,324.833 191.5,330.167 191.5,335.5C 186.167,335.5 180.833,335.5 175.5,335.5C 175.5,330.167 175.5,324.833 175.5,319.5 Z"/></g>
<g><path style="opacity:1" fill="#1469f1" d="M 383.5,319.5 C 383.5,324.833 383.5,330.167 383.5,335.5C 378.167,335.5 372.833,335.5 367.5,335.5C 367.5,330.167 367.5,324.833 367.5,319.5C 372.833,319.5 378.167,319.5 383.5,319.5 Z"/></g>
<g><path style="opacity:1" fill="#000590" d="M 383.5,319.5 C 388.833,319.5 394.167,319.5 399.5,319.5C 399.5,324.833 399.5,330.167 399.5,335.5C 394.167,335.5 388.833,335.5 383.5,335.5C 383.5,330.167 383.5,324.833 383.5,319.5 Z"/></g>
<g><path style="opacity:1" fill="#1469f1" d="M 399.5,319.5 C 404.833,319.5 410.167,319.5 415.5,319.5C 415.5,324.833 415.5,330.167 415.5,335.5C 410.167,335.5 404.833,335.5 399.5,335.5C 399.5,330.167 399.5,324.833 399.5,319.5 Z"/></g>
<g><path style="opacity:1" fill="#000590" d="M 415.5,319.5 C 420.833,319.5 426.167,319.5 431.5,319.5C 431.5,324.833 431.5,330.167 431.5,335.5C 426.167,335.5 420.833,335.5 415.5,335.5C 415.5,330.167 415.5,324.833 415.5,319.5 Z"/></g>
<g><path style="opacity:1" fill="#1469f1" d="M 431.5,319.5 C 436.833,319.5 442.167,319.5 447.5,319.5C 447.5,324.833 447.5,330.167 447.5,335.5C 442.167,335.5 436.833,335.5 431.5,335.5C 431.5,330.167 431.5,324.833 431.5,319.5 Z"/></g>
<g><path style="opacity:1" fill="#000590" d="M 79.5,335.5 C 84.8333,335.5 90.1667,335.5 95.5,335.5C 95.5,340.833 95.5,346.167 95.5,351.5C 90.1667,351.5 84.8333,351.5 79.5,351.5C 79.5,346.167 79.5,340.833 79.5,335.5 Z"/></g>
<g><path style="opacity:1" fill="#feb7dd" d="M 159.5,335.5 C 164.833,335.5 170.167,335.5 175.5,335.5C 175.5,340.833 175.5,346.167 175.5,351.5C 170.167,351.5 164.833,351.5 159.5,351.5C 159.5,346.167 159.5,340.833 159.5,335.5 Z"/></g>
<g><path style="opacity:1" fill="#1469f1" d="M 383.5,335.5 C 388.833,335.5 394.167,335.5 399.5,335.5C 399.5,340.833 399.5,346.167 399.5,351.5C 394.167,351.5 388.833,351.5 383.5,351.5C 383.5,346.167 383.5,340.833 383.5,335.5 Z"/></g>
<g><path style="opacity:1" fill="#000590" d="M 399.5,335.5 C 404.833,335.5 410.167,335.5 415.5,335.5C 415.5,340.833 415.5,346.167 415.5,351.5C 410.167,351.5 404.833,351.5 399.5,351.5C 399.5,346.167 399.5,340.833 399.5,335.5 Z"/></g>
<g><path style="opacity:1" fill="#1469f1" d="M 415.5,335.5 C 420.833,335.5 426.167,335.5 431.5,335.5C 431.5,340.833 431.5,346.167 431.5,351.5C 426.167,351.5 420.833,351.5 415.5,351.5C 415.5,346.167 415.5,340.833 415.5,335.5 Z"/></g>
<g><path style="opacity:1" fill="#3037d6" d="M 463.5,335.5 C 468.833,335.5 474.167,335.5 479.5,335.5C 479.5,340.833 479.5,346.167 479.5,351.5C 474.167,351.5 468.833,351.5 463.5,351.5C 463.5,346.167 463.5,340.833 463.5,335.5 Z"/></g>
<g><path style="opacity:1" fill="#000590" d="M 79.5,351.5 C 79.5,356.833 79.5,362.167 79.5,367.5C 74.1667,367.5 68.8333,367.5 63.5,367.5C 63.5,362.167 63.5,356.833 63.5,351.5C 68.8333,351.5 74.1667,351.5 79.5,351.5 Z"/></g>
<g><path style="opacity:1" fill="#1469f1" d="M 79.5,351.5 C 84.8333,351.5 90.1667,351.5 95.5,351.5C 95.5,356.833 95.5,362.167 95.5,367.5C 90.1667,367.5 84.8333,367.5 79.5,367.5C 79.5,362.167 79.5,356.833 79.5,351.5 Z"/></g>
<g><path style="opacity:1" fill="#55d3f1" d="M 159.5,351.5 C 164.833,351.5 170.167,351.5 175.5,351.5C 175.5,356.833 175.5,362.167 175.5,367.5C 170.167,367.5 164.833,367.5 159.5,367.5C 159.5,362.167 159.5,356.833 159.5,351.5 Z"/></g>
<g><path style="opacity:1" fill="#1469f1" d="M 383.5,351.5 C 383.5,356.833 383.5,362.167 383.5,367.5C 378.167,367.5 372.833,367.5 367.5,367.5C 367.5,362.167 367.5,356.833 367.5,351.5C 372.833,351.5 378.167,351.5 383.5,351.5 Z"/></g>
<g><path style="opacity:1" fill="#000590" d="M 383.5,351.5 C 388.833,351.5 394.167,351.5 399.5,351.5C 399.5,356.833 399.5,362.167 399.5,367.5C 394.167,367.5 388.833,367.5 383.5,367.5C 383.5,362.167 383.5,356.833 383.5,351.5 Z"/></g>
<g><path style="opacity:1" fill="#1469f1" d="M 399.5,351.5 C 404.833,351.5 410.167,351.5 415.5,351.5C 415.5,356.833 415.5,362.167 415.5,367.5C 410.167,367.5 404.833,367.5 399.5,367.5C 399.5,362.167 399.5,356.833 399.5,351.5 Z"/></g>
<g><path style="opacity:1" fill="#000590" d="M 415.5,351.5 C 420.833,351.5 426.167,351.5 431.5,351.5C 431.5,356.833 431.5,362.167 431.5,367.5C 426.167,367.5 420.833,367.5 415.5,367.5C 415.5,362.167 415.5,356.833 415.5,351.5 Z"/></g>
<g><path style="opacity:1" fill="#1469f1" d="M 431.5,351.5 C 436.833,351.5 442.167,351.5 447.5,351.5C 447.5,356.833 447.5,362.167 447.5,367.5C 442.167,367.5 436.833,367.5 431.5,367.5C 431.5,362.167 431.5,356.833 431.5,351.5 Z"/></g>
<g><path style="opacity:1" fill="#000590" d="M 79.5,367.5 C 84.8333,367.5 90.1667,367.5 95.5,367.5C 95.5,372.833 95.5,378.167 95.5,383.5C 90.1667,383.5 84.8333,383.5 79.5,383.5C 79.5,378.167 79.5,372.833 79.5,367.5 Z"/></g>
<g><path style="opacity:1" fill="#1469f1" d="M 367.5,367.5 C 367.5,372.833 367.5,378.167 367.5,383.5C 362.167,383.5 356.833,383.5 351.5,383.5C 351.5,378.167 351.5,372.833 351.5,367.5C 356.833,367.5 362.167,367.5 367.5,367.5 Z"/></g>
<g><path style="opacity:1" fill="#000590" d="M 367.5,367.5 C 372.833,367.5 378.167,367.5 383.5,367.5C 383.5,372.833 383.5,378.167 383.5,383.5C 378.167,383.5 372.833,383.5 367.5,383.5C 367.5,378.167 367.5,372.833 367.5,367.5 Z"/></g>
<g><path style="opacity:1" fill="#1469f1" d="M 383.5,367.5 C 388.833,367.5 394.167,367.5 399.5,367.5C 399.5,372.833 399.5,378.167 399.5,383.5C 394.167,383.5 388.833,383.5 383.5,383.5C 383.5,378.167 383.5,372.833 383.5,367.5 Z"/></g>
<g><path style="opacity:1" fill="#000590" d="M 399.5,367.5 C 404.833,367.5 410.167,367.5 415.5,367.5C 415.5,372.833 415.5,378.167 415.5,383.5C 410.167,383.5 404.833,383.5 399.5,383.5C 399.5,378.167 399.5,372.833 399.5,367.5 Z"/></g>
<g><path style="opacity:1" fill="#1469f1" d="M 415.5,367.5 C 420.833,367.5 426.167,367.5 431.5,367.5C 431.5,372.833 431.5,378.167 431.5,383.5C 426.167,383.5 420.833,383.5 415.5,383.5C 415.5,378.167 415.5,372.833 415.5,367.5 Z"/></g>
<g><path style="opacity:1" fill="#3037d6" d="M 463.5,367.5 C 468.833,367.5 474.167,367.5 479.5,367.5C 479.5,372.833 479.5,378.167 479.5,383.5C 474.167,383.5 468.833,383.5 463.5,383.5C 463.5,378.167 463.5,372.833 463.5,367.5 Z"/></g>
<g><path style="opacity:1" fill="#000590" d="M 79.5,383.5 C 79.5,388.833 79.5,394.167 79.5,399.5C 74.1667,399.5 68.8333,399.5 63.5,399.5C 63.5,394.167 63.5,388.833 63.5,383.5C 68.8333,383.5 74.1667,383.5 79.5,383.5 Z"/></g>
<g><path style="opacity:1" fill="#1469f1" d="M 79.5,383.5 C 84.8333,383.5 90.1667,383.5 95.5,383.5C 95.5,388.833 95.5,394.167 95.5,399.5C 90.1667,399.5 84.8333,399.5 79.5,399.5C 79.5,394.167 79.5,388.833 79.5,383.5 Z"/></g>
<g><path style="opacity:1" fill="#9620f1" d="M 111.5,383.5 C 116.833,383.5 122.167,383.5 127.5,383.5C 127.5,394.167 127.5,404.833 127.5,415.5C 122.167,415.5 116.833,415.5 111.5,415.5C 111.5,410.167 111.5,404.833 111.5,399.5C 111.5,394.167 111.5,388.833 111.5,383.5 Z"/></g>
<g><path style="opacity:1" fill="#55d3f1" d="M 127.5,383.5 C 132.833,383.5 138.167,383.5 143.5,383.5C 143.5,388.833 143.5,394.167 143.5,399.5C 143.5,404.833 143.5,410.167 143.5,415.5C 138.167,415.5 132.833,415.5 127.5,415.5C 127.5,404.833 127.5,394.167 127.5,383.5 Z"/></g>
<g><path style="opacity:1" fill="#000590" d="M 143.5,383.5 C 148.833,383.5 154.167,383.5 159.5,383.5C 159.5,388.833 159.5,394.167 159.5,399.5C 154.167,399.5 148.833,399.5 143.5,399.5C 143.5,394.167 143.5,388.833 143.5,383.5 Z"/></g>
<g><path style="opacity:1" fill="#000590" d="M 287.5,383.5 C 287.5,388.833 287.5,394.167 287.5,399.5C 282.167,399.5 276.833,399.5 271.5,399.5C 271.5,394.167 271.5,388.833 271.5,383.5C 276.833,383.5 282.167,383.5 287.5,383.5 Z"/></g>
<g><path style="opacity:1" fill="#55d3f1" d="M 287.5,383.5 C 292.833,383.5 298.167,383.5 303.5,383.5C 303.5,388.833 303.5,394.167 303.5,399.5C 303.5,404.833 303.5,410.167 303.5,415.5C 298.167,415.5 292.833,415.5 287.5,415.5C 287.5,410.167 287.5,404.833 287.5,399.5C 287.5,394.167 287.5,388.833 287.5,383.5 Z"/></g>
<g><path style="opacity:1" fill="#1469f1" d="M 303.5,383.5 C 308.833,383.5 314.167,383.5 319.5,383.5C 319.5,388.833 319.5,394.167 319.5,399.5C 314.167,399.5 308.833,399.5 303.5,399.5C 303.5,394.167 303.5,388.833 303.5,383.5 Z"/></g>
<g><path style="opacity:1" fill="#1469f1" d="M 351.5,383.5 C 351.5,388.833 351.5,394.167 351.5,399.5C 346.167,399.5 340.833,399.5 335.5,399.5C 335.5,394.167 335.5,388.833 335.5,383.5C 340.833,383.5 346.167,383.5 351.5,383.5 Z"/></g>
<g><path style="opacity:1" fill="#000590" d="M 351.5,383.5 C 356.833,383.5 362.167,383.5 367.5,383.5C 367.5,388.833 367.5,394.167 367.5,399.5C 362.167,399.5 356.833,399.5 351.5,399.5C 351.5,394.167 351.5,388.833 351.5,383.5 Z"/></g>
<g><path style="opacity:1" fill="#1469f1" d="M 367.5,383.5 C 372.833,383.5 378.167,383.5 383.5,383.5C 383.5,388.833 383.5,394.167 383.5,399.5C 378.167,399.5 372.833,399.5 367.5,399.5C 367.5,394.167 367.5,388.833 367.5,383.5 Z"/></g>
<g><path style="opacity:1" fill="#000590" d="M 383.5,383.5 C 388.833,383.5 394.167,383.5 399.5,383.5C 399.5,388.833 399.5,394.167 399.5,399.5C 394.167,399.5 388.833,399.5 383.5,399.5C 383.5,394.167 383.5,388.833 383.5,383.5 Z"/></g>
<g><path style="opacity:1" fill="#1469f1" d="M 399.5,383.5 C 404.833,383.5 410.167,383.5 415.5,383.5C 415.5,388.833 415.5,394.167 415.5,399.5C 410.167,399.5 404.833,399.5 399.5,399.5C 399.5,394.167 399.5,388.833 399.5,383.5 Z"/></g>
<g><path style="opacity:1" fill="#000590" d="M 415.5,383.5 C 420.833,383.5 426.167,383.5 431.5,383.5C 431.5,388.833 431.5,394.167 431.5,399.5C 426.167,399.5 420.833,399.5 415.5,399.5C 415.5,394.167 415.5,388.833 415.5,383.5 Z"/></g>
<g><path style="opacity:1" fill="#1469f1" d="M 431.5,383.5 C 436.833,383.5 442.167,383.5 447.5,383.5C 447.5,388.833 447.5,394.167 447.5,399.5C 442.167,399.5 436.833,399.5 431.5,399.5C 431.5,394.167 431.5,388.833 431.5,383.5 Z"/></g>
<g><path style="opacity:1" fill="#000590" d="M 79.5,399.5 C 84.8333,399.5 90.1667,399.5 95.5,399.5C 95.5,404.833 95.5,410.167 95.5,415.5C 90.1667,415.5 84.8333,415.5 79.5,415.5C 79.5,410.167 79.5,404.833 79.5,399.5 Z"/></g>
<g><path style="opacity:1" fill="#1469f1" d="M 95.5,399.5 C 100.833,399.5 106.167,399.5 111.5,399.5C 111.5,404.833 111.5,410.167 111.5,415.5C 106.167,415.5 100.833,415.5 95.5,415.5C 95.5,410.167 95.5,404.833 95.5,399.5 Z"/></g>
<g><path style="opacity:1" fill="#1469f1" d="M 143.5,399.5 C 148.833,399.5 154.167,399.5 159.5,399.5C 159.5,404.833 159.5,410.167 159.5,415.5C 154.167,415.5 148.833,415.5 143.5,415.5C 143.5,410.167 143.5,404.833 143.5,399.5 Z"/></g>
<g><path style="opacity:1" fill="#000590" d="M 159.5,399.5 C 164.833,399.5 170.167,399.5 175.5,399.5C 175.5,404.833 175.5,410.167 175.5,415.5C 170.167,415.5 164.833,415.5 159.5,415.5C 159.5,410.167 159.5,404.833 159.5,399.5 Z"/></g>
<g><path style="opacity:1" fill="#000590" d="M 271.5,399.5 C 271.5,404.833 271.5,410.167 271.5,415.5C 266.167,415.5 260.833,415.5 255.5,415.5C 255.5,410.167 255.5,404.833 255.5,399.5C 260.833,399.5 266.167,399.5 271.5,399.5 Z"/></g>
<g><path style="opacity:1" fill="#1469f1" d="M 271.5,399.5 C 276.833,399.5 282.167,399.5 287.5,399.5C 287.5,404.833 287.5,410.167 287.5,415.5C 282.167,415.5 276.833,415.5 271.5,415.5C 271.5,410.167 271.5,404.833 271.5,399.5 Z"/></g>
<g><path style="opacity:1" fill="#000590" d="M 303.5,399.5 C 308.833,399.5 314.167,399.5 319.5,399.5C 319.5,404.833 319.5,410.167 319.5,415.5C 314.167,415.5 308.833,415.5 303.5,415.5C 303.5,410.167 303.5,404.833 303.5,399.5 Z"/></g>
<g><path style="opacity:1" fill="#1469f1" d="M 319.5,399.5 C 324.833,399.5 330.167,399.5 335.5,399.5C 335.5,404.833 335.5,410.167 335.5,415.5C 330.167,415.5 324.833,415.5 319.5,415.5C 319.5,410.167 319.5,404.833 319.5,399.5 Z"/></g>
<g><path style="opacity:1" fill="#000590" d="M 335.5,399.5 C 340.833,399.5 346.167,399.5 351.5,399.5C 351.5,404.833 351.5,410.167 351.5,415.5C 346.167,415.5 340.833,415.5 335.5,415.5C 335.5,410.167 335.5,404.833 335.5,399.5 Z"/></g>
<g><path style="opacity:1" fill="#1469f1" d="M 351.5,399.5 C 356.833,399.5 362.167,399.5 367.5,399.5C 367.5,404.833 367.5,410.167 367.5,415.5C 362.167,415.5 356.833,415.5 351.5,415.5C 351.5,410.167 351.5,404.833 351.5,399.5 Z"/></g>
<g><path style="opacity:1" fill="#000590" d="M 367.5,399.5 C 372.833,399.5 378.167,399.5 383.5,399.5C 383.5,404.833 383.5,410.167 383.5,415.5C 378.167,415.5 372.833,415.5 367.5,415.5C 367.5,410.167 367.5,404.833 367.5,399.5 Z"/></g>
<g><path style="opacity:1" fill="#1469f1" d="M 383.5,399.5 C 388.833,399.5 394.167,399.5 399.5,399.5C 399.5,404.833 399.5,410.167 399.5,415.5C 394.167,415.5 388.833,415.5 383.5,415.5C 383.5,410.167 383.5,404.833 383.5,399.5 Z"/></g>
<g><path style="opacity:1" fill="#000590" d="M 399.5,399.5 C 404.833,399.5 410.167,399.5 415.5,399.5C 415.5,404.833 415.5,410.167 415.5,415.5C 410.167,415.5 404.833,415.5 399.5,415.5C 399.5,410.167 399.5,404.833 399.5,399.5 Z"/></g>
<g><path style="opacity:1" fill="#1469f1" d="M 415.5,399.5 C 420.833,399.5 426.167,399.5 431.5,399.5C 431.5,404.833 431.5,410.167 431.5,415.5C 426.167,415.5 420.833,415.5 415.5,415.5C 415.5,410.167 415.5,404.833 415.5,399.5 Z"/></g>
<g><path style="opacity:1" fill="#000590" d="M 47.5,415.5 C 58.1667,415.5 68.8333,415.5 79.5,415.5C 79.5,420.833 79.5,426.167 79.5,431.5C 84.8333,431.5 90.1667,431.5 95.5,431.5C 95.5,426.167 95.5,420.833 95.5,415.5C 100.833,415.5 106.167,415.5 111.5,415.5C 111.5,420.833 111.5,426.167 111.5,431.5C 116.833,431.5 122.167,431.5 127.5,431.5C 127.5,426.167 127.5,420.833 127.5,415.5C 132.833,415.5 138.167,415.5 143.5,415.5C 143.5,420.833 143.5,426.167 143.5,431.5C 148.833,431.5 154.167,431.5 159.5,431.5C 159.5,436.833 159.5,442.167 159.5,447.5C 127.5,447.5 95.5,447.5 63.5,447.5C 63.5,442.167 63.5,436.833 63.5,431.5C 58.1667,431.5 52.8333,431.5 47.5,431.5C 47.5,426.167 47.5,420.833 47.5,415.5 Z"/></g>
<g><path style="opacity:1" fill="#1469f1" d="M 79.5,415.5 C 84.8333,415.5 90.1667,415.5 95.5,415.5C 95.5,420.833 95.5,426.167 95.5,431.5C 90.1667,431.5 84.8333,431.5 79.5,431.5C 79.5,426.167 79.5,420.833 79.5,415.5 Z"/></g>
<g><path style="opacity:1" fill="#1469f1" d="M 111.5,415.5 C 116.833,415.5 122.167,415.5 127.5,415.5C 127.5,420.833 127.5,426.167 127.5,431.5C 122.167,431.5 116.833,431.5 111.5,431.5C 111.5,426.167 111.5,420.833 111.5,415.5 Z"/></g>
<g><path style="opacity:1" fill="#55d3f1" d="M 143.5,415.5 C 148.833,415.5 154.167,415.5 159.5,415.5C 164.833,415.5 170.167,415.5 175.5,415.5C 175.5,420.833 175.5,426.167 175.5,431.5C 170.167,431.5 164.833,431.5 159.5,431.5C 154.167,431.5 148.833,431.5 143.5,431.5C 143.5,426.167 143.5,420.833 143.5,415.5 Z"/></g>
<g><path style="opacity:1" fill="#000590" d="M 175.5,415.5 C 202.167,415.5 228.833,415.5 255.5,415.5C 255.5,420.833 255.5,426.167 255.5,431.5C 228.833,431.5 202.167,431.5 175.5,431.5C 175.5,426.167 175.5,420.833 175.5,415.5 Z"/></g>
<g><path style="opacity:1" fill="#55d3f1" d="M 255.5,415.5 C 260.833,415.5 266.167,415.5 271.5,415.5C 276.833,415.5 282.167,415.5 287.5,415.5C 287.5,420.833 287.5,426.167 287.5,431.5C 282.167,431.5 276.833,431.5 271.5,431.5C 266.167,431.5 260.833,431.5 255.5,431.5C 255.5,426.167 255.5,420.833 255.5,415.5 Z"/></g>
<g><path style="opacity:1" fill="#000590" d="M 287.5,415.5 C 292.833,415.5 298.167,415.5 303.5,415.5C 303.5,420.833 303.5,426.167 303.5,431.5C 308.833,431.5 314.167,431.5 319.5,431.5C 319.5,426.167 319.5,420.833 319.5,415.5C 324.833,415.5 330.167,415.5 335.5,415.5C 335.5,420.833 335.5,426.167 335.5,431.5C 340.833,431.5 346.167,431.5 351.5,431.5C 351.5,426.167 351.5,420.833 351.5,415.5C 356.833,415.5 362.167,415.5 367.5,415.5C 367.5,420.833 367.5,426.167 367.5,431.5C 372.833,431.5 378.167,431.5 383.5,431.5C 383.5,426.167 383.5,420.833 383.5,415.5C 388.833,415.5 394.167,415.5 399.5,415.5C 399.5,420.833 399.5,426.167 399.5,431.5C 404.833,431.5 410.167,431.5 415.5,431.5C 415.5,426.167 415.5,420.833 415.5,415.5C 420.833,415.5 426.167,415.5 431.5,415.5C 436.833,415.5 442.167,415.5 447.5,415.5C 447.5,420.833 447.5,426.167 447.5,431.5C 447.5,436.833 447.5,442.167 447.5,447.5C 388.833,447.5 330.167,447.5 271.5,447.5C 271.5,442.167 271.5,436.833 271.5,431.5C 276.833,431.5 282.167,431.5 287.5,431.5C 287.5,426.167 287.5,420.833 287.5,415.5 Z"/></g>
<g><path style="opacity:1" fill="#1469f1" d="M 303.5,415.5 C 308.833,415.5 314.167,415.5 319.5,415.5C 319.5,420.833 319.5,426.167 319.5,431.5C 314.167,431.5 308.833,431.5 303.5,431.5C 303.5,426.167 303.5,420.833 303.5,415.5 Z"/></g>
<g><path style="opacity:1" fill="#1469f1" d="M 335.5,415.5 C 340.833,415.5 346.167,415.5 351.5,415.5C 351.5,420.833 351.5,426.167 351.5,431.5C 346.167,431.5 340.833,431.5 335.5,431.5C 335.5,426.167 335.5,420.833 335.5,415.5 Z"/></g>
<g><path style="opacity:1" fill="#1469f1" d="M 367.5,415.5 C 372.833,415.5 378.167,415.5 383.5,415.5C 383.5,420.833 383.5,426.167 383.5,431.5C 378.167,431.5 372.833,431.5 367.5,431.5C 367.5,426.167 367.5,420.833 367.5,415.5 Z"/></g>
<g><path style="opacity:1" fill="#1469f1" d="M 399.5,415.5 C 404.833,415.5 410.167,415.5 415.5,415.5C 415.5,420.833 415.5,426.167 415.5,431.5C 410.167,431.5 404.833,431.5 399.5,431.5C 399.5,426.167 399.5,420.833 399.5,415.5 Z"/></g>
<g><path style="opacity:1" fill="#1469f1" d="M 431.5,415.5 C 436.833,415.5 442.167,415.5 447.5,415.5C 447.5,420.833 447.5,426.167 447.5,431.5C 442.167,431.5 436.833,431.5 431.5,431.5C 431.5,426.167 431.5,420.833 431.5,415.5 Z"/></g>
<g><path style="opacity:1" fill="#1469f1" d="M 159.5,431.5 C 164.833,431.5 170.167,431.5 175.5,431.5C 175.5,436.833 175.5,442.167 175.5,447.5C 170.167,447.5 164.833,447.5 159.5,447.5C 159.5,442.167 159.5,436.833 159.5,431.5 Z"/></g>
<g><path style="opacity:1" fill="#55d3f1" d="M 175.5,431.5 C 202.167,431.5 228.833,431.5 255.5,431.5C 255.5,436.833 255.5,442.167 255.5,447.5C 228.833,447.5 202.167,447.5 175.5,447.5C 175.5,442.167 175.5,436.833 175.5,431.5 Z"/></g>
<g><path style="opacity:1" fill="#1469f1" d="M 255.5,431.5 C 260.833,431.5 266.167,431.5 271.5,431.5C 271.5,436.833 271.5,442.167 271.5,447.5C 266.167,447.5 260.833,447.5 255.5,447.5C 255.5,442.167 255.5,436.833 255.5,431.5 Z"/></g>
<g><path style="opacity:1" fill="#000590" d="M 159.5,447.5 C 164.833,447.5 170.167,447.5 175.5,447.5C 202.167,447.5 228.833,447.5 255.5,447.5C 260.833,447.5 266.167,447.5 271.5,447.5C 271.5,452.833 271.5,458.167 271.5,463.5C 234.167,463.5 196.833,463.5 159.5,463.5C 159.5,458.167 159.5,452.833 159.5,447.5 Z"/></g>
</svg>
