<?xml version="1.0" encoding="UTF-8"?>
<!DOCTYPE svg PUBLIC "-//W3C//DTD SVG 1.1//EN" "http://www.w3.org/Graphics/SVG/1.1/DTD/svg11.dtd">
<svg xmlns="http://www.w3.org/2000/svg" version="1.1" width="512px" height="512px" style="shape-rendering:geometricPrecision; text-rendering:geometricPrecision; image-rendering:optimizeQuality; fill-rule:evenodd; clip-rule:evenodd" xmlns:xlink="http://www.w3.org/1999/xlink">
<g><path style="opacity:1" fill="#de3cf0" d="M 191.5,47.5 C 159.5,47.5 127.5,47.5 95.5,47.5C 95.5,159.5 95.5,271.5 95.5,383.5C 95.5,388.833 95.5,394.167 95.5,399.5C 90.1667,399.5 84.8333,399.5 79.5,399.5C 79.5,298.167 79.5,196.833 79.5,95.5C 79.5,90.1667 79.5,84.8333 79.5,79.5C 68.8333,79.5 58.1667,79.5 47.5,79.5C 47.5,186.167 47.5,292.833 47.5,399.5C 47.5,404.833 47.5,410.167 47.5,415.5C 42.1667,415.5 36.8333,415.5 31.5,415.5C 31.5,308.833 31.5,202.167 31.5,95.5C 26.1667,95.5 20.8333,95.5 15.5,95.5C 15.5,212.833 15.5,330.167 15.5,447.5C 10.1667,447.5 4.83333,447.5 -0.5,447.5C -0.5,324.833 -0.5,202.167 -0.5,79.5C 10.1667,79.5 20.8333,79.5 31.5,79.5C 31.5,74.1667 31.5,68.8333 31.5,63.5C 47.5,63.5 63.5,63.5 79.5,63.5C 79.5,52.8333 79.5,42.1667 79.5,31.5C 116.833,31.5 154.167,31.5 191.5,31.5C 191.5,36.8333 191.5,42.1667 191.5,47.5 Z"/></g>
<g><path style="opacity:1" fill="#feddde" d="M 191.5,47.5 C 191.5,52.8333 191.5,58.1667 191.5,63.5C 196.833,63.5 202.167,63.5 207.5,63.5C 207.5,68.8333 207.5,74.1667 207.5,79.5C 212.833,79.5 218.167,79.5 223.5,79.5C 223.5,90.1667 223.5,100.833 223.5,111.5C 218.167,111.5 212.833,111.5 207.5,111.5C 207.5,106.167 207.5,100.833 207.5,95.5C 196.833,95.5 186.167,95.5 175.5,95.5C 175.5,100.833 175.5,106.167 175.5,111.5C 154.167,111.5 132.833,111.5 111.5,111.5C 111.5,116.833 111.5,122.167 111.5,127.5C 132.833,127.5 154.167,127.5 175.5,127.5C 175.5,132.833 175.5,138.167 175.5,143.5C 154.167,143.5 132.833,143.5 111.5,143.5C 111.5,148.833 111.5,154.167 111.5,159.5C 132.833,159.5 154.167,159.5 175.5,159.5C 175.5,164.833 175.5,170.167 175.5,175.5C 154.167,175.5 132.833,175.5 111.5,175.5C 111.5,180.833 111.5,186.167 111.5,191.5C 132.833,191.5 154.167,191.5 175.5,191.5C 175.5,196.833 175.5,202.167 175.5,207.5C 186.167,207.5 196.833,207.5 207.5,207.5C 207.5,212.833 207.5,218.167 207.5,223.5C 212.833,223.5 218.167,223.5 223.5,223.5C 223.5,234.167 223.5,244.833 223.5,255.5C 218.167,255.5 212.833,255.5 207.5,255.5C 207.5,250.167 207.5,244.833 207.5,239.5C 196.833,239.5 186.167,239.5 175.5,239.5C 175.5,244.833 175.5,250.167 175.5,255.5C 154.167,255.5 132.833,255.5 111.5,255.5C 111.5,260.833 111.5,266.167 111.5,271.5C 132.833,271.5 154.167,271.5 175.5,271.5C 175.5,276.833 175.5,282.167 175.5,287.5C 154.167,287.5 132.833,287.5 111.5,287.5C 111.5,292.833 111.5,298.167 111.5,303.5C 132.833,303.5 154.167,303.5 175.5,303.5C 175.5,308.833 175.5,314.167 175.5,319.5C 186.167,319.5 196.833,319.5 207.5,319.5C 207.5,324.833 207.5,330.167 207.5,335.5C 212.833,335.5 218.167,335.5 223.5,335.5C 223.5,356.833 223.5,378.167 223.5,399.5C 207.5,399.5 191.5,399.5 175.5,399.5C 175.5,394.167 175.5,388.833 175.5,383.5C 148.833,383.5 122.167,383.5 95.5,383.5C 95.5,271.5 95.5,159.5 95.5,47.5C 127.5,47.5 159.5,47.5 191.5,47.5 Z"/></g>
<g><path style="opacity:1" fill="#de3cf0" d="M 191.5,47.5 C 202.167,47.5 212.833,47.5 223.5,47.5C 223.5,52.8333 223.5,58.1667 223.5,63.5C 218.167,63.5 212.833,63.5 207.5,63.5C 202.167,63.5 196.833,63.5 191.5,63.5C 191.5,58.1667 191.5,52.8333 191.5,47.5 Z"/></g>
<g><path style="opacity:1" fill="#de3cf0" d="M 303.5,47.5 C 303.5,52.8333 303.5,58.1667 303.5,63.5C 298.167,63.5 292.833,63.5 287.5,63.5C 282.167,63.5 276.833,63.5 271.5,63.5C 271.5,58.1667 271.5,52.8333 271.5,47.5C 282.167,47.5 292.833,47.5 303.5,47.5 Z"/></g>
<g><path style="opacity:1" fill="#9620f1" d="M 303.5,47.5 C 351.5,47.5 399.5,47.5 447.5,47.5C 447.5,52.8333 447.5,58.1667 447.5,63.5C 452.833,63.5 458.167,63.5 463.5,63.5C 463.5,68.8333 463.5,74.1667 463.5,79.5C 458.167,79.5 452.833,79.5 447.5,79.5C 447.5,84.8333 447.5,90.1667 447.5,95.5C 447.5,100.833 447.5,106.167 447.5,111.5C 447.5,122.167 447.5,132.833 447.5,143.5C 447.5,154.167 447.5,164.833 447.5,175.5C 447.5,180.833 447.5,186.167 447.5,191.5C 447.5,202.167 447.5,212.833 447.5,223.5C 447.5,234.167 447.5,244.833 447.5,255.5C 447.5,260.833 447.5,266.167 447.5,271.5C 447.5,282.167 447.5,292.833 447.5,303.5C 447.5,314.167 447.5,324.833 447.5,335.5C 447.5,340.833 447.5,346.167 447.5,351.5C 447.5,362.167 447.5,372.833 447.5,383.5C 447.5,394.167 447.5,404.833 447.5,415.5C 394.167,415.5 340.833,415.5 287.5,415.5C 282.167,415.5 276.833,415.5 271.5,415.5C 271.5,410.167 271.5,404.833 271.5,399.5C 324.833,399.5 378.167,399.5 431.5,399.5C 431.5,287.5 431.5,175.5 431.5,63.5C 388.833,63.5 346.167,63.5 303.5,63.5C 303.5,58.1667 303.5,52.8333 303.5,47.5 Z"/></g>
<g><path style="opacity:1" fill="#feb7dd" d="M 207.5,63.5 C 212.833,63.5 218.167,63.5 223.5,63.5C 223.5,68.8333 223.5,74.1667 223.5,79.5C 218.167,79.5 212.833,79.5 207.5,79.5C 207.5,74.1667 207.5,68.8333 207.5,63.5 Z"/></g>
<g><path style="opacity:1" fill="#de3cf0" d="M 223.5,63.5 C 228.833,63.5 234.167,63.5 239.5,63.5C 239.5,68.8333 239.5,74.1667 239.5,79.5C 234.167,79.5 228.833,79.5 223.5,79.5C 223.5,74.1667 223.5,68.8333 223.5,63.5 Z"/></g>
<g><path style="opacity:1" fill="#de3cf0" d="M 271.5,63.5 C 271.5,68.8333 271.5,74.1667 271.5,79.5C 266.167,79.5 260.833,79.5 255.5,79.5C 255.5,74.1667 255.5,68.8333 255.5,63.5C 260.833,63.5 266.167,63.5 271.5,63.5 Z"/></g>
<g><path style="opacity:1" fill="#feb7dd" d="M 271.5,63.5 C 276.833,63.5 282.167,63.5 287.5,63.5C 287.5,68.8333 287.5,74.1667 287.5,79.5C 282.167,79.5 276.833,79.5 271.5,79.5C 271.5,74.1667 271.5,68.8333 271.5,63.5 Z"/></g>
<g><path style="opacity:1" fill="#feddde" d="M 287.5,63.5 C 292.833,63.5 298.167,63.5 303.5,63.5C 346.167,63.5 388.833,63.5 431.5,63.5C 431.5,175.5 431.5,287.5 431.5,399.5C 378.167,399.5 324.833,399.5 271.5,399.5C 271.5,388.833 271.5,378.167 271.5,367.5C 276.833,367.5 282.167,367.5 287.5,367.5C 287.5,362.167 287.5,356.833 287.5,351.5C 324.833,351.5 362.167,351.5 399.5,351.5C 399.5,346.167 399.5,340.833 399.5,335.5C 362.167,335.5 324.833,335.5 287.5,335.5C 287.5,330.167 287.5,324.833 287.5,319.5C 282.167,319.5 276.833,319.5 271.5,319.5C 271.5,308.833 271.5,298.167 271.5,287.5C 276.833,287.5 282.167,287.5 287.5,287.5C 287.5,282.167 287.5,276.833 287.5,271.5C 324.833,271.5 362.167,271.5 399.5,271.5C 399.5,266.167 399.5,260.833 399.5,255.5C 362.167,255.5 324.833,255.5 287.5,255.5C 287.5,250.167 287.5,244.833 287.5,239.5C 324.833,239.5 362.167,239.5 399.5,239.5C 399.5,234.167 399.5,228.833 399.5,223.5C 362.167,223.5 324.833,223.5 287.5,223.5C 287.5,218.167 287.5,212.833 287.5,207.5C 324.833,207.5 362.167,207.5 399.5,207.5C 399.5,202.167 399.5,196.833 399.5,191.5C 362.167,191.5 324.833,191.5 287.5,191.5C 287.5,186.167 287.5,180.833 287.5,175.5C 324.833,175.5 362.167,175.5 399.5,175.5C 399.5,170.167 399.5,164.833 399.5,159.5C 362.167,159.5 324.833,159.5 287.5,159.5C 287.5,154.167 287.5,148.833 287.5,143.5C 324.833,143.5 362.167,143.5 399.5,143.5C 399.5,138.167 399.5,132.833 399.5,127.5C 362.167,127.5 324.833,127.5 287.5,127.5C 287.5,122.167 287.5,116.833 287.5,111.5C 282.167,111.5 276.833,111.5 271.5,111.5C 271.5,100.833 271.5,90.1667 271.5,79.5C 276.833,79.5 282.167,79.5 287.5,79.5C 287.5,74.1667 287.5,68.8333 287.5,63.5 Z"/></g>
<g><path style="opacity:1" fill="#feddde" d="M 79.5,95.5 C 74.1667,95.5 68.8333,95.5 63.5,95.5C 63.5,196.833 63.5,298.167 63.5,399.5C 58.1667,399.5 52.8333,399.5 47.5,399.5C 47.5,292.833 47.5,186.167 47.5,79.5C 58.1667,79.5 68.8333,79.5 79.5,79.5C 79.5,84.8333 79.5,90.1667 79.5,95.5 Z"/></g>
<g><path style="opacity:1" fill="#feb7dd" d="M 175.5,95.5 C 154.167,95.5 132.833,95.5 111.5,95.5C 111.5,90.1667 111.5,84.8333 111.5,79.5C 132.833,79.5 154.167,79.5 175.5,79.5C 175.5,84.8333 175.5,90.1667 175.5,95.5 Z"/></g>
<g><path style="opacity:1" fill="#feb7dd" d="M 223.5,79.5 C 228.833,79.5 234.167,79.5 239.5,79.5C 239.5,84.8333 239.5,90.1667 239.5,95.5C 239.5,122.167 239.5,148.833 239.5,175.5C 239.5,255.5 239.5,335.5 239.5,415.5C 234.167,415.5 228.833,415.5 223.5,415.5C 223.5,410.167 223.5,404.833 223.5,399.5C 223.5,378.167 223.5,356.833 223.5,335.5C 218.167,335.5 212.833,335.5 207.5,335.5C 207.5,330.167 207.5,324.833 207.5,319.5C 212.833,319.5 218.167,319.5 223.5,319.5C 223.5,314.167 223.5,308.833 223.5,303.5C 218.167,303.5 212.833,303.5 207.5,303.5C 207.5,298.167 207.5,292.833 207.5,287.5C 212.833,287.5 218.167,287.5 223.5,287.5C 223.5,282.167 223.5,276.833 223.5,271.5C 218.167,271.5 212.833,271.5 207.5,271.5C 207.5,266.167 207.5,260.833 207.5,255.5C 212.833,255.5 218.167,255.5 223.5,255.5C 223.5,244.833 223.5,234.167 223.5,223.5C 218.167,223.5 212.833,223.5 207.5,223.5C 207.5,218.167 207.5,212.833 207.5,207.5C 212.833,207.5 218.167,207.5 223.5,207.5C 223.5,202.167 223.5,196.833 223.5,191.5C 218.167,191.5 212.833,191.5 207.5,191.5C 207.5,186.167 207.5,180.833 207.5,175.5C 212.833,175.5 218.167,175.5 223.5,175.5C 223.5,170.167 223.5,164.833 223.5,159.5C 218.167,159.5 212.833,159.5 207.5,159.5C 207.5,154.167 207.5,148.833 207.5,143.5C 212.833,143.5 218.167,143.5 223.5,143.5C 223.5,138.167 223.5,132.833 223.5,127.5C 218.167,127.5 212.833,127.5 207.5,127.5C 207.5,122.167 207.5,116.833 207.5,111.5C 212.833,111.5 218.167,111.5 223.5,111.5C 223.5,100.833 223.5,90.1667 223.5,79.5 Z"/></g>
<g><path style="opacity:1" fill="#9620f1" d="M 239.5,79.5 C 244.833,79.5 250.167,79.5 255.5,79.5C 255.5,84.8333 255.5,90.1667 255.5,95.5C 250.167,95.5 244.833,95.5 239.5,95.5C 239.5,90.1667 239.5,84.8333 239.5,79.5 Z"/></g>
<g><path style="opacity:1" fill="#feb7dd" d="M 255.5,79.5 C 260.833,79.5 266.167,79.5 271.5,79.5C 271.5,90.1667 271.5,100.833 271.5,111.5C 276.833,111.5 282.167,111.5 287.5,111.5C 287.5,116.833 287.5,122.167 287.5,127.5C 282.167,127.5 276.833,127.5 271.5,127.5C 271.5,132.833 271.5,138.167 271.5,143.5C 276.833,143.5 282.167,143.5 287.5,143.5C 287.5,148.833 287.5,154.167 287.5,159.5C 282.167,159.5 276.833,159.5 271.5,159.5C 271.5,164.833 271.5,170.167 271.5,175.5C 276.833,175.5 282.167,175.5 287.5,175.5C 287.5,180.833 287.5,186.167 287.5,191.5C 282.167,191.5 276.833,191.5 271.5,191.5C 271.5,196.833 271.5,202.167 271.5,207.5C 276.833,207.5 282.167,207.5 287.5,207.5C 287.5,212.833 287.5,218.167 287.5,223.5C 282.167,223.5 276.833,223.5 271.5,223.5C 271.5,228.833 271.5,234.167 271.5,239.5C 276.833,239.5 282.167,239.5 287.5,239.5C 287.5,244.833 287.5,250.167 287.5,255.5C 282.167,255.5 276.833,255.5 271.5,255.5C 271.5,260.833 271.5,266.167 271.5,271.5C 276.833,271.5 282.167,271.5 287.5,271.5C 287.5,276.833 287.5,282.167 287.5,287.5C 282.167,287.5 276.833,287.5 271.5,287.5C 271.5,298.167 271.5,308.833 271.5,319.5C 276.833,319.5 282.167,319.5 287.5,319.5C 287.5,324.833 287.5,330.167 287.5,335.5C 282.167,335.5 276.833,335.5 271.5,335.5C 271.5,340.833 271.5,346.167 271.5,351.5C 276.833,351.5 282.167,351.5 287.5,351.5C 287.5,356.833 287.5,362.167 287.5,367.5C 282.167,367.5 276.833,367.5 271.5,367.5C 271.5,378.167 271.5,388.833 271.5,399.5C 271.5,404.833 271.5,410.167 271.5,415.5C 266.167,415.5 260.833,415.5 255.5,415.5C 255.5,335.5 255.5,255.5 255.5,175.5C 255.5,148.833 255.5,122.167 255.5,95.5C 255.5,90.1667 255.5,84.8333 255.5,79.5 Z"/></g>
<g><path style="opacity:1" fill="#000590" d="M 463.5,79.5 C 468.833,79.5 474.167,79.5 479.5,79.5C 479.5,84.8333 479.5,90.1667 479.5,95.5C 468.833,95.5 458.167,95.5 447.5,95.5C 447.5,90.1667 447.5,84.8333 447.5,79.5C 452.833,79.5 458.167,79.5 463.5,79.5 Z"/></g>
<g><path style="opacity:1" fill="#9620f1" d="M 479.5,79.5 C 484.833,79.5 490.167,79.5 495.5,79.5C 495.5,84.8333 495.5,90.1667 495.5,95.5C 490.167,95.5 484.833,95.5 479.5,95.5C 479.5,90.1667 479.5,84.8333 479.5,79.5 Z"/></g>
<g><path style="opacity:1" fill="#9620f1" d="M 31.5,415.5 C 31.5,420.833 31.5,426.167 31.5,431.5C 36.8333,431.5 42.1667,431.5 47.5,431.5C 47.5,436.833 47.5,442.167 47.5,447.5C 36.8333,447.5 26.1667,447.5 15.5,447.5C 15.5,330.167 15.5,212.833 15.5,95.5C 20.8333,95.5 26.1667,95.5 31.5,95.5C 31.5,202.167 31.5,308.833 31.5,415.5 Z"/></g>
<g><path style="opacity:1" fill="#feb7dd" d="M 79.5,95.5 C 79.5,196.833 79.5,298.167 79.5,399.5C 74.1667,399.5 68.8333,399.5 63.5,399.5C 63.5,298.167 63.5,196.833 63.5,95.5C 68.8333,95.5 74.1667,95.5 79.5,95.5 Z"/></g>
<g><path style="opacity:1" fill="#feb7dd" d="M 175.5,95.5 C 186.167,95.5 196.833,95.5 207.5,95.5C 207.5,100.833 207.5,106.167 207.5,111.5C 196.833,111.5 186.167,111.5 175.5,111.5C 175.5,106.167 175.5,100.833 175.5,95.5 Z"/></g>
<g><path style="opacity:1" fill="#3037d6" d="M 239.5,95.5 C 244.833,95.5 250.167,95.5 255.5,95.5C 255.5,122.167 255.5,148.833 255.5,175.5C 250.167,175.5 244.833,175.5 239.5,175.5C 239.5,148.833 239.5,122.167 239.5,95.5 Z"/></g>
<g><path style="opacity:1" fill="#feb7dd" d="M 287.5,111.5 C 287.5,106.167 287.5,100.833 287.5,95.5C 324.833,95.5 362.167,95.5 399.5,95.5C 399.5,100.833 399.5,106.167 399.5,111.5C 362.167,111.5 324.833,111.5 287.5,111.5 Z"/></g>
<g><path style="opacity:1" fill="#008200" d="M 447.5,95.5 C 458.167,95.5 468.833,95.5 479.5,95.5C 484.833,95.5 490.167,95.5 495.5,95.5C 495.5,100.833 495.5,106.167 495.5,111.5C 479.5,111.5 463.5,111.5 447.5,111.5C 447.5,106.167 447.5,100.833 447.5,95.5 Z"/></g>
<g><path style="opacity:1" fill="#000590" d="M 495.5,95.5 C 500.833,95.5 506.167,95.5 511.5,95.5C 511.5,116.833 511.5,138.167 511.5,159.5C 506.167,159.5 500.833,159.5 495.5,159.5C 495.5,164.833 495.5,170.167 495.5,175.5C 479.5,175.5 463.5,175.5 447.5,175.5C 447.5,164.833 447.5,154.167 447.5,143.5C 463.5,143.5 479.5,143.5 495.5,143.5C 495.5,132.833 495.5,122.167 495.5,111.5C 495.5,106.167 495.5,100.833 495.5,95.5 Z"/></g>
<g><path style="opacity:1" fill="#feb7dd" d="M 175.5,111.5 C 175.5,116.833 175.5,122.167 175.5,127.5C 154.167,127.5 132.833,127.5 111.5,127.5C 111.5,122.167 111.5,116.833 111.5,111.5C 132.833,111.5 154.167,111.5 175.5,111.5 Z"/></g>
<g><path style="opacity:1" fill="#feddde" d="M 175.5,111.5 C 186.167,111.5 196.833,111.5 207.5,111.5C 207.5,116.833 207.5,122.167 207.5,127.5C 196.833,127.5 186.167,127.5 175.5,127.5C 175.5,122.167 175.5,116.833 175.5,111.5 Z"/></g>
<g><path style="opacity:1" fill="#9ae933" d="M 447.5,111.5 C 463.5,111.5 479.5,111.5 495.5,111.5C 495.5,122.167 495.5,132.833 495.5,143.5C 479.5,143.5 463.5,143.5 447.5,143.5C 447.5,132.833 447.5,122.167 447.5,111.5 Z"/></g>
<g><path style="opacity:1" fill="#feb7dd" d="M 175.5,127.5 C 186.167,127.5 196.833,127.5 207.5,127.5C 207.5,132.833 207.5,138.167 207.5,143.5C 196.833,143.5 186.167,143.5 175.5,143.5C 175.5,138.167 175.5,132.833 175.5,127.5 Z"/></g>
<g><path style="opacity:1" fill="#feddde" d="M 207.5,127.5 C 212.833,127.5 218.167,127.5 223.5,127.5C 223.5,132.833 223.5,138.167 223.5,143.5C 218.167,143.5 212.833,143.5 207.5,143.5C 207.5,138.167 207.5,132.833 207.5,127.5 Z"/></g>
<g><path style="opacity:1" fill="#feddde" d="M 287.5,127.5 C 287.5,132.833 287.5,138.167 287.5,143.5C 282.167,143.5 276.833,143.5 271.5,143.5C 271.5,138.167 271.5,132.833 271.5,127.5C 276.833,127.5 282.167,127.5 287.5,127.5 Z"/></g>
<g><path style="opacity:1" fill="#feb7dd" d="M 287.5,127.5 C 324.833,127.5 362.167,127.5 399.5,127.5C 399.5,132.833 399.5,138.167 399.5,143.5C 362.167,143.5 324.833,143.5 287.5,143.5C 287.5,138.167 287.5,132.833 287.5,127.5 Z"/></g>
<g><path style="opacity:1" fill="#feb7dd" d="M 175.5,143.5 C 175.5,148.833 175.5,154.167 175.5,159.5C 154.167,159.5 132.833,159.5 111.5,159.5C 111.5,154.167 111.5,148.833 111.5,143.5C 132.833,143.5 154.167,143.5 175.5,143.5 Z"/></g>
<g><path style="opacity:1" fill="#feddde" d="M 175.5,143.5 C 186.167,143.5 196.833,143.5 207.5,143.5C 207.5,148.833 207.5,154.167 207.5,159.5C 196.833,159.5 186.167,159.5 175.5,159.5C 175.5,154.167 175.5,148.833 175.5,143.5 Z"/></g>
<g><path style="opacity:1" fill="#feb7dd" d="M 175.5,159.5 C 186.167,159.5 196.833,159.5 207.5,159.5C 207.5,164.833 207.5,170.167 207.5,175.5C 196.833,175.5 186.167,175.5 175.5,175.5C 175.5,170.167 175.5,164.833 175.5,159.5 Z"/></g>
<g><path style="opacity:1" fill="#feddde" d="M 207.5,159.5 C 212.833,159.5 218.167,159.5 223.5,159.5C 223.5,164.833 223.5,170.167 223.5,175.5C 218.167,175.5 212.833,175.5 207.5,175.5C 207.5,170.167 207.5,164.833 207.5,159.5 Z"/></g>
<g><path style="opacity:1" fill="#feddde" d="M 287.5,159.5 C 287.5,164.833 287.5,170.167 287.5,175.5C 282.167,175.5 276.833,175.5 271.5,175.5C 271.5,170.167 271.5,164.833 271.5,159.5C 276.833,159.5 282.167,159.5 287.5,159.5 Z"/></g>
<g><path style="opacity:1" fill="#feb7dd" d="M 287.5,159.5 C 324.833,159.5 362.167,159.5 399.5,159.5C 399.5,164.833 399.5,170.167 399.5,175.5C 362.167,175.5 324.833,175.5 287.5,175.5C 287.5,170.167 287.5,164.833 287.5,159.5 Z"/></g>
<g><path style="opacity:1" fill="#feb7dd" d="M 175.5,175.5 C 175.5,180.833 175.5,186.167 175.5,191.5C 154.167,191.5 132.833,191.5 111.5,191.5C 111.5,186.167 111.5,180.833 111.5,175.5C 132.833,175.5 154.167,175.5 175.5,175.5 Z"/></g>
<g><path style="opacity:1" fill="#feddde" d="M 175.5,175.5 C 186.167,175.5 196.833,175.5 207.5,175.5C 207.5,180.833 207.5,186.167 207.5,191.5C 196.833,191.5 186.167,191.5 175.5,191.5C 175.5,186.167 175.5,180.833 175.5,175.5 Z"/></g>
<g><path style="opacity:1" fill="#000590" d="M 239.5,175.5 C 244.833,175.5 250.167,175.5 255.5,175.5C 255.5,255.5 255.5,335.5 255.5,415.5C 255.5,420.833 255.5,426.167 255.5,431.5C 260.833,431.5 266.167,431.5 271.5,431.5C 276.833,431.5 282.167,431.5 287.5,431.5C 287.5,436.833 287.5,442.167 287.5,447.5C 260.833,447.5 234.167,447.5 207.5,447.5C 207.5,442.167 207.5,436.833 207.5,431.5C 212.833,431.5 218.167,431.5 223.5,431.5C 228.833,431.5 234.167,431.5 239.5,431.5C 239.5,426.167 239.5,420.833 239.5,415.5C 239.5,335.5 239.5,255.5 239.5,175.5 Z"/></g>
<g><path style="opacity:1" fill="#bc06aa" d="M 447.5,175.5 C 463.5,175.5 479.5,175.5 495.5,175.5C 495.5,180.833 495.5,186.167 495.5,191.5C 479.5,191.5 463.5,191.5 447.5,191.5C 447.5,186.167 447.5,180.833 447.5,175.5 Z"/></g>
<g><path style="opacity:1" fill="#000590" d="M 495.5,175.5 C 500.833,175.5 506.167,175.5 511.5,175.5C 511.5,196.833 511.5,218.167 511.5,239.5C 506.167,239.5 500.833,239.5 495.5,239.5C 495.5,244.833 495.5,250.167 495.5,255.5C 479.5,255.5 463.5,255.5 447.5,255.5C 447.5,244.833 447.5,234.167 447.5,223.5C 463.5,223.5 479.5,223.5 495.5,223.5C 495.5,212.833 495.5,202.167 495.5,191.5C 495.5,186.167 495.5,180.833 495.5,175.5 Z"/></g>
<g><path style="opacity:1" fill="#feb7dd" d="M 175.5,191.5 C 186.167,191.5 196.833,191.5 207.5,191.5C 207.5,196.833 207.5,202.167 207.5,207.5C 196.833,207.5 186.167,207.5 175.5,207.5C 175.5,202.167 175.5,196.833 175.5,191.5 Z"/></g>
<g><path style="opacity:1" fill="#feddde" d="M 207.5,191.5 C 212.833,191.5 218.167,191.5 223.5,191.5C 223.5,196.833 223.5,202.167 223.5,207.5C 218.167,207.5 212.833,207.5 207.5,207.5C 207.5,202.167 207.5,196.833 207.5,191.5 Z"/></g>
<g><path style="opacity:1" fill="#feddde" d="M 287.5,191.5 C 287.5,196.833 287.5,202.167 287.5,207.5C 282.167,207.5 276.833,207.5 271.5,207.5C 271.5,202.167 271.5,196.833 271.5,191.5C 276.833,191.5 282.167,191.5 287.5,191.5 Z"/></g>
<g><path style="opacity:1" fill="#feb7dd" d="M 287.5,191.5 C 324.833,191.5 362.167,191.5 399.5,191.5C 399.5,196.833 399.5,202.167 399.5,207.5C 362.167,207.5 324.833,207.5 287.5,207.5C 287.5,202.167 287.5,196.833 287.5,191.5 Z"/></g>
<g><path style="opacity:1" fill="#de3cf0" d="M 447.5,191.5 C 463.5,191.5 479.5,191.5 495.5,191.5C 495.5,202.167 495.5,212.833 495.5,223.5C 479.5,223.5 463.5,223.5 447.5,223.5C 447.5,212.833 447.5,202.167 447.5,191.5 Z"/></g>
<g><path style="opacity:1" fill="#feb7dd" d="M 175.5,239.5 C 154.167,239.5 132.833,239.5 111.5,239.5C 111.5,234.167 111.5,228.833 111.5,223.5C 132.833,223.5 154.167,223.5 175.5,223.5C 175.5,228.833 175.5,234.167 175.5,239.5 Z"/></g>
<g><path style="opacity:1" fill="#feddde" d="M 287.5,223.5 C 287.5,228.833 287.5,234.167 287.5,239.5C 282.167,239.5 276.833,239.5 271.5,239.5C 271.5,234.167 271.5,228.833 271.5,223.5C 276.833,223.5 282.167,223.5 287.5,223.5 Z"/></g>
<g><path style="opacity:1" fill="#feb7dd" d="M 287.5,223.5 C 324.833,223.5 362.167,223.5 399.5,223.5C 399.5,228.833 399.5,234.167 399.5,239.5C 362.167,239.5 324.833,239.5 287.5,239.5C 287.5,234.167 287.5,228.833 287.5,223.5 Z"/></g>
<g><path style="opacity:1" fill="#feb7dd" d="M 175.5,239.5 C 186.167,239.5 196.833,239.5 207.5,239.5C 207.5,244.833 207.5,250.167 207.5,255.5C 196.833,255.5 186.167,255.5 175.5,255.5C 175.5,250.167 175.5,244.833 175.5,239.5 Z"/></g>
<g><path style="opacity:1" fill="#feb7dd" d="M 175.5,255.5 C 175.5,260.833 175.5,266.167 175.5,271.5C 154.167,271.5 132.833,271.5 111.5,271.5C 111.5,266.167 111.5,260.833 111.5,255.5C 132.833,255.5 154.167,255.5 175.5,255.5 Z"/></g>
<g><path style="opacity:1" fill="#feddde" d="M 175.5,255.5 C 186.167,255.5 196.833,255.5 207.5,255.5C 207.5,260.833 207.5,266.167 207.5,271.5C 196.833,271.5 186.167,271.5 175.5,271.5C 175.5,266.167 175.5,260.833 175.5,255.5 Z"/></g>
<g><path style="opacity:1" fill="#feddde" d="M 287.5,255.5 C 287.5,260.833 287.5,266.167 287.5,271.5C 282.167,271.5 276.833,271.5 271.5,271.5C 271.5,266.167 271.5,260.833 271.5,255.5C 276.833,255.5 282.167,255.5 287.5,255.5 Z"/></g>
<g><path style="opacity:1" fill="#feb7dd" d="M 287.5,255.5 C 324.833,255.5 362.167,255.5 399.5,255.5C 399.5,260.833 399.5,266.167 399.5,271.5C 362.167,271.5 324.833,271.5 287.5,271.5C 287.5,266.167 287.5,260.833 287.5,255.5 Z"/></g>
<g><path style="opacity:1" fill="#feb7dd" d="M 447.5,255.5 C 463.5,255.5 479.5,255.5 495.5,255.5C 495.5,260.833 495.5,266.167 495.5,271.5C 479.5,271.5 463.5,271.5 447.5,271.5C 447.5,266.167 447.5,260.833 447.5,255.5 Z"/></g>
<g><path style="opacity:1" fill="#000590" d="M 495.5,255.5 C 500.833,255.5 506.167,255.5 511.5,255.5C 511.5,276.833 511.5,298.167 511.5,319.5C 506.167,319.5 500.833,319.5 495.5,319.5C 495.5,324.833 495.5,330.167 495.5,335.5C 479.5,335.5 463.5,335.5 447.5,335.5C 447.5,324.833 447.5,314.167 447.5,303.5C 463.5,303.5 479.5,303.5 495.5,303.5C 495.5,292.833 495.5,282.167 495.5,271.5C 495.5,266.167 495.5,260.833 495.5,255.5 Z"/></g>
<g><path style="opacity:1" fill="#feb7dd" d="M 175.5,271.5 C 186.167,271.5 196.833,271.5 207.5,271.5C 207.5,276.833 207.5,282.167 207.5,287.5C 196.833,287.5 186.167,287.5 175.5,287.5C 175.5,282.167 175.5,276.833 175.5,271.5 Z"/></g>
<g><path style="opacity:1" fill="#feddde" d="M 207.5,271.5 C 212.833,271.5 218.167,271.5 223.5,271.5C 223.5,276.833 223.5,282.167 223.5,287.5C 218.167,287.5 212.833,287.5 207.5,287.5C 207.5,282.167 207.5,276.833 207.5,271.5 Z"/></g>
<g><path style="opacity:1" fill="#fee849" d="M 447.5,271.5 C 463.5,271.5 479.5,271.5 495.5,271.5C 495.5,282.167 495.5,292.833 495.5,303.5C 479.5,303.5 463.5,303.5 447.5,303.5C 447.5,292.833 447.5,282.167 447.5,271.5 Z"/></g>
<g><path style="opacity:1" fill="#feb7dd" d="M 175.5,287.5 C 175.5,292.833 175.5,298.167 175.5,303.5C 154.167,303.5 132.833,303.5 111.5,303.5C 111.5,298.167 111.5,292.833 111.5,287.5C 132.833,287.5 154.167,287.5 175.5,287.5 Z"/></g>
<g><path style="opacity:1" fill="#feddde" d="M 175.5,287.5 C 186.167,287.5 196.833,287.5 207.5,287.5C 207.5,292.833 207.5,298.167 207.5,303.5C 196.833,303.5 186.167,303.5 175.5,303.5C 175.5,298.167 175.5,292.833 175.5,287.5 Z"/></g>
<g><path style="opacity:1" fill="#feb7dd" d="M 175.5,303.5 C 186.167,303.5 196.833,303.5 207.5,303.5C 207.5,308.833 207.5,314.167 207.5,319.5C 196.833,319.5 186.167,319.5 175.5,319.5C 175.5,314.167 175.5,308.833 175.5,303.5 Z"/></g>
<g><path style="opacity:1" fill="#feddde" d="M 207.5,303.5 C 212.833,303.5 218.167,303.5 223.5,303.5C 223.5,308.833 223.5,314.167 223.5,319.5C 218.167,319.5 212.833,319.5 207.5,319.5C 207.5,314.167 207.5,308.833 207.5,303.5 Z"/></g>
<g><path style="opacity:1" fill="#feb7dd" d="M 287.5,319.5 C 287.5,314.167 287.5,308.833 287.5,303.5C 324.833,303.5 362.167,303.5 399.5,303.5C 399.5,308.833 399.5,314.167 399.5,319.5C 362.167,319.5 324.833,319.5 287.5,319.5 Z"/></g>
<g><path style="opacity:1" fill="#feddde" d="M 287.5,335.5 C 287.5,340.833 287.5,346.167 287.5,351.5C 282.167,351.5 276.833,351.5 271.5,351.5C 271.5,346.167 271.5,340.833 271.5,335.5C 276.833,335.5 282.167,335.5 287.5,335.5 Z"/></g>
<g><path style="opacity:1" fill="#feb7dd" d="M 287.5,335.5 C 324.833,335.5 362.167,335.5 399.5,335.5C 399.5,340.833 399.5,346.167 399.5,351.5C 362.167,351.5 324.833,351.5 287.5,351.5C 287.5,346.167 287.5,340.833 287.5,335.5 Z"/></g>
<g><path style="opacity:1" fill="#0088da" d="M 447.5,335.5 C 463.5,335.5 479.5,335.5 495.5,335.5C 495.5,340.833 495.5,346.167 495.5,351.5C 479.5,351.5 463.5,351.5 447.5,351.5C 447.5,346.167 447.5,340.833 447.5,335.5 Z"/></g>
<g><path style="opacity:1" fill="#000590" d="M 495.5,335.5 C 500.833,335.5 506.167,335.5 511.5,335.5C 511.5,356.833 511.5,378.167 511.5,399.5C 506.167,399.5 500.833,399.5 495.5,399.5C 495.5,420.833 495.5,442.167 495.5,463.5C 426.167,463.5 356.833,463.5 287.5,463.5C 287.5,458.167 287.5,452.833 287.5,447.5C 292.833,447.5 298.167,447.5 303.5,447.5C 303.5,442.167 303.5,436.833 303.5,431.5C 298.167,431.5 292.833,431.5 287.5,431.5C 287.5,426.167 287.5,420.833 287.5,415.5C 340.833,415.5 394.167,415.5 447.5,415.5C 447.5,404.833 447.5,394.167 447.5,383.5C 463.5,383.5 479.5,383.5 495.5,383.5C 495.5,372.833 495.5,362.167 495.5,351.5C 495.5,346.167 495.5,340.833 495.5,335.5 Z"/></g>
<g><path style="opacity:1" fill="#00fffe" d="M 447.5,351.5 C 463.5,351.5 479.5,351.5 495.5,351.5C 495.5,362.167 495.5,372.833 495.5,383.5C 479.5,383.5 463.5,383.5 447.5,383.5C 447.5,372.833 447.5,362.167 447.5,351.5 Z"/></g>
<g><path style="opacity:1" fill="#9620f1" d="M 95.5,383.5 C 122.167,383.5 148.833,383.5 175.5,383.5C 175.5,388.833 175.5,394.167 175.5,399.5C 191.5,399.5 207.5,399.5 223.5,399.5C 223.5,404.833 223.5,410.167 223.5,415.5C 218.167,415.5 212.833,415.5 207.5,415.5C 154.167,415.5 100.833,415.5 47.5,415.5C 47.5,410.167 47.5,404.833 47.5,399.5C 52.8333,399.5 58.1667,399.5 63.5,399.5C 68.8333,399.5 74.1667,399.5 79.5,399.5C 84.8333,399.5 90.1667,399.5 95.5,399.5C 95.5,394.167 95.5,388.833 95.5,383.5 Z"/></g>
<g><path style="opacity:1" fill="#000590" d="M 31.5,415.5 C 36.8333,415.5 42.1667,415.5 47.5,415.5C 100.833,415.5 154.167,415.5 207.5,415.5C 207.5,420.833 207.5,426.167 207.5,431.5C 154.167,431.5 100.833,431.5 47.5,431.5C 42.1667,431.5 36.8333,431.5 31.5,431.5C 31.5,426.167 31.5,420.833 31.5,415.5 Z"/></g>
<g><path style="opacity:1" fill="#3037d6" d="M 207.5,415.5 C 212.833,415.5 218.167,415.5 223.5,415.5C 223.5,420.833 223.5,426.167 223.5,431.5C 218.167,431.5 212.833,431.5 207.5,431.5C 207.5,426.167 207.5,420.833 207.5,415.5 Z"/></g>
<g><path style="opacity:1" fill="#9620f1" d="M 223.5,415.5 C 228.833,415.5 234.167,415.5 239.5,415.5C 239.5,420.833 239.5,426.167 239.5,431.5C 234.167,431.5 228.833,431.5 223.5,431.5C 223.5,426.167 223.5,420.833 223.5,415.5 Z"/></g>
<g><path style="opacity:1" fill="#9620f1" d="M 255.5,415.5 C 260.833,415.5 266.167,415.5 271.5,415.5C 271.5,420.833 271.5,426.167 271.5,431.5C 266.167,431.5 260.833,431.5 255.5,431.5C 255.5,426.167 255.5,420.833 255.5,415.5 Z"/></g>
<g><path style="opacity:1" fill="#3037d6" d="M 271.5,415.5 C 276.833,415.5 282.167,415.5 287.5,415.5C 287.5,420.833 287.5,426.167 287.5,431.5C 282.167,431.5 276.833,431.5 271.5,431.5C 271.5,426.167 271.5,420.833 271.5,415.5 Z"/></g>
<g><path style="opacity:1" fill="#3037d6" d="M 463.5,431.5 C 463.5,426.167 463.5,420.833 463.5,415.5C 468.833,415.5 474.167,415.5 479.5,415.5C 479.5,420.833 479.5,426.167 479.5,431.5C 474.167,431.5 468.833,431.5 463.5,431.5 Z"/></g>
<g><path style="opacity:1" fill="#3037d6" d="M 47.5,431.5 C 100.833,431.5 154.167,431.5 207.5,431.5C 207.5,436.833 207.5,442.167 207.5,447.5C 154.167,447.5 100.833,447.5 47.5,447.5C 47.5,442.167 47.5,436.833 47.5,431.5 Z"/></g>
<g><path style="opacity:1" fill="#3037d6" d="M 287.5,431.5 C 292.833,431.5 298.167,431.5 303.5,431.5C 303.5,436.833 303.5,442.167 303.5,447.5C 298.167,447.5 292.833,447.5 287.5,447.5C 287.5,442.167 287.5,436.833 287.5,431.5 Z"/></g>
<g><path style="opacity:1" fill="#3037d6" d="M 319.5,431.5 C 324.833,431.5 330.167,431.5 335.5,431.5C 335.5,436.833 335.5,442.167 335.5,447.5C 330.167,447.5 324.833,447.5 319.5,447.5C 319.5,442.167 319.5,436.833 319.5,431.5 Z"/></g>
<g><path style="opacity:1" fill="#3037d6" d="M 351.5,431.5 C 356.833,431.5 362.167,431.5 367.5,431.5C 367.5,436.833 367.5,442.167 367.5,447.5C 362.167,447.5 356.833,447.5 351.5,447.5C 351.5,442.167 351.5,436.833 351.5,431.5 Z"/></g>
<g><path style="opacity:1" fill="#3037d6" d="M 383.5,431.5 C 388.833,431.5 394.167,431.5 399.5,431.5C 399.5,436.833 399.5,442.167 399.5,447.5C 394.167,447.5 388.833,447.5 383.5,447.5C 383.5,442.167 383.5,436.833 383.5,431.5 Z"/></g>
<g><path style="opacity:1" fill="#3037d6" d="M 415.5,431.5 C 420.833,431.5 426.167,431.5 431.5,431.5C 431.5,436.833 431.5,442.167 431.5,447.5C 426.167,447.5 420.833,447.5 415.5,447.5C 415.5,442.167 415.5,436.833 415.5,431.5 Z"/></g>
<g><path style="opacity:1" fill="#3037d6" d="M 463.5,431.5 C 468.833,431.5 474.167,431.5 479.5,431.5C 479.5,426.167 479.5,420.833 479.5,415.5C 474.167,415.5 468.833,415.5 463.5,415.5C 463.5,420.833 463.5,426.167 463.5,431.5 Z"/></g>
<g><path style="opacity:1" fill="#000590" d="M -0.5,447.5 C 4.83333,447.5 10.1667,447.5 15.5,447.5C 26.1667,447.5 36.8333,447.5 47.5,447.5C 100.833,447.5 154.167,447.5 207.5,447.5C 207.5,452.833 207.5,458.167 207.5,463.5C 138.167,463.5 68.8333,463.5 -0.5,463.5C -0.5,458.167 -0.5,452.833 -0.5,447.5 Z"/></g>
<g><path style="opacity:1" fill="#3037d6" d="M 207.5,447.5 C 234.167,447.5 260.833,447.5 287.5,447.5C 287.5,452.833 287.5,458.167 287.5,463.5C 260.833,463.5 234.167,463.5 207.5,463.5C 207.5,458.167 207.5,452.833 207.5,447.5 Z"/></g>
<g><path style="opacity:1" fill="#000590" d="M 207.5,463.5 C 234.167,463.5 260.833,463.5 287.5,463.5C 287.5,468.833 287.5,474.167 287.5,479.5C 260.833,479.5 234.167,479.5 207.5,479.5C 207.5,474.167 207.5,468.833 207.5,463.5 Z"/></g>
</svg>
