<?xml version="1.0" encoding="UTF-8"?>
<svg version="1.1" xmlns="http://www.w3.org/2000/svg" width="256" height="256">
<path d="M0 0 C23.76 0 47.52 0 72 0 C72 2.64 72 5.28 72 8 C79.92 8 87.84 8 96 8 C96 10.64 96 13.28 96 16 C101.28 16 106.56 16 112 16 C112 18.64 112 21.28 112 24 C117.28 24 122.56 24 128 24 C128 26.64 128 29.28 128 32 C130.64 32 133.28 32 136 32 C136 34.64 136 37.28 136 40 C138.64 40 141.28 40 144 40 C144 42.64 144 45.28 144 48 C146.64 48 149.28 48 152 48 C152 50.64 152 53.28 152 56 C154.64 56 157.28 56 160 56 C160 58.64 160 61.28 160 64 C162.64 64 165.28 64 168 64 C168 66.64 168 69.28 168 72 C170.64 72 173.28 72 176 72 C176 90.48 176 108.96 176 128 C173.36 128 170.72 128 168 128 C168 130.64 168 133.28 168 136 C170.64 136 173.28 136 176 136 C176 151.84 176 167.68 176 184 C170.72 184 165.44 184 160 184 C160 186.64 160 189.28 160 192 C154.72 192 149.44 192 144 192 C144 194.64 144 197.28 144 200 C138.72 200 133.44 200 128 200 C128 202.64 128 205.28 128 208 C122.72 208 117.44 208 112 208 C112 210.64 112 213.28 112 216 C106.72 216 101.44 216 96 216 C96 218.64 96 221.28 96 224 C90.72 224 85.44 224 80 224 C80 226.64 80 229.28 80 232 C74.72 232 69.44 232 64 232 C64 234.64 64 237.28 64 240 C58.72 240 53.44 240 48 240 C48 242.64 48 245.28 48 248 C40.08 248 32.16 248 24 248 C24 245.36 24 242.72 24 240 C18.72 240 13.44 240 8 240 C8 237.36 8 234.72 8 232 C2.72 232 -2.56 232 -8 232 C-8 229.36 -8 226.72 -8 224 C-13.28 224 -18.56 224 -24 224 C-24 221.36 -24 218.72 -24 216 C-29.28 216 -34.56 216 -40 216 C-40 213.36 -40 210.72 -40 208 C-45.28 208 -50.56 208 -56 208 C-56 205.36 -56 202.72 -56 200 C-61.28 200 -66.56 200 -72 200 C-72 197.36 -72 194.72 -72 192 C-74.64 192 -77.28 192 -80 192 C-80 176.16 -80 160.32 -80 144 C-77.36 144 -74.72 144 -72 144 C-72 141.36 -72 138.72 -72 136 C-69.36 136 -66.72 136 -64 136 C-64 133.36 -64 130.72 -64 128 C-61.36 128 -58.72 128 -56 128 C-56 120.08 -56 112.16 -56 104 C-53.36 104 -50.72 104 -48 104 C-48 101.36 -48 98.72 -48 96 C-45.36 96 -42.72 96 -40 96 C-40 93.36 -40 90.72 -40 88 C-37.36 88 -34.72 88 -32 88 C-32 85.36 -32 82.72 -32 80 C-29.36 80 -26.72 80 -24 80 C-24 77.36 -24 74.72 -24 72 C-26.64 72 -29.28 72 -32 72 C-32 64.08 -32 56.16 -32 48 C-29.36 48 -26.72 48 -24 48 C-24 45.36 -24 42.72 -24 40 C-26.64 40 -29.28 40 -32 40 C-32 34.72 -32 29.44 -32 24 C-29.36 24 -26.72 24 -24 24 C-24 21.36 -24 18.72 -24 16 C-21.36 16 -18.72 16 -16 16 C-16 13.36 -16 10.72 -16 8 C-10.72 8 -5.44 8 0 8 C0 5.36 0 2.72 0 0 Z " fill="#FFDDDF" transform="translate(80,8)"/>
<path d="M0 0 C5.28 0 10.56 0 16 0 C16 10.56 16 21.12 16 32 C21.28 32 26.56 32 32 32 C32 34.64 32 37.28 32 40 C37.28 40 42.56 40 48 40 C48 42.64 48 45.28 48 48 C50.64 48 53.28 48 56 48 C56 40.08 56 32.16 56 24 C61.28 24 66.56 24 72 24 C72 39.84 72 55.68 72 72 C69.36 72 66.72 72 64 72 C64 74.64 64 77.28 64 80 C61.36 80 58.72 80 56 80 C56 82.64 56 85.28 56 88 C53.36 88 50.72 88 48 88 C48 90.64 48 93.28 48 96 C45.36 96 42.72 96 40 96 C40 98.64 40 101.28 40 104 C37.36 104 34.72 104 32 104 C32 106.64 32 109.28 32 112 C29.36 112 26.72 112 24 112 C24 114.64 24 117.28 24 120 C21.36 120 18.72 120 16 120 C16 122.64 16 125.28 16 128 C13.36 128 10.72 128 8 128 C8 135.92 8 143.84 8 152 C5.36 152 2.72 152 0 152 C0 154.64 0 157.28 0 160 C5.28 160 10.56 160 16 160 C16 162.64 16 165.28 16 168 C18.64 168 21.28 168 24 168 C24 170.64 24 173.28 24 176 C21.36 176 18.72 176 16 176 C16 186.56 16 197.12 16 208 C10.72 208 5.44 208 0 208 C0 205.36 0 202.72 0 200 C-5.28 200 -10.56 200 -16 200 C-16 197.36 -16 194.72 -16 192 C-21.28 192 -26.56 192 -32 192 C-32 189.36 -32 186.72 -32 184 C-37.28 184 -42.56 184 -48 184 C-48 181.36 -48 178.72 -48 176 C-53.28 176 -58.56 176 -64 176 C-64 173.36 -64 170.72 -64 168 C-77.2 168 -90.4 168 -104 168 C-104 152.16 -104 136.32 -104 120 C-101.36 120 -98.72 120 -96 120 C-96 117.36 -96 114.72 -96 112 C-93.36 112 -90.72 112 -88 112 C-88 109.36 -88 106.72 -88 104 C-85.36 104 -82.72 104 -80 104 C-80 96.08 -80 88.16 -80 80 C-77.36 80 -74.72 80 -72 80 C-72 77.36 -72 74.72 -72 72 C-69.36 72 -66.72 72 -64 72 C-64 69.36 -64 66.72 -64 64 C-61.36 64 -58.72 64 -56 64 C-56 61.36 -56 58.72 -56 56 C-53.36 56 -50.72 56 -48 56 C-48 53.36 -48 50.72 -48 48 C-50.64 48 -53.28 48 -56 48 C-56 40.08 -56 32.16 -56 24 C-48.08 24 -40.16 24 -32 24 C-32 29.28 -32 34.56 -32 40 C-29.36 40 -26.72 40 -24 40 C-24 37.36 -24 34.72 -24 32 C-21.36 32 -18.72 32 -16 32 C-16 29.36 -16 26.72 -16 24 C-10.72 24 -5.44 24 0 24 C0 16.08 0 8.16 0 0 Z " fill="#FFDCDE" transform="translate(104,32)"/>
<path d="M0 0 C2.64 0 5.28 0 8 0 C8 18.48 8 36.96 8 56 C5.36 56 2.72 56 0 56 C0 58.64 0 61.28 0 64 C2.64 64 5.28 64 8 64 C8 79.84 8 95.68 8 112 C2.72 112 -2.56 112 -8 112 C-8 114.64 -8 117.28 -8 120 C-13.28 120 -18.56 120 -24 120 C-24 122.64 -24 125.28 -24 128 C-29.28 128 -34.56 128 -40 128 C-40 130.64 -40 133.28 -40 136 C-45.28 136 -50.56 136 -56 136 C-56 138.64 -56 141.28 -56 144 C-61.28 144 -66.56 144 -72 144 C-72 146.64 -72 149.28 -72 152 C-77.28 152 -82.56 152 -88 152 C-88 154.64 -88 157.28 -88 160 C-93.28 160 -98.56 160 -104 160 C-104 162.64 -104 165.28 -104 168 C-109.28 168 -114.56 168 -120 168 C-120 170.64 -120 173.28 -120 176 C-127.92 176 -135.84 176 -144 176 C-144 173.36 -144 170.72 -144 168 C-149.28 168 -154.56 168 -160 168 C-160 165.36 -160 162.72 -160 160 C-165.28 160 -170.56 160 -176 160 C-176 157.36 -176 154.72 -176 152 C-181.28 152 -186.56 152 -192 152 C-192 149.36 -192 146.72 -192 144 C-197.28 144 -202.56 144 -208 144 C-208 141.36 -208 138.72 -208 136 C-213.28 136 -218.56 136 -224 136 C-224 133.36 -224 130.72 -224 128 C-229.28 128 -234.56 128 -240 128 C-240 125.36 -240 122.72 -240 120 C-229.44 120 -218.88 120 -208 120 C-208 122.64 -208 125.28 -208 128 C-202.72 128 -197.44 128 -192 128 C-192 130.64 -192 133.28 -192 136 C-186.72 136 -181.44 136 -176 136 C-176 138.64 -176 141.28 -176 144 C-170.72 144 -165.44 144 -160 144 C-160 146.64 -160 149.28 -160 152 C-154.72 152 -149.44 152 -144 152 C-144 154.64 -144 157.28 -144 160 C-138.72 160 -133.44 160 -128 160 C-128 149.44 -128 138.88 -128 128 C-125.36 128 -122.72 128 -120 128 C-120 125.36 -120 122.72 -120 120 C-122.64 120 -125.28 120 -128 120 C-128 117.36 -128 114.72 -128 112 C-133.28 112 -138.56 112 -144 112 C-144 109.36 -144 106.72 -144 104 C-136.08 104 -128.16 104 -120 104 C-120 101.36 -120 98.72 -120 96 C-114.72 96 -109.44 96 -104 96 C-104 93.36 -104 90.72 -104 88 C-98.72 88 -93.44 88 -88 88 C-88 85.36 -88 82.72 -88 80 C-82.72 80 -77.44 80 -72 80 C-72 77.36 -72 74.72 -72 72 C-66.72 72 -61.44 72 -56 72 C-56 64.08 -56 56.16 -56 48 C-53.36 48 -50.72 48 -48 48 C-48 50.64 -48 53.28 -48 56 C-45.36 56 -42.72 56 -40 56 C-40 58.64 -40 61.28 -40 64 C-29.44 64 -18.88 64 -8 64 C-8 58.72 -8 53.44 -8 48 C-13.28 48 -18.56 48 -24 48 C-24 45.36 -24 42.72 -24 40 C-18.72 40 -13.44 40 -8 40 C-8 37.36 -8 34.72 -8 32 C-5.36 32 -2.72 32 0 32 C0 21.44 0 10.88 0 0 Z " fill="#9720F1" transform="translate(248,80)"/>
<path d="M0 0 C2.64 0 5.28 0 8 0 C8 10.56 8 21.12 8 32 C10.64 32 13.28 32 16 32 C16 34.64 16 37.28 16 40 C21.28 40 26.56 40 32 40 C32 42.64 32 45.28 32 48 C37.28 48 42.56 48 48 48 C48 50.64 48 53.28 48 56 C53.28 56 58.56 56 64 56 C64 58.64 64 61.28 64 64 C69.28 64 74.56 64 80 64 C80 69.28 80 74.56 80 80 C85.28 80 90.56 80 96 80 C96 82.64 96 85.28 96 88 C98.64 88 101.28 88 104 88 C104 90.64 104 93.28 104 96 C101.36 96 98.72 96 96 96 C96 106.56 96 117.12 96 128 C90.72 128 85.44 128 80 128 C80 125.36 80 122.72 80 120 C74.72 120 69.44 120 64 120 C64 117.36 64 114.72 64 112 C58.72 112 53.44 112 48 112 C48 109.36 48 106.72 48 104 C42.72 104 37.44 104 32 104 C32 101.36 32 98.72 32 96 C26.72 96 21.44 96 16 96 C16 93.36 16 90.72 16 88 C2.8 88 -10.4 88 -24 88 C-24 72.16 -24 56.32 -24 40 C-21.36 40 -18.72 40 -16 40 C-16 37.36 -16 34.72 -16 32 C-13.36 32 -10.72 32 -8 32 C-8 29.36 -8 26.72 -8 24 C-5.36 24 -2.72 24 0 24 C0 16.08 0 8.16 0 0 Z " fill="#FFDDDF" transform="translate(24,112)"/>
<path d="M0 0 C7.92 0 15.84 0 24 0 C24 2.64 24 5.28 24 8 C26.64 8 29.28 8 32 8 C32 39.68 32 71.36 32 104 C26.72 104 21.44 104 16 104 C16 106.64 16 109.28 16 112 C10.72 112 5.44 112 0 112 C0 114.64 0 117.28 0 120 C-5.28 120 -10.56 120 -16 120 C-16 122.64 -16 125.28 -16 128 C-21.28 128 -26.56 128 -32 128 C-32 130.64 -32 133.28 -32 136 C-37.28 136 -42.56 136 -48 136 C-48 128.08 -48 120.16 -48 112 C-45.36 112 -42.72 112 -40 112 C-40 109.36 -40 106.72 -40 104 C-37.36 104 -34.72 104 -32 104 C-32 101.36 -32 98.72 -32 96 C-29.36 96 -26.72 96 -24 96 C-24 93.36 -24 90.72 -24 88 C-21.36 88 -18.72 88 -16 88 C-16 85.36 -16 82.72 -16 80 C-13.36 80 -10.72 80 -8 80 C-8 77.36 -8 74.72 -8 72 C-5.36 72 -2.72 72 0 72 C0 69.36 0 66.72 0 64 C2.64 64 5.28 64 8 64 C8 61.36 8 58.72 8 56 C10.64 56 13.28 56 16 56 C16 40.16 16 24.32 16 8 C10.72 8 5.44 8 0 8 C0 5.36 0 2.72 0 0 Z " fill="#DF3CF0" transform="translate(160,48)"/>
<path d="M0 0 C2.64 0 5.28 0 8 0 C8 2.64 8 5.28 8 8 C13.28 8 18.56 8 24 8 C24 10.64 24 13.28 24 16 C29.28 16 34.56 16 40 16 C40 18.64 40 21.28 40 24 C45.28 24 50.56 24 56 24 C56 26.64 56 29.28 56 32 C61.28 32 66.56 32 72 32 C72 34.64 72 37.28 72 40 C77.28 40 82.56 40 88 40 C88 42.64 88 45.28 88 48 C93.28 48 98.56 48 104 48 C104 58.56 104 69.12 104 80 C98.72 80 93.44 80 88 80 C88 77.36 88 74.72 88 72 C82.72 72 77.44 72 72 72 C72 69.36 72 66.72 72 64 C66.72 64 61.44 64 56 64 C56 61.36 56 58.72 56 56 C50.72 56 45.44 56 40 56 C40 53.36 40 50.72 40 48 C34.72 48 29.44 48 24 48 C24 45.36 24 42.72 24 40 C18.72 40 13.44 40 8 40 C8 37.36 8 34.72 8 32 C5.36 32 2.72 32 0 32 C0 21.44 0 10.88 0 0 Z " fill="#55D3F1" transform="translate(16,160)"/>
<path d="M0 0 C2.64 0 5.28 0 8 0 C8 7.92 8 15.84 8 24 C10.64 24 13.28 24 16 24 C16 26.64 16 29.28 16 32 C26.56 32 37.12 32 48 32 C48 24.08 48 16.16 48 8 C50.64 8 53.28 8 56 8 C56 21.2 56 34.4 56 48 C53.36 48 50.72 48 48 48 C48 50.64 48 53.28 48 56 C42.72 56 37.44 56 32 56 C32 58.64 32 61.28 32 64 C37.28 64 42.56 64 48 64 C48 69.28 48 74.56 48 80 C37.44 80 26.88 80 16 80 C16 77.36 16 74.72 16 72 C13.36 72 10.72 72 8 72 C8 69.36 8 66.72 8 64 C5.36 64 2.72 64 0 64 C0 42.88 0 21.76 0 0 Z " fill="#FFB7DE" transform="translate(192,64)"/>
<path d="M0 0 C2.64 0 5.28 0 8 0 C8 2.64 8 5.28 8 8 C10.64 8 13.28 8 16 8 C16 10.64 16 13.28 16 16 C18.64 16 21.28 16 24 16 C24 18.64 24 21.28 24 24 C26.64 24 29.28 24 32 24 C32 21.36 32 18.72 32 16 C34.64 16 37.28 16 40 16 C40 18.64 40 21.28 40 24 C42.64 24 45.28 24 48 24 C48 26.64 48 29.28 48 32 C50.64 32 53.28 32 56 32 C56 34.64 56 37.28 56 40 C58.64 40 61.28 40 64 40 C64 37.36 64 34.72 64 32 C66.64 32 69.28 32 72 32 C72 34.64 72 37.28 72 40 C74.64 40 77.28 40 80 40 C80 47.92 80 55.84 80 64 C77.36 64 74.72 64 72 64 C72 61.36 72 58.72 72 56 C66.72 56 61.44 56 56 56 C56 53.36 56 50.72 56 48 C50.72 48 45.44 48 40 48 C40 45.36 40 42.72 40 40 C34.72 40 29.44 40 24 40 C24 37.36 24 34.72 24 32 C18.72 32 13.44 32 8 32 C8 29.36 8 26.72 8 24 C5.36 24 2.72 24 0 24 C0 16.08 0 8.16 0 0 Z " fill="#FFDDDF" transform="translate(32,120)"/>
<path d="M0 0 C2.64 0 5.28 0 8 0 C8 2.64 8 5.28 8 8 C10.64 8 13.28 8 16 8 C16 10.64 16 13.28 16 16 C26.56 16 37.12 16 48 16 C48 18.64 48 21.28 48 24 C37.44 24 26.88 24 16 24 C16 26.64 16 29.28 16 32 C10.72 32 5.44 32 0 32 C0 34.64 0 37.28 0 40 C-5.28 40 -10.56 40 -16 40 C-16 42.64 -16 45.28 -16 48 C-21.28 48 -26.56 48 -32 48 C-32 50.64 -32 53.28 -32 56 C-42.56 56 -53.12 56 -64 56 C-64 53.36 -64 50.72 -64 48 C-58.72 48 -53.44 48 -48 48 C-48 45.36 -48 42.72 -48 40 C-42.72 40 -37.44 40 -32 40 C-32 37.36 -32 34.72 -32 32 C-26.72 32 -21.44 32 -16 32 C-16 29.36 -16 26.72 -16 24 C-10.72 24 -5.44 24 0 24 C0 16.08 0 8.16 0 0 Z " fill="#9720F1" transform="translate(192,128)"/>
<path d="M0 0 C10.56 0 21.12 0 32 0 C32 2.64 32 5.28 32 8 C37.28 8 42.56 8 48 8 C48 10.64 48 13.28 48 16 C53.28 16 58.56 16 64 16 C64 18.64 64 21.28 64 24 C69.28 24 74.56 24 80 24 C80 26.64 80 29.28 80 32 C85.28 32 90.56 32 96 32 C96 37.28 96 42.56 96 48 C90.72 48 85.44 48 80 48 C80 45.36 80 42.72 80 40 C74.72 40 69.44 40 64 40 C64 37.36 64 34.72 64 32 C58.72 32 53.44 32 48 32 C48 29.36 48 26.72 48 24 C42.72 24 37.44 24 32 24 C32 21.36 32 18.72 32 16 C26.72 16 21.44 16 16 16 C16 13.36 16 10.72 16 8 C10.72 8 5.44 8 0 8 C0 5.36 0 2.72 0 0 Z " fill="#9720F1" transform="translate(8,200)"/>
<path d="M0 0 C5.28 0 10.56 0 16 0 C16 2.64 16 5.28 16 8 C21.28 8 26.56 8 32 8 C32 10.64 32 13.28 32 16 C29.36 16 26.72 16 24 16 C24 18.64 24 21.28 24 24 C21.36 24 18.72 24 16 24 C16 26.64 16 29.28 16 32 C10.72 32 5.44 32 0 32 C0 29.36 0 26.72 0 24 C-5.28 24 -10.56 24 -16 24 C-16 21.36 -16 18.72 -16 16 C-10.72 16 -5.44 16 0 16 C0 10.72 0 5.44 0 0 Z " fill="#DF3CF0" transform="translate(88,104)"/>
<path d="M0 0 C2.64 0 5.28 0 8 0 C8 18.48 8 36.96 8 56 C5.36 56 2.72 56 0 56 C0 58.64 0 61.28 0 64 C-2.64 64 -5.28 64 -8 64 C-8 58.72 -8 53.44 -8 48 C-13.28 48 -18.56 48 -24 48 C-24 45.36 -24 42.72 -24 40 C-18.72 40 -13.44 40 -8 40 C-8 37.36 -8 34.72 -8 32 C-5.36 32 -2.72 32 0 32 C0 21.44 0 10.88 0 0 Z " fill="#000690" transform="translate(248,80)"/>
<path d="M0 0 C7.92 0 15.84 0 24 0 C24 2.64 24 5.28 24 8 C26.64 8 29.28 8 32 8 C32 31.76 32 55.52 32 80 C29.36 80 26.72 80 24 80 C24 58.88 24 37.76 24 16 C21.36 16 18.72 16 16 16 C16 13.36 16 10.72 16 8 C10.72 8 5.44 8 0 8 C0 5.36 0 2.72 0 0 Z " fill="#000690" transform="translate(160,48)"/>
<path d="M0 0 C2.64 0 5.28 0 8 0 C8 13.2 8 26.4 8 40 C5.36 40 2.72 40 0 40 C0 42.64 0 45.28 0 48 C-5.28 48 -10.56 48 -16 48 C-16 40.08 -16 32.16 -16 24 C-10.72 24 -5.44 24 0 24 C0 16.08 0 8.16 0 0 Z " fill="#DF3CF0" transform="translate(240,72)"/>
<path d="M0 0 C2.64 0 5.28 0 8 0 C8 2.64 8 5.28 8 8 C10.64 8 13.28 8 16 8 C16 10.64 16 13.28 16 16 C21.28 16 26.56 16 32 16 C32 23.92 32 31.84 32 40 C29.36 40 26.72 40 24 40 C24 37.36 24 34.72 24 32 C18.72 32 13.44 32 8 32 C8 29.36 8 26.72 8 24 C5.36 24 2.72 24 0 24 C0 16.08 0 8.16 0 0 Z " fill="#9720F1" transform="translate(128,40)"/>
<path d="M0 0 C2.64 0 5.28 0 8 0 C8 7.92 8 15.84 8 24 C2.72 24 -2.56 24 -8 24 C-8 26.64 -8 29.28 -8 32 C-10.64 32 -13.28 32 -16 32 C-16 34.64 -16 37.28 -16 40 C-18.64 40 -21.28 40 -24 40 C-24 34.72 -24 29.44 -24 24 C-29.28 24 -34.56 24 -40 24 C-40 21.36 -40 18.72 -40 16 C-26.8 16 -13.6 16 0 16 C0 10.72 0 5.44 0 0 Z " fill="#9720F1" transform="translate(96,32)"/>
<path d="M0 0 C7.92 0 15.84 0 24 0 C24 7.92 24 15.84 24 24 C21.36 24 18.72 24 16 24 C16 26.64 16 29.28 16 32 C13.36 32 10.72 32 8 32 C8 29.36 8 26.72 8 24 C5.36 24 2.72 24 0 24 C0 16.08 0 8.16 0 0 Z " fill="#DF3CF0" transform="translate(48,56)"/>
<path d="M0 0 C2.64 0 5.28 0 8 0 C8 2.64 8 5.28 8 8 C10.64 8 13.28 8 16 8 C16 10.64 16 13.28 16 16 C26.56 16 37.12 16 48 16 C48 18.64 48 21.28 48 24 C32.16 24 16.32 24 0 24 C0 16.08 0 8.16 0 0 Z " fill="#000690" transform="translate(192,128)"/>
<path d="M0 0 C2.64 0 5.28 0 8 0 C8 15.84 8 31.68 8 48 C10.64 48 13.28 48 16 48 C16 50.64 16 53.28 16 56 C13.36 56 10.72 56 8 56 C8 58.64 8 61.28 8 64 C5.36 64 2.72 64 0 64 C0 42.88 0 21.76 0 0 Z " fill="#9720F1" transform="translate(192,64)"/>
<path d="M0 0 C23.76 0 47.52 0 72 0 C72 2.64 72 5.28 72 8 C48.24 8 24.48 8 0 8 C0 5.36 0 2.72 0 0 Z " fill="#9720F1" transform="translate(80,8)"/>
<path d="M0 0 C2.64 0 5.28 0 8 0 C8 13.2 8 26.4 8 40 C13.28 40 18.56 40 24 40 C24 42.64 24 45.28 24 48 C16.08 48 8.16 48 0 48 C0 32.16 0 16.32 0 0 Z " fill="#DF3CF0" transform="translate(0,152)"/>
<path d="M0 0 C2.64 0 5.28 0 8 0 C8 15.84 8 31.68 8 48 C2.72 48 -2.56 48 -8 48 C-8 45.36 -8 42.72 -8 40 C-5.36 40 -2.72 40 0 40 C0 26.8 0 13.6 0 0 Z " fill="#000690" transform="translate(248,144)"/>
<path d="M0 0 C2.64 0 5.28 0 8 0 C8 10.56 8 21.12 8 32 C10.64 32 13.28 32 16 32 C16 34.64 16 37.28 16 40 C10.72 40 5.44 40 0 40 C0 37.36 0 34.72 0 32 C-2.64 32 -5.28 32 -8 32 C-8 29.36 -8 26.72 -8 24 C-5.36 24 -2.72 24 0 24 C0 16.08 0 8.16 0 0 Z " fill="#DF3CF0" transform="translate(24,112)"/>
<path d="M0 0 C13.2 0 26.4 0 40 0 C40 2.64 40 5.28 40 8 C34.72 8 29.44 8 24 8 C24 10.64 24 13.28 24 16 C21.36 16 18.72 16 16 16 C16 13.36 16 10.72 16 8 C10.72 8 5.44 8 0 8 C0 5.36 0 2.72 0 0 Z " fill="#9720F1" transform="translate(104,184)"/>
<path d="M0 0 C5.28 0 10.56 0 16 0 C16 5.28 16 10.56 16 16 C8.08 16 0.16 16 -8 16 C-8 13.36 -8 10.72 -8 8 C-5.36 8 -2.72 8 0 8 C0 5.36 0 2.72 0 0 Z " fill="#DF3CF0" transform="translate(224,128)"/>
<path d="M0 0 C7.92 0 15.84 0 24 0 C24 7.92 24 15.84 24 24 C21.36 24 18.72 24 16 24 C16 18.72 16 13.44 16 8 C10.72 8 5.44 8 0 8 C0 5.36 0 2.72 0 0 Z " fill="#9720F1" transform="translate(224,120)"/>
<path d="M0 0 C2.64 0 5.28 0 8 0 C8 2.64 8 5.28 8 8 C13.28 8 18.56 8 24 8 C24 10.64 24 13.28 24 16 C21.36 16 18.72 16 16 16 C16 18.64 16 21.28 16 24 C13.36 24 10.72 24 8 24 C8 21.36 8 18.72 8 16 C5.36 16 2.72 16 0 16 C0 10.72 0 5.44 0 0 Z " fill="#FFB7DE" transform="translate(200,120)"/>
<path d="M0 0 C2.64 0 5.28 0 8 0 C8 13.2 8 26.4 8 40 C5.36 40 2.72 40 0 40 C0 26.8 0 13.6 0 0 Z " fill="#9720F1" transform="translate(240,72)"/>
<path d="M0 0 C2.64 0 5.28 0 8 0 C8 7.92 8 15.84 8 24 C5.36 24 2.72 24 0 24 C0 21.36 0 18.72 0 16 C-5.28 16 -10.56 16 -16 16 C-16 13.36 -16 10.72 -16 8 C-10.72 8 -5.44 8 0 8 C0 5.36 0 2.72 0 0 Z " fill="#000690" transform="translate(152,56)"/>
<path d="M0 0 C7.92 0 15.84 0 24 0 C24 2.64 24 5.28 24 8 C26.64 8 29.28 8 32 8 C32 10.64 32 13.28 32 16 C26.72 16 21.44 16 16 16 C16 13.36 16 10.72 16 8 C10.72 8 5.44 8 0 8 C0 5.36 0 2.72 0 0 Z " fill="#000690" transform="translate(160,48)"/>
<path d="M0 0 C5.28 0 10.56 0 16 0 C16 5.28 16 10.56 16 16 C10.72 16 5.44 16 0 16 C0 10.72 0 5.44 0 0 Z " fill="#FFDDDF" transform="translate(56,56)"/>
<path d="M0 0 C2.64 0 5.28 0 8 0 C8 10.56 8 21.12 8 32 C5.36 32 2.72 32 0 32 C0 21.44 0 10.88 0 0 Z " fill="#DF3CF0" transform="translate(120,32)"/>
<path d="M0 0 C10.56 0 21.12 0 32 0 C32 2.64 32 5.28 32 8 C21.44 8 10.88 8 0 8 C0 5.36 0 2.72 0 0 Z " fill="#DF3CF0" transform="translate(80,8)"/>
<path d="M0 0 C7.92 0 15.84 0 24 0 C24 2.64 24 5.28 24 8 C16.08 8 8.16 8 0 8 C0 5.36 0 2.72 0 0 Z " fill="#000690" transform="translate(104,248)"/>
<path d="M0 0 C7.92 0 15.84 0 24 0 C24 2.64 24 5.28 24 8 C16.08 8 8.16 8 0 8 C0 5.36 0 2.72 0 0 Z " fill="#FFDDDF" transform="translate(104,200)"/>
<path d="M0 0 C5.28 0 10.56 0 16 0 C16 2.64 16 5.28 16 8 C13.36 8 10.72 8 8 8 C8 10.64 8 13.28 8 16 C5.36 16 2.72 16 0 16 C0 10.72 0 5.44 0 0 Z " fill="#9720F1" transform="translate(104,112)"/>
<path d="M0 0 C2.64 0 5.28 0 8 0 C8 5.28 8 10.56 8 16 C2.72 16 -2.56 16 -8 16 C-8 13.36 -8 10.72 -8 8 C-5.36 8 -2.72 8 0 8 C0 5.36 0 2.72 0 0 Z " fill="#FFB7DE" transform="translate(112,96)"/>
<path d="M0 0 C5.28 0 10.56 0 16 0 C16 2.64 16 5.28 16 8 C13.36 8 10.72 8 8 8 C8 10.64 8 13.28 8 16 C5.36 16 2.72 16 0 16 C0 10.72 0 5.44 0 0 Z " fill="#9720F1" transform="translate(88,104)"/>
<path d="M0 0 C5.28 0 10.56 0 16 0 C16 2.64 16 5.28 16 8 C13.36 8 10.72 8 8 8 C8 10.64 8 13.28 8 16 C5.36 16 2.72 16 0 16 C0 10.72 0 5.44 0 0 Z " fill="#9720F1" transform="translate(120,96)"/>
<path d="M0 0 C5.28 0 10.56 0 16 0 C16 2.64 16 5.28 16 8 C13.36 8 10.72 8 8 8 C8 10.64 8 13.28 8 16 C5.36 16 2.72 16 0 16 C0 10.72 0 5.44 0 0 Z " fill="#DF3CF0" transform="translate(72,96)"/>
<path d="M0 0 C5.28 0 10.56 0 16 0 C16 2.64 16 5.28 16 8 C13.36 8 10.72 8 8 8 C8 10.64 8 13.28 8 16 C5.36 16 2.72 16 0 16 C0 10.72 0 5.44 0 0 Z " fill="#9720F1" transform="translate(104,88)"/>
<path d="M0 0 C5.28 0 10.56 0 16 0 C16 2.64 16 5.28 16 8 C13.36 8 10.72 8 8 8 C8 10.64 8 13.28 8 16 C5.36 16 2.72 16 0 16 C0 10.72 0 5.44 0 0 Z " fill="#DF3CF0" transform="translate(88,80)"/>
<path d="M0 0 C2.64 0 5.28 0 8 0 C8 7.92 8 15.84 8 24 C5.36 24 2.72 24 0 24 C0 16.08 0 8.16 0 0 Z " fill="#000690" transform="translate(128,40)"/>
<path d="M0 0 C7.92 0 15.84 0 24 0 C24 2.64 24 5.28 24 8 C16.08 8 8.16 8 0 8 C0 5.36 0 2.72 0 0 Z " fill="#9720F1" transform="translate(152,16)"/>
<path d="M0 0 C5.28 0 10.56 0 16 0 C16 2.64 16 5.28 16 8 C10.72 8 5.44 8 0 8 C0 5.36 0 2.72 0 0 Z " fill="#000690" transform="translate(128,240)"/>
<path d="M0 0 C5.28 0 10.56 0 16 0 C16 2.64 16 5.28 16 8 C10.72 8 5.44 8 0 8 C0 5.36 0 2.72 0 0 Z " fill="#000690" transform="translate(88,240)"/>
<path d="M0 0 C5.28 0 10.56 0 16 0 C16 2.64 16 5.28 16 8 C10.72 8 5.44 8 0 8 C0 5.36 0 2.72 0 0 Z " fill="#000690" transform="translate(144,232)"/>
<path d="M0 0 C5.28 0 10.56 0 16 0 C16 2.64 16 5.28 16 8 C10.72 8 5.44 8 0 8 C0 5.36 0 2.72 0 0 Z " fill="#9720F1" transform="translate(88,232)"/>
<path d="M0 0 C5.28 0 10.56 0 16 0 C16 2.64 16 5.28 16 8 C10.72 8 5.44 8 0 8 C0 5.36 0 2.72 0 0 Z " fill="#000690" transform="translate(72,232)"/>
<path d="M0 0 C5.28 0 10.56 0 16 0 C16 2.64 16 5.28 16 8 C10.72 8 5.44 8 0 8 C0 5.36 0 2.72 0 0 Z " fill="#000690" transform="translate(160,224)"/>
<path d="M0 0 C5.28 0 10.56 0 16 0 C16 2.64 16 5.28 16 8 C10.72 8 5.44 8 0 8 C0 5.36 0 2.72 0 0 Z " fill="#9720F1" transform="translate(72,224)"/>
<path d="M0 0 C5.28 0 10.56 0 16 0 C16 2.64 16 5.28 16 8 C10.72 8 5.44 8 0 8 C0 5.36 0 2.72 0 0 Z " fill="#000690" transform="translate(56,224)"/>
<path d="M0 0 C5.28 0 10.56 0 16 0 C16 2.64 16 5.28 16 8 C10.72 8 5.44 8 0 8 C0 5.36 0 2.72 0 0 Z " fill="#000690" transform="translate(176,216)"/>
<path d="M0 0 C5.28 0 10.56 0 16 0 C16 2.64 16 5.28 16 8 C10.72 8 5.44 8 0 8 C0 5.36 0 2.72 0 0 Z " fill="#9720F1" transform="translate(56,216)"/>
<path d="M0 0 C5.28 0 10.56 0 16 0 C16 2.64 16 5.28 16 8 C10.72 8 5.44 8 0 8 C0 5.36 0 2.72 0 0 Z " fill="#000690" transform="translate(40,216)"/>
<path d="M0 0 C5.28 0 10.56 0 16 0 C16 2.64 16 5.28 16 8 C10.72 8 5.44 8 0 8 C0 5.36 0 2.72 0 0 Z " fill="#000690" transform="translate(192,208)"/>
<path d="M0 0 C2.64 0 5.28 0 8 0 C8 5.28 8 10.56 8 16 C5.36 16 2.72 16 0 16 C0 10.72 0 5.44 0 0 Z " fill="#FF28C2" transform="translate(96,208)"/>
<path d="M0 0 C5.28 0 10.56 0 16 0 C16 2.64 16 5.28 16 8 C10.72 8 5.44 8 0 8 C0 5.36 0 2.72 0 0 Z " fill="#9720F1" transform="translate(40,208)"/>
<path d="M0 0 C5.28 0 10.56 0 16 0 C16 2.64 16 5.28 16 8 C10.72 8 5.44 8 0 8 C0 5.36 0 2.72 0 0 Z " fill="#000690" transform="translate(24,208)"/>
<path d="M0 0 C5.28 0 10.56 0 16 0 C16 2.64 16 5.28 16 8 C10.72 8 5.44 8 0 8 C0 5.36 0 2.72 0 0 Z " fill="#000690" transform="translate(208,200)"/>
<path d="M0 0 C2.64 0 5.28 0 8 0 C8 5.28 8 10.56 8 16 C5.36 16 2.72 16 0 16 C0 10.72 0 5.44 0 0 Z " fill="#FF28C2" transform="translate(80,200)"/>
<path d="M0 0 C5.28 0 10.56 0 16 0 C16 2.64 16 5.28 16 8 C10.72 8 5.44 8 0 8 C0 5.36 0 2.72 0 0 Z " fill="#000690" transform="translate(8,200)"/>
<path d="M0 0 C5.28 0 10.56 0 16 0 C16 2.64 16 5.28 16 8 C10.72 8 5.44 8 0 8 C0 5.36 0 2.72 0 0 Z " fill="#000690" transform="translate(224,192)"/>
<path d="M0 0 C5.28 0 10.56 0 16 0 C16 2.64 16 5.28 16 8 C10.72 8 5.44 8 0 8 C0 5.36 0 2.72 0 0 Z " fill="#FFB7DE" transform="translate(128,192)"/>
<path d="M0 0 C5.28 0 10.56 0 16 0 C16 2.64 16 5.28 16 8 C10.72 8 5.44 8 0 8 C0 5.36 0 2.72 0 0 Z " fill="#55D3F1" transform="translate(104,192)"/>
<path d="M0 0 C5.28 0 10.56 0 16 0 C16 2.64 16 5.28 16 8 C10.72 8 5.44 8 0 8 C0 5.36 0 2.72 0 0 Z " fill="#FFDDDF" transform="translate(88,192)"/>
<path d="M0 0 C2.64 0 5.28 0 8 0 C8 5.28 8 10.56 8 16 C5.36 16 2.72 16 0 16 C0 10.72 0 5.44 0 0 Z " fill="#FF28C2" transform="translate(64,192)"/>
<path d="M0 0 C5.28 0 10.56 0 16 0 C16 2.64 16 5.28 16 8 C10.72 8 5.44 8 0 8 C0 5.36 0 2.72 0 0 Z " fill="#9720F1" transform="translate(8,192)"/>
<path d="M0 0 C5.28 0 10.56 0 16 0 C16 2.64 16 5.28 16 8 C10.72 8 5.44 8 0 8 C0 5.36 0 2.72 0 0 Z " fill="#FFB7DE" transform="translate(144,184)"/>
<path d="M0 0 C5.28 0 10.56 0 16 0 C16 2.64 16 5.28 16 8 C10.72 8 5.44 8 0 8 C0 5.36 0 2.72 0 0 Z " fill="#9720F1" transform="translate(128,184)"/>
<path d="M0 0 C5.28 0 10.56 0 16 0 C16 2.64 16 5.28 16 8 C10.72 8 5.44 8 0 8 C0 5.36 0 2.72 0 0 Z " fill="#55D3F1" transform="translate(88,184)"/>
<path d="M0 0 C5.28 0 10.56 0 16 0 C16 2.64 16 5.28 16 8 C10.72 8 5.44 8 0 8 C0 5.36 0 2.72 0 0 Z " fill="#FFDDDF" transform="translate(72,184)"/>
<path d="M0 0 C2.64 0 5.28 0 8 0 C8 5.28 8 10.56 8 16 C5.36 16 2.72 16 0 16 C0 10.72 0 5.44 0 0 Z " fill="#9BE934" transform="translate(48,184)"/>
<path d="M0 0 C5.28 0 10.56 0 16 0 C16 2.64 16 5.28 16 8 C10.72 8 5.44 8 0 8 C0 5.36 0 2.72 0 0 Z " fill="#FFB7DE" transform="translate(160,176)"/>
<path d="M0 0 C5.28 0 10.56 0 16 0 C16 2.64 16 5.28 16 8 C10.72 8 5.44 8 0 8 C0 5.36 0 2.72 0 0 Z " fill="#000690" transform="translate(128,176)"/>
<path d="M0 0 C5.28 0 10.56 0 16 0 C16 2.64 16 5.28 16 8 C10.72 8 5.44 8 0 8 C0 5.36 0 2.72 0 0 Z " fill="#9720F1" transform="translate(88,176)"/>
<path d="M0 0 C5.28 0 10.56 0 16 0 C16 2.64 16 5.28 16 8 C10.72 8 5.44 8 0 8 C0 5.36 0 2.72 0 0 Z " fill="#55D3F1" transform="translate(72,176)"/>
<path d="M0 0 C5.28 0 10.56 0 16 0 C16 2.64 16 5.28 16 8 C10.72 8 5.44 8 0 8 C0 5.36 0 2.72 0 0 Z " fill="#FFDDDF" transform="translate(56,176)"/>
<path d="M0 0 C2.64 0 5.28 0 8 0 C8 5.28 8 10.56 8 16 C5.36 16 2.72 16 0 16 C0 10.72 0 5.44 0 0 Z " fill="#9BE934" transform="translate(32,176)"/>
<path d="M0 0 C5.28 0 10.56 0 16 0 C16 2.64 16 5.28 16 8 C10.72 8 5.44 8 0 8 C0 5.36 0 2.72 0 0 Z " fill="#FFB7DE" transform="translate(176,168)"/>
<path d="M0 0 C5.28 0 10.56 0 16 0 C16 2.64 16 5.28 16 8 C10.72 8 5.44 8 0 8 C0 5.36 0 2.72 0 0 Z " fill="#000690" transform="translate(144,168)"/>
<path d="M0 0 C5.28 0 10.56 0 16 0 C16 2.64 16 5.28 16 8 C10.72 8 5.44 8 0 8 C0 5.36 0 2.72 0 0 Z " fill="#9720F1" transform="translate(72,168)"/>
<path d="M0 0 C5.28 0 10.56 0 16 0 C16 2.64 16 5.28 16 8 C10.72 8 5.44 8 0 8 C0 5.36 0 2.72 0 0 Z " fill="#55D3F1" transform="translate(56,168)"/>
<path d="M0 0 C5.28 0 10.56 0 16 0 C16 2.64 16 5.28 16 8 C10.72 8 5.44 8 0 8 C0 5.36 0 2.72 0 0 Z " fill="#FFDDDF" transform="translate(40,168)"/>
<path d="M0 0 C5.28 0 10.56 0 16 0 C16 2.64 16 5.28 16 8 C10.72 8 5.44 8 0 8 C0 5.36 0 2.72 0 0 Z " fill="#FFB7DE" transform="translate(192,160)"/>
<path d="M0 0 C5.28 0 10.56 0 16 0 C16 2.64 16 5.28 16 8 C10.72 8 5.44 8 0 8 C0 5.36 0 2.72 0 0 Z " fill="#000690" transform="translate(160,160)"/>
<path d="M0 0 C5.28 0 10.56 0 16 0 C16 2.64 16 5.28 16 8 C10.72 8 5.44 8 0 8 C0 5.36 0 2.72 0 0 Z " fill="#9720F1" transform="translate(56,160)"/>
<path d="M0 0 C5.28 0 10.56 0 16 0 C16 2.64 16 5.28 16 8 C10.72 8 5.44 8 0 8 C0 5.36 0 2.72 0 0 Z " fill="#55D3F1" transform="translate(40,160)"/>
<path d="M0 0 C5.28 0 10.56 0 16 0 C16 2.64 16 5.28 16 8 C10.72 8 5.44 8 0 8 C0 5.36 0 2.72 0 0 Z " fill="#FFDDDF" transform="translate(24,160)"/>
<path d="M0 0 C5.28 0 10.56 0 16 0 C16 2.64 16 5.28 16 8 C10.72 8 5.44 8 0 8 C0 5.36 0 2.72 0 0 Z " fill="#FFB7DE" transform="translate(208,152)"/>
<path d="M0 0 C5.28 0 10.56 0 16 0 C16 2.64 16 5.28 16 8 C10.72 8 5.44 8 0 8 C0 5.36 0 2.72 0 0 Z " fill="#000690" transform="translate(176,152)"/>
<path d="M0 0 C5.28 0 10.56 0 16 0 C16 2.64 16 5.28 16 8 C10.72 8 5.44 8 0 8 C0 5.36 0 2.72 0 0 Z " fill="#9720F1" transform="translate(40,152)"/>
<path d="M0 0 C5.28 0 10.56 0 16 0 C16 2.64 16 5.28 16 8 C10.72 8 5.44 8 0 8 C0 5.36 0 2.72 0 0 Z " fill="#55D3F1" transform="translate(24,152)"/>
<path d="M0 0 C5.28 0 10.56 0 16 0 C16 2.64 16 5.28 16 8 C10.72 8 5.44 8 0 8 C0 5.36 0 2.72 0 0 Z " fill="#9720F1" transform="translate(24,144)"/>
<path d="M0 0 C5.28 0 10.56 0 16 0 C16 2.64 16 5.28 16 8 C10.72 8 5.44 8 0 8 C0 5.36 0 2.72 0 0 Z " fill="#9720F1" transform="translate(88,128)"/>
<path d="M0 0 C5.28 0 10.56 0 16 0 C16 2.64 16 5.28 16 8 C10.72 8 5.44 8 0 8 C0 5.36 0 2.72 0 0 Z " fill="#000690" transform="translate(224,120)"/>
<path d="M0 0 C5.28 0 10.56 0 16 0 C16 2.64 16 5.28 16 8 C10.72 8 5.44 8 0 8 C0 5.36 0 2.72 0 0 Z " fill="#9720F1" transform="translate(208,120)"/>
<path d="M0 0 C5.28 0 10.56 0 16 0 C16 2.64 16 5.28 16 8 C10.72 8 5.44 8 0 8 C0 5.36 0 2.72 0 0 Z " fill="#9720F1" transform="translate(72,120)"/>
<path d="M0 0 C5.28 0 10.56 0 16 0 C16 2.64 16 5.28 16 8 C10.72 8 5.44 8 0 8 C0 5.36 0 2.72 0 0 Z " fill="#FFB7DE" transform="translate(120,88)"/>
<path d="M0 0 C5.28 0 10.56 0 16 0 C16 2.64 16 5.28 16 8 C10.72 8 5.44 8 0 8 C0 5.36 0 2.72 0 0 Z " fill="#FFB7DE" transform="translate(104,80)"/>
<path d="M0 0 C5.28 0 10.56 0 16 0 C16 2.64 16 5.28 16 8 C10.72 8 5.44 8 0 8 C0 5.36 0 2.72 0 0 Z " fill="#9720F1" transform="translate(192,32)"/>
<path d="M0 0 C2.64 0 5.28 0 8 0 C8 5.28 8 10.56 8 16 C5.36 16 2.72 16 0 16 C0 10.72 0 5.44 0 0 Z " fill="#DF3CF0" transform="translate(48,32)"/>
<path d="M0 0 C5.28 0 10.56 0 16 0 C16 2.64 16 5.28 16 8 C10.72 8 5.44 8 0 8 C0 5.36 0 2.72 0 0 Z " fill="#9720F1" transform="translate(176,24)"/>
<path d="M0 0 C5.28 0 10.56 0 16 0 C16 2.64 16 5.28 16 8 C10.72 8 5.44 8 0 8 C0 5.36 0 2.72 0 0 Z " fill="#9720F1" transform="translate(104,24)"/>
<path d="M0 0 C5.28 0 10.56 0 16 0 C16 2.64 16 5.28 16 8 C10.72 8 5.44 8 0 8 C0 5.36 0 2.72 0 0 Z " fill="#DF3CF0" transform="translate(64,16)"/>
<path d="M0 0 C2.64 0 5.28 0 8 0 C8 2.64 8 5.28 8 8 C5.36 8 2.72 8 0 8 C0 5.36 0 2.72 0 0 Z " fill="#FFB7DE" transform="translate(120,200)"/>
<path d="M0 0 C2.64 0 5.28 0 8 0 C8 2.64 8 5.28 8 8 C5.36 8 2.72 8 0 8 C0 5.36 0 2.72 0 0 Z " fill="#9720F1" transform="translate(120,192)"/>
<path d="M0 0 C2.64 0 5.28 0 8 0 C8 2.64 8 5.28 8 8 C5.36 8 2.72 8 0 8 C0 5.36 0 2.72 0 0 Z " fill="#000690" transform="translate(120,184)"/>
<path d="M0 0 C2.64 0 5.28 0 8 0 C8 2.64 8 5.28 8 8 C5.36 8 2.72 8 0 8 C0 5.36 0 2.72 0 0 Z " fill="#FFE84A" transform="translate(104,176)"/>
<path d="M0 0 C2.64 0 5.28 0 8 0 C8 2.64 8 5.28 8 8 C5.36 8 2.72 8 0 8 C0 5.36 0 2.72 0 0 Z " fill="#FFDDDF" transform="translate(104,168)"/>
<path d="M0 0 C2.64 0 5.28 0 8 0 C8 2.64 8 5.28 8 8 C5.36 8 2.72 8 0 8 C0 5.36 0 2.72 0 0 Z " fill="#FFE84A" transform="translate(96,168)"/>
<path d="M0 0 C2.64 0 5.28 0 8 0 C8 2.64 8 5.28 8 8 C5.36 8 2.72 8 0 8 C0 5.36 0 2.72 0 0 Z " fill="#FFDDDF" transform="translate(88,168)"/>
<path d="M0 0 C2.64 0 5.28 0 8 0 C8 2.64 8 5.28 8 8 C5.36 8 2.72 8 0 8 C0 5.36 0 2.72 0 0 Z " fill="#FFE84A" transform="translate(104,160)"/>
<path d="M0 0 C2.64 0 5.28 0 8 0 C8 2.64 8 5.28 8 8 C5.36 8 2.72 8 0 8 C0 5.36 0 2.72 0 0 Z " fill="#FFE84A" transform="translate(88,160)"/>
<path d="M0 0 C2.64 0 5.28 0 8 0 C8 2.64 8 5.28 8 8 C5.36 8 2.72 8 0 8 C0 5.36 0 2.72 0 0 Z " fill="#FFDDDF" transform="translate(80,160)"/>
<path d="M0 0 C2.64 0 5.28 0 8 0 C8 2.64 8 5.28 8 8 C5.36 8 2.72 8 0 8 C0 5.36 0 2.72 0 0 Z " fill="#FFE84A" transform="translate(72,160)"/>
<path d="M0 0 C2.64 0 5.28 0 8 0 C8 2.64 8 5.28 8 8 C5.36 8 2.72 8 0 8 C0 5.36 0 2.72 0 0 Z " fill="#FFB7DE" transform="translate(112,152)"/>
<path d="M0 0 C2.64 0 5.28 0 8 0 C8 2.64 8 5.28 8 8 C5.36 8 2.72 8 0 8 C0 5.36 0 2.72 0 0 Z " fill="#FFE84A" transform="translate(96,152)"/>
<path d="M0 0 C2.64 0 5.28 0 8 0 C8 2.64 8 5.28 8 8 C5.36 8 2.72 8 0 8 C0 5.36 0 2.72 0 0 Z " fill="#FFE84A" transform="translate(80,152)"/>
<path d="M0 0 C2.64 0 5.28 0 8 0 C8 2.64 8 5.28 8 8 C5.36 8 2.72 8 0 8 C0 5.36 0 2.72 0 0 Z " fill="#FFDDDF" transform="translate(72,152)"/>
<path d="M0 0 C2.64 0 5.28 0 8 0 C8 2.64 8 5.28 8 8 C5.36 8 2.72 8 0 8 C0 5.36 0 2.72 0 0 Z " fill="#FFE84A" transform="translate(64,152)"/>
<path d="M0 0 C2.64 0 5.28 0 8 0 C8 2.64 8 5.28 8 8 C5.36 8 2.72 8 0 8 C0 5.36 0 2.72 0 0 Z " fill="#FFDDDF" transform="translate(56,152)"/>
<path d="M0 0 C2.64 0 5.28 0 8 0 C8 2.64 8 5.28 8 8 C5.36 8 2.72 8 0 8 C0 5.36 0 2.72 0 0 Z " fill="#FFB7DE" transform="translate(120,144)"/>
<path d="M0 0 C2.64 0 5.28 0 8 0 C8 2.64 8 5.28 8 8 C5.36 8 2.72 8 0 8 C0 5.36 0 2.72 0 0 Z " fill="#FFE84A" transform="translate(72,144)"/>
<path d="M0 0 C2.64 0 5.28 0 8 0 C8 2.64 8 5.28 8 8 C5.36 8 2.72 8 0 8 C0 5.36 0 2.72 0 0 Z " fill="#FFE84A" transform="translate(56,144)"/>
<path d="M0 0 C2.64 0 5.28 0 8 0 C8 2.64 8 5.28 8 8 C5.36 8 2.72 8 0 8 C0 5.36 0 2.72 0 0 Z " fill="#FFDDDF" transform="translate(48,144)"/>
<path d="M0 0 C2.64 0 5.28 0 8 0 C8 2.64 8 5.28 8 8 C5.36 8 2.72 8 0 8 C0 5.36 0 2.72 0 0 Z " fill="#FFE84A" transform="translate(40,144)"/>
<path d="M0 0 C2.64 0 5.28 0 8 0 C8 2.64 8 5.28 8 8 C5.36 8 2.72 8 0 8 C0 5.36 0 2.72 0 0 Z " fill="#55D3F1" transform="translate(16,144)"/>
<path d="M0 0 C2.64 0 5.28 0 8 0 C8 2.64 8 5.28 8 8 C5.36 8 2.72 8 0 8 C0 5.36 0 2.72 0 0 Z " fill="#DF3CF0" transform="translate(8,144)"/>
<path d="M0 0 C2.64 0 5.28 0 8 0 C8 2.64 8 5.28 8 8 C5.36 8 2.72 8 0 8 C0 5.36 0 2.72 0 0 Z " fill="#000690" transform="translate(240,136)"/>
<path d="M0 0 C2.64 0 5.28 0 8 0 C8 2.64 8 5.28 8 8 C5.36 8 2.72 8 0 8 C0 5.36 0 2.72 0 0 Z " fill="#FFB7DE" transform="translate(128,136)"/>
<path d="M0 0 C2.64 0 5.28 0 8 0 C8 2.64 8 5.28 8 8 C5.36 8 2.72 8 0 8 C0 5.36 0 2.72 0 0 Z " fill="#FFE84A" transform="translate(64,136)"/>
<path d="M0 0 C2.64 0 5.28 0 8 0 C8 2.64 8 5.28 8 8 C5.36 8 2.72 8 0 8 C0 5.36 0 2.72 0 0 Z " fill="#FFE84A" transform="translate(48,136)"/>
<path d="M0 0 C2.64 0 5.28 0 8 0 C8 2.64 8 5.28 8 8 C5.36 8 2.72 8 0 8 C0 5.36 0 2.72 0 0 Z " fill="#FFDDDF" transform="translate(40,136)"/>
<path d="M0 0 C2.64 0 5.28 0 8 0 C8 2.64 8 5.28 8 8 C5.36 8 2.72 8 0 8 C0 5.36 0 2.72 0 0 Z " fill="#FFE84A" transform="translate(32,136)"/>
<path d="M0 0 C2.64 0 5.28 0 8 0 C8 2.64 8 5.28 8 8 C5.36 8 2.72 8 0 8 C0 5.36 0 2.72 0 0 Z " fill="#FFB7DE" transform="translate(136,128)"/>
<path d="M0 0 C2.64 0 5.28 0 8 0 C8 2.64 8 5.28 8 8 C5.36 8 2.72 8 0 8 C0 5.36 0 2.72 0 0 Z " fill="#FFB7DE" transform="translate(104,128)"/>
<path d="M0 0 C2.64 0 5.28 0 8 0 C8 2.64 8 5.28 8 8 C5.36 8 2.72 8 0 8 C0 5.36 0 2.72 0 0 Z " fill="#DF3CF0" transform="translate(88,128)"/>
<path d="M0 0 C2.64 0 5.28 0 8 0 C8 2.64 8 5.28 8 8 C5.36 8 2.72 8 0 8 C0 5.36 0 2.72 0 0 Z " fill="#FFE84A" transform="translate(40,128)"/>
<path d="M0 0 C2.64 0 5.28 0 8 0 C8 2.64 8 5.28 8 8 C5.36 8 2.72 8 0 8 C0 5.36 0 2.72 0 0 Z " fill="#FFB7DE" transform="translate(144,120)"/>
<path d="M0 0 C2.64 0 5.28 0 8 0 C8 2.64 8 5.28 8 8 C5.36 8 2.72 8 0 8 C0 5.36 0 2.72 0 0 Z " fill="#FFB7DE" transform="translate(112,120)"/>
<path d="M0 0 C2.64 0 5.28 0 8 0 C8 2.64 8 5.28 8 8 C5.36 8 2.72 8 0 8 C0 5.36 0 2.72 0 0 Z " fill="#FFB7DE" transform="translate(88,120)"/>
<path d="M0 0 C2.64 0 5.28 0 8 0 C8 2.64 8 5.28 8 8 C5.36 8 2.72 8 0 8 C0 5.36 0 2.72 0 0 Z " fill="#DF3CF0" transform="translate(72,120)"/>
<path d="M0 0 C2.64 0 5.28 0 8 0 C8 2.64 8 5.28 8 8 C5.36 8 2.72 8 0 8 C0 5.36 0 2.72 0 0 Z " fill="#FFE84A" transform="translate(32,120)"/>
<path d="M0 0 C2.64 0 5.28 0 8 0 C8 2.64 8 5.28 8 8 C5.36 8 2.72 8 0 8 C0 5.36 0 2.72 0 0 Z " fill="#FFB7DE" transform="translate(152,112)"/>
<path d="M0 0 C2.64 0 5.28 0 8 0 C8 2.64 8 5.28 8 8 C5.36 8 2.72 8 0 8 C0 5.36 0 2.72 0 0 Z " fill="#FFB7DE" transform="translate(96,112)"/>
<path d="M0 0 C2.64 0 5.28 0 8 0 C8 2.64 8 5.28 8 8 C5.36 8 2.72 8 0 8 C0 5.36 0 2.72 0 0 Z " fill="#9720F1" transform="translate(88,112)"/>
<path d="M0 0 C2.64 0 5.28 0 8 0 C8 2.64 8 5.28 8 8 C5.36 8 2.72 8 0 8 C0 5.36 0 2.72 0 0 Z " fill="#DF3CF0" transform="translate(64,112)"/>
<path d="M0 0 C2.64 0 5.28 0 8 0 C8 2.64 8 5.28 8 8 C5.36 8 2.72 8 0 8 C0 5.36 0 2.72 0 0 Z " fill="#FFB7DE" transform="translate(56,112)"/>
<path d="M0 0 C2.64 0 5.28 0 8 0 C8 2.64 8 5.28 8 8 C5.36 8 2.72 8 0 8 C0 5.36 0 2.72 0 0 Z " fill="#FFB7DE" transform="translate(160,104)"/>
<path d="M0 0 C2.64 0 5.28 0 8 0 C8 2.64 8 5.28 8 8 C5.36 8 2.72 8 0 8 C0 5.36 0 2.72 0 0 Z " fill="#FFB7DE" transform="translate(128,104)"/>
<path d="M0 0 C2.64 0 5.28 0 8 0 C8 2.64 8 5.28 8 8 C5.36 8 2.72 8 0 8 C0 5.36 0 2.72 0 0 Z " fill="#FFDDDF" transform="translate(104,104)"/>
<path d="M0 0 C2.64 0 5.28 0 8 0 C8 2.64 8 5.28 8 8 C5.36 8 2.72 8 0 8 C0 5.36 0 2.72 0 0 Z " fill="#DF3CF0" transform="translate(88,104)"/>
<path d="M0 0 C2.64 0 5.28 0 8 0 C8 2.64 8 5.28 8 8 C5.36 8 2.72 8 0 8 C0 5.36 0 2.72 0 0 Z " fill="#FFDDDF" transform="translate(80,104)"/>
<path d="M0 0 C2.64 0 5.28 0 8 0 C8 2.64 8 5.28 8 8 C5.36 8 2.72 8 0 8 C0 5.36 0 2.72 0 0 Z " fill="#9720F1" transform="translate(72,104)"/>
<path d="M0 0 C2.64 0 5.28 0 8 0 C8 2.64 8 5.28 8 8 C5.36 8 2.72 8 0 8 C0 5.36 0 2.72 0 0 Z " fill="#FFB7DE" transform="translate(64,104)"/>
<path d="M0 0 C2.64 0 5.28 0 8 0 C8 2.64 8 5.28 8 8 C5.36 8 2.72 8 0 8 C0 5.36 0 2.72 0 0 Z " fill="#DF3CF0" transform="translate(32,104)"/>
<path d="M0 0 C2.64 0 5.28 0 8 0 C8 2.64 8 5.28 8 8 C5.36 8 2.72 8 0 8 C0 5.36 0 2.72 0 0 Z " fill="#FFB7DE" transform="translate(168,96)"/>
<path d="M0 0 C2.64 0 5.28 0 8 0 C8 2.64 8 5.28 8 8 C5.36 8 2.72 8 0 8 C0 5.36 0 2.72 0 0 Z " fill="#FFB7DE" transform="translate(136,96)"/>
<path d="M0 0 C2.64 0 5.28 0 8 0 C8 2.64 8 5.28 8 8 C5.36 8 2.72 8 0 8 C0 5.36 0 2.72 0 0 Z " fill="#FFDDDF" transform="translate(112,96)"/>
<path d="M0 0 C2.64 0 5.28 0 8 0 C8 2.64 8 5.28 8 8 C5.36 8 2.72 8 0 8 C0 5.36 0 2.72 0 0 Z " fill="#9720F1" transform="translate(104,96)"/>
<path d="M0 0 C2.64 0 5.28 0 8 0 C8 2.64 8 5.28 8 8 C5.36 8 2.72 8 0 8 C0 5.36 0 2.72 0 0 Z " fill="#FFDDDF" transform="translate(88,96)"/>
<path d="M0 0 C2.64 0 5.28 0 8 0 C8 2.64 8 5.28 8 8 C5.36 8 2.72 8 0 8 C0 5.36 0 2.72 0 0 Z " fill="#DF3CF0" transform="translate(40,96)"/>
<path d="M0 0 C2.64 0 5.28 0 8 0 C8 2.64 8 5.28 8 8 C5.36 8 2.72 8 0 8 C0 5.36 0 2.72 0 0 Z " fill="#FFB7DE" transform="translate(232,88)"/>
<path d="M0 0 C2.64 0 5.28 0 8 0 C8 2.64 8 5.28 8 8 C5.36 8 2.72 8 0 8 C0 5.36 0 2.72 0 0 Z " fill="#DF3CF0" transform="translate(104,88)"/>
<path d="M0 0 C2.64 0 5.28 0 8 0 C8 2.64 8 5.28 8 8 C5.36 8 2.72 8 0 8 C0 5.36 0 2.72 0 0 Z " fill="#FFDDDF" transform="translate(96,88)"/>
<path d="M0 0 C2.64 0 5.28 0 8 0 C8 2.64 8 5.28 8 8 C5.36 8 2.72 8 0 8 C0 5.36 0 2.72 0 0 Z " fill="#DF3CF0" transform="translate(48,88)"/>
<path d="M0 0 C2.64 0 5.28 0 8 0 C8 2.64 8 5.28 8 8 C5.36 8 2.72 8 0 8 C0 5.36 0 2.72 0 0 Z " fill="#9720F1" transform="translate(64,72)"/>
<path d="M0 0 C2.64 0 5.28 0 8 0 C8 2.64 8 5.28 8 8 C5.36 8 2.72 8 0 8 C0 5.36 0 2.72 0 0 Z " fill="#9720F1" transform="translate(232,64)"/>
<path d="M0 0 C2.64 0 5.28 0 8 0 C8 2.64 8 5.28 8 8 C5.36 8 2.72 8 0 8 C0 5.36 0 2.72 0 0 Z " fill="#9720F1" transform="translate(224,56)"/>
<path d="M0 0 C2.64 0 5.28 0 8 0 C8 2.64 8 5.28 8 8 C5.36 8 2.72 8 0 8 C0 5.36 0 2.72 0 0 Z " fill="#9720F1" transform="translate(184,56)"/>
<path d="M0 0 C2.64 0 5.28 0 8 0 C8 2.64 8 5.28 8 8 C5.36 8 2.72 8 0 8 C0 5.36 0 2.72 0 0 Z " fill="#000690" transform="translate(176,56)"/>
<path d="M0 0 C2.64 0 5.28 0 8 0 C8 2.64 8 5.28 8 8 C5.36 8 2.72 8 0 8 C0 5.36 0 2.72 0 0 Z " fill="#9720F1" transform="translate(216,48)"/>
<path d="M0 0 C2.64 0 5.28 0 8 0 C8 2.64 8 5.28 8 8 C5.36 8 2.72 8 0 8 C0 5.36 0 2.72 0 0 Z " fill="#9720F1" transform="translate(176,48)"/>
<path d="M0 0 C2.64 0 5.28 0 8 0 C8 2.64 8 5.28 8 8 C5.36 8 2.72 8 0 8 C0 5.36 0 2.72 0 0 Z " fill="#9720F1" transform="translate(208,40)"/>
<path d="M0 0 C2.64 0 5.28 0 8 0 C8 2.64 8 5.28 8 8 C5.36 8 2.72 8 0 8 C0 5.36 0 2.72 0 0 Z " fill="#9720F1" transform="translate(120,32)"/>
<path d="M0 0 C2.64 0 5.28 0 8 0 C8 2.64 8 5.28 8 8 C5.36 8 2.72 8 0 8 C0 5.36 0 2.72 0 0 Z " fill="#DF3CF0" transform="translate(56,24)"/>
</svg>
