<svg width="101" height="83" viewBox="0 0 101 83" fill="none" xmlns="http://www.w3.org/2000/svg">
<path d="M0 83H101V0H0V83ZM18.3636 73.7778V64.5556H9.18182V18.4444H18.3636V9.22222H82.6364V18.4444H91.8182V64.5556H82.6364V73.7778H18.3636ZM18.3636 64.5556H27.5455V55.3333H18.3636V64.5556ZM27.5455 55.3333H36.7273V46.1111H27.5455V55.3333ZM27.5455 36.8889H36.7273V27.6667H27.5455V36.8889ZM18.3636 27.6667H27.5455V18.4444H18.3636V27.6667ZM36.7273 46.1111H45.9091V36.8889H36.7273V46.1111ZM45.9091 55.3333H55.0909V46.1111H45.9091V55.3333ZM55.0909 46.1111H64.2727V36.8889H55.0909V46.1111ZM64.2727 55.3333H73.4545V46.1111H64.2727V55.3333ZM73.4545 64.5556H82.6364V55.3333H73.4545V64.5556ZM64.2727 36.8889H73.4545V27.6667H64.2727V36.8889ZM73.4545 27.6667H82.6364V18.4444H73.4545V27.6667Z" fill="black"/>
</svg>
