<svg width="99" height="80" viewBox="0 0 99 80" fill="none" xmlns="http://www.w3.org/2000/svg">
<path d="M0 80H99V0H0V80ZM18 71.1111V62.2222H9V17.7778H18V8.88889H81V17.7778H90V62.2222H81V71.1111H18ZM18 62.2222H27V53.3333H18V62.2222ZM27 53.3333H36V44.4444H27V53.3333ZM27 35.5556H36V26.6667H27V35.5556ZM18 26.6667H27V17.7778H18V26.6667ZM36 44.4444H45V35.5556H36V44.4444ZM45 53.3333H54V44.4444H45V53.3333ZM54 44.4444H63V35.5556H54V44.4444ZM63 53.3333H72V44.4444H63V53.3333ZM72 62.2222H81V53.3333H72V62.2222ZM63 35.5556H72V26.6667H63V35.5556ZM72 26.6667H81V17.7778H72V26.6667Z" fill="white"/>
</svg>
