<?xml version="1.0" encoding="UTF-8"?>
<svg version="1.1" xmlns="http://www.w3.org/2000/svg" width="256" height="256">
<path d="M0 0 C18.48 0 36.96 0 56 0 C56 2.64 56 5.28 56 8 C58.64 8 61.28 8 64 8 C64 10.64 64 13.28 64 16 C66.64 16 69.28 16 72 16 C72 18.64 72 21.28 72 24 C111.6 24 151.2 24 192 24 C192 26.64 192 29.28 192 32 C194.64 32 197.28 32 200 32 C200 34.64 200 37.28 200 40 C202.64 40 205.28 40 208 40 C208 84.88 208 129.76 208 176 C205.36 176 202.72 176 200 176 C200 178.64 200 181.28 200 184 C126.08 184 52.16 184 -24 184 C-24 181.36 -24 178.72 -24 176 C-26.64 176 -29.28 176 -32 176 C-32 128.48 -32 80.96 -32 32 C-29.36 32 -26.72 32 -24 32 C-24 29.36 -24 26.72 -24 24 C-21.36 24 -18.72 24 -16 24 C-16 21.36 -16 18.72 -16 16 C-13.36 16 -10.72 16 -8 16 C-8 13.36 -8 10.72 -8 8 C-5.36 8 -2.72 8 0 8 C0 5.36 0 2.72 0 0 Z " fill="#FFB7DE" transform="translate(40,40)"/>
<path d="M0 0 C18.48 0 36.96 0 56 0 C56 2.64 56 5.28 56 8 C58.64 8 61.28 8 64 8 C64 10.64 64 13.28 64 16 C66.64 16 69.28 16 72 16 C72 18.64 72 21.28 72 24 C111.6 24 151.2 24 192 24 C192 26.64 192 29.28 192 32 C194.64 32 197.28 32 200 32 C200 34.64 200 37.28 200 40 C202.64 40 205.28 40 208 40 C208 84.88 208 129.76 208 176 C205.36 176 202.72 176 200 176 C200 178.64 200 181.28 200 184 C126.08 184 52.16 184 -24 184 C-24 181.36 -24 178.72 -24 176 C-26.64 176 -29.28 176 -32 176 C-32 128.48 -32 80.96 -32 32 C-29.36 32 -26.72 32 -24 32 C-24 29.36 -24 26.72 -24 24 C-21.36 24 -18.72 24 -16 24 C-16 21.36 -16 18.72 -16 16 C-13.36 16 -10.72 16 -8 16 C-8 13.36 -8 10.72 -8 8 C-5.36 8 -2.72 8 0 8 C0 5.36 0 2.72 0 0 Z M-16 40 C-16 82.24 -16 124.48 -16 168 C52.64 168 121.28 168 192 168 C192 125.76 192 83.52 192 40 C123.36 40 54.72 40 -16 40 Z " fill="#FFDDDF" transform="translate(40,40)"/>
<path d="M0 0 C2.64 0 5.28 0 8 0 C8 2.64 8 5.28 8 8 C10.64 8 13.28 8 16 8 C16 52.88 16 97.76 16 144 C13.36 144 10.72 144 8 144 C8 146.64 8 149.28 8 152 C-63.28 152 -134.56 152 -208 152 C-208 146.72 -208 141.44 -208 136 C-139.36 136 -70.72 136 0 136 C0 91.12 0 46.24 0 0 Z " fill="#DF3CF0" transform="translate(232,72)"/>
<path d="M0 0 C18.48 0 36.96 0 56 0 C56 2.64 56 5.28 56 8 C58.64 8 61.28 8 64 8 C64 10.64 64 13.28 64 16 C66.64 16 69.28 16 72 16 C72 18.64 72 21.28 72 24 C69.36 24 66.72 24 64 24 C64 26.64 64 29.28 64 32 C56.08 32 48.16 32 40 32 C40 29.36 40 26.72 40 24 C37.36 24 34.72 24 32 24 C32 26.64 32 29.28 32 32 C24.08 32 16.16 32 8 32 C8 29.36 8 26.72 8 24 C5.36 24 2.72 24 0 24 C0 26.64 0 29.28 0 32 C-2.64 32 -5.28 32 -8 32 C-8 29.36 -8 26.72 -8 24 C-10.64 24 -13.28 24 -16 24 C-16 21.36 -16 18.72 -16 16 C-13.36 16 -10.72 16 -8 16 C-8 13.36 -8 10.72 -8 8 C-5.36 8 -2.72 8 0 8 C0 5.36 0 2.72 0 0 Z " fill="#FFDDDF" transform="translate(40,40)"/>
<path d="M0 0 C71.28 0 142.56 0 216 0 C216 2.64 216 5.28 216 8 C144.72 8 73.44 8 0 8 C0 5.36 0 2.72 0 0 Z " fill="#000690" transform="translate(24,216)"/>
<path d="M0 0 C2.64 0 5.28 0 8 0 C8 47.52 8 95.04 8 144 C5.36 144 2.72 144 0 144 C0 96.48 0 48.96 0 0 Z " fill="#DF3CF0" transform="translate(8,72)"/>
<path d="M0 0 C2.64 0 5.28 0 8 0 C8 44.88 8 89.76 8 136 C5.36 136 2.72 136 0 136 C0 91.12 0 46.24 0 0 Z " fill="#000690" transform="translate(240,80)"/>
<path d="M0 0 C39.6 0 79.2 0 120 0 C120 2.64 120 5.28 120 8 C80.4 8 40.8 8 0 8 C0 5.36 0 2.72 0 0 Z " fill="#DF3CF0" transform="translate(112,64)"/>
<path d="M0 0 C2.64 0 5.28 0 8 0 C8 2.64 8 5.28 8 8 C10.64 8 13.28 8 16 8 C16 10.64 16 13.28 16 16 C13.36 16 10.72 16 8 16 C8 18.64 8 21.28 8 24 C0.08 24 -7.84 24 -16 24 C-16 21.36 -16 18.72 -16 16 C-13.36 16 -10.72 16 -8 16 C-8 13.36 -8 10.72 -8 8 C-5.36 8 -2.72 8 0 8 C0 5.36 0 2.72 0 0 Z " fill="#FFB7DE" transform="translate(96,48)"/>
<path d="M0 0 C18.48 0 36.96 0 56 0 C56 2.64 56 5.28 56 8 C37.52 8 19.04 8 0 8 C0 5.36 0 2.72 0 0 Z " fill="#DF3CF0" transform="translate(40,40)"/>
<path d="M0 0 C7.92 0 15.84 0 24 0 C24 2.64 24 5.28 24 8 C21.36 8 18.72 8 16 8 C16 10.64 16 13.28 16 16 C8.08 16 0.16 16 -8 16 C-8 13.36 -8 10.72 -8 8 C-5.36 8 -2.72 8 0 8 C0 5.36 0 2.72 0 0 Z " fill="#FFB7DE" transform="translate(56,56)"/>
<path d="M0 0 C7.92 0 15.84 0 24 0 C24 2.64 24 5.28 24 8 C21.36 8 18.72 8 16 8 C16 10.64 16 13.28 16 16 C13.36 16 10.72 16 8 16 C8 13.36 8 10.72 8 8 C5.36 8 2.72 8 0 8 C0 5.36 0 2.72 0 0 Z " fill="#FFDDDF" transform="translate(24,56)"/>
<path d="M0 0 C5.28 0 10.56 0 16 0 C16 2.64 16 5.28 16 8 C10.72 8 5.44 8 0 8 C0 5.36 0 2.72 0 0 Z " fill="#FFB7DE" transform="translate(80,64)"/>
<path d="M0 0 C5.28 0 10.56 0 16 0 C16 2.64 16 5.28 16 8 C10.72 8 5.44 8 0 8 C0 5.36 0 2.72 0 0 Z " fill="#FFB7DE" transform="translate(48,64)"/>
<path d="M0 0 C2.64 0 5.28 0 8 0 C8 2.64 8 5.28 8 8 C5.36 8 2.72 8 0 8 C0 5.36 0 2.72 0 0 Z " fill="#DF3CF0" transform="translate(16,216)"/>
<path d="M0 0 C2.64 0 5.28 0 8 0 C8 2.64 8 5.28 8 8 C5.36 8 2.72 8 0 8 C0 5.36 0 2.72 0 0 Z " fill="#000690" transform="translate(232,72)"/>
<path d="M0 0 C2.64 0 5.28 0 8 0 C8 2.64 8 5.28 8 8 C5.36 8 2.72 8 0 8 C0 5.36 0 2.72 0 0 Z " fill="#FFB7DE" transform="translate(104,64)"/>
<path d="M0 0 C2.64 0 5.28 0 8 0 C8 2.64 8 5.28 8 8 C5.36 8 2.72 8 0 8 C0 5.36 0 2.72 0 0 Z " fill="#DF3CF0" transform="translate(96,64)"/>
<path d="M0 0 C2.64 0 5.28 0 8 0 C8 2.64 8 5.28 8 8 C5.36 8 2.72 8 0 8 C0 5.36 0 2.72 0 0 Z " fill="#DF3CF0" transform="translate(80,64)"/>
<path d="M0 0 C2.64 0 5.28 0 8 0 C8 2.64 8 5.28 8 8 C5.36 8 2.72 8 0 8 C0 5.36 0 2.72 0 0 Z " fill="#FFB7DE" transform="translate(72,64)"/>
<path d="M0 0 C2.64 0 5.28 0 8 0 C8 2.64 8 5.28 8 8 C5.36 8 2.72 8 0 8 C0 5.36 0 2.72 0 0 Z " fill="#DF3CF0" transform="translate(64,64)"/>
<path d="M0 0 C2.64 0 5.28 0 8 0 C8 2.64 8 5.28 8 8 C5.36 8 2.72 8 0 8 C0 5.36 0 2.72 0 0 Z " fill="#DF3CF0" transform="translate(48,64)"/>
<path d="M0 0 C2.64 0 5.28 0 8 0 C8 2.64 8 5.28 8 8 C5.36 8 2.72 8 0 8 C0 5.36 0 2.72 0 0 Z " fill="#FFB7DE" transform="translate(40,64)"/>
<path d="M0 0 C2.64 0 5.28 0 8 0 C8 2.64 8 5.28 8 8 C5.36 8 2.72 8 0 8 C0 5.36 0 2.72 0 0 Z " fill="#DF3CF0" transform="translate(32,64)"/>
<path d="M0 0 C2.64 0 5.28 0 8 0 C8 2.64 8 5.28 8 8 C5.36 8 2.72 8 0 8 C0 5.36 0 2.72 0 0 Z " fill="#DF3CF0" transform="translate(16,64)"/>
<path d="M0 0 C2.64 0 5.28 0 8 0 C8 2.64 8 5.28 8 8 C5.36 8 2.72 8 0 8 C0 5.36 0 2.72 0 0 Z " fill="#DF3CF0" transform="translate(104,56)"/>
<path d="M0 0 C2.64 0 5.28 0 8 0 C8 2.64 8 5.28 8 8 C5.36 8 2.72 8 0 8 C0 5.36 0 2.72 0 0 Z " fill="#DF3CF0" transform="translate(88,56)"/>
<path d="M0 0 C2.64 0 5.28 0 8 0 C8 2.64 8 5.28 8 8 C5.36 8 2.72 8 0 8 C0 5.36 0 2.72 0 0 Z " fill="#FFB7DE" transform="translate(80,56)"/>
<path d="M0 0 C2.64 0 5.28 0 8 0 C8 2.64 8 5.28 8 8 C5.36 8 2.72 8 0 8 C0 5.36 0 2.72 0 0 Z " fill="#DF3CF0" transform="translate(72,56)"/>
<path d="M0 0 C2.64 0 5.28 0 8 0 C8 2.64 8 5.28 8 8 C5.36 8 2.72 8 0 8 C0 5.36 0 2.72 0 0 Z " fill="#DF3CF0" transform="translate(56,56)"/>
<path d="M0 0 C2.64 0 5.28 0 8 0 C8 2.64 8 5.28 8 8 C5.36 8 2.72 8 0 8 C0 5.36 0 2.72 0 0 Z " fill="#FFB7DE" transform="translate(48,56)"/>
<path d="M0 0 C2.64 0 5.28 0 8 0 C8 2.64 8 5.28 8 8 C5.36 8 2.72 8 0 8 C0 5.36 0 2.72 0 0 Z " fill="#DF3CF0" transform="translate(40,56)"/>
<path d="M0 0 C2.64 0 5.28 0 8 0 C8 2.64 8 5.28 8 8 C5.36 8 2.72 8 0 8 C0 5.36 0 2.72 0 0 Z " fill="#DF3CF0" transform="translate(24,56)"/>
<path d="M0 0 C2.64 0 5.28 0 8 0 C8 2.64 8 5.28 8 8 C5.36 8 2.72 8 0 8 C0 5.36 0 2.72 0 0 Z " fill="#DF3CF0" transform="translate(96,48)"/>
<path d="M0 0 C2.64 0 5.28 0 8 0 C8 2.64 8 5.28 8 8 C5.36 8 2.72 8 0 8 C0 5.36 0 2.72 0 0 Z " fill="#DF3CF0" transform="translate(32,48)"/>
</svg>
