<?xml version="1.0" encoding="UTF-8"?>
<svg version="1.1" xmlns="http://www.w3.org/2000/svg" width="512" height="512">
<path d="M0 0 C116.16 0 232.32 0 352 0 C352 5.28 352 10.56 352 16 C346.72 16 341.44 16 336 16 C336 21.28 336 26.56 336 32 C330.72 32 325.44 32 320 32 C320 37.28 320 42.56 320 48 C314.72 48 309.44 48 304 48 C304 58.56 304 69.12 304 80 C309.28 80 314.56 80 320 80 C320 85.28 320 90.56 320 96 C325.28 96 330.56 96 336 96 C336 106.56 336 117.12 336 128 C330.72 128 325.44 128 320 128 C320 133.28 320 138.56 320 144 C325.28 144 330.56 144 336 144 C336 165.12 336 186.24 336 208 C341.28 208 346.56 208 352 208 C352 213.28 352 218.56 352 224 C357.28 224 362.56 224 368 224 C368 229.28 368 234.56 368 240 C373.28 240 378.56 240 384 240 C384 324.48 384 408.96 384 496 C288.96 496 193.92 496 96 496 C96 501.28 96 506.56 96 512 C22.08 512 -51.84 512 -128 512 C-128 422.24 -128 332.48 -128 240 C-122.72 240 -117.44 240 -112 240 C-112 213.6 -112 187.2 -112 160 C-106.72 160 -101.44 160 -96 160 C-96 154.72 -96 149.44 -96 144 C-90.72 144 -85.44 144 -80 144 C-80 138.72 -80 133.44 -80 128 C-85.28 128 -90.56 128 -96 128 C-96 117.44 -96 106.88 -96 96 C-90.72 96 -85.44 96 -80 96 C-80 90.72 -80 85.44 -80 80 C-37.76 80 4.48 80 48 80 C48 69.44 48 58.88 48 48 C42.72 48 37.44 48 32 48 C32 42.72 32 37.44 32 32 C26.72 32 21.44 32 16 32 C16 26.72 16 21.44 16 16 C10.72 16 5.44 16 0 16 C0 10.72 0 5.44 0 0 Z " fill="#000690" transform="translate(128,0)"/>
<path d="M0 0 C36.96 0 73.92 0 112 0 C112 10.56 112 21.12 112 32 C117.28 32 122.56 32 128 32 C128 21.44 128 10.88 128 0 C133.28 0 138.56 0 144 0 C144 10.56 144 21.12 144 32 C149.28 32 154.56 32 160 32 C160 21.44 160 10.88 160 0 C165.28 0 170.56 0 176 0 C176 10.56 176 21.12 176 32 C181.28 32 186.56 32 192 32 C192 21.44 192 10.88 192 0 C197.28 0 202.56 0 208 0 C208 10.56 208 21.12 208 32 C213.28 32 218.56 32 224 32 C224 21.44 224 10.88 224 0 C229.28 0 234.56 0 240 0 C240 10.56 240 21.12 240 32 C245.28 32 250.56 32 256 32 C256 37.28 256 42.56 256 48 C208.48 48 160.96 48 112 48 C112 53.28 112 58.56 112 64 C159.52 64 207.04 64 256 64 C256 74.56 256 85.12 256 96 C240.16 96 224.32 96 208 96 C208 101.28 208 106.56 208 112 C213.28 112 218.56 112 224 112 C224 117.28 224 122.56 224 128 C234.56 128 245.12 128 256 128 C256 175.52 256 223.04 256 272 C261.28 272 266.56 272 272 272 C272 282.56 272 293.12 272 304 C266.72 304 261.44 304 256 304 C256 298.72 256 293.44 256 288 C250.72 288 245.44 288 240 288 C240 272.16 240 256.32 240 240 C234.72 240 229.44 240 224 240 C224 255.84 224 271.68 224 288 C218.72 288 213.44 288 208 288 C208 293.28 208 298.56 208 304 C202.72 304 197.44 304 192 304 C192 309.28 192 314.56 192 320 C186.72 320 181.44 320 176 320 C176 314.72 176 309.44 176 304 C170.72 304 165.44 304 160 304 C160 309.28 160 314.56 160 320 C149.44 320 138.88 320 128 320 C128 314.72 128 309.44 128 304 C122.72 304 117.44 304 112 304 C112 288.16 112 272.32 112 256 C117.28 256 122.56 256 128 256 C128 250.72 128 245.44 128 240 C133.28 240 138.56 240 144 240 C144 234.72 144 229.44 144 224 C138.72 224 133.44 224 128 224 C128 218.72 128 213.44 128 208 C122.72 208 117.44 208 112 208 C112 171.04 112 134.08 112 96 C106.72 96 101.44 96 96 96 C96 90.72 96 85.44 96 80 C90.72 80 85.44 80 80 80 C80 85.28 80 90.56 80 96 C74.72 96 69.44 96 64 96 C64 101.28 64 106.56 64 112 C74.56 112 85.12 112 96 112 C96 138.4 96 164.8 96 192 C90.72 192 85.44 192 80 192 C80 197.28 80 202.56 80 208 C74.72 208 69.44 208 64 208 C64 186.88 64 165.76 64 144 C58.72 144 53.44 144 48 144 C48 170.4 48 196.8 48 224 C21.6 224 -4.8 224 -32 224 C-32 234.56 -32 245.12 -32 256 C-63.68 256 -95.36 256 -128 256 C-128 324.64 -128 393.28 -128 464 C-75.2 464 -22.4 464 32 464 C32 395.36 32 326.72 32 256 C16.16 256 0.32 256 -16 256 C-16 250.72 -16 245.44 -16 240 C5.12 240 26.24 240 48 240 C48 319.2 48 398.4 48 480 C-20.64 480 -89.28 480 -160 480 C-160 395.52 -160 311.04 -160 224 C-154.72 224 -149.44 224 -144 224 C-144 197.6 -144 171.2 -144 144 C-138.72 144 -133.44 144 -128 144 C-128 138.72 -128 133.44 -128 128 C-122.72 128 -117.44 128 -112 128 C-112 122.72 -112 117.44 -112 112 C-117.28 112 -122.56 112 -128 112 C-128 101.44 -128 90.88 -128 80 C-122.72 80 -117.44 80 -112 80 C-112 74.72 -112 69.44 -112 64 C-69.76 64 -27.52 64 16 64 C16 53.44 16 42.88 16 32 C10.72 32 5.44 32 0 32 C0 21.44 0 10.88 0 0 Z " fill="#FFDDDF" transform="translate(160,16)"/>
<path d="M0 0 C21.12 0 42.24 0 64 0 C64 5.28 64 10.56 64 16 C48.16 16 32.32 16 16 16 C16 21.28 16 26.56 16 32 C31.84 32 47.68 32 64 32 C64 100.64 64 169.28 64 240 C11.2 240 -41.6 240 -96 240 C-96 171.36 -96 102.72 -96 32 C-64.32 32 -32.64 32 0 32 C0 21.44 0 10.88 0 0 Z " fill="#3038D6" transform="translate(128,240)"/>
<path d="M0 0 C63.36 0 126.72 0 192 0 C192 26.4 192 52.8 192 80 C165.6 80 139.2 80 112 80 C112 90.56 112 101.12 112 112 C80.32 112 48.64 112 16 112 C16 180.64 16 249.28 16 320 C68.8 320 121.6 320 176 320 C176 251.36 176 182.72 176 112 C160.16 112 144.32 112 128 112 C128 106.72 128 101.44 128 96 C149.12 96 170.24 96 192 96 C192 175.2 192 254.4 192 336 C123.36 336 54.72 336 -16 336 C-16 251.52 -16 167.04 -16 80 C-10.72 80 -5.44 80 0 80 C0 53.6 0 27.2 0 0 Z " fill="#FFDDDF" transform="translate(16,160)"/>
<path d="M0 0 C36.96 0 73.92 0 112 0 C112 10.56 112 21.12 112 32 C117.28 32 122.56 32 128 32 C128 21.44 128 10.88 128 0 C133.28 0 138.56 0 144 0 C144 10.56 144 21.12 144 32 C149.28 32 154.56 32 160 32 C160 21.44 160 10.88 160 0 C165.28 0 170.56 0 176 0 C176 10.56 176 21.12 176 32 C181.28 32 186.56 32 192 32 C192 21.44 192 10.88 192 0 C197.28 0 202.56 0 208 0 C208 10.56 208 21.12 208 32 C213.28 32 218.56 32 224 32 C224 21.44 224 10.88 224 0 C229.28 0 234.56 0 240 0 C240 10.56 240 21.12 240 32 C245.28 32 250.56 32 256 32 C256 37.28 256 42.56 256 48 C208.48 48 160.96 48 112 48 C112 58.56 112 69.12 112 80 C101.44 80 90.88 80 80 80 C80 85.28 80 90.56 80 96 C74.72 96 69.44 96 64 96 C64 101.28 64 106.56 64 112 C74.56 112 85.12 112 96 112 C96 138.4 96 164.8 96 192 C90.72 192 85.44 192 80 192 C80 197.28 80 202.56 80 208 C74.72 208 69.44 208 64 208 C64 186.88 64 165.76 64 144 C0.64 144 -62.72 144 -128 144 C-128 138.72 -128 133.44 -128 128 C-122.72 128 -117.44 128 -112 128 C-112 122.72 -112 117.44 -112 112 C-117.28 112 -122.56 112 -128 112 C-128 101.44 -128 90.88 -128 80 C-122.72 80 -117.44 80 -112 80 C-112 74.72 -112 69.44 -112 64 C-69.76 64 -27.52 64 16 64 C16 53.44 16 42.88 16 32 C10.72 32 5.44 32 0 32 C0 21.44 0 10.88 0 0 Z " fill="#DF3CF0" transform="translate(160,16)"/>
<path d="M0 0 C116.16 0 232.32 0 352 0 C352 5.28 352 10.56 352 16 C346.72 16 341.44 16 336 16 C336 21.28 336 26.56 336 32 C330.72 32 325.44 32 320 32 C320 37.28 320 42.56 320 48 C314.72 48 309.44 48 304 48 C304 58.56 304 69.12 304 80 C309.28 80 314.56 80 320 80 C320 85.28 320 90.56 320 96 C325.28 96 330.56 96 336 96 C336 106.56 336 117.12 336 128 C330.72 128 325.44 128 320 128 C320 133.28 320 138.56 320 144 C325.28 144 330.56 144 336 144 C336 165.12 336 186.24 336 208 C341.28 208 346.56 208 352 208 C352 213.28 352 218.56 352 224 C341.44 224 330.88 224 320 224 C320 229.28 320 234.56 320 240 C314.72 240 309.44 240 304 240 C304 255.84 304 271.68 304 288 C298.72 288 293.44 288 288 288 C288 240.48 288 192.96 288 144 C277.44 144 266.88 144 256 144 C256 138.72 256 133.44 256 128 C250.72 128 245.44 128 240 128 C240 122.72 240 117.44 240 112 C255.84 112 271.68 112 288 112 C288 101.44 288 90.88 288 80 C240.48 80 192.96 80 144 80 C144 74.72 144 69.44 144 64 C191.52 64 239.04 64 288 64 C288 58.72 288 53.44 288 48 C282.72 48 277.44 48 272 48 C272 37.44 272 26.88 272 16 C266.72 16 261.44 16 256 16 C256 26.56 256 37.12 256 48 C250.72 48 245.44 48 240 48 C240 37.44 240 26.88 240 16 C234.72 16 229.44 16 224 16 C224 26.56 224 37.12 224 48 C218.72 48 213.44 48 208 48 C208 37.44 208 26.88 208 16 C202.72 16 197.44 16 192 16 C192 26.56 192 37.12 192 48 C186.72 48 181.44 48 176 48 C176 37.44 176 26.88 176 16 C170.72 16 165.44 16 160 16 C160 26.56 160 37.12 160 48 C154.72 48 149.44 48 144 48 C144 37.44 144 26.88 144 16 C107.04 16 70.08 16 32 16 C32 21.28 32 26.56 32 32 C26.72 32 21.44 32 16 32 C16 26.72 16 21.44 16 16 C10.72 16 5.44 16 0 16 C0 10.72 0 5.44 0 0 Z " fill="#000690" transform="translate(128,0)"/>
<path d="M0 0 C36.96 0 73.92 0 112 0 C112 10.56 112 21.12 112 32 C117.28 32 122.56 32 128 32 C128 21.44 128 10.88 128 0 C133.28 0 138.56 0 144 0 C144 10.56 144 21.12 144 32 C149.28 32 154.56 32 160 32 C160 21.44 160 10.88 160 0 C165.28 0 170.56 0 176 0 C176 10.56 176 21.12 176 32 C181.28 32 186.56 32 192 32 C192 21.44 192 10.88 192 0 C197.28 0 202.56 0 208 0 C208 10.56 208 21.12 208 32 C213.28 32 218.56 32 224 32 C224 21.44 224 10.88 224 0 C229.28 0 234.56 0 240 0 C240 10.56 240 21.12 240 32 C245.28 32 250.56 32 256 32 C256 37.28 256 42.56 256 48 C208.48 48 160.96 48 112 48 C112 58.56 112 69.12 112 80 C38.08 80 -35.84 80 -112 80 C-112 74.72 -112 69.44 -112 64 C-69.76 64 -27.52 64 16 64 C16 53.44 16 42.88 16 32 C10.72 32 5.44 32 0 32 C0 21.44 0 10.88 0 0 Z " fill="#FF28C2" transform="translate(160,16)"/>
<path d="M0 0 C47.52 0 95.04 0 144 0 C144 10.56 144 21.12 144 32 C128.16 32 112.32 32 96 32 C96 37.28 96 42.56 96 48 C90.72 48 85.44 48 80 48 C80 42.72 80 37.44 80 32 C64.16 32 48.32 32 32 32 C32 37.28 32 42.56 32 48 C37.28 48 42.56 48 48 48 C48 53.28 48 58.56 48 64 C58.56 64 69.12 64 80 64 C80 79.84 80 95.68 80 112 C74.72 112 69.44 112 64 112 C64 117.28 64 122.56 64 128 C53.44 128 42.88 128 32 128 C32 138.56 32 149.12 32 160 C26.72 160 21.44 160 16 160 C16 154.72 16 149.44 16 144 C10.72 144 5.44 144 0 144 C0 107.04 0 70.08 0 32 C-5.28 32 -10.56 32 -16 32 C-16 26.72 -16 21.44 -16 16 C-10.72 16 -5.44 16 0 16 C0 10.72 0 5.44 0 0 Z " fill="#FFDDDF" transform="translate(272,80)"/>
<path d="M0 0 C21.12 0 42.24 0 64 0 C64 5.28 64 10.56 64 16 C48.16 16 32.32 16 16 16 C16 84.64 16 153.28 16 224 C68.8 224 121.6 224 176 224 C176 155.36 176 86.72 176 16 C160.16 16 144.32 16 128 16 C128 10.72 128 5.44 128 0 C149.12 0 170.24 0 192 0 C192 79.2 192 158.4 192 240 C128.64 240 65.28 240 0 240 C0 160.8 0 81.6 0 0 Z " fill="#FFB7DE" transform="translate(16,256)"/>
<path d="M0 0 C15.84 0 31.68 0 48 0 C48 5.28 48 10.56 48 16 C37.44 16 26.88 16 16 16 C16 74.08 16 132.16 16 192 C58.24 192 100.48 192 144 192 C144 133.92 144 75.84 144 16 C133.44 16 122.88 16 112 16 C112 10.72 112 5.44 112 0 C127.84 0 143.68 0 160 0 C160 68.64 160 137.28 160 208 C107.2 208 54.4 208 0 208 C0 139.36 0 70.72 0 0 Z " fill="#000690" transform="translate(32,272)"/>
<path d="M0 0 C116.16 0 232.32 0 352 0 C352 5.28 352 10.56 352 16 C346.72 16 341.44 16 336 16 C336 21.28 336 26.56 336 32 C330.72 32 325.44 32 320 32 C320 37.28 320 42.56 320 48 C304.16 48 288.32 48 272 48 C272 37.44 272 26.88 272 16 C266.72 16 261.44 16 256 16 C256 26.56 256 37.12 256 48 C250.72 48 245.44 48 240 48 C240 37.44 240 26.88 240 16 C234.72 16 229.44 16 224 16 C224 26.56 224 37.12 224 48 C218.72 48 213.44 48 208 48 C208 37.44 208 26.88 208 16 C202.72 16 197.44 16 192 16 C192 26.56 192 37.12 192 48 C186.72 48 181.44 48 176 48 C176 37.44 176 26.88 176 16 C170.72 16 165.44 16 160 16 C160 26.56 160 37.12 160 48 C154.72 48 149.44 48 144 48 C144 37.44 144 26.88 144 16 C107.04 16 70.08 16 32 16 C32 21.28 32 26.56 32 32 C26.72 32 21.44 32 16 32 C16 26.72 16 21.44 16 16 C10.72 16 5.44 16 0 16 C0 10.72 0 5.44 0 0 Z " fill="#9720F1" transform="translate(128,0)"/>
<path d="M0 0 C5.28 0 10.56 0 16 0 C16 26.4 16 52.8 16 80 C26.56 80 37.12 80 48 80 C48 74.72 48 69.44 48 64 C42.72 64 37.44 64 32 64 C32 53.44 32 42.88 32 32 C37.28 32 42.56 32 48 32 C48 26.72 48 21.44 48 16 C53.28 16 58.56 16 64 16 C64 21.28 64 26.56 64 32 C69.28 32 74.56 32 80 32 C80 42.56 80 53.12 80 64 C74.72 64 69.44 64 64 64 C64 69.28 64 74.56 64 80 C69.28 80 74.56 80 80 80 C80 90.56 80 101.12 80 112 C74.72 112 69.44 112 64 112 C64 106.72 64 101.44 64 96 C42.88 96 21.76 96 0 96 C0 175.2 0 254.4 0 336 C-5.28 336 -10.56 336 -16 336 C-16 251.52 -16 167.04 -16 80 C-10.72 80 -5.44 80 0 80 C0 53.6 0 27.2 0 0 Z " fill="#DF3CF0" transform="translate(16,160)"/>
<path d="M0 0 C5.28 0 10.56 0 16 0 C16 5.28 16 10.56 16 16 C21.28 16 26.56 16 32 16 C32 74.08 32 132.16 32 192 C26.72 192 21.44 192 16 192 C16 197.28 16 202.56 16 208 C10.72 208 5.44 208 0 208 C0 139.36 0 70.72 0 0 Z " fill="#146AF1" transform="translate(224,272)"/>
<path d="M0 0 C5.28 0 10.56 0 16 0 C16 5.28 16 10.56 16 16 C21.28 16 26.56 16 32 16 C32 52.96 32 89.92 32 128 C37.28 128 42.56 128 48 128 C48 133.28 48 138.56 48 144 C53.28 144 58.56 144 64 144 C64 149.28 64 154.56 64 160 C58.72 160 53.44 160 48 160 C48 165.28 48 170.56 48 176 C32.16 176 16.32 176 0 176 C0 170.72 0 165.44 0 160 C-5.28 160 -10.56 160 -16 160 C-16 154.72 -16 149.44 -16 144 C-10.72 144 -5.44 144 0 144 C0 133.44 0 122.88 0 112 C5.28 112 10.56 112 16 112 C16 85.6 16 59.2 16 32 C5.44 32 -5.12 32 -16 32 C-16 26.72 -16 21.44 -16 16 C-10.72 16 -5.44 16 0 16 C0 10.72 0 5.44 0 0 Z " fill="#146AF1" transform="translate(240,96)"/>
<path d="M0 0 C63.36 0 126.72 0 192 0 C192 26.4 192 52.8 192 80 C186.72 80 181.44 80 176 80 C176 85.28 176 90.56 176 96 C170.72 96 165.44 96 160 96 C160 74.88 160 53.76 160 32 C154.72 32 149.44 32 144 32 C144 26.72 144 21.44 144 16 C96.48 16 48.96 16 0 16 C0 10.72 0 5.44 0 0 Z " fill="#FFDDDF" transform="translate(64,128)"/>
<path d="M0 0 C15.84 0 31.68 0 48 0 C48 15.84 48 31.68 48 48 C37.44 48 26.88 48 16 48 C16 53.28 16 58.56 16 64 C5.44 64 -5.12 64 -16 64 C-16 48.16 -16 32.32 -16 16 C-10.72 16 -5.44 16 0 16 C0 10.72 0 5.44 0 0 Z " fill="#FFDDDF" transform="translate(448,224)"/>
<path d="M0 0 C15.84 0 31.68 0 48 0 C48 5.28 48 10.56 48 16 C53.28 16 58.56 16 64 16 C64 37.12 64 58.24 64 80 C69.28 80 74.56 80 80 80 C80 85.28 80 90.56 80 96 C64.16 96 48.32 96 32 96 C32 90.72 32 85.44 32 80 C37.28 80 42.56 80 48 80 C48 64.16 48 48.32 48 32 C37.44 32 26.88 32 16 32 C16 26.72 16 21.44 16 16 C10.72 16 5.44 16 0 16 C0 10.72 0 5.44 0 0 Z " fill="#000690" transform="translate(304,112)"/>
<path d="M0 0 C63.36 0 126.72 0 192 0 C192 5.28 192 10.56 192 16 C128.64 16 65.28 16 0 16 C0 10.72 0 5.44 0 0 Z " fill="#FFB7DE" transform="translate(48,96)"/>
<path d="M0 0 C63.36 0 126.72 0 192 0 C192 5.28 192 10.56 192 16 C128.64 16 65.28 16 0 16 C0 10.72 0 5.44 0 0 Z " fill="#9720F1" transform="translate(48,80)"/>
<path d="M0 0 C5.28 0 10.56 0 16 0 C16 5.28 16 10.56 16 16 C21.28 16 26.56 16 32 16 C32 52.96 32 89.92 32 128 C21.44 128 10.88 128 0 128 C0 122.72 0 117.44 0 112 C5.28 112 10.56 112 16 112 C16 85.6 16 59.2 16 32 C5.44 32 -5.12 32 -16 32 C-16 26.72 -16 21.44 -16 16 C-10.72 16 -5.44 16 0 16 C0 10.72 0 5.44 0 0 Z " fill="#000690" transform="translate(240,96)"/>
<path d="M0 0 C36.96 0 73.92 0 112 0 C112 10.56 112 21.12 112 32 C106.72 32 101.44 32 96 32 C96 26.72 96 21.44 96 16 C90.72 16 85.44 16 80 16 C80 21.28 80 26.56 80 32 C74.72 32 69.44 32 64 32 C64 26.72 64 21.44 64 16 C58.72 16 53.44 16 48 16 C48 21.28 48 26.56 48 32 C42.72 32 37.44 32 32 32 C32 26.72 32 21.44 32 16 C21.44 16 10.88 16 0 16 C0 10.72 0 5.44 0 0 Z " fill="#FFE84A" transform="translate(160,16)"/>
<path d="M0 0 C21.12 0 42.24 0 64 0 C64 10.56 64 21.12 64 32 C42.88 32 21.76 32 0 32 C0 21.44 0 10.88 0 0 Z " fill="#FF28C2" transform="translate(272,384)"/>
<path d="M0 0 C5.28 0 10.56 0 16 0 C16 5.28 16 10.56 16 16 C21.28 16 26.56 16 32 16 C32 26.56 32 37.12 32 48 C26.72 48 21.44 48 16 48 C16 53.28 16 58.56 16 64 C10.72 64 5.44 64 0 64 C0 58.72 0 53.44 0 48 C-5.28 48 -10.56 48 -16 48 C-16 37.44 -16 26.88 -16 16 C-10.72 16 -5.44 16 0 16 C0 10.72 0 5.44 0 0 Z " fill="#FF28C2" transform="translate(160,176)"/>
<path d="M0 0 C5.28 0 10.56 0 16 0 C16 5.28 16 10.56 16 16 C21.28 16 26.56 16 32 16 C32 26.56 32 37.12 32 48 C26.72 48 21.44 48 16 48 C16 53.28 16 58.56 16 64 C10.72 64 5.44 64 0 64 C0 58.72 0 53.44 0 48 C-5.28 48 -10.56 48 -16 48 C-16 37.44 -16 26.88 -16 16 C-10.72 16 -5.44 16 0 16 C0 10.72 0 5.44 0 0 Z " fill="#FF28C2" transform="translate(64,176)"/>
<path d="M0 0 C42.24 0 84.48 0 128 0 C128 5.28 128 10.56 128 16 C85.76 16 43.52 16 0 16 C0 10.72 0 5.44 0 0 Z " fill="#9720F1" transform="translate(80,144)"/>
<path d="M0 0 C42.24 0 84.48 0 128 0 C128 5.28 128 10.56 128 16 C85.76 16 43.52 16 0 16 C0 10.72 0 5.44 0 0 Z " fill="#9720F1" transform="translate(96,112)"/>
<path d="M0 0 C31.68 0 63.36 0 96 0 C96 5.28 96 10.56 96 16 C74.88 16 53.76 16 32 16 C32 21.28 32 26.56 32 32 C26.72 32 21.44 32 16 32 C16 26.72 16 21.44 16 16 C10.72 16 5.44 16 0 16 C0 10.72 0 5.44 0 0 Z " fill="#DF3CF0" transform="translate(128,0)"/>
<path d="M0 0 C10.56 0 21.12 0 32 0 C32 5.28 32 10.56 32 16 C37.28 16 42.56 16 48 16 C48 26.56 48 37.12 48 48 C37.44 48 26.88 48 16 48 C16 37.44 16 26.88 16 16 C10.72 16 5.44 16 0 16 C0 10.72 0 5.44 0 0 Z " fill="#FFDDDF" transform="translate(272,432)"/>
<path d="M0 0 C5.28 0 10.56 0 16 0 C16 21.12 16 42.24 16 64 C21.28 64 26.56 64 32 64 C32 69.28 32 74.56 32 80 C21.44 80 10.88 80 0 80 C0 53.6 0 27.2 0 0 Z " fill="#000690" transform="translate(448,144)"/>
<path d="M0 0 C21.12 0 42.24 0 64 0 C64 5.28 64 10.56 64 16 C48.16 16 32.32 16 16 16 C16 21.28 16 26.56 16 32 C10.72 32 5.44 32 0 32 C0 21.44 0 10.88 0 0 Z " fill="#9720F1" transform="translate(128,240)"/>
<path d="M0 0 C5.28 0 10.56 0 16 0 C16 26.4 16 52.8 16 80 C10.72 80 5.44 80 0 80 C0 53.6 0 27.2 0 0 Z " fill="#FFDDDF" transform="translate(432,144)"/>
<path d="M0 0 C26.4 0 52.8 0 80 0 C80 5.28 80 10.56 80 16 C53.6 16 27.2 16 0 16 C0 10.72 0 5.44 0 0 Z " fill="#000690" transform="translate(160,80)"/>
<path d="M0 0 C10.56 0 21.12 0 32 0 C32 5.28 32 10.56 32 16 C26.72 16 21.44 16 16 16 C16 21.28 16 26.56 16 32 C10.72 32 5.44 32 0 32 C0 37.28 0 42.56 0 48 C-5.28 48 -10.56 48 -16 48 C-16 37.44 -16 26.88 -16 16 C-10.72 16 -5.44 16 0 16 C0 10.72 0 5.44 0 0 Z " fill="#000690" transform="translate(448,0)"/>
<path d="M0 0 C5.28 0 10.56 0 16 0 C16 21.12 16 42.24 16 64 C10.72 64 5.44 64 0 64 C0 42.88 0 21.76 0 0 Z " fill="#FFE84A" transform="translate(336,416)"/>
<path d="M0 0 C10.56 0 21.12 0 32 0 C32 10.56 32 21.12 32 32 C21.44 32 10.88 32 0 32 C0 21.44 0 10.88 0 0 Z " fill="#FFE84A" transform="translate(272,384)"/>
<path d="M0 0 C5.28 0 10.56 0 16 0 C16 5.28 16 10.56 16 16 C21.28 16 26.56 16 32 16 C32 21.28 32 26.56 32 32 C26.72 32 21.44 32 16 32 C16 37.28 16 42.56 16 48 C10.72 48 5.44 48 0 48 C0 32.16 0 16.32 0 0 Z " fill="#146AF1" transform="translate(272,224)"/>
<path d="M0 0 C10.56 0 21.12 0 32 0 C32 15.84 32 31.68 32 48 C26.72 48 21.44 48 16 48 C16 37.44 16 26.88 16 16 C10.72 16 5.44 16 0 16 C0 10.72 0 5.44 0 0 Z " fill="#DF3CF0" transform="translate(160,32)"/>
<path d="M0 0 C5.28 0 10.56 0 16 0 C16 15.84 16 31.68 16 48 C10.72 48 5.44 48 0 48 C0 32.16 0 16.32 0 0 Z " fill="#FF28C2" transform="translate(480,400)"/>
<path d="M0 0 C5.28 0 10.56 0 16 0 C16 15.84 16 31.68 16 48 C10.72 48 5.44 48 0 48 C0 32.16 0 16.32 0 0 Z " fill="#000690" transform="translate(464,400)"/>
<path d="M0 0 C5.28 0 10.56 0 16 0 C16 15.84 16 31.68 16 48 C10.72 48 5.44 48 0 48 C0 32.16 0 16.32 0 0 Z " fill="#FFDDDF" transform="translate(448,400)"/>
<path d="M0 0 C5.28 0 10.56 0 16 0 C16 15.84 16 31.68 16 48 C10.72 48 5.44 48 0 48 C0 32.16 0 16.32 0 0 Z " fill="#FFE84A" transform="translate(400,400)"/>
<path d="M0 0 C5.28 0 10.56 0 16 0 C16 15.84 16 31.68 16 48 C10.72 48 5.44 48 0 48 C0 32.16 0 16.32 0 0 Z " fill="#FFE84A" transform="translate(352,368)"/>
<path d="M0 0 C5.28 0 10.56 0 16 0 C16 5.28 16 10.56 16 16 C21.28 16 26.56 16 32 16 C32 21.28 32 26.56 32 32 C21.44 32 10.88 32 0 32 C0 21.44 0 10.88 0 0 Z " fill="#FFE84A" transform="translate(272,336)"/>
<path d="M0 0 C5.28 0 10.56 0 16 0 C16 15.84 16 31.68 16 48 C10.72 48 5.44 48 0 48 C0 32.16 0 16.32 0 0 Z " fill="#000690" transform="translate(384,256)"/>
<path d="M0 0 C5.28 0 10.56 0 16 0 C16 15.84 16 31.68 16 48 C10.72 48 5.44 48 0 48 C0 32.16 0 16.32 0 0 Z " fill="#000690" transform="translate(320,256)"/>
<path d="M0 0 C10.56 0 21.12 0 32 0 C32 10.56 32 21.12 32 32 C26.72 32 21.44 32 16 32 C16 26.72 16 21.44 16 16 C10.72 16 5.44 16 0 16 C0 10.72 0 5.44 0 0 Z " fill="#146AF1" transform="translate(224,240)"/>
<path d="M0 0 C10.56 0 21.12 0 32 0 C32 10.56 32 21.12 32 32 C26.72 32 21.44 32 16 32 C16 26.72 16 21.44 16 16 C10.72 16 5.44 16 0 16 C0 10.72 0 5.44 0 0 Z " fill="#9720F1" transform="translate(64,240)"/>
<path d="M0 0 C15.84 0 31.68 0 48 0 C48 5.28 48 10.56 48 16 C32.16 16 16.32 16 0 16 C0 10.72 0 5.44 0 0 Z " fill="#000690" transform="translate(336,224)"/>
<path d="M0 0 C15.84 0 31.68 0 48 0 C48 5.28 48 10.56 48 16 C32.16 16 16.32 16 0 16 C0 10.72 0 5.44 0 0 Z " fill="#FFDDDF" transform="translate(336,208)"/>
<path d="M0 0 C10.56 0 21.12 0 32 0 C32 5.28 32 10.56 32 16 C26.72 16 21.44 16 16 16 C16 21.28 16 26.56 16 32 C10.72 32 5.44 32 0 32 C0 21.44 0 10.88 0 0 Z " fill="#000690" transform="translate(304,208)"/>
<path d="M0 0 C15.84 0 31.68 0 48 0 C48 5.28 48 10.56 48 16 C32.16 16 16.32 16 0 16 C0 10.72 0 5.44 0 0 Z " fill="#DF3CF0" transform="translate(32,144)"/>
<path d="M0 0 C5.28 0 10.56 0 16 0 C16 10.56 16 21.12 16 32 C10.72 32 5.44 32 0 32 C0 21.44 0 10.88 0 0 Z " fill="#FF28C2" transform="translate(464,448)"/>
<path d="M0 0 C5.28 0 10.56 0 16 0 C16 10.56 16 21.12 16 32 C10.72 32 5.44 32 0 32 C0 21.44 0 10.88 0 0 Z " fill="#FFDDDF" transform="translate(432,448)"/>
<path d="M0 0 C5.28 0 10.56 0 16 0 C16 10.56 16 21.12 16 32 C10.72 32 5.44 32 0 32 C0 21.44 0 10.88 0 0 Z " fill="#FFE84A" transform="translate(384,448)"/>
<path d="M0 0 C5.28 0 10.56 0 16 0 C16 10.56 16 21.12 16 32 C10.72 32 5.44 32 0 32 C0 21.44 0 10.88 0 0 Z " fill="#FFDDDF" transform="translate(464,368)"/>
<path d="M0 0 C5.28 0 10.56 0 16 0 C16 10.56 16 21.12 16 32 C10.72 32 5.44 32 0 32 C0 21.44 0 10.88 0 0 Z " fill="#FFE84A" transform="translate(416,368)"/>
<path d="M0 0 C5.28 0 10.56 0 16 0 C16 10.56 16 21.12 16 32 C10.72 32 5.44 32 0 32 C0 21.44 0 10.88 0 0 Z " fill="#FFDDDF" transform="translate(480,336)"/>
<path d="M0 0 C5.28 0 10.56 0 16 0 C16 10.56 16 21.12 16 32 C10.72 32 5.44 32 0 32 C0 21.44 0 10.88 0 0 Z " fill="#FFE84A" transform="translate(432,336)"/>
<path d="M0 0 C5.28 0 10.56 0 16 0 C16 10.56 16 21.12 16 32 C10.72 32 5.44 32 0 32 C0 21.44 0 10.88 0 0 Z " fill="#FFE84A" transform="translate(368,336)"/>
<path d="M0 0 C5.28 0 10.56 0 16 0 C16 10.56 16 21.12 16 32 C10.72 32 5.44 32 0 32 C0 21.44 0 10.88 0 0 Z " fill="#FFE84A" transform="translate(384,304)"/>
<path d="M0 0 C5.28 0 10.56 0 16 0 C16 10.56 16 21.12 16 32 C10.72 32 5.44 32 0 32 C0 21.44 0 10.88 0 0 Z " fill="#000690" transform="translate(352,272)"/>
<path d="M0 0 C10.56 0 21.12 0 32 0 C32 5.28 32 10.56 32 16 C21.44 16 10.88 16 0 16 C0 10.72 0 5.44 0 0 Z " fill="#000690" transform="translate(96,272)"/>
<path d="M0 0 C5.28 0 10.56 0 16 0 C16 10.56 16 21.12 16 32 C10.72 32 5.44 32 0 32 C0 21.44 0 10.88 0 0 Z " fill="#000690" transform="translate(448,96)"/>
<path d="M0 0 C5.28 0 10.56 0 16 0 C16 10.56 16 21.12 16 32 C10.72 32 5.44 32 0 32 C0 21.44 0 10.88 0 0 Z " fill="#FFDDDF" transform="translate(432,96)"/>
<path d="M0 0 C5.28 0 10.56 0 16 0 C16 10.56 16 21.12 16 32 C10.72 32 5.44 32 0 32 C0 21.44 0 10.88 0 0 Z " fill="#FF28C2" transform="translate(416,16)"/>
<path d="M0 0 C5.28 0 10.56 0 16 0 C16 10.56 16 21.12 16 32 C10.72 32 5.44 32 0 32 C0 21.44 0 10.88 0 0 Z " fill="#000690" transform="translate(240,32)"/>
<path d="M0 0 C5.28 0 10.56 0 16 0 C16 10.56 16 21.12 16 32 C10.72 32 5.44 32 0 32 C0 21.44 0 10.88 0 0 Z " fill="#000690" transform="translate(208,32)"/>
<path d="M0 0 C10.56 0 21.12 0 32 0 C32 5.28 32 10.56 32 16 C21.44 16 10.88 16 0 16 C0 10.72 0 5.44 0 0 Z " fill="#9720F1" transform="translate(160,32)"/>
<path d="M0 0 C5.28 0 10.56 0 16 0 C16 10.56 16 21.12 16 32 C10.72 32 5.44 32 0 32 C0 21.44 0 10.88 0 0 Z " fill="#000690" transform="translate(400,16)"/>
<path d="M0 0 C5.28 0 10.56 0 16 0 C16 10.56 16 21.12 16 32 C10.72 32 5.44 32 0 32 C0 21.44 0 10.88 0 0 Z " fill="#000690" transform="translate(368,16)"/>
<path d="M0 0 C5.28 0 10.56 0 16 0 C16 10.56 16 21.12 16 32 C10.72 32 5.44 32 0 32 C0 21.44 0 10.88 0 0 Z " fill="#000690" transform="translate(336,16)"/>
<path d="M0 0 C5.28 0 10.56 0 16 0 C16 10.56 16 21.12 16 32 C10.72 32 5.44 32 0 32 C0 21.44 0 10.88 0 0 Z " fill="#000690" transform="translate(304,16)"/>
<path d="M0 0 C5.28 0 10.56 0 16 0 C16 10.56 16 21.12 16 32 C10.72 32 5.44 32 0 32 C0 21.44 0 10.88 0 0 Z " fill="#000690" transform="translate(272,16)"/>
<path d="M0 0 C5.28 0 10.56 0 16 0 C16 5.28 16 10.56 16 16 C10.72 16 5.44 16 0 16 C0 10.72 0 5.44 0 0 Z " fill="#FFB7DE" transform="translate(192,480)"/>
<path d="M0 0 C5.28 0 10.56 0 16 0 C16 5.28 16 10.56 16 16 C10.72 16 5.44 16 0 16 C0 10.72 0 5.44 0 0 Z " fill="#55D3F1" transform="translate(176,480)"/>
<path d="M0 0 C5.28 0 10.56 0 16 0 C16 5.28 16 10.56 16 16 C10.72 16 5.44 16 0 16 C0 10.72 0 5.44 0 0 Z " fill="#FFB7DE" transform="translate(160,480)"/>
<path d="M0 0 C5.28 0 10.56 0 16 0 C16 5.28 16 10.56 16 16 C10.72 16 5.44 16 0 16 C0 10.72 0 5.44 0 0 Z " fill="#55D3F1" transform="translate(144,480)"/>
<path d="M0 0 C5.28 0 10.56 0 16 0 C16 5.28 16 10.56 16 16 C10.72 16 5.44 16 0 16 C0 10.72 0 5.44 0 0 Z " fill="#FFB7DE" transform="translate(128,480)"/>
<path d="M0 0 C5.28 0 10.56 0 16 0 C16 5.28 16 10.56 16 16 C10.72 16 5.44 16 0 16 C0 10.72 0 5.44 0 0 Z " fill="#55D3F1" transform="translate(112,480)"/>
<path d="M0 0 C5.28 0 10.56 0 16 0 C16 5.28 16 10.56 16 16 C10.72 16 5.44 16 0 16 C0 10.72 0 5.44 0 0 Z " fill="#FFB7DE" transform="translate(96,480)"/>
<path d="M0 0 C5.28 0 10.56 0 16 0 C16 5.28 16 10.56 16 16 C10.72 16 5.44 16 0 16 C0 10.72 0 5.44 0 0 Z " fill="#55D3F1" transform="translate(80,480)"/>
<path d="M0 0 C5.28 0 10.56 0 16 0 C16 5.28 16 10.56 16 16 C10.72 16 5.44 16 0 16 C0 10.72 0 5.44 0 0 Z " fill="#FFB7DE" transform="translate(64,480)"/>
<path d="M0 0 C5.28 0 10.56 0 16 0 C16 5.28 16 10.56 16 16 C10.72 16 5.44 16 0 16 C0 10.72 0 5.44 0 0 Z " fill="#55D3F1" transform="translate(48,480)"/>
<path d="M0 0 C5.28 0 10.56 0 16 0 C16 5.28 16 10.56 16 16 C10.72 16 5.44 16 0 16 C0 10.72 0 5.44 0 0 Z " fill="#FFB7DE" transform="translate(32,480)"/>
<path d="M0 0 C5.28 0 10.56 0 16 0 C16 5.28 16 10.56 16 16 C10.72 16 5.44 16 0 16 C0 10.72 0 5.44 0 0 Z " fill="#55D3F1" transform="translate(16,480)"/>
<path d="M0 0 C5.28 0 10.56 0 16 0 C16 5.28 16 10.56 16 16 C10.72 16 5.44 16 0 16 C0 10.72 0 5.44 0 0 Z " fill="#FFDDDF" transform="translate(256,464)"/>
<path d="M0 0 C5.28 0 10.56 0 16 0 C16 5.28 16 10.56 16 16 C10.72 16 5.44 16 0 16 C0 10.72 0 5.44 0 0 Z " fill="#55D3F1" transform="translate(224,464)"/>
<path d="M0 0 C5.28 0 10.56 0 16 0 C16 5.28 16 10.56 16 16 C10.72 16 5.44 16 0 16 C0 10.72 0 5.44 0 0 Z " fill="#55D3F1" transform="translate(192,464)"/>
<path d="M0 0 C5.28 0 10.56 0 16 0 C16 5.28 16 10.56 16 16 C10.72 16 5.44 16 0 16 C0 10.72 0 5.44 0 0 Z " fill="#FFB7DE" transform="translate(16,464)"/>
<path d="M0 0 C5.28 0 10.56 0 16 0 C16 5.28 16 10.56 16 16 C10.72 16 5.44 16 0 16 C0 10.72 0 5.44 0 0 Z " fill="#55D3F1" transform="translate(240,448)"/>
<path d="M0 0 C5.28 0 10.56 0 16 0 C16 5.28 16 10.56 16 16 C10.72 16 5.44 16 0 16 C0 10.72 0 5.44 0 0 Z " fill="#146AF1" transform="translate(224,448)"/>
<path d="M0 0 C5.28 0 10.56 0 16 0 C16 5.28 16 10.56 16 16 C10.72 16 5.44 16 0 16 C0 10.72 0 5.44 0 0 Z " fill="#FFB7DE" transform="translate(192,448)"/>
<path d="M0 0 C5.28 0 10.56 0 16 0 C16 5.28 16 10.56 16 16 C10.72 16 5.44 16 0 16 C0 10.72 0 5.44 0 0 Z " fill="#55D3F1" transform="translate(16,448)"/>
<path d="M0 0 C5.28 0 10.56 0 16 0 C16 5.28 16 10.56 16 16 C10.72 16 5.44 16 0 16 C0 10.72 0 5.44 0 0 Z " fill="#146AF1" transform="translate(240,432)"/>
<path d="M0 0 C5.28 0 10.56 0 16 0 C16 5.28 16 10.56 16 16 C10.72 16 5.44 16 0 16 C0 10.72 0 5.44 0 0 Z " fill="#55D3F1" transform="translate(224,432)"/>
<path d="M0 0 C5.28 0 10.56 0 16 0 C16 5.28 16 10.56 16 16 C10.72 16 5.44 16 0 16 C0 10.72 0 5.44 0 0 Z " fill="#55D3F1" transform="translate(192,432)"/>
<path d="M0 0 C5.28 0 10.56 0 16 0 C16 5.28 16 10.56 16 16 C10.72 16 5.44 16 0 16 C0 10.72 0 5.44 0 0 Z " fill="#FFB7DE" transform="translate(16,432)"/>
<path d="M0 0 C5.28 0 10.56 0 16 0 C16 5.28 16 10.56 16 16 C10.72 16 5.44 16 0 16 C0 10.72 0 5.44 0 0 Z " fill="#FF28C2" transform="translate(368,416)"/>
<path d="M0 0 C5.28 0 10.56 0 16 0 C16 5.28 16 10.56 16 16 C10.72 16 5.44 16 0 16 C0 10.72 0 5.44 0 0 Z " fill="#55D3F1" transform="translate(240,416)"/>
<path d="M0 0 C5.28 0 10.56 0 16 0 C16 5.28 16 10.56 16 16 C10.72 16 5.44 16 0 16 C0 10.72 0 5.44 0 0 Z " fill="#146AF1" transform="translate(224,416)"/>
<path d="M0 0 C5.28 0 10.56 0 16 0 C16 5.28 16 10.56 16 16 C10.72 16 5.44 16 0 16 C0 10.72 0 5.44 0 0 Z " fill="#FFB7DE" transform="translate(192,416)"/>
<path d="M0 0 C5.28 0 10.56 0 16 0 C16 5.28 16 10.56 16 16 C10.72 16 5.44 16 0 16 C0 10.72 0 5.44 0 0 Z " fill="#55D3F1" transform="translate(16,416)"/>
<path d="M0 0 C5.28 0 10.56 0 16 0 C16 5.28 16 10.56 16 16 C10.72 16 5.44 16 0 16 C0 10.72 0 5.44 0 0 Z " fill="#146AF1" transform="translate(240,400)"/>
<path d="M0 0 C5.28 0 10.56 0 16 0 C16 5.28 16 10.56 16 16 C10.72 16 5.44 16 0 16 C0 10.72 0 5.44 0 0 Z " fill="#55D3F1" transform="translate(224,400)"/>
<path d="M0 0 C5.28 0 10.56 0 16 0 C16 5.28 16 10.56 16 16 C10.72 16 5.44 16 0 16 C0 10.72 0 5.44 0 0 Z " fill="#55D3F1" transform="translate(192,400)"/>
<path d="M0 0 C5.28 0 10.56 0 16 0 C16 5.28 16 10.56 16 16 C10.72 16 5.44 16 0 16 C0 10.72 0 5.44 0 0 Z " fill="#FFB7DE" transform="translate(16,400)"/>
<path d="M0 0 C5.28 0 10.56 0 16 0 C16 5.28 16 10.56 16 16 C10.72 16 5.44 16 0 16 C0 10.72 0 5.44 0 0 Z " fill="#55D3F1" transform="translate(240,384)"/>
<path d="M0 0 C5.28 0 10.56 0 16 0 C16 5.28 16 10.56 16 16 C10.72 16 5.44 16 0 16 C0 10.72 0 5.44 0 0 Z " fill="#146AF1" transform="translate(224,384)"/>
<path d="M0 0 C5.28 0 10.56 0 16 0 C16 5.28 16 10.56 16 16 C10.72 16 5.44 16 0 16 C0 10.72 0 5.44 0 0 Z " fill="#FFB7DE" transform="translate(192,384)"/>
<path d="M0 0 C5.28 0 10.56 0 16 0 C16 5.28 16 10.56 16 16 C10.72 16 5.44 16 0 16 C0 10.72 0 5.44 0 0 Z " fill="#55D3F1" transform="translate(16,384)"/>
<path d="M0 0 C5.28 0 10.56 0 16 0 C16 5.28 16 10.56 16 16 C10.72 16 5.44 16 0 16 C0 10.72 0 5.44 0 0 Z " fill="#FF28C2" transform="translate(384,368)"/>
<path d="M0 0 C5.28 0 10.56 0 16 0 C16 5.28 16 10.56 16 16 C10.72 16 5.44 16 0 16 C0 10.72 0 5.44 0 0 Z " fill="#146AF1" transform="translate(240,368)"/>
<path d="M0 0 C5.28 0 10.56 0 16 0 C16 5.28 16 10.56 16 16 C10.72 16 5.44 16 0 16 C0 10.72 0 5.44 0 0 Z " fill="#55D3F1" transform="translate(224,368)"/>
<path d="M0 0 C5.28 0 10.56 0 16 0 C16 5.28 16 10.56 16 16 C10.72 16 5.44 16 0 16 C0 10.72 0 5.44 0 0 Z " fill="#55D3F1" transform="translate(192,368)"/>
<path d="M0 0 C5.28 0 10.56 0 16 0 C16 5.28 16 10.56 16 16 C10.72 16 5.44 16 0 16 C0 10.72 0 5.44 0 0 Z " fill="#FFB7DE" transform="translate(16,368)"/>
<path d="M0 0 C5.28 0 10.56 0 16 0 C16 5.28 16 10.56 16 16 C10.72 16 5.44 16 0 16 C0 10.72 0 5.44 0 0 Z " fill="#FFE84A" transform="translate(320,352)"/>
<path d="M0 0 C5.28 0 10.56 0 16 0 C16 5.28 16 10.56 16 16 C10.72 16 5.44 16 0 16 C0 10.72 0 5.44 0 0 Z " fill="#55D3F1" transform="translate(240,352)"/>
<path d="M0 0 C5.28 0 10.56 0 16 0 C16 5.28 16 10.56 16 16 C10.72 16 5.44 16 0 16 C0 10.72 0 5.44 0 0 Z " fill="#146AF1" transform="translate(224,352)"/>
<path d="M0 0 C5.28 0 10.56 0 16 0 C16 5.28 16 10.56 16 16 C10.72 16 5.44 16 0 16 C0 10.72 0 5.44 0 0 Z " fill="#FFB7DE" transform="translate(192,352)"/>
<path d="M0 0 C5.28 0 10.56 0 16 0 C16 5.28 16 10.56 16 16 C10.72 16 5.44 16 0 16 C0 10.72 0 5.44 0 0 Z " fill="#55D3F1" transform="translate(16,352)"/>
<path d="M0 0 C5.28 0 10.56 0 16 0 C16 5.28 16 10.56 16 16 C10.72 16 5.44 16 0 16 C0 10.72 0 5.44 0 0 Z " fill="#FF28C2" transform="translate(400,336)"/>
<path d="M0 0 C5.28 0 10.56 0 16 0 C16 5.28 16 10.56 16 16 C10.72 16 5.44 16 0 16 C0 10.72 0 5.44 0 0 Z " fill="#146AF1" transform="translate(240,336)"/>
<path d="M0 0 C5.28 0 10.56 0 16 0 C16 5.28 16 10.56 16 16 C10.72 16 5.44 16 0 16 C0 10.72 0 5.44 0 0 Z " fill="#55D3F1" transform="translate(224,336)"/>
<path d="M0 0 C5.28 0 10.56 0 16 0 C16 5.28 16 10.56 16 16 C10.72 16 5.44 16 0 16 C0 10.72 0 5.44 0 0 Z " fill="#55D3F1" transform="translate(192,336)"/>
<path d="M0 0 C5.28 0 10.56 0 16 0 C16 5.28 16 10.56 16 16 C10.72 16 5.44 16 0 16 C0 10.72 0 5.44 0 0 Z " fill="#FFB7DE" transform="translate(16,336)"/>
<path d="M0 0 C5.28 0 10.56 0 16 0 C16 5.28 16 10.56 16 16 C10.72 16 5.44 16 0 16 C0 10.72 0 5.44 0 0 Z " fill="#FFE84A" transform="translate(448,320)"/>
<path d="M0 0 C5.28 0 10.56 0 16 0 C16 5.28 16 10.56 16 16 C10.72 16 5.44 16 0 16 C0 10.72 0 5.44 0 0 Z " fill="#FFDDDF" transform="translate(336,320)"/>
<path d="M0 0 C5.28 0 10.56 0 16 0 C16 5.28 16 10.56 16 16 C10.72 16 5.44 16 0 16 C0 10.72 0 5.44 0 0 Z " fill="#55D3F1" transform="translate(240,320)"/>
<path d="M0 0 C5.28 0 10.56 0 16 0 C16 5.28 16 10.56 16 16 C10.72 16 5.44 16 0 16 C0 10.72 0 5.44 0 0 Z " fill="#146AF1" transform="translate(224,320)"/>
<path d="M0 0 C5.28 0 10.56 0 16 0 C16 5.28 16 10.56 16 16 C10.72 16 5.44 16 0 16 C0 10.72 0 5.44 0 0 Z " fill="#FFB7DE" transform="translate(192,320)"/>
<path d="M0 0 C5.28 0 10.56 0 16 0 C16 5.28 16 10.56 16 16 C10.72 16 5.44 16 0 16 C0 10.72 0 5.44 0 0 Z " fill="#55D3F1" transform="translate(16,320)"/>
<path d="M0 0 C5.28 0 10.56 0 16 0 C16 5.28 16 10.56 16 16 C10.72 16 5.44 16 0 16 C0 10.72 0 5.44 0 0 Z " fill="#FFE84A" transform="translate(464,304)"/>
<path d="M0 0 C5.28 0 10.56 0 16 0 C16 5.28 16 10.56 16 16 C10.72 16 5.44 16 0 16 C0 10.72 0 5.44 0 0 Z " fill="#FF28C2" transform="translate(416,304)"/>
<path d="M0 0 C5.28 0 10.56 0 16 0 C16 5.28 16 10.56 16 16 C10.72 16 5.44 16 0 16 C0 10.72 0 5.44 0 0 Z " fill="#FFDDDF" transform="translate(352,304)"/>
<path d="M0 0 C5.28 0 10.56 0 16 0 C16 5.28 16 10.56 16 16 C10.72 16 5.44 16 0 16 C0 10.72 0 5.44 0 0 Z " fill="#000690" transform="translate(336,304)"/>
<path d="M0 0 C5.28 0 10.56 0 16 0 C16 5.28 16 10.56 16 16 C10.72 16 5.44 16 0 16 C0 10.72 0 5.44 0 0 Z " fill="#FFDDDF" transform="translate(320,304)"/>
<path d="M0 0 C5.28 0 10.56 0 16 0 C16 5.28 16 10.56 16 16 C10.72 16 5.44 16 0 16 C0 10.72 0 5.44 0 0 Z " fill="#000690" transform="translate(304,304)"/>
<path d="M0 0 C5.28 0 10.56 0 16 0 C16 5.28 16 10.56 16 16 C10.72 16 5.44 16 0 16 C0 10.72 0 5.44 0 0 Z " fill="#146AF1" transform="translate(240,304)"/>
<path d="M0 0 C5.28 0 10.56 0 16 0 C16 5.28 16 10.56 16 16 C10.72 16 5.44 16 0 16 C0 10.72 0 5.44 0 0 Z " fill="#55D3F1" transform="translate(224,304)"/>
<path d="M0 0 C5.28 0 10.56 0 16 0 C16 5.28 16 10.56 16 16 C10.72 16 5.44 16 0 16 C0 10.72 0 5.44 0 0 Z " fill="#55D3F1" transform="translate(192,304)"/>
<path d="M0 0 C5.28 0 10.56 0 16 0 C16 5.28 16 10.56 16 16 C10.72 16 5.44 16 0 16 C0 10.72 0 5.44 0 0 Z " fill="#FFB7DE" transform="translate(16,304)"/>
<path d="M0 0 C5.28 0 10.56 0 16 0 C16 5.28 16 10.56 16 16 C10.72 16 5.44 16 0 16 C0 10.72 0 5.44 0 0 Z " fill="#FFE84A" transform="translate(480,288)"/>
<path d="M0 0 C5.28 0 10.56 0 16 0 C16 5.28 16 10.56 16 16 C10.72 16 5.44 16 0 16 C0 10.72 0 5.44 0 0 Z " fill="#55D3F1" transform="translate(240,288)"/>
<path d="M0 0 C5.28 0 10.56 0 16 0 C16 5.28 16 10.56 16 16 C10.72 16 5.44 16 0 16 C0 10.72 0 5.44 0 0 Z " fill="#FFB7DE" transform="translate(192,288)"/>
<path d="M0 0 C5.28 0 10.56 0 16 0 C16 5.28 16 10.56 16 16 C10.72 16 5.44 16 0 16 C0 10.72 0 5.44 0 0 Z " fill="#55D3F1" transform="translate(16,288)"/>
<path d="M0 0 C5.28 0 10.56 0 16 0 C16 5.28 16 10.56 16 16 C10.72 16 5.44 16 0 16 C0 10.72 0 5.44 0 0 Z " fill="#55D3F1" transform="translate(224,272)"/>
<path d="M0 0 C5.28 0 10.56 0 16 0 C16 5.28 16 10.56 16 16 C10.72 16 5.44 16 0 16 C0 10.72 0 5.44 0 0 Z " fill="#55D3F1" transform="translate(192,272)"/>
<path d="M0 0 C5.28 0 10.56 0 16 0 C16 5.28 16 10.56 16 16 C10.72 16 5.44 16 0 16 C0 10.72 0 5.44 0 0 Z " fill="#55D3F1" transform="translate(128,272)"/>
<path d="M0 0 C5.28 0 10.56 0 16 0 C16 5.28 16 10.56 16 16 C10.72 16 5.44 16 0 16 C0 10.72 0 5.44 0 0 Z " fill="#55D3F1" transform="translate(80,272)"/>
<path d="M0 0 C5.28 0 10.56 0 16 0 C16 5.28 16 10.56 16 16 C10.72 16 5.44 16 0 16 C0 10.72 0 5.44 0 0 Z " fill="#FFB7DE" transform="translate(16,272)"/>
<path d="M0 0 C5.28 0 10.56 0 16 0 C16 5.28 16 10.56 16 16 C10.72 16 5.44 16 0 16 C0 10.72 0 5.44 0 0 Z " fill="#000690" transform="translate(272,256)"/>
<path d="M0 0 C5.28 0 10.56 0 16 0 C16 5.28 16 10.56 16 16 C10.72 16 5.44 16 0 16 C0 10.72 0 5.44 0 0 Z " fill="#146AF1" transform="translate(256,256)"/>
<path d="M0 0 C5.28 0 10.56 0 16 0 C16 5.28 16 10.56 16 16 C10.72 16 5.44 16 0 16 C0 10.72 0 5.44 0 0 Z " fill="#55D3F1" transform="translate(240,256)"/>
<path d="M0 0 C5.28 0 10.56 0 16 0 C16 5.28 16 10.56 16 16 C10.72 16 5.44 16 0 16 C0 10.72 0 5.44 0 0 Z " fill="#FFB7DE" transform="translate(192,256)"/>
<path d="M0 0 C5.28 0 10.56 0 16 0 C16 5.28 16 10.56 16 16 C10.72 16 5.44 16 0 16 C0 10.72 0 5.44 0 0 Z " fill="#55D3F1" transform="translate(176,256)"/>
<path d="M0 0 C5.28 0 10.56 0 16 0 C16 5.28 16 10.56 16 16 C10.72 16 5.44 16 0 16 C0 10.72 0 5.44 0 0 Z " fill="#55D3F1" transform="translate(144,256)"/>
<path d="M0 0 C5.28 0 10.56 0 16 0 C16 5.28 16 10.56 16 16 C10.72 16 5.44 16 0 16 C0 10.72 0 5.44 0 0 Z " fill="#FFB7DE" transform="translate(64,256)"/>
<path d="M0 0 C5.28 0 10.56 0 16 0 C16 5.28 16 10.56 16 16 C10.72 16 5.44 16 0 16 C0 10.72 0 5.44 0 0 Z " fill="#55D3F1" transform="translate(48,256)"/>
<path d="M0 0 C5.28 0 10.56 0 16 0 C16 5.28 16 10.56 16 16 C10.72 16 5.44 16 0 16 C0 10.72 0 5.44 0 0 Z " fill="#55D3F1" transform="translate(16,256)"/>
<path d="M0 0 C5.28 0 10.56 0 16 0 C16 5.28 16 10.56 16 16 C10.72 16 5.44 16 0 16 C0 10.72 0 5.44 0 0 Z " fill="#000690" transform="translate(288,240)"/>
<path d="M0 0 C5.28 0 10.56 0 16 0 C16 5.28 16 10.56 16 16 C10.72 16 5.44 16 0 16 C0 10.72 0 5.44 0 0 Z " fill="#55D3F1" transform="translate(256,240)"/>
<path d="M0 0 C5.28 0 10.56 0 16 0 C16 5.28 16 10.56 16 16 C10.72 16 5.44 16 0 16 C0 10.72 0 5.44 0 0 Z " fill="#55D3F1" transform="translate(224,240)"/>
<path d="M0 0 C5.28 0 10.56 0 16 0 C16 5.28 16 10.56 16 16 C10.72 16 5.44 16 0 16 C0 10.72 0 5.44 0 0 Z " fill="#000690" transform="translate(480,224)"/>
<path d="M0 0 C5.28 0 10.56 0 16 0 C16 5.28 16 10.56 16 16 C10.72 16 5.44 16 0 16 C0 10.72 0 5.44 0 0 Z " fill="#000690" transform="translate(272,224)"/>
<path d="M0 0 C5.28 0 10.56 0 16 0 C16 5.28 16 10.56 16 16 C10.72 16 5.44 16 0 16 C0 10.72 0 5.44 0 0 Z " fill="#55D3F1" transform="translate(240,224)"/>
<path d="M0 0 C5.28 0 10.56 0 16 0 C16 5.28 16 10.56 16 16 C10.72 16 5.44 16 0 16 C0 10.72 0 5.44 0 0 Z " fill="#000690" transform="translate(384,208)"/>
<path d="M0 0 C5.28 0 10.56 0 16 0 C16 5.28 16 10.56 16 16 C10.72 16 5.44 16 0 16 C0 10.72 0 5.44 0 0 Z " fill="#FFDDDF" transform="translate(224,208)"/>
<path d="M0 0 C5.28 0 10.56 0 16 0 C16 5.28 16 10.56 16 16 C10.72 16 5.44 16 0 16 C0 10.72 0 5.44 0 0 Z " fill="#FFDDDF" transform="translate(240,192)"/>
<path d="M0 0 C5.28 0 10.56 0 16 0 C16 5.28 16 10.56 16 16 C10.72 16 5.44 16 0 16 C0 10.72 0 5.44 0 0 Z " fill="#FFB7DE" transform="translate(224,192)"/>
<path d="M0 0 C5.28 0 10.56 0 16 0 C16 5.28 16 10.56 16 16 C10.72 16 5.44 16 0 16 C0 10.72 0 5.44 0 0 Z " fill="#FFB7DE" transform="translate(240,176)"/>
<path d="M0 0 C5.28 0 10.56 0 16 0 C16 5.28 16 10.56 16 16 C10.72 16 5.44 16 0 16 C0 10.72 0 5.44 0 0 Z " fill="#FFDDDF" transform="translate(224,176)"/>
<path d="M0 0 C5.28 0 10.56 0 16 0 C16 5.28 16 10.56 16 16 C10.72 16 5.44 16 0 16 C0 10.72 0 5.44 0 0 Z " fill="#FFDDDF" transform="translate(240,160)"/>
<path d="M0 0 C5.28 0 10.56 0 16 0 C16 5.28 16 10.56 16 16 C10.72 16 5.44 16 0 16 C0 10.72 0 5.44 0 0 Z " fill="#FFB7DE" transform="translate(224,160)"/>
<path d="M0 0 C5.28 0 10.56 0 16 0 C16 5.28 16 10.56 16 16 C10.72 16 5.44 16 0 16 C0 10.72 0 5.44 0 0 Z " fill="#FFB7DE" transform="translate(240,144)"/>
<path d="M0 0 C5.28 0 10.56 0 16 0 C16 5.28 16 10.56 16 16 C10.72 16 5.44 16 0 16 C0 10.72 0 5.44 0 0 Z " fill="#FFDDDF" transform="translate(224,144)"/>
<path d="M0 0 C5.28 0 10.56 0 16 0 C16 5.28 16 10.56 16 16 C10.72 16 5.44 16 0 16 C0 10.72 0 5.44 0 0 Z " fill="#FFB7DE" transform="translate(208,144)"/>
<path d="M0 0 C5.28 0 10.56 0 16 0 C16 5.28 16 10.56 16 16 C10.72 16 5.44 16 0 16 C0 10.72 0 5.44 0 0 Z " fill="#3038D6" transform="translate(384,128)"/>
<path d="M0 0 C5.28 0 10.56 0 16 0 C16 5.28 16 10.56 16 16 C10.72 16 5.44 16 0 16 C0 10.72 0 5.44 0 0 Z " fill="#3038D6" transform="translate(320,128)"/>
<path d="M0 0 C5.28 0 10.56 0 16 0 C16 5.28 16 10.56 16 16 C10.72 16 5.44 16 0 16 C0 10.72 0 5.44 0 0 Z " fill="#000690" transform="translate(288,128)"/>
<path d="M0 0 C5.28 0 10.56 0 16 0 C16 5.28 16 10.56 16 16 C10.72 16 5.44 16 0 16 C0 10.72 0 5.44 0 0 Z " fill="#FFDDDF" transform="translate(240,128)"/>
<path d="M0 0 C5.28 0 10.56 0 16 0 C16 5.28 16 10.56 16 16 C10.72 16 5.44 16 0 16 C0 10.72 0 5.44 0 0 Z " fill="#FFB7DE" transform="translate(224,128)"/>
<path d="M0 0 C5.28 0 10.56 0 16 0 C16 5.28 16 10.56 16 16 C10.72 16 5.44 16 0 16 C0 10.72 0 5.44 0 0 Z " fill="#FFDDDF" transform="translate(208,128)"/>
<path d="M0 0 C5.28 0 10.56 0 16 0 C16 5.28 16 10.56 16 16 C10.72 16 5.44 16 0 16 C0 10.72 0 5.44 0 0 Z " fill="#FFB7DE" transform="translate(192,128)"/>
<path d="M0 0 C5.28 0 10.56 0 16 0 C16 5.28 16 10.56 16 16 C10.72 16 5.44 16 0 16 C0 10.72 0 5.44 0 0 Z " fill="#FFDDDF" transform="translate(176,128)"/>
<path d="M0 0 C5.28 0 10.56 0 16 0 C16 5.28 16 10.56 16 16 C10.72 16 5.44 16 0 16 C0 10.72 0 5.44 0 0 Z " fill="#FFB7DE" transform="translate(160,128)"/>
<path d="M0 0 C5.28 0 10.56 0 16 0 C16 5.28 16 10.56 16 16 C10.72 16 5.44 16 0 16 C0 10.72 0 5.44 0 0 Z " fill="#FFDDDF" transform="translate(144,128)"/>
<path d="M0 0 C5.28 0 10.56 0 16 0 C16 5.28 16 10.56 16 16 C10.72 16 5.44 16 0 16 C0 10.72 0 5.44 0 0 Z " fill="#FFB7DE" transform="translate(128,128)"/>
<path d="M0 0 C5.28 0 10.56 0 16 0 C16 5.28 16 10.56 16 16 C10.72 16 5.44 16 0 16 C0 10.72 0 5.44 0 0 Z " fill="#FFDDDF" transform="translate(112,128)"/>
<path d="M0 0 C5.28 0 10.56 0 16 0 C16 5.28 16 10.56 16 16 C10.72 16 5.44 16 0 16 C0 10.72 0 5.44 0 0 Z " fill="#FFB7DE" transform="translate(96,128)"/>
<path d="M0 0 C5.28 0 10.56 0 16 0 C16 5.28 16 10.56 16 16 C10.72 16 5.44 16 0 16 C0 10.72 0 5.44 0 0 Z " fill="#FFB7DE" transform="translate(64,128)"/>
<path d="M0 0 C5.28 0 10.56 0 16 0 C16 5.28 16 10.56 16 16 C10.72 16 5.44 16 0 16 C0 10.72 0 5.44 0 0 Z " fill="#9720F1" transform="translate(48,128)"/>
<path d="M0 0 C5.28 0 10.56 0 16 0 C16 5.28 16 10.56 16 16 C10.72 16 5.44 16 0 16 C0 10.72 0 5.44 0 0 Z " fill="#FFB7DE" transform="translate(224,96)"/>
<path d="M0 0 C5.28 0 10.56 0 16 0 C16 5.28 16 10.56 16 16 C10.72 16 5.44 16 0 16 C0 10.72 0 5.44 0 0 Z " fill="#55D3F1" transform="translate(208,96)"/>
<path d="M0 0 C5.28 0 10.56 0 16 0 C16 5.28 16 10.56 16 16 C10.72 16 5.44 16 0 16 C0 10.72 0 5.44 0 0 Z " fill="#FFB7DE" transform="translate(192,96)"/>
<path d="M0 0 C5.28 0 10.56 0 16 0 C16 5.28 16 10.56 16 16 C10.72 16 5.44 16 0 16 C0 10.72 0 5.44 0 0 Z " fill="#55D3F1" transform="translate(176,96)"/>
<path d="M0 0 C5.28 0 10.56 0 16 0 C16 5.28 16 10.56 16 16 C10.72 16 5.44 16 0 16 C0 10.72 0 5.44 0 0 Z " fill="#FFB7DE" transform="translate(160,96)"/>
<path d="M0 0 C5.28 0 10.56 0 16 0 C16 5.28 16 10.56 16 16 C10.72 16 5.44 16 0 16 C0 10.72 0 5.44 0 0 Z " fill="#55D3F1" transform="translate(144,96)"/>
<path d="M0 0 C5.28 0 10.56 0 16 0 C16 5.28 16 10.56 16 16 C10.72 16 5.44 16 0 16 C0 10.72 0 5.44 0 0 Z " fill="#FFB7DE" transform="translate(128,96)"/>
<path d="M0 0 C5.28 0 10.56 0 16 0 C16 5.28 16 10.56 16 16 C10.72 16 5.44 16 0 16 C0 10.72 0 5.44 0 0 Z " fill="#55D3F1" transform="translate(112,96)"/>
<path d="M0 0 C5.28 0 10.56 0 16 0 C16 5.28 16 10.56 16 16 C10.72 16 5.44 16 0 16 C0 10.72 0 5.44 0 0 Z " fill="#FFB7DE" transform="translate(96,96)"/>
<path d="M0 0 C5.28 0 10.56 0 16 0 C16 5.28 16 10.56 16 16 C10.72 16 5.44 16 0 16 C0 10.72 0 5.44 0 0 Z " fill="#55D3F1" transform="translate(80,96)"/>
<path d="M0 0 C5.28 0 10.56 0 16 0 C16 5.28 16 10.56 16 16 C10.72 16 5.44 16 0 16 C0 10.72 0 5.44 0 0 Z " fill="#55D3F1" transform="translate(48,96)"/>
<path d="M0 0 C5.28 0 10.56 0 16 0 C16 5.28 16 10.56 16 16 C10.72 16 5.44 16 0 16 C0 10.72 0 5.44 0 0 Z " fill="#000690" transform="translate(256,80)"/>
<path d="M0 0 C5.28 0 10.56 0 16 0 C16 5.28 16 10.56 16 16 C10.72 16 5.44 16 0 16 C0 10.72 0 5.44 0 0 Z " fill="#DF3CF0" transform="translate(160,32)"/>
<path d="M0 0 C5.28 0 10.56 0 16 0 C16 5.28 16 10.56 16 16 C10.72 16 5.44 16 0 16 C0 10.72 0 5.44 0 0 Z " fill="#FFE84A" transform="translate(416,16)"/>
<path d="M0 0 C5.28 0 10.56 0 16 0 C16 5.28 16 10.56 16 16 C10.72 16 5.44 16 0 16 C0 10.72 0 5.44 0 0 Z " fill="#FFE84A" transform="translate(384,16)"/>
<path d="M0 0 C5.28 0 10.56 0 16 0 C16 5.28 16 10.56 16 16 C10.72 16 5.44 16 0 16 C0 10.72 0 5.44 0 0 Z " fill="#FFE84A" transform="translate(352,16)"/>
<path d="M0 0 C5.28 0 10.56 0 16 0 C16 5.28 16 10.56 16 16 C10.72 16 5.44 16 0 16 C0 10.72 0 5.44 0 0 Z " fill="#FFE84A" transform="translate(320,16)"/>
<path d="M0 0 C5.28 0 10.56 0 16 0 C16 5.28 16 10.56 16 16 C10.72 16 5.44 16 0 16 C0 10.72 0 5.44 0 0 Z " fill="#FFE84A" transform="translate(288,16)"/>
</svg>
