<?xml version="1.0" encoding="UTF-8"?>
<svg version="1.1" xmlns="http://www.w3.org/2000/svg" width="1024" height="1024">
<path d="M0 0 C0.99 0.33 1.98 0.66 3 1 C4.08965903 4.26897708 4.1292947 6.6897525 4.1328125 10.12890625 C4.13410156 11.32837891 4.13539063 12.52785156 4.13671875 13.76367188 C4.13285156 15.01728516 4.12898437 16.27089844 4.125 17.5625 C4.12886719 18.81998047 4.13273438 20.07746094 4.13671875 21.37304688 C4.13542969 22.57123047 4.13414062 23.76941406 4.1328125 25.00390625 C4.13112061 26.65628296 4.13112061 26.65628296 4.12939453 28.34204102 C4 31 4 31 3 33 C14.55 33 26.1 33 38 33 C38 34.65 38 36.3 38 38 C37.67 38 37.34 38 37 38 C36.67 45.92 36.34 53.84 36 62 C36.99 62 37.98 62 39 62 C39 62.66 39 63.32 39 64 C47.25 64.33 55.5 64.66 64 65 C64.33 64.01 64.66 63.02 65 62 C65.66 62 66.32 62 67 62 C67.33 72.56 67.66 83.12 68 94 C78.56 94 89.12 94 100 94 C100.33 314.11 100.66 534.22 101 761 C-140.89 761.33 -382.78 761.66 -632 762 C-632 510.87 -632 259.74 -632 1 C-629.525 1.495 -629.525 1.495 -627 2 C-626.34 1.67 -625.68 1.34 -625 1 C-625 1.66 -625 2.32 -625 3 C-624.07792755 2.83701416 -623.1558551 2.67402832 -622.20584106 2.50610352 C-617.04993537 1.77558413 -611.90400186 1.87665392 -606.70654297 1.90234375 C-605.02922592 1.90453415 -605.02922592 1.90453415 -603.31802368 1.9067688 C-600.89489168 1.91056642 -598.47176244 1.91667414 -596.0486412 1.92483521 C-592.19454138 1.93765853 -588.34047625 1.94413117 -584.48635864 1.94897461 C-575.59141877 1.96135489 -566.69650961 1.98288134 -557.80158997 2.00520325 C-549.02683727 2.02715875 -540.2521039 2.04498589 -531.47732925 2.05593872 C-527.71507683 2.06233361 -523.95287853 2.07484709 -520.19064331 2.08764648 C-508.71106124 2.11160608 -497.28657497 1.96771757 -485.82284069 1.34452057 C-480.02469067 1.03077154 -474.28513117 0.92004422 -468.48046875 1.15625 C-467.64131424 1.18223267 -466.80215973 1.20821533 -465.93757629 1.23498535 C-463.35388637 1.31554214 -460.77075265 1.40654394 -458.1875 1.5 C-455.55782941 1.59262648 -452.92818349 1.68260042 -450.298172 1.76501465 C-448.68736297 1.81564033 -447.07671578 1.87189712 -445.46635437 1.93518066 C-441.79227293 2.0521782 -438.30031956 1.97506751 -434.65356445 1.48242188 C-430.77371961 0.97012161 -427.85906264 1.4211406 -424 2 C-415.79511293 2.35501915 -407.59604102 1.81699628 -399.41113281 1.26806641 C-398.62448242 1.21956543 -397.83783203 1.17106445 -397.02734375 1.12109375 C-396.32343506 1.0739624 -395.61952637 1.02683105 -394.89428711 0.97827148 C-393 1 -393 1 -390 2 C-388.65079366 2.09123238 -387.29759813 2.13065378 -385.9453125 2.1328125 C-385.16542969 2.13410156 -384.38554687 2.13539063 -383.58203125 2.13671875 C-382.77121094 2.13285156 -381.96039063 2.12898437 -381.125 2.125 C-380.32191406 2.12886719 -379.51882813 2.13273438 -378.69140625 2.13671875 C-374.6248507 2.13001932 -370.99250075 1.81028613 -367 1 C-366.01 1.33 -365.02 1.66 -364 2 C-361.09542792 1.87935318 -358.21138023 1.70359845 -355.3125 1.5 C-344.42031219 0.8471498 -333.61211184 1.16465929 -322.72192383 1.59375 C-304.20575906 2.31746355 -285.74882034 1.83740555 -267.23242188 1.35180664 C-264.06130322 1.26957303 -260.8900772 1.19478232 -257.71875 1.12109375 C-256.76029175 1.09405869 -255.8018335 1.06702362 -254.81433105 1.03916931 C-250.15454683 0.93612175 -245.79929952 1.11319978 -241.17370605 1.78211975 C-236.31316925 2.26931303 -231.40654478 1.97352914 -226.53125 1.84375 C-224.07812522 1.79035461 -221.62500021 1.73696953 -219.171875 1.68359375 C-215.34565562 1.59316828 -211.51949893 1.50047772 -207.69335938 1.40673828 C-203.9727613 1.31762504 -200.25204357 1.23672185 -196.53125 1.15625 C-194.85536804 1.11099182 -194.85536804 1.11099182 -193.14562988 1.06481934 C-186.48598175 0.92285342 -179.93769153 1.15517529 -173.29355431 1.62471581 C-165.01451403 2.18104304 -156.7395271 2.14446596 -148.4453125 2.1328125 C-146.72419216 2.13348815 -145.00307192 2.13446034 -143.2819519 2.13571167 C-139.7138374 2.13717081 -136.14574824 2.13508856 -132.57763672 2.13037109 C-128.00009766 2.1246137 -123.42261647 2.12800149 -118.84507942 2.13394356 C-115.30902667 2.13754608 -111.77298782 2.13641306 -108.23693466 2.13381577 C-106.54718901 2.13314876 -104.85744209 2.13396701 -103.16769791 2.13629532 C-100.82286429 2.13882327 -98.47812717 2.13498204 -96.13330078 2.12939453 C-95.43627045 2.13141876 -94.73924011 2.13344299 -94.02108765 2.13552856 C-90.38786865 2.16213335 -90.38786865 2.16213335 -87 1 C-85.5579319 1.12092814 -84.12058371 1.29886544 -82.6875 1.5 C-75.84352462 2.23002404 -69.11088535 1.76262086 -62.26245117 1.31835938 C-61.38306885 1.26486328 -60.50368652 1.21136719 -59.59765625 1.15625 C-58.80883057 1.10275391 -58.02000488 1.04925781 -57.20727539 0.99414062 C-54.96432328 1.00009471 -53.15914542 1.43895996 -51 2 C-49.66431979 1.67619874 -48.33076989 1.34342449 -47 1 C-46.01 1.33 -45.02 1.66 -44 2 C-41.50984755 2.0965246 -39.04856785 2.14001211 -36.55859375 2.1328125 C-35.47337181 2.13424759 -35.47337181 2.13424759 -34.3662262 2.13571167 C-32.83895785 2.13639142 -31.3116866 2.13455141 -29.78442383 2.13037109 C-27.44280542 2.12501214 -25.10137813 2.13032695 -22.75976562 2.13671875 C-21.27604124 2.13605808 -19.79231698 2.13477716 -18.30859375 2.1328125 C-17.25544228 2.13584885 -17.25544228 2.13584885 -16.18101501 2.13894653 C-12.466146 2.17325226 -12.466146 2.17325226 -9 1 C-9 1.66 -9 2.32 -9 3 C-7.88625 2.835 -6.7725 2.67 -5.625 2.5 C-2 2 -2 2 0 2 C0 1.34 0 0.68 0 0 Z " fill="#796FFE" transform="translate(776,130)"/>
<path d="M0 0 C151.8 0 303.6 0 460 0 C460 127.71 460 255.42 460 387 C308.2 387 156.4 387 0 387 C0 259.29 0 131.58 0 0 Z " fill="#E0CDFE" transform="translate(296,466)"/>
<path d="M0 0 C0.99 0.33 1.98 0.66 3 1 C4.08965903 4.26897708 4.1292947 6.6897525 4.1328125 10.12890625 C4.13410156 11.32837891 4.13539063 12.52785156 4.13671875 13.76367188 C4.13285156 15.01728516 4.12898437 16.27089844 4.125 17.5625 C4.12886719 18.81998047 4.13273438 20.07746094 4.13671875 21.37304688 C4.13542969 22.57123047 4.13414062 23.76941406 4.1328125 25.00390625 C4.13112061 26.65628296 4.13112061 26.65628296 4.12939453 28.34204102 C4 31 4 31 3 33 C14.55 33 26.1 33 38 33 C38 34.65 38 36.3 38 38 C37.67 38 37.34 38 37 38 C36.67 45.92 36.34 53.84 36 62 C36.99 62 37.98 62 39 62 C39 62.66 39 63.32 39 64 C47.25 64.33 55.5 64.66 64 65 C64.33 64.01 64.66 63.02 65 62 C65.66 62 66.32 62 67 62 C67.33 72.56 67.66 83.12 68 94 C78.56 94 89.12 94 100 94 C100.33 314.11 100.66 534.22 101 761 C-140.89 761.33 -382.78 761.66 -632 762 C-632 510.87 -632 259.74 -632 1 C-629.525 1.495 -629.525 1.495 -627 2 C-626.34 1.67 -625.68 1.34 -625 1 C-625 1.66 -625 2.32 -625 3 C-624.07792755 2.83701416 -623.1558551 2.67402832 -622.20584106 2.50610352 C-617.04993537 1.77558413 -611.90400186 1.87665392 -606.70654297 1.90234375 C-605.02922592 1.90453415 -605.02922592 1.90453415 -603.31802368 1.9067688 C-600.89489168 1.91056642 -598.47176244 1.91667414 -596.0486412 1.92483521 C-592.19454138 1.93765853 -588.34047625 1.94413117 -584.48635864 1.94897461 C-575.59141877 1.96135489 -566.69650961 1.98288134 -557.80158997 2.00520325 C-549.02683727 2.02715875 -540.2521039 2.04498589 -531.47732925 2.05593872 C-527.71507683 2.06233361 -523.95287853 2.07484709 -520.19064331 2.08764648 C-508.71106124 2.11160608 -497.28657497 1.96771757 -485.82284069 1.34452057 C-480.02469067 1.03077154 -474.28513117 0.92004422 -468.48046875 1.15625 C-467.64131424 1.18223267 -466.80215973 1.20821533 -465.93757629 1.23498535 C-463.35388637 1.31554214 -460.77075265 1.40654394 -458.1875 1.5 C-455.55782941 1.59262648 -452.92818349 1.68260042 -450.298172 1.76501465 C-448.68736297 1.81564033 -447.07671578 1.87189712 -445.46635437 1.93518066 C-441.79227293 2.0521782 -438.30031956 1.97506751 -434.65356445 1.48242188 C-430.77371961 0.97012161 -427.85906264 1.4211406 -424 2 C-415.79511293 2.35501915 -407.59604102 1.81699628 -399.41113281 1.26806641 C-398.62448242 1.21956543 -397.83783203 1.17106445 -397.02734375 1.12109375 C-396.32343506 1.0739624 -395.61952637 1.02683105 -394.89428711 0.97827148 C-393 1 -393 1 -390 2 C-388.65079366 2.09123238 -387.29759813 2.13065378 -385.9453125 2.1328125 C-385.16542969 2.13410156 -384.38554687 2.13539063 -383.58203125 2.13671875 C-382.77121094 2.13285156 -381.96039063 2.12898437 -381.125 2.125 C-380.32191406 2.12886719 -379.51882813 2.13273438 -378.69140625 2.13671875 C-374.6248507 2.13001932 -370.99250075 1.81028613 -367 1 C-366.01 1.33 -365.02 1.66 -364 2 C-361.09542792 1.87935318 -358.21138023 1.70359845 -355.3125 1.5 C-344.42031219 0.8471498 -333.61211184 1.16465929 -322.72192383 1.59375 C-304.20575906 2.31746355 -285.74882034 1.83740555 -267.23242188 1.35180664 C-264.06130322 1.26957303 -260.8900772 1.19478232 -257.71875 1.12109375 C-256.76029175 1.09405869 -255.8018335 1.06702362 -254.81433105 1.03916931 C-250.15454683 0.93612175 -245.79929952 1.11319978 -241.17370605 1.78211975 C-236.31316925 2.26931303 -231.40654478 1.97352914 -226.53125 1.84375 C-224.07812522 1.79035461 -221.62500021 1.73696953 -219.171875 1.68359375 C-215.34565562 1.59316828 -211.51949893 1.50047772 -207.69335938 1.40673828 C-203.9727613 1.31762504 -200.25204357 1.23672185 -196.53125 1.15625 C-194.85536804 1.11099182 -194.85536804 1.11099182 -193.14562988 1.06481934 C-186.48598175 0.92285342 -179.93769153 1.15517529 -173.29355431 1.62471581 C-165.01451403 2.18104304 -156.7395271 2.14446596 -148.4453125 2.1328125 C-146.72419216 2.13348815 -145.00307192 2.13446034 -143.2819519 2.13571167 C-139.7138374 2.13717081 -136.14574824 2.13508856 -132.57763672 2.13037109 C-128.00009766 2.1246137 -123.42261647 2.12800149 -118.84507942 2.13394356 C-115.30902667 2.13754608 -111.77298782 2.13641306 -108.23693466 2.13381577 C-106.54718901 2.13314876 -104.85744209 2.13396701 -103.16769791 2.13629532 C-100.82286429 2.13882327 -98.47812717 2.13498204 -96.13330078 2.12939453 C-95.43627045 2.13141876 -94.73924011 2.13344299 -94.02108765 2.13552856 C-90.38786865 2.16213335 -90.38786865 2.16213335 -87 1 C-85.5579319 1.12092814 -84.12058371 1.29886544 -82.6875 1.5 C-75.84352462 2.23002404 -69.11088535 1.76262086 -62.26245117 1.31835938 C-61.38306885 1.26486328 -60.50368652 1.21136719 -59.59765625 1.15625 C-58.80883057 1.10275391 -58.02000488 1.04925781 -57.20727539 0.99414062 C-54.96432328 1.00009471 -53.15914542 1.43895996 -51 2 C-49.66431979 1.67619874 -48.33076989 1.34342449 -47 1 C-46.01 1.33 -45.02 1.66 -44 2 C-41.50984755 2.0965246 -39.04856785 2.14001211 -36.55859375 2.1328125 C-35.47337181 2.13424759 -35.47337181 2.13424759 -34.3662262 2.13571167 C-32.83895785 2.13639142 -31.3116866 2.13455141 -29.78442383 2.13037109 C-27.44280542 2.12501214 -25.10137813 2.13032695 -22.75976562 2.13671875 C-21.27604124 2.13605808 -19.79231698 2.13477716 -18.30859375 2.1328125 C-17.25544228 2.13584885 -17.25544228 2.13584885 -16.18101501 2.13894653 C-12.466146 2.17325226 -12.466146 2.17325226 -9 1 C-9 1.66 -9 2.32 -9 3 C-7.88625 2.835 -6.7725 2.67 -5.625 2.5 C-2 2 -2 2 0 2 C0 1.34 0 0.68 0 0 Z M-597 34 C-597 261.37 -597 488.74 -597 723 C-568.95 723 -540.9 723 -512 723 C-512 584.4 -512 445.8 -512 303 C-349.31 303 -186.62 303 -19 303 C-19 313.89 -19 324.78 -19 336 C-18.67 336.33 -18.34 336.66 -18 337 C-8.1 337 1.8 337 12 337 C12 464.38 12 591.76 12 723 C29.49 723 46.98 723 65 723 C65 516.09 65 309.18 65 96 C55.1 96 45.2 96 35 96 C35.0625 81.0625 35.0625 81.0625 35.09008789 76.34399414 C35.09258545 75.12832764 35.09508301 73.91266113 35.09765625 72.66015625 C35.10289307 71.40855713 35.10812988 70.15695801 35.11352539 68.86743164 C35.32887035 66.10267706 35.32887035 66.10267706 34 65 C31.70848583 64.91209025 29.41427476 64.89305962 27.12109375 64.90234375 C25.86482178 64.90484131 24.6085498 64.90733887 23.31420898 64.90991211 C21.70489502 64.91901611 20.09558105 64.92812012 18.4375 64.9375 C13.343125 64.958125 8.24875 64.97875 3 65 C3 54.77 3 44.54 3 34 C-13.83 34 -30.66 34 -48 34 C-48 98.68 -48 163.36 -48 230 C-58.23 230 -68.46 230 -79 230 C-79 165.32 -79 100.64 -79 34 C-211.33 34 -343.66 34 -480 34 C-480 99.01 -480 164.02 -480 231 C-490.56 231 -501.12 231 -512 231 C-512 165.99 -512 100.98 -512 34 C-540.05 34 -568.1 34 -597 34 Z M-480 336 C-480 463.71 -480 591.42 -480 723 C-328.2 723 -176.4 723 -20 723 C-20 595.29 -20 467.58 -20 336 C-171.8 336 -323.6 336 -480 336 Z " fill="#1E3587" transform="translate(776,130)"/>
<path d="M0 0 C132.33 0 264.66 0 401 0 C401 64.68 401 129.36 401 196 C268.67 196 136.34 196 0 196 C0 131.32 0 66.64 0 0 Z " fill="#9DADFE" transform="translate(296,164)"/>
<path d="M0 0 C28.05 0 56.1 0 85 0 C85 10.23 85 20.46 85 31 C75.1 31 65.2 31 55 31 C55 232.63 55 434.26 55 642 C36.85 642 18.7 642 0 642 C0 430.14 0 218.28 0 0 Z " fill="#4185FE" transform="translate(179,164)"/>
<path d="M0 0 C9.9 0 19.8 0 30 0 C30.03353002 30.74999383 30.05195925 61.49998997 30.0625 92.25 C30.0629343 93.47739631 30.06336861 94.70479262 30.06381607 95.96938276 C30.09740943 193.78936139 29.90891149 291.6086658 29.50902146 458.17955375 C29.49997323 461.82328079 29.49093499 465.46700787 29.48189783 469.11073494 C29.37444989 512.41412574 29.26522569 555.71751201 29.15245056 599.02088928 C29.15003574 599.94815669 29.14762091 600.87542409 29.14513291 601.83079051 C29.09720364 620.22052819 29.04851799 638.61026386 29 657 C1.61 657 -25.78 657 -54 657 C-54 641.82 -54 626.64 -54 611 C-36.18 611 -18.36 611 0 611 C0 409.37 0 207.74 0 0 Z " fill="#5A59F8" transform="translate(234,195)"/>
<path d="M0 0 C151.8 0 303.6 0 460 0 C460 13.53 460 27.06 460 41 C308.2 41 156.4 41 0 41 C0 27.47 0 13.94 0 0 Z " fill="#796DFE" transform="translate(296,812)"/>
<path d="M0 0 C132.33 0 264.66 0 401 0 C401 10.23 401 20.46 401 31 C379.55 31 358.1 31 336 31 C336 76.21 336 121.42 336 168 C313.89 168 291.78 168 269 168 C269 167.67 269 167.34 269 167 C290.78 167 312.56 167 335 167 C335 122.12 335 77.24 335 31 C312.89 31 290.78 31 268 31 C268 75.88 268 120.76 268 167 C267.67 167 267.34 167 267 167 C267 122.12 267 77.24 267 31 C179.22 31 91.44 31 1 31 C1 85.12 1 139.24 1 195 C132.67 195 264.34 195 400 195 C400 195.33 400 195.66 400 196 C268 196 136 196 0 196 C0 131.32 0 66.64 0 0 Z " fill="#D8DCFE" transform="translate(296,164)"/>
<path d="M0 0 C132.33 0 264.66 0 401 0 C401 10.56 401 21.12 401 32 C268.67 32 136.34 32 0 32 C0 21.44 0 10.88 0 0 Z " fill="#1E3485" transform="translate(296,361)"/>
<path d="M0 0 C114.18 0 228.36 0 346 0 C346 10.56 346 21.12 346 32 C231.82 32 117.64 32 0 32 C0 21.44 0 10.88 0 0 Z " fill="#1C3284" transform="translate(351,608)"/>
<path d="M0 0 C114.18 0 228.36 0 346 0 C346 10.56 346 21.12 346 32 C231.82 32 117.64 32 0 32 C0 21.44 0 10.88 0 0 Z " fill="#203486" transform="translate(351,527)"/>
<path d="M0 0 C92.07 0 184.14 0 279 0 C279 10.89 279 21.78 279 33 C186.93 33 94.86 33 0 33 C0 22.11 0 11.22 0 0 Z " fill="#1E3484" transform="translate(351,689)"/>
<path d="M0 0 C21.78 0 43.56 0 66 0 C66 44.88 66 89.76 66 136 C44.22 136 22.44 136 0 136 C0 91.12 0 46.24 0 0 Z " fill="#203687" transform="translate(565,195)"/>
<path d="M0 0 C2.475 0.495 2.475 0.495 5 1 C5.66 0.67 6.32 0.34 7 0 C7 0.66 7 1.32 7 2 C7.91709244 1.83734146 8.83418488 1.67468292 9.77906799 1.50709534 C15.01762521 0.76488394 20.25411678 0.868712 25.53491211 0.88647461 C27.24819702 0.88625557 27.24819702 0.88625557 28.99609375 0.8860321 C32.75653 0.88672657 36.51691619 0.89449714 40.27734375 0.90234375 C42.89050774 0.90420958 45.50367208 0.90563271 48.11683655 0.90663147 C54.2825319 0.90973241 60.4482094 0.91792905 66.61389691 0.92798096 C73.63689773 0.93918061 80.65989944 0.94466224 87.68290699 0.94967639 C102.12194717 0.96011275 116.56097334 0.97768813 131 1 C131 1.66 131 2.32 131 3 C156.41 3 181.82 3 208 3 C208 3.33 208 3.66 208 4 C140.02 4 72.04 4 2 4 C2 252.82 2 501.64 2 758 C242.57 758 483.14 758 731 758 C731 539.21 731 320.42 731 95 C731.33 95 731.66 95 732 95 C732.33 314.45 732.66 533.9 733 760 C491.11 760.33 249.22 760.66 0 761 C0 509.87 0 258.74 0 0 Z " fill="#000735" transform="translate(144,131)"/>
<path d="M0 0 C0.99 0.33 1.98 0.66 3 1 C4.08965903 4.26897708 4.1292947 6.6897525 4.1328125 10.12890625 C4.13410156 11.32837891 4.13539063 12.52785156 4.13671875 13.76367188 C4.13285156 15.01728516 4.12898438 16.27089844 4.125 17.5625 C4.12886719 18.81998047 4.13273437 20.07746094 4.13671875 21.37304688 C4.13478516 23.17032227 4.13478516 23.17032227 4.1328125 25.00390625 C4.13168457 26.10549072 4.13055664 27.2070752 4.12939453 28.34204102 C4 31 4 31 3 33 C14.55 33 26.1 33 38 33 C38 34.65 38 36.3 38 38 C37.67 38 37.34 38 37 38 C36.67 45.92 36.34 53.84 36 62 C36.99 62 37.98 62 39 62 C39 62.66 39 63.32 39 64 C47.25 64.33 55.5 64.66 64 65 C64.33 64.01 64.66 63.02 65 62 C65.66 62 66.32 62 67 62 C67 280.13 67 498.26 67 723 C66.67 723 66.34 723 66 723 C66 516.09 66 309.18 66 96 C55.77 96 45.54 96 35 96 C34.67 86.1 34.34 76.2 34 66 C23.77 65.67 13.54 65.34 3 65 C3 54.77 3 44.54 3 34 C-13.83 33.67 -30.66 33.34 -48 33 C-48 32.67 -48 32.34 -48 32 C-32.16 32 -16.32 32 0 32 C0.33 23.09 0.66 14.18 1 5 C-1.09388187 5.00184359 -3.18776375 5.00368717 -5.34509659 5.00558662 C-55.01136748 5.04900572 -104.67763675 5.08186496 -154.34392269 5.10213066 C-160.45242636 5.10463218 -166.56092999 5.10722081 -172.66943359 5.10986328 C-174.49363005 5.11065021 -174.49363005 5.11065021 -176.35467896 5.11145304 C-196.06518877 5.12016379 -215.77568696 5.13593743 -235.48618987 5.15430559 C-255.69987028 5.17298604 -275.91354458 5.18411279 -296.12723327 5.18817699 C-308.60756269 5.19092591 -321.08785925 5.19961879 -333.56817856 5.21583293 C-342.11782256 5.22637693 -350.66744949 5.22960651 -359.21709952 5.22700275 C-364.15521738 5.22571742 -369.0932777 5.22773499 -374.03138542 5.23841095 C-378.54789095 5.2481045 -383.06429993 5.2486604 -387.5808098 5.24179779 C-389.21882631 5.24094893 -390.85684871 5.24351893 -392.49485353 5.24976636 C-394.71386825 5.2577409 -396.93253005 5.25349795 -399.15153885 5.24609566 C-400.38638936 5.2468551 -401.62123988 5.24761454 -402.8935101 5.24839699 C-405.84802108 5.01215234 -407.51717057 4.5551437 -410 3 C-405.7133455 2.85610373 -401.42664344 2.71374336 -397.13989258 2.57275391 C-395.68414969 2.52466485 -394.22842017 2.47616942 -392.77270508 2.42724609 C-390.67011921 2.35665568 -388.56748829 2.28756785 -386.46484375 2.21875 C-385.202771 2.17685547 -383.94069824 2.13496094 -382.64038086 2.09179688 C-380.16270478 2.02931909 -377.68374623 2.00745225 -375.20532227 2.02148438 C-372.05558279 2.10392254 -372.05558279 2.10392254 -369.25 1.4375 C-367 1 -367 1 -364 2 C-361.09542792 1.87935318 -358.21138023 1.70359845 -355.3125 1.5 C-344.42031219 0.8471498 -333.61211184 1.16465929 -322.72192383 1.59375 C-304.20575906 2.31746355 -285.74882034 1.83740555 -267.23242188 1.35180664 C-264.06130322 1.26957303 -260.8900772 1.19478232 -257.71875 1.12109375 C-256.76029175 1.09405869 -255.8018335 1.06702362 -254.81433105 1.03916931 C-250.15454683 0.93612175 -245.79929952 1.11319978 -241.17370605 1.78211975 C-236.31316925 2.26931303 -231.40654478 1.97352914 -226.53125 1.84375 C-224.07812522 1.79035461 -221.62500021 1.73696953 -219.171875 1.68359375 C-215.34565562 1.59316828 -211.51949893 1.50047772 -207.69335938 1.40673828 C-203.9727613 1.31762504 -200.25204357 1.23672185 -196.53125 1.15625 C-194.85536804 1.11099182 -194.85536804 1.11099182 -193.14562988 1.06481934 C-186.48598175 0.92285342 -179.93769153 1.15517529 -173.29355431 1.62471581 C-165.01451403 2.18104304 -156.7395271 2.14446596 -148.4453125 2.1328125 C-146.72419216 2.13348815 -145.00307192 2.13446034 -143.2819519 2.13571167 C-139.7138374 2.13717081 -136.14574824 2.13508856 -132.57763672 2.13037109 C-128.00009766 2.1246137 -123.42261647 2.12800149 -118.84507942 2.13394356 C-115.30902667 2.13754608 -111.77298782 2.13641306 -108.23693466 2.13381577 C-106.54718901 2.13314876 -104.85744209 2.13396701 -103.16769791 2.13629532 C-100.82286429 2.13882327 -98.47812717 2.13498204 -96.13330078 2.12939453 C-95.43627045 2.13141876 -94.73924011 2.13344299 -94.02108765 2.13552856 C-90.38786865 2.16213335 -90.38786865 2.16213335 -87 1 C-85.5579319 1.12092814 -84.12058371 1.29886544 -82.6875 1.5 C-75.84352462 2.23002404 -69.11088535 1.76262086 -62.26245117 1.31835938 C-61.38306885 1.26486328 -60.50368652 1.21136719 -59.59765625 1.15625 C-58.80883057 1.10275391 -58.02000488 1.04925781 -57.20727539 0.99414062 C-54.96432328 1.00009471 -53.15914542 1.43895996 -51 2 C-49.66431979 1.67619874 -48.33076989 1.34342449 -47 1 C-46.01 1.33 -45.02 1.66 -44 2 C-41.50984755 2.0965246 -39.04856785 2.14001211 -36.55859375 2.1328125 C-35.47337181 2.13424759 -35.47337181 2.13424759 -34.3662262 2.13571167 C-32.83895785 2.13639142 -31.3116866 2.13455141 -29.78442383 2.13037109 C-27.44280542 2.12501214 -25.10137813 2.13032695 -22.75976562 2.13671875 C-21.27604124 2.13605808 -19.79231698 2.13477716 -18.30859375 2.1328125 C-17.25544228 2.13584885 -17.25544228 2.13584885 -16.18101501 2.13894653 C-12.466146 2.17325226 -12.466146 2.17325226 -9 1 C-9 1.66 -9 2.32 -9 3 C-7.88625 2.835 -6.7725 2.67 -5.625 2.5 C-2 2 -2 2 0 2 C0 1.34 0 0.68 0 0 Z " fill="#0A1759" transform="translate(776,130)"/>
<path d="M0 0 C16.83 0 33.66 0 51 0 C51 10.23 51 20.46 51 31 C61.15713092 30.96040178 61.15713092 30.96040178 71.31420898 30.90991211 C72.57048096 30.90741455 73.82675293 30.90491699 75.12109375 30.90234375 C77.06133423 30.89448853 77.06133423 30.89448853 79.04077148 30.88647461 C82 31 82 31 83 32 C83.08783542 34.21855264 83.10694609 36.43988496 83.09765625 38.66015625 C83.09515869 39.87582275 83.09266113 41.09148926 83.09008789 42.34399414 C83.08098389 43.90110107 83.07187988 45.45820801 83.0625 47.0625 C83.041875 51.991875 83.02125 56.92125 83 62 C92.9 62 102.8 62 113 62 C113 72.23 113 82.46 113 93 C102.77 93 92.54 93 82 93 C81.67 82.77 81.34 72.54 81 62 C70.77 62 60.54 62 50 62 C50 51.77 50 41.54 50 31 C33.5 31 17 31 0 31 C0 20.77 0 10.54 0 0 Z " fill="#4471F9" transform="translate(728,164)"/>
<path d="M0 0 C132.33 0 264.66 0 401 0 C401 10.23 401 20.46 401 31 C379.55 31 358.1 31 336 31 C336 76.21 336 121.42 336 168 C313.89 168 291.78 168 269 168 C269 167.67 269 167.34 269 167 C290.78 167 312.56 167 335 167 C335 122.12 335 77.24 335 31 C312.89 31 290.78 31 268 31 C268 75.88 268 120.76 268 167 C267.67 167 267.34 167 267 167 C267 122.12 267 77.24 267 31 C179.22 31 91.44 31 1 31 C1 85.12 1 139.24 1 195 C132.67 195 264.34 195 400 195 C400 195.33 400 195.66 400 196 C268 196 136 196 0 196 C0 131.32 0 66.64 0 0 Z M2 2 C2 11.24 2 20.48 2 30 C133.01 30 264.02 30 399 30 C399 20.76 399 11.52 399 2 C267.99 2 136.98 2 2 2 Z " fill="#EBF0FD" transform="translate(296,164)"/>
<path d="M0 0 C0.78375 0.185625 1.5675 0.37125 2.375 0.5625 C4.97089775 1.25962266 4.97089775 1.25962266 7 0 C7 0.66 7 1.32 7 2 C7.91709244 1.83734146 8.83418488 1.67468292 9.77906799 1.50709534 C15.01762521 0.76488394 20.25411678 0.868712 25.53491211 0.88647461 C27.24819702 0.88625557 27.24819702 0.88625557 28.99609375 0.8860321 C32.75653 0.88672657 36.51691619 0.89449714 40.27734375 0.90234375 C42.89050774 0.90420958 45.50367208 0.90563271 48.11683655 0.90663147 C54.2825319 0.90973241 60.4482094 0.91792905 66.61389691 0.92798096 C73.63689773 0.93918061 80.65989944 0.94466224 87.68290699 0.94967639 C102.12194717 0.96011275 116.56097334 0.97768813 131 1 C131 1.66 131 2.32 131 3 C156.41 3 181.82 3 208 3 C208 3.33 208 3.66 208 4 C140.02 4 72.04 4 2 4 C2 251.83 2 499.66 2 755 C1.67 755 1.34 755 1 755 C0.27670184 751.10127331 -0.1248606 747.41555525 -0.1241985 743.4521991 C-0.12756944 741.82152924 -0.12756944 741.82152924 -0.13100848 740.15791655 C-0.12838146 738.97202389 -0.12575445 737.78613124 -0.12304783 736.56430244 C-0.12420167 735.29278749 -0.12535552 734.02127253 -0.12654433 732.71122682 C-0.12961391 729.17311983 -0.12643775 725.63504155 -0.12226619 722.0969367 C-0.11883295 718.25114867 -0.12120261 714.40536356 -0.12284368 710.55957496 C-0.12491837 703.81657455 -0.12327202 697.07358296 -0.11920547 690.33058357 C-0.11317543 680.30395823 -0.11286921 670.27733846 -0.11374746 660.25071163 C-0.11506206 643.38509722 -0.1117173 626.51948672 -0.10573006 609.65387344 C-0.0998159 592.95138657 -0.09596469 576.24890133 -0.09487724 559.54641342 C-0.0948085 558.50845212 -0.09473976 557.47049082 -0.09466894 556.40107615 C-0.09433061 551.12993626 -0.09402923 545.85879637 -0.09374207 540.58765648 C-0.09164086 503.23844957 -0.0849013 465.88924478 -0.07543945 428.54003906 C-0.06625719 392.25260428 -0.05917251 355.96517008 -0.05493164 319.67773438 C-0.05480011 318.55947565 -0.05466859 317.44121693 -0.05453308 316.28907158 C-0.05321457 305.05920276 -0.05193876 293.82933394 -0.05069422 282.59946511 C-0.04815791 259.72230573 -0.04533666 236.84514639 -0.04234314 213.96798706 C-0.04220585 212.9160996 -0.04206856 211.86421213 -0.04192711 210.78044929 C-0.03272425 140.52029864 -0.01687879 70.26014917 0 0 Z " fill="#151F60" transform="translate(144,131)"/>
<path d="M0 0 C16.5 0 33 0 50 0 C50 10.23 50 20.46 50 31 C33.5 31 17 31 0 31 C0 20.77 0 10.54 0 0 Z " fill="#4580FE" transform="translate(728,164)"/>
<path d="M0 0 C0.98020851 -0.00260775 1.96041701 -0.00521549 2.97032881 -0.00790226 C4.06009032 -0.00567154 5.14985183 -0.00344082 6.27263641 -0.0011425 C7.42026349 -0.00270249 8.56789056 -0.00426248 9.75029421 -0.00586975 C12.94995929 -0.0091829 16.14958685 -0.00797065 19.34925103 -0.00488353 C22.79441297 -0.00263121 26.23956963 -0.00610819 29.68473053 -0.00886345 C36.43941435 -0.01332196 43.19408709 -0.01234432 49.94877136 -0.00945081 C55.43596416 -0.00719709 60.92315385 -0.00688412 66.41034698 -0.00797462 C67.18979928 -0.00812786 67.96925158 -0.00828109 68.77232364 -0.00843897 C70.35551337 -0.00875868 71.93870311 -0.00908289 73.52189285 -0.00941156 C88.38525421 -0.01226659 103.24860942 -0.00897897 118.11196977 -0.00361119 C130.87951766 0.00085687 143.64705646 0.00008094 156.41460419 -0.00452995 C171.22293291 -0.00987532 186.03125623 -0.01199189 200.83958578 -0.00891769 C202.41711775 -0.00859912 203.99464973 -0.00828475 205.5721817 -0.00797462 C206.34846099 -0.00782035 207.12474027 -0.00766607 207.92454317 -0.00750712 C213.4083785 -0.00664185 218.89221042 -0.00810506 224.37604523 -0.01045418 C231.05436369 -0.01325195 237.73267039 -0.01251439 244.4109875 -0.00717343 C247.8216737 -0.00453611 251.23234027 -0.00353187 254.64302635 -0.00682259 C258.33200164 -0.00953081 262.02092063 -0.00615699 265.70989227 -0.0011425 C267.34453454 -0.00448858 267.34453454 -0.00448858 269.01219988 -0.00790226 C269.99240839 -0.00529452 270.97261689 -0.00268677 271.98252869 0 C273.26156295 0.00024353 273.26156295 0.00024353 274.56643629 0.00049198 C276.49126434 0.12584114 276.49126434 0.12584114 277.49126434 1.12584114 C277.57977963 3.71943436 277.60652379 6.28623805 277.58892059 8.87974739 C277.58679817 10.04291733 277.58679817 10.04291733 277.58463287 11.22958565 C277.5790178 13.71587608 277.56646281 16.20207774 277.55376434 18.68834114 C277.54875128 20.36998047 277.54418804 22.0516212 277.54009247 23.73326302 C277.52904347 27.8641568 277.51176879 31.9949839 277.49126434 36.12584114 C241.58315421 36.1487063 205.67504536 36.16633875 169.76692945 36.17690647 C165.5322188 36.17815725 161.29750817 36.17945156 157.06279755 36.18077278 C155.79816096 36.18116625 155.79816096 36.18116625 154.50797617 36.18156766 C140.83841258 36.18592461 127.16885318 36.19381229 113.49929208 36.20299394 C99.48374372 36.2123298 85.46819755 36.21789661 71.4526462 36.21992964 C62.79718114 36.221305 54.14172791 36.22565634 45.48626649 36.23375761 C39.55913786 36.23902423 33.63201539 36.24064563 27.7048846 36.23934252 C24.28002694 36.23869901 20.85519001 36.23971811 17.430336 36.24504662 C13.72598355 36.24997624 10.0216829 36.24884214 6.31732941 36.24609566 C5.22299483 36.2490085 4.12866025 36.25192134 3.00116402 36.25492245 C2.01685542 36.2529314 1.03254682 36.25094035 0.01841068 36.24888897 C-0.83785866 36.24926869 -1.69412801 36.24964841 -2.57634491 36.25003964 C-4.50873566 36.12584114 -4.50873566 36.12584114 -5.50873566 35.12584114 C-5.60960778 32.61659961 -5.64845598 30.1354773 -5.64154816 27.62584114 C-5.64250488 26.87496223 -5.64346161 26.12408333 -5.64444733 25.35045052 C-5.64512904 23.75995487 -5.64327537 22.16945647 -5.63910675 20.57896614 C-5.63375833 18.13619459 -5.639052 15.69360693 -5.64545441 13.25084114 C-5.64479362 11.70917407 -5.64351246 10.16750711 -5.64154816 8.62584114 C-5.64357239 7.89043098 -5.64559662 7.15502083 -5.64768219 6.39732552 C-5.61791845 0.00106965 -5.61791845 0.00106965 0 0 Z M-3.50873566 2.12584114 C-3.50873566 13.01584114 -3.50873566 23.90584114 -3.50873566 35.12584114 C88.56126434 35.12584114 180.63126434 35.12584114 275.49126434 35.12584114 C275.49126434 24.23584114 275.49126434 13.34584114 275.49126434 2.12584114 C183.42126434 2.12584114 91.35126434 2.12584114 -3.50873566 2.12584114 Z " fill="#ECE6F7" transform="translate(354.5087356567383,686.8741588592529)"/>
<path d="M0 0 C9.9 0 19.8 0 30 0 C30 10.23 30 20.46 30 31 C15.15 30.505 15.15 30.505 0 30 C0 20.1 0 10.2 0 0 Z " fill="#1E3687" transform="translate(780,164)"/>
<path d="M0 0 C4.599375 -0.020625 9.19875 -0.04125 13.9375 -0.0625 C15.39019287 -0.071604 16.84288574 -0.08070801 18.33959961 -0.09008789 C19.47405518 -0.09258545 20.60851074 -0.09508301 21.77734375 -0.09765625 C23.52905884 -0.10551147 23.52905884 -0.10551147 25.31616211 -0.11352539 C28 0 28 0 29 1 C29.08758003 2.99964982 29.10696576 5.0023611 29.09765625 7.00390625 C29.09515869 8.09775635 29.09266113 9.19160645 29.09008789 10.31860352 C29.08098389 11.71908936 29.07187988 13.1195752 29.0625 14.5625 C29.041875 18.996875 29.02125 23.43125 29 28 C19.43 28 9.86 28 0 28 C0 18.76 0 9.52 0 0 Z " fill="#1E3687" transform="translate(812,196)"/>
<path d="M0 0 C0.33 0.99 0.66 1.98 1 3 C1.72811441 2.99951424 2.45622882 2.99902848 3.20640731 2.998528 C52.92706947 2.96733933 102.64756982 3.0142406 152.36816406 3.09179688 C153.51245802 3.09357999 153.51245802 3.09357999 154.67986902 3.09539913 C174.14940101 3.12577033 193.61893102 3.15733815 213.08846036 3.18936362 C226.00709066 3.21061349 238.92572143 3.23154209 251.84435272 3.25218201 C253.14578923 3.25426153 253.14578923 3.25426153 254.47351739 3.25638306 C258.88279316 3.26342704 263.29206893 3.27046607 267.7013447 3.27750319 C298.63488172 3.32688137 329.56841771 3.37687275 360.50195312 3.42724609 C390.48437449 3.47606915 420.4667963 3.52460115 450.44921875 3.57275391 C451.37942578 3.57424796 452.3096328 3.57574202 453.26802792 3.57728135 C462.6126818 3.59228999 471.9573357 3.60729287 481.3019896 3.62229155 C500.3246785 3.65282412 519.34736735 3.68339503 538.37005615 3.71398926 C539.24398182 3.71539475 540.11790748 3.71680024 541.01831574 3.71824832 C599.01221154 3.81152124 657.00610588 3.90568961 715 4 C715 4.33 715 4.66 715 5 C478.72 5.33 242.44 5.66 -1 6 C-1 1 -1 1 0 0 Z " fill="#071148" transform="translate(145,886)"/>
<path d="M0 0 C0.99 0.33 1.98 0.66 3 1 C4.08965903 4.26897708 4.1292947 6.6897525 4.1328125 10.12890625 C4.13410156 11.32837891 4.13539063 12.52785156 4.13671875 13.76367188 C4.13285156 15.01728516 4.12898437 16.27089844 4.125 17.5625 C4.13080078 19.4487207 4.13080078 19.4487207 4.13671875 21.37304688 C4.13542969 22.57123047 4.13414062 23.76941406 4.1328125 25.00390625 C4.13168457 26.10549072 4.13055664 27.2070752 4.12939453 28.34204102 C4 31 4 31 3 33 C14.55 33 26.1 33 38 33 C38 34.65 38 36.3 38 38 C37.67 38 37.34 38 37 38 C36.67 45.92 36.34 53.84 36 62 C36.99 62 37.98 62 39 62 C39 62.66 39 63.32 39 64 C47.25 64.33 55.5 64.66 64 65 C64.495 63.515 64.495 63.515 65 62 C65.66 62 66.32 62 67 62 C67.02465288 66.68139254 67.04283739 71.36274759 67.05493164 76.04418945 C67.05997157 77.63794614 67.0668035 79.23169819 67.07543945 80.82543945 C67.08751999 83.11150253 67.09323155 85.39750467 67.09765625 87.68359375 C67.10281754 88.40026718 67.10797882 89.11694061 67.11329651 89.85533142 C67.11349263 91.57063672 67.06192007 93.28581266 67 95 C66 96 66 96 63.04077148 96.11352539 C61.74727783 96.10828857 60.45378418 96.10305176 59.12109375 96.09765625 C58.09110008 96.09553383 58.09110008 96.09553383 57.04029846 96.09336853 C54.83932199 96.08775479 52.63844591 96.07520007 50.4375 96.0625 C48.94856917 96.05748676 47.45963676 96.05292355 45.97070312 96.04882812 C42.31376925 96.03778093 38.65689442 96.02050713 35 96 C34.15441855 75.31024118 33.90836709 54.70903738 34 34 C24.1 34 14.2 34 4 34 C4 43.9 4 53.8 4 64 C13.57 64 23.14 64 33 64 C33 64.33 33 64.66 33 65 C23.1 65 13.2 65 3 65 C3 54.77 3 44.54 3 34 C-13.83 33.67 -30.66 33.34 -48 33 C-48 32.67 -48 32.34 -48 32 C-32.16 32 -16.32 32 0 32 C0.33 23.09 0.66 14.18 1 5 C-7.25 5 -15.5 5 -24 5 C-24 4.67 -24 4.34 -24 4 C-22.77023437 3.93941406 -21.54046875 3.87882813 -20.2734375 3.81640625 C-18.64061573 3.73194995 -17.00780373 3.64730453 -15.375 3.5625 C-14.56675781 3.52318359 -13.75851562 3.48386719 -12.92578125 3.44335938 C-8.54849135 3.21203918 -4.31452719 2.83079083 0 2 C0 1.34 0 0.68 0 0 Z M36 66 C36 75.24 36 84.48 36 94 C45.57 94 55.14 94 65 94 C65.020625 89.565625 65.04125 85.13125 65.0625 80.5625 C65.071604 79.16201416 65.08070801 77.76152832 65.09008789 76.31860352 C65.09258545 75.22475342 65.09508301 74.13090332 65.09765625 73.00390625 C65.10289307 71.87799072 65.10812988 70.7520752 65.11352539 69.59204102 C65.29545448 67.07029129 65.29545448 67.07029129 64 66 C61.92737924 65.91232888 59.85179706 65.89304127 57.77734375 65.90234375 C56.64288818 65.90484131 55.50843262 65.90733887 54.33959961 65.90991211 C52.88690674 65.91901611 51.43421387 65.92812012 49.9375 65.9375 C45.338125 65.958125 40.73875 65.97875 36 66 Z " fill="#09144D" transform="translate(776,130)"/>
<path d="M0 0 C0.78375 0.185625 1.5675 0.37125 2.375 0.5625 C4.97089775 1.25962266 4.97089775 1.25962266 7 0 C7 0.66 7 1.32 7 2 C7.91709244 1.83734146 8.83418488 1.67468292 9.77906799 1.50709534 C15.01762521 0.76488394 20.25411678 0.868712 25.53491211 0.88647461 C27.24819702 0.88625557 27.24819702 0.88625557 28.99609375 0.8860321 C32.75653 0.88672657 36.51691619 0.89449714 40.27734375 0.90234375 C42.89050774 0.90420958 45.50367208 0.90563271 48.11683655 0.90663147 C54.2825319 0.90973241 60.4482094 0.91792905 66.61389691 0.92798096 C73.63689773 0.93918061 80.65989944 0.94466224 87.68290699 0.94967639 C102.12194717 0.96011275 116.56097334 0.97768813 131 1 C131 1.66 131 2.32 131 3 C156.41 3 181.82 3 208 3 C208 3.33 208 3.66 208 4 C140.02 4 72.04 4 2 4 C2 6.97 2 9.94 2 13 C0 11 0 11 -0.1953125 8.3984375 C-0.17210937 7.40070313 -0.14890625 6.40296875 -0.125 5.375 C-0.10695312 4.37210938 -0.08890625 3.36921875 -0.0703125 2.3359375 C-0.04710937 1.56507813 -0.02390625 0.79421875 0 0 Z " fill="#141F61" transform="translate(144,131)"/>
<path d="M0 0 C5.793284 0.73704217 11.55203095 0.49480265 17.37841797 0.34155273 C18.58494522 0.31557007 19.79147247 0.2895874 21.03456116 0.26281738 C26.16168569 0.15224782 31.28845241 0.02787683 36.4152832 -0.09545898 C40.17373526 -0.18387066 43.93229743 -0.26506919 47.69091797 -0.34594727 C48.83600327 -0.37611938 49.98108856 -0.4062915 51.16087341 -0.43737793 C57.72533887 -0.57767056 64.08698754 -0.34478863 70.60107422 0.49780273 C67.34105665 2.67114778 66.45130834 2.74618358 62.68464661 2.73831177 C61.67082413 2.7410611 60.65700165 2.74381042 59.61245728 2.74664307 C58.50115448 2.73945251 57.38985168 2.73226196 56.24487305 2.72485352 C54.48857323 2.7252916 54.48857323 2.7252916 52.6967926 2.72573853 C49.4862593 2.72458322 46.27589992 2.7145468 43.06540132 2.70059061 C39.71016841 2.68809538 36.35493215 2.68691371 32.99967957 2.68453979 C26.64612193 2.67832147 20.29263304 2.6619059 13.93910569 2.64184082 C6.70580979 2.61949277 -0.52748938 2.60849114 -7.76081121 2.59844995 C-22.64022106 2.57753996 -37.51956655 2.54235716 -52.39892578 2.49780273 C-52.06892578 1.83780273 -51.73892578 1.17780273 -51.39892578 0.49780273 C-44.8703925 0.32853141 -38.34167368 0.16884567 -31.81274414 0.015625 C-29.59459198 -0.03753826 -27.37649006 -0.09284513 -25.15844727 -0.15039062 C-21.95876904 -0.23302323 -18.75898564 -0.30778532 -15.55908203 -0.38110352 C-14.57746597 -0.40813858 -13.59584991 -0.43517365 -12.58448792 -0.46302795 C-8.33273047 -0.55389781 -4.2205486 -0.55042703 0 0 Z " fill="#1E296E" transform="translate(532.39892578125,131.502197265625)"/>
<path d="M0 0 C1.05165344 0.02598267 2.10330688 0.05196533 3.18682861 0.07873535 C6.50495312 0.16095655 9.82276915 0.25135891 13.140625 0.34375 C17.53110459 0.46523075 21.92169197 0.57862234 26.3125 0.6875 C27.30538025 0.71767212 28.2982605 0.74784424 29.32122803 0.77893066 C34.81641504 0.91503801 39.94947368 0.59143533 45.390625 -0.15625 C47.72657738 0.15820513 50.05967966 0.4941082 52.390625 0.84375 C62.71610033 1.29052537 73.08530338 0.44740901 83.390625 -0.15625 C83.885625 0.83375 83.885625 0.83375 84.390625 1.84375 C79.770625 2.17375 75.150625 2.50375 70.390625 2.84375 C70.390625 3.17375 70.390625 3.50375 70.390625 3.84375 C39.040625 3.51375 7.690625 3.18375 -24.609375 2.84375 C-24.279375 2.18375 -23.949375 1.52375 -23.609375 0.84375 C-15.87332379 -0.55857631 -7.82656754 -0.23979298 0 0 Z " fill="#1C276B" transform="translate(299.609375,131.15625)"/>
<path d="M0 0 C1.79920898 0.01353516 1.79920898 0.01353516 3.63476562 0.02734375 C6.56922309 0.05072588 9.50325234 0.0834972 12.4375 0.125 C12.4375 0.785 12.4375 1.445 12.4375 2.125 C37.8475 2.125 63.2575 2.125 89.4375 2.125 C89.4375 2.455 89.4375 2.785 89.4375 3.125 C52.4775 3.125 15.5175 3.125 -22.5625 3.125 C-22.5625 2.795 -22.5625 2.465 -22.5625 2.125 C-14.94896243 0.05672348 -7.86216009 -0.11312461 0 0 Z " fill="#0C1858" transform="translate(262.5625,131.875)"/>
<path d="M0 0 C0.99 0 1.98 0 3 0 C3.02465288 4.68139254 3.04283739 9.36274759 3.05493164 14.04418945 C3.05997157 15.63794614 3.0668035 17.23169819 3.07543945 18.82543945 C3.08751999 21.11150253 3.09323155 23.39750467 3.09765625 25.68359375 C3.10281754 26.40026718 3.10797882 27.11694061 3.11329651 27.85533142 C3.11349263 29.57063672 3.06192007 31.28581266 3 33 C2 34 2 34 -0.86743164 34.11352539 C-2.11903076 34.10828857 -3.37062988 34.10305176 -4.66015625 34.09765625 C-5.65685585 34.09553383 -5.65685585 34.09553383 -6.6736908 34.09336853 C-8.80333899 34.08775518 -10.93288339 34.07520054 -13.0625 34.0625 C-14.50325369 34.05748671 -15.94400903 34.05292351 -17.38476562 34.04882812 C-20.92321102 34.03778145 -24.46159539 34.02050792 -28 34 C-28 33.34 -28 32.68 -28 32 C-18.43 32 -8.86 32 1 32 C0.67 21.44 0.34 10.88 0 0 Z " fill="#122067" transform="translate(840,192)"/>
<path d="M0 0 C1.32 0 2.64 0 4 0 C3.67 0.99 3.34 1.98 3 3 C-3.33541445 3.05070815 -9.67077657 3.08573696 -16.00634766 3.10986328 C-18.16164099 3.1199211 -20.31692068 3.13356899 -22.47216797 3.15087891 C-25.57002124 3.17513662 -28.66769409 3.18648532 -31.765625 3.1953125 C-33.21113739 3.21079636 -33.21113739 3.21079636 -34.68585205 3.22659302 C-35.58648376 3.22674408 -36.48711548 3.22689514 -37.41503906 3.22705078 C-38.20557678 3.231492 -38.9961145 3.23593323 -39.81060791 3.24050903 C-42.25517547 2.97196847 -43.88156035 2.21882157 -46 1 C-41.7133455 0.85610373 -37.42664344 0.71374336 -33.13989258 0.57275391 C-31.68414969 0.52466485 -30.22842017 0.47616942 -28.77270508 0.42724609 C-26.67011921 0.35665568 -24.56748829 0.28756785 -22.46484375 0.21875 C-21.202771 0.17685547 -19.94069824 0.13496094 -18.64038086 0.09179688 C-16.15099027 0.0290237 -13.66030875 0.00751532 -11.17016602 0.02148438 C-8.13529031 0.12903547 -8.13529031 0.12903547 -5.8125 -0.5625 C-3.55757611 -1.10679197 -2.21221651 -0.62218589 0 0 Z " fill="#0F1959" transform="translate(412,132)"/>
<path d="M0 0 C10.93104836 1.26709384 22.30679111 -0.09679883 33.2578125 -0.73828125 C33.7528125 0.25171875 33.7528125 0.25171875 34.2578125 1.26171875 C29.6378125 1.59171875 25.0178125 1.92171875 20.2578125 2.26171875 C20.2578125 2.59171875 20.2578125 2.92171875 20.2578125 3.26171875 C9.03710607 3.49307352 -1.65504892 3.09322247 -12.7421875 1.26171875 C-12.7421875 0.93171875 -12.7421875 0.60171875 -12.7421875 0.26171875 C-8.19270771 -0.59130871 -4.62289478 -0.67673555 0 0 Z " fill="#202D75" transform="translate(349.7421875,131.73828125)"/>
<path d="M0 0 C0 0.33 0 0.66 0 1 C-6.04819812 1.88902912 -11.89223486 2.12348383 -18 2.0625 C-18.87011719 2.05798828 -19.74023438 2.05347656 -20.63671875 2.04882812 C-22.75784293 2.0371736 -24.8789311 2.01924357 -27 2 C-26.67 1.34 -26.34 0.68 -26 0 C-17.76154544 -1.76419431 -8.22294604 -1.73114653 0 0 Z " fill="#0F1E60" transform="translate(872,225)"/>
<path d="M0 0 C0.99 0 1.98 0 3 0 C3 1.65 3 3.3 3 5 C2.67 5 2.34 5 2 5 C1.67 12.92 1.34 20.84 1 29 C1.99 29 2.98 29 4 29 C3.67 29.99 3.34 30.98 3 32 C2.01 32 1.02 32 0 32 C0 21.44 0 10.88 0 0 Z " fill="#29377F" transform="translate(811,163)"/>
<path d="M0 0 C0.66 0 1.32 0 2 0 C2 0.66 2 1.32 2 2 C8.6 2 15.2 2 22 2 C22 2.33 22 2.66 22 3 C13.09 3 4.18 3 -5 3 C-3.68 2.34 -2.36 1.68 -1 1 C-0.67 0.67 -0.34 0.34 0 0 Z " fill="#091555" transform="translate(697,132)"/>
<path d="M0 0 C0 0.66 0 1.32 0 2 C-3.3 2 -6.6 2 -10 2 C-6.3558226 -0.4294516 -4.28758728 -0.16179575 0 0 Z " fill="#324395" transform="translate(800,160)"/>
<path d="M0 0 C1.98 0.495 1.98 0.495 4 1 C4 1.33 4 1.66 4 2 C2.35 2 0.7 2 -1 2 C-0.67 1.34 -0.34 0.68 0 0 Z " fill="#2C3A84" transform="translate(808,160)"/>
<path d="M0 0 C0.99 0.33 1.98 0.66 3 1 C1.35 1.33 -0.3 1.66 -2 2 C-1.34 1.34 -0.68 0.68 0 0 Z " fill="#314190" transform="translate(822,192)"/>
<path d="M0 0 C1.98 0.495 1.98 0.495 4 1 C2.35 1.33 0.7 1.66 -1 2 C-0.67 1.34 -0.34 0.68 0 0 Z " fill="#2C3689" transform="translate(825,892)"/>
<path d="M0 0 C0 3 0 3 0 3 Z " fill="#28327A" transform="translate(148,892)"/>
<path d="M0 0 C4 1 4 1 4 1 Z " fill="#2C378A" transform="translate(836,892)"/>
<path d="M0 0 C4 1 4 1 4 1 Z " fill="#2F378D" transform="translate(580,892)"/>
<path d="M0 0 C4 1 4 1 4 1 Z " fill="#304192" transform="translate(802,161)"/>
<path d="M0 0 C3 1 3 1 3 1 Z " fill="#2C368D" transform="translate(792,892)"/>
<path d="M0 0 C3 1 3 1 3 1 Z " fill="#2F398E" transform="translate(753,892)"/>
<path d="M0 0 C3 1 3 1 3 1 Z " fill="#2C378B" transform="translate(689,892)"/>
<path d="M0 0 C3 1 3 1 3 1 Z " fill="#2D388A" transform="translate(605,892)"/>
<path d="M0 0 C3 1 3 1 3 1 Z " fill="#2C388B" transform="translate(589,892)"/>
<path d="M0 0 C3 1 3 1 3 1 Z " fill="#2D388D" transform="translate(541,892)"/>
<path d="M0 0 C3 1 3 1 3 1 Z " fill="#2C388C" transform="translate(493,892)"/>
<path d="M0 0 C3 1 3 1 3 1 Z " fill="#2D378B" transform="translate(481,892)"/>
<path d="M0 0 C3 1 3 1 3 1 Z " fill="#2D378B" transform="translate(401,892)"/>
<path d="M0 0 C0.99 0.495 0.99 0.495 2 1 C1.01 1.495 1.01 1.495 0 2 C0 1.34 0 0.68 0 0 Z " fill="#28337A" transform="translate(877,888)"/>
<path d="" fill="#2C3A88" transform="translate(0,0)"/>
<path d="M0 0 C3 1 3 1 3 1 Z " fill="#334597" transform="translate(780,161)"/>
<path d="" fill="#263278" transform="translate(0,0)"/>
<path d="" fill="#273275" transform="translate(0,0)"/>
<path d="" fill="#2D388B" transform="translate(0,0)"/>
<path d="M0 0 C2 1 2 1 2 1 Z " fill="#2B3687" transform="translate(854,892)"/>
<path d="M0 0 C2 1 2 1 2 1 Z " fill="#2D3889" transform="translate(830,892)"/>
<path d="M0 0 C2 1 2 1 2 1 Z " fill="#2C3689" transform="translate(822,892)"/>
<path d="M0 0 C2 1 2 1 2 1 Z " fill="#2D398C" transform="translate(806,892)"/>
<path d="M0 0 C2 1 2 1 2 1 Z " fill="#2D388B" transform="translate(798,892)"/>
<path d="M0 0 C2 1 2 1 2 1 Z " fill="#2C388A" transform="translate(726,892)"/>
<path d="M0 0 C2 1 2 1 2 1 Z " fill="#2D378C" transform="translate(694,892)"/>
<path d="M0 0 C2 1 2 1 2 1 Z " fill="#2E388C" transform="translate(686,892)"/>
<path d="M0 0 C2 1 2 1 2 1 Z " fill="#2D388C" transform="translate(654,892)"/>
<path d="M0 0 C2 1 2 1 2 1 Z " fill="#2D388C" transform="translate(630,892)"/>
<path d="M0 0 C2 1 2 1 2 1 Z " fill="#2E3A8C" transform="translate(621,892)"/>
<path d="M0 0 C2 1 2 1 2 1 Z " fill="#2F3A8E" transform="translate(538,892)"/>
<path d="M0 0 C2 1 2 1 2 1 Z " fill="#2E388C" transform="translate(534,892)"/>
<path d="M0 0 C2 1 2 1 2 1 Z " fill="#2D388D" transform="translate(510,892)"/>
<path d="M0 0 C2 1 2 1 2 1 Z " fill="#2E398E" transform="translate(505,892)"/>
<path d="M0 0 C2 1 2 1 2 1 Z " fill="#2D388C" transform="translate(478,892)"/>
<path d="M0 0 C2 1 2 1 2 1 Z " fill="#2D388D" transform="translate(446,892)"/>
<path d="M0 0 C2 1 2 1 2 1 Z " fill="#2D388B" transform="translate(414,892)"/>
<path d="M0 0 C2 1 2 1 2 1 Z " fill="#2D388C" transform="translate(406,892)"/>
<path d="M0 0 C2 1 2 1 2 1 Z " fill="#2E378D" transform="translate(350,892)"/>
<path d="M0 0 C2 1 2 1 2 1 Z " fill="#2D398C" transform="translate(318,892)"/>
<path d="M0 0 C2 1 2 1 2 1 Z " fill="#2E388C" transform="translate(281,892)"/>
<path d="M0 0 C2 1 2 1 2 1 Z " fill="#2D378C" transform="translate(238,892)"/>
<path d="M0 0 C2 1 2 1 2 1 Z " fill="#2E398C" transform="translate(190,892)"/>
<path d="M0 0 C2 1 2 1 2 1 Z " fill="#2F3A8D" transform="translate(186,892)"/>
<path d="" fill="#273278" transform="translate(0,0)"/>
<path d="" fill="#1B2249" transform="translate(0,0)"/>
<path d="" fill="#2A3687" transform="translate(0,0)"/>
<path d="" fill="#273276" transform="translate(0,0)"/>
<path d="" fill="#2C378A" transform="translate(0,0)"/>
<path d="" fill="#2C388A" transform="translate(0,0)"/>
<path d="" fill="#2C388B" transform="translate(0,0)"/>
<path d="" fill="#2B3786" transform="translate(0,0)"/>
<path d="" fill="#2D388B" transform="translate(0,0)"/>
<path d="" fill="#2D378B" transform="translate(0,0)"/>
<path d="" fill="#2C388B" transform="translate(0,0)"/>
<path d="" fill="#2E388D" transform="translate(0,0)"/>
<path d="" fill="#2D3989" transform="translate(0,0)"/>
<path d="" fill="#2B3588" transform="translate(0,0)"/>
<path d="" fill="#2D3989" transform="translate(0,0)"/>
<path d="" fill="#2E3889" transform="translate(0,0)"/>
<path d="" fill="#2D3689" transform="translate(0,0)"/>
<path d="" fill="#2B358B" transform="translate(0,0)"/>
<path d="" fill="#2D398E" transform="translate(0,0)"/>
<path d="" fill="#303B8C" transform="translate(0,0)"/>
<path d="" fill="#2F388D" transform="translate(0,0)"/>
<path d="" fill="#303A8D" transform="translate(0,0)"/>
<path d="" fill="#2F3A8D" transform="translate(0,0)"/>
<path d="" fill="#2D388D" transform="translate(0,0)"/>
<path d="" fill="#2D378D" transform="translate(0,0)"/>
<path d="" fill="#2E398E" transform="translate(0,0)"/>
<path d="" fill="#31398B" transform="translate(0,0)"/>
<path d="" fill="#2B378C" transform="translate(0,0)"/>
<path d="" fill="#2E388D" transform="translate(0,0)"/>
<path d="" fill="#2E398B" transform="translate(0,0)"/>
<path d="" fill="#2E3A8C" transform="translate(0,0)"/>
<path d="" fill="#2E388A" transform="translate(0,0)"/>
<path d="" fill="#2E388D" transform="translate(0,0)"/>
<path d="" fill="#2D398B" transform="translate(0,0)"/>
<path d="" fill="#2F398C" transform="translate(0,0)"/>
<path d="" fill="#2E3889" transform="translate(0,0)"/>
<path d="" fill="#2E388C" transform="translate(0,0)"/>
<path d="" fill="#2E388A" transform="translate(0,0)"/>
<path d="" fill="#2D398C" transform="translate(0,0)"/>
<path d="" fill="#2F3A8D" transform="translate(0,0)"/>
<path d="" fill="#2D398D" transform="translate(0,0)"/>
<path d="" fill="#2E388A" transform="translate(0,0)"/>
<path d="" fill="#2E388D" transform="translate(0,0)"/>
<path d="" fill="#2F388D" transform="translate(0,0)"/>
<path d="" fill="#2E388E" transform="translate(0,0)"/>
<path d="" fill="#2E398E" transform="translate(0,0)"/>
<path d="" fill="#2E398E" transform="translate(0,0)"/>
<path d="" fill="#2E398D" transform="translate(0,0)"/>
<path d="" fill="#2E3A8E" transform="translate(0,0)"/>
<path d="" fill="#2E388D" transform="translate(0,0)"/>
<path d="" fill="#2C368D" transform="translate(0,0)"/>
<path d="" fill="#2E3A8E" transform="translate(0,0)"/>
<path d="" fill="#2E3A8D" transform="translate(0,0)"/>
<path d="" fill="#2D398C" transform="translate(0,0)"/>
<path d="" fill="#2E398E" transform="translate(0,0)"/>
<path d="" fill="#2E398B" transform="translate(0,0)"/>
<path d="" fill="#2E398F" transform="translate(0,0)"/>
<path d="" fill="#2F398D" transform="translate(0,0)"/>
<path d="" fill="#2E378E" transform="translate(0,0)"/>
<path d="" fill="#2E398C" transform="translate(0,0)"/>
<path d="" fill="#2C398C" transform="translate(0,0)"/>
<path d="" fill="#2F3A8B" transform="translate(0,0)"/>
<path d="" fill="#2E398D" transform="translate(0,0)"/>
<path d="" fill="#30398A" transform="translate(0,0)"/>
<path d="" fill="#2D388B" transform="translate(0,0)"/>
<path d="" fill="#2F3A8C" transform="translate(0,0)"/>
<path d="" fill="#2E3A8B" transform="translate(0,0)"/>
<path d="" fill="#2E378D" transform="translate(0,0)"/>
<path d="" fill="#2E398C" transform="translate(0,0)"/>
<path d="" fill="#2F3A8D" transform="translate(0,0)"/>
<path d="" fill="#2E398E" transform="translate(0,0)"/>
<path d="" fill="#2D378C" transform="translate(0,0)"/>
<path d="" fill="#2E3A8C" transform="translate(0,0)"/>
<path d="" fill="#2F3A8E" transform="translate(0,0)"/>
<path d="" fill="#2D398D" transform="translate(0,0)"/>
<path d="" fill="#2E398C" transform="translate(0,0)"/>
<path d="" fill="#2C398C" transform="translate(0,0)"/>
<path d="" fill="#2E378D" transform="translate(0,0)"/>
<path d="" fill="#2F3A8F" transform="translate(0,0)"/>
<path d="" fill="#2E398B" transform="translate(0,0)"/>
<path d="" fill="#2D398D" transform="translate(0,0)"/>
<path d="" fill="#2D388D" transform="translate(0,0)"/>
<path d="" fill="#2F3A8B" transform="translate(0,0)"/>
<path d="" fill="#2D398E" transform="translate(0,0)"/>
<path d="" fill="#303A8E" transform="translate(0,0)"/>
<path d="" fill="#2E3B8D" transform="translate(0,0)"/>
<path d="" fill="#2F3A8C" transform="translate(0,0)"/>
<path d="" fill="#2D3A8C" transform="translate(0,0)"/>
<path d="" fill="#2B3887" transform="translate(0,0)"/>
<path d="" fill="#2B3784" transform="translate(0,0)"/>
<path d="" fill="#27347E" transform="translate(0,0)"/>
<path d="" fill="#263178" transform="translate(0,0)"/>
<path d="" fill="#2F3B8B" transform="translate(0,0)"/>
<path d="" fill="#313D90" transform="translate(0,0)"/>
<path d="" fill="#2F3F8F" transform="translate(0,0)"/>
<path d="" fill="#334193" transform="translate(0,0)"/>
<path d="" fill="#2F3E8F" transform="translate(0,0)"/>
<path d="" fill="#303C8C" transform="translate(0,0)"/>
<path d="" fill="#303D8A" transform="translate(0,0)"/>
<path d="" fill="#29337E" transform="translate(0,0)"/>
<path d="" fill="#30408E" transform="translate(0,0)"/>
<path d="" fill="#2E3D84" transform="translate(0,0)"/>
<path d="" fill="#304391" transform="translate(0,0)"/>
<path d="" fill="#314293" transform="translate(0,0)"/>
<path d="" fill="#324395" transform="translate(0,0)"/>
<path d="" fill="#334496" transform="translate(0,0)"/>
<path d="" fill="#29367D" transform="translate(0,0)"/>
<path d="" fill="#2E3F8C" transform="translate(0,0)"/>
<path d="" fill="#2F3D8B" transform="translate(0,0)"/>
<path d="" fill="#2C3982" transform="translate(0,0)"/>
<path d="" fill="#324498" transform="translate(0,0)"/>
<path d="" fill="#334498" transform="translate(0,0)"/>
<path d="" fill="#2D3A83" transform="translate(0,0)"/>
<path d="" fill="#323D8D" transform="translate(0,0)"/>
<path d="" fill="#313C8D" transform="translate(0,0)"/>
<path d="" fill="#333C8C" transform="translate(0,0)"/>
<path d="" fill="#313D8C" transform="translate(0,0)"/>
<path d="" fill="#303A8D" transform="translate(0,0)"/>
<path d="" fill="#313B8C" transform="translate(0,0)"/>
<path d="" fill="#313A8E" transform="translate(0,0)"/>
<path d="" fill="#2B3681" transform="translate(0,0)"/>
<path d="" fill="#2F3B8D" transform="translate(0,0)"/>
<path d="" fill="#2F3D8D" transform="translate(0,0)"/>
<path d="" fill="#2F3B8A" transform="translate(0,0)"/>
<path d="" fill="#28357A" transform="translate(0,0)"/>
<path d="" fill="#27367E" transform="translate(0,0)"/>
<path d="" fill="#273578" transform="translate(0,0)"/>
<path d="" fill="#27377D" transform="translate(0,0)"/>
<path d="" fill="#2C3A87" transform="translate(0,0)"/>
</svg>
