<?xml version="1.0" encoding="UTF-8"?>
<svg version="1.1" xmlns="http://www.w3.org/2000/svg" width="512" height="512">
<path d="M0 0 C31.68 0 63.36 0 96 0 C96 5.28 96 10.56 96 16 C101.28 16 106.56 16 112 16 C112 42.4 112 68.8 112 96 C122.56 96 133.12 96 144 96 C144 111.84 144 127.68 144 144 C154.56 144 165.12 144 176 144 C176 154.56 176 165.12 176 176 C181.28 176 186.56 176 192 176 C192 191.84 192 207.68 192 224 C176.16 224 160.32 224 144 224 C144 218.72 144 213.44 144 208 C122.88 208 101.76 208 80 208 C80 213.28 80 218.56 80 224 C90.56 224 101.12 224 112 224 C112 229.28 112 234.56 112 240 C122.56 240 133.12 240 144 240 C144 245.28 144 250.56 144 256 C154.56 256 165.12 256 176 256 C176 261.28 176 266.56 176 272 C202.4 272 228.8 272 256 272 C256 266.72 256 261.44 256 256 C271.84 256 287.68 256 304 256 C304 261.28 304 266.56 304 272 C330.4 272 356.8 272 384 272 C384 256.16 384 240.32 384 224 C378.72 224 373.44 224 368 224 C368 208.16 368 192.32 368 176 C315.2 176 262.4 176 208 176 C208 144.32 208 112.64 208 80 C239.68 80 271.36 80 304 80 C304 85.28 304 90.56 304 96 C309.28 96 314.56 96 320 96 C320 64.32 320 32.64 320 0 C351.68 0 383.36 0 416 0 C416 5.28 416 10.56 416 16 C421.28 16 426.56 16 432 16 C432 68.8 432 121.6 432 176 C426.72 176 421.44 176 416 176 C416 191.84 416 207.68 416 224 C410.72 224 405.44 224 400 224 C400 245.12 400 266.24 400 288 C368.32 288 336.64 288 304 288 C304 293.28 304 298.56 304 304 C288.16 304 272.32 304 256 304 C256 298.72 256 293.44 256 288 C234.88 288 213.76 288 192 288 C192 298.56 192 309.12 192 320 C197.28 320 202.56 320 208 320 C208 351.68 208 383.36 208 416 C202.72 416 197.44 416 192 416 C192 426.56 192 437.12 192 448 C186.72 448 181.44 448 176 448 C176 453.28 176 458.56 176 464 C202.4 464 228.8 464 256 464 C256 453.44 256 442.88 256 432 C266.56 432 277.12 432 288 432 C288 400.32 288 368.64 288 336 C319.68 336 351.36 336 384 336 C384 341.28 384 346.56 384 352 C389.28 352 394.56 352 400 352 C400 378.4 400 404.8 400 432 C410.56 432 421.12 432 432 432 C432 458.4 432 484.8 432 512 C373.92 512 315.84 512 256 512 C256 501.44 256 490.88 256 480 C219.04 480 182.08 480 144 480 C144 485.28 144 490.56 144 496 C133.44 496 122.88 496 112 496 C112 501.28 112 506.56 112 512 C80.32 512 48.64 512 16 512 C16 506.72 16 501.44 16 496 C5.44 496 -5.12 496 -16 496 C-16 490.72 -16 485.44 -16 480 C-26.56 480 -37.12 480 -48 480 C-48 469.44 -48 458.88 -48 448 C-53.28 448 -58.56 448 -64 448 C-64 437.44 -64 426.88 -64 416 C-69.28 416 -74.56 416 -80 416 C-80 384.32 -80 352.64 -80 320 C-74.72 320 -69.44 320 -64 320 C-64 309.44 -64 298.88 -64 288 C-58.72 288 -53.44 288 -48 288 C-48 277.44 -48 266.88 -48 256 C-37.44 256 -26.88 256 -16 256 C-16 250.72 -16 245.44 -16 240 C-5.44 240 5.12 240 16 240 C16 234.72 16 229.44 16 224 C31.84 224 47.68 224 64 224 C64 213.44 64 202.88 64 192 C90.4 192 116.8 192 144 192 C144 186.72 144 181.44 144 176 C85.92 176 27.84 176 -32 176 C-32 149.6 -32 123.2 -32 96 C-21.44 96 -10.88 96 0 96 C0 64.32 0 32.64 0 0 Z M144 160 C144 165.28 144 170.56 144 176 C149.28 176 154.56 176 160 176 C160 170.72 160 165.44 160 160 C154.72 160 149.44 160 144 160 Z " fill="#3038D6" transform="translate(80,0)"/>
<path d="M0 0 C31.68 0 63.36 0 96 0 C96 5.28 96 10.56 96 16 C101.28 16 106.56 16 112 16 C112 68.8 112 121.6 112 176 C106.72 176 101.44 176 96 176 C96 191.84 96 207.68 96 224 C90.72 224 85.44 224 80 224 C80 245.12 80 266.24 80 288 C48.32 288 16.64 288 -16 288 C-16 293.28 -16 298.56 -16 304 C-31.84 304 -47.68 304 -64 304 C-64 298.72 -64 293.44 -64 288 C-90.4 288 -116.8 288 -144 288 C-144 282.72 -144 277.44 -144 272 C-117.6 272 -91.2 272 -64 272 C-64 266.72 -64 261.44 -64 256 C-48.16 256 -32.32 256 -16 256 C-16 261.28 -16 266.56 -16 272 C10.4 272 36.8 272 64 272 C64 256.16 64 240.32 64 224 C58.72 224 53.44 224 48 224 C48 208.16 48 192.32 48 176 C-4.8 176 -57.6 176 -112 176 C-112 144.32 -112 112.64 -112 80 C-80.32 80 -48.64 80 -16 80 C-16 85.28 -16 90.56 -16 96 C-10.72 96 -5.44 96 0 96 C0 64.32 0 32.64 0 0 Z " fill="#000690" transform="translate(400,0)"/>
<path d="M0 0 C10.56 0 21.12 0 32 0 C32 5.28 32 10.56 32 16 C53.12 16 74.24 16 96 16 C96 10.72 96 5.44 96 0 C106.56 0 117.12 0 128 0 C128 10.56 128 21.12 128 32 C133.28 32 138.56 32 144 32 C144 53.12 144 74.24 144 96 C138.72 96 133.44 96 128 96 C128 101.28 128 106.56 128 112 C122.72 112 117.44 112 112 112 C112 117.28 112 122.56 112 128 C101.44 128 90.88 128 80 128 C80 133.28 80 138.56 80 144 C85.28 144 90.56 144 96 144 C96 165.12 96 186.24 96 208 C74.88 208 53.76 208 32 208 C32 197.44 32 186.88 32 176 C21.44 176 10.88 176 0 176 C0 170.72 0 165.44 0 160 C10.56 160 21.12 160 32 160 C32 154.72 32 149.44 32 144 C37.28 144 42.56 144 48 144 C48 138.72 48 133.44 48 128 C37.44 128 26.88 128 16 128 C16 122.72 16 117.44 16 112 C10.72 112 5.44 112 0 112 C0 106.72 0 101.44 0 96 C-5.28 96 -10.56 96 -16 96 C-16 74.88 -16 53.76 -16 32 C-10.72 32 -5.44 32 0 32 C0 21.44 0 10.88 0 0 Z " fill="#FFDDDF" transform="translate(80,288)"/>
<path d="M0 0 C31.68 0 63.36 0 96 0 C96 5.28 96 10.56 96 16 C101.28 16 106.56 16 112 16 C112 42.4 112 68.8 112 96 C117.28 96 122.56 96 128 96 C128 106.56 128 117.12 128 128 C112.16 128 96.32 128 80 128 C80 133.28 80 138.56 80 144 C95.84 144 111.68 144 128 144 C128 149.28 128 154.56 128 160 C75.2 160 22.4 160 -32 160 C-32 138.88 -32 117.76 -32 96 C-21.44 96 -10.88 96 0 96 C0 64.32 0 32.64 0 0 Z " fill="#3038D6" transform="translate(80,0)"/>
<path d="M0 0 C31.68 0 63.36 0 96 0 C96 52.8 96 105.6 96 160 C64.32 160 32.64 160 0 160 C0 107.2 0 54.4 0 0 Z " fill="#9720F1" transform="translate(400,0)"/>
<path d="M0 0 C5.28 0 10.56 0 16 0 C16 10.56 16 21.12 16 32 C21.28 32 26.56 32 32 32 C32 37.28 32 42.56 32 48 C37.28 48 42.56 48 48 48 C48 63.84 48 79.68 48 96 C53.28 96 58.56 96 64 96 C64 101.28 64 106.56 64 112 C69.28 112 74.56 112 80 112 C80 117.28 80 122.56 80 128 C90.56 128 101.12 128 112 128 C112 133.28 112 138.56 112 144 C106.72 144 101.44 144 96 144 C96 149.28 96 154.56 96 160 C85.44 160 74.88 160 64 160 C64 165.28 64 170.56 64 176 C74.56 176 85.12 176 96 176 C96 186.56 96 197.12 96 208 C106.56 208 117.12 208 128 208 C128 213.28 128 218.56 128 224 C112.16 224 96.32 224 80 224 C80 218.72 80 213.44 80 208 C69.44 208 58.88 208 48 208 C48 202.72 48 197.44 48 192 C37.44 192 26.88 192 16 192 C16 181.44 16 170.88 16 160 C10.72 160 5.44 160 0 160 C0 149.44 0 138.88 0 128 C-5.28 128 -10.56 128 -16 128 C-16 96.32 -16 64.64 -16 32 C-10.72 32 -5.44 32 0 32 C0 21.44 0 10.88 0 0 Z " fill="#3038D6" transform="translate(16,288)"/>
<path d="M0 0 C10.56 0 21.12 0 32 0 C32 26.4 32 52.8 32 80 C26.72 80 21.44 80 16 80 C16 90.56 16 101.12 16 112 C10.72 112 5.44 112 0 112 C0 117.28 0 122.56 0 128 C26.4 128 52.8 128 80 128 C80 133.28 80 138.56 80 144 C43.04 144 6.08 144 -32 144 C-32 149.28 -32 154.56 -32 160 C-42.56 160 -53.12 160 -64 160 C-64 165.28 -64 170.56 -64 176 C-79.84 176 -95.68 176 -112 176 C-112 170.72 -112 165.44 -112 160 C-101.44 160 -90.88 160 -80 160 C-80 138.88 -80 117.76 -80 96 C-85.28 96 -90.56 96 -96 96 C-96 90.72 -96 85.44 -96 80 C-85.44 80 -74.88 80 -64 80 C-64 85.28 -64 90.56 -64 96 C-58.72 96 -53.44 96 -48 96 C-48 90.72 -48 85.44 -48 80 C-42.72 80 -37.44 80 -32 80 C-32 74.72 -32 69.44 -32 64 C-16.16 64 -0.32 64 16 64 C16 58.72 16 53.44 16 48 C10.72 48 5.44 48 0 48 C0 42.72 0 37.44 0 32 C5.28 32 10.56 32 16 32 C16 26.72 16 21.44 16 16 C10.72 16 5.44 16 0 16 C0 10.72 0 5.44 0 0 Z " fill="#000690" transform="translate(256,336)"/>
<path d="M0 0 C5.28 0 10.56 0 16 0 C16 15.84 16 31.68 16 48 C26.56 48 37.12 48 48 48 C48 58.56 48 69.12 48 80 C53.28 80 58.56 80 64 80 C64 95.84 64 111.68 64 128 C48.16 128 32.32 128 16 128 C16 122.72 16 117.44 16 112 C-5.12 112 -26.24 112 -48 112 C-48 117.28 -48 122.56 -48 128 C-53.28 128 -58.56 128 -64 128 C-64 117.44 -64 106.88 -64 96 C-37.6 96 -11.2 96 16 96 C16 90.72 16 85.44 16 80 C-42.08 80 -100.16 80 -160 80 C-160 74.72 -160 69.44 -160 64 C-107.2 64 -54.4 64 0 64 C0 58.72 0 53.44 0 48 C-15.84 48 -31.68 48 -48 48 C-48 42.72 -48 37.44 -48 32 C-32.16 32 -16.32 32 0 32 C0 21.44 0 10.88 0 0 Z M16 64 C16 69.28 16 74.56 16 80 C21.28 80 26.56 80 32 80 C32 74.72 32 69.44 32 64 C26.72 64 21.44 64 16 64 Z " fill="#000690" transform="translate(208,96)"/>
<path d="M0 0 C31.68 0 63.36 0 96 0 C96 26.4 96 52.8 96 80 C64.32 80 32.64 80 0 80 C0 53.6 0 27.2 0 0 Z " fill="#3038D6" transform="translate(288,80)"/>
<path d="M0 0 C21.12 0 42.24 0 64 0 C64 5.28 64 10.56 64 16 C48.16 16 32.32 16 16 16 C16 21.28 16 26.56 16 32 C31.84 32 47.68 32 64 32 C64 53.12 64 74.24 64 96 C48.16 96 32.32 96 16 96 C16 101.28 16 106.56 16 112 C31.84 112 47.68 112 64 112 C64 117.28 64 122.56 64 128 C42.88 128 21.76 128 0 128 C0 85.76 0 43.52 0 0 Z " fill="#FFDDDF" transform="translate(416,16)"/>
<path d="M0 0 C42.24 0 84.48 0 128 0 C128 5.28 128 10.56 128 16 C117.44 16 106.88 16 96 16 C96 21.28 96 26.56 96 32 C111.84 32 127.68 32 144 32 C144 37.28 144 42.56 144 48 C96.48 48 48.96 48 0 48 C0 32.16 0 16.32 0 0 Z " fill="#55D3F1" transform="translate(352,448)"/>
<path d="M0 0 C42.24 0 84.48 0 128 0 C128 5.28 128 10.56 128 16 C117.44 16 106.88 16 96 16 C96 21.28 96 26.56 96 32 C111.84 32 127.68 32 144 32 C144 37.28 144 42.56 144 48 C96.48 48 48.96 48 0 48 C0 32.16 0 16.32 0 0 Z " fill="#55D3F1" transform="translate(64,112)"/>
<path d="M0 0 C5.28 0 10.56 0 16 0 C16 26.4 16 52.8 16 80 C-42.08 80 -100.16 80 -160 80 C-160 74.72 -160 69.44 -160 64 C-107.2 64 -54.4 64 0 64 C0 58.72 0 53.44 0 48 C-15.84 48 -31.68 48 -48 48 C-48 42.72 -48 37.44 -48 32 C-32.16 32 -16.32 32 0 32 C0 21.44 0 10.88 0 0 Z " fill="#000690" transform="translate(496,432)"/>
<path d="M0 0 C5.28 0 10.56 0 16 0 C16 5.28 16 10.56 16 16 C21.28 16 26.56 16 32 16 C32 26.56 32 37.12 32 48 C42.56 48 53.12 48 64 48 C64 58.56 64 69.12 64 80 C74.56 80 85.12 80 96 80 C96 85.28 96 90.56 96 96 C80.16 96 64.32 96 48 96 C48 90.72 48 85.44 48 80 C37.44 80 26.88 80 16 80 C16 74.72 16 69.44 16 64 C5.44 64 -5.12 64 -16 64 C-16 53.44 -16 42.88 -16 32 C-10.72 32 -5.44 32 0 32 C0 21.44 0 10.88 0 0 Z " fill="#0089DA" transform="translate(48,416)"/>
<path d="M0 0 C52.8 0 105.6 0 160 0 C160 10.56 160 21.12 160 32 C154.72 32 149.44 32 144 32 C144 26.72 144 21.44 144 16 C101.76 16 59.52 16 16 16 C16 31.84 16 47.68 16 64 C10.72 64 5.44 64 0 64 C0 42.88 0 21.76 0 0 Z " fill="#DF3CF0" transform="translate(336,432)"/>
<path d="M0 0 C52.8 0 105.6 0 160 0 C160 10.56 160 21.12 160 32 C154.72 32 149.44 32 144 32 C144 26.72 144 21.44 144 16 C101.76 16 59.52 16 16 16 C16 31.84 16 47.68 16 64 C10.72 64 5.44 64 0 64 C0 42.88 0 21.76 0 0 Z " fill="#DF3CF0" transform="translate(48,96)"/>
<path d="M0 0 C15.84 0 31.68 0 48 0 C48 21.12 48 42.24 48 64 C32.16 64 16.32 64 0 64 C0 42.88 0 21.76 0 0 Z " fill="#55D3F1" transform="translate(432,48)"/>
<path d="M0 0 C21.12 0 42.24 0 64 0 C64 5.28 64 10.56 64 16 C48.16 16 32.32 16 16 16 C16 58.24 16 100.48 16 144 C10.72 144 5.44 144 0 144 C0 96.48 0 48.96 0 0 Z " fill="#DF3CF0" transform="translate(400,0)"/>
<path d="M0 0 C5.28 0 10.56 0 16 0 C16 26.4 16 52.8 16 80 C-20.96 80 -57.92 80 -96 80 C-96 74.72 -96 69.44 -96 64 C-64.32 64 -32.64 64 0 64 C0 42.88 0 21.76 0 0 Z " fill="#000690" transform="translate(464,352)"/>
<path d="M0 0 C10.56 0 21.12 0 32 0 C32 26.4 32 52.8 32 80 C26.72 80 21.44 80 16 80 C16 90.56 16 101.12 16 112 C10.72 112 5.44 112 0 112 C0 106.72 0 101.44 0 96 C-5.28 96 -10.56 96 -16 96 C-16 90.72 -16 85.44 -16 80 C-10.72 80 -5.44 80 0 80 C0 74.72 0 69.44 0 64 C5.28 64 10.56 64 16 64 C16 58.72 16 53.44 16 48 C10.72 48 5.44 48 0 48 C0 42.72 0 37.44 0 32 C5.28 32 10.56 32 16 32 C16 26.72 16 21.44 16 16 C10.72 16 5.44 16 0 16 C0 10.72 0 5.44 0 0 Z " fill="#000690" transform="translate(256,336)"/>
<path d="M0 0 C5.28 0 10.56 0 16 0 C16 26.4 16 52.8 16 80 C-20.96 80 -57.92 80 -96 80 C-96 74.72 -96 69.44 -96 64 C-64.32 64 -32.64 64 0 64 C0 42.88 0 21.76 0 0 Z " fill="#000690" transform="translate(176,16)"/>
<path d="M0 0 C42.24 0 84.48 0 128 0 C128 5.28 128 10.56 128 16 C91.04 16 54.08 16 16 16 C16 26.56 16 37.12 16 48 C10.72 48 5.44 48 0 48 C0 32.16 0 16.32 0 0 Z " fill="#FFDDDF" transform="translate(352,448)"/>
<path d="M0 0 C31.68 0 63.36 0 96 0 C96 5.28 96 10.56 96 16 C69.6 16 43.2 16 16 16 C16 37.12 16 58.24 16 80 C10.72 80 5.44 80 0 80 C0 53.6 0 27.2 0 0 Z " fill="#DF3CF0" transform="translate(368,336)"/>
<path d="M0 0 C42.24 0 84.48 0 128 0 C128 5.28 128 10.56 128 16 C91.04 16 54.08 16 16 16 C16 26.56 16 37.12 16 48 C10.72 48 5.44 48 0 48 C0 32.16 0 16.32 0 0 Z " fill="#FFDDDF" transform="translate(64,112)"/>
<path d="M0 0 C31.68 0 63.36 0 96 0 C96 5.28 96 10.56 96 16 C69.6 16 43.2 16 16 16 C16 37.12 16 58.24 16 80 C10.72 80 5.44 80 0 80 C0 53.6 0 27.2 0 0 Z " fill="#DF3CF0" transform="translate(288,80)"/>
<path d="M0 0 C31.68 0 63.36 0 96 0 C96 5.28 96 10.56 96 16 C69.6 16 43.2 16 16 16 C16 37.12 16 58.24 16 80 C10.72 80 5.44 80 0 80 C0 53.6 0 27.2 0 0 Z " fill="#DF3CF0" transform="translate(80,0)"/>
<path d="M0 0 C10.56 0 21.12 0 32 0 C32 15.84 32 31.68 32 48 C26.72 48 21.44 48 16 48 C16 53.28 16 58.56 16 64 C10.72 64 5.44 64 0 64 C0 58.72 0 53.44 0 48 C-5.28 48 -10.56 48 -16 48 C-16 37.44 -16 26.88 -16 16 C-10.72 16 -5.44 16 0 16 C0 10.72 0 5.44 0 0 Z " fill="#000690" transform="translate(48,272)"/>
<path d="M0 0 C5.28 0 10.56 0 16 0 C16 5.28 16 10.56 16 16 C42.4 16 68.8 16 96 16 C96 21.28 96 26.56 96 32 C59.04 32 22.08 32 -16 32 C-16 26.72 -16 21.44 -16 16 C-10.72 16 -5.44 16 0 16 C0 10.72 0 5.44 0 0 Z " fill="#000690" transform="translate(240,448)"/>
<path d="M0 0 C5.28 0 10.56 0 16 0 C16 21.12 16 42.24 16 64 C-10.4 64 -36.8 64 -64 64 C-64 58.72 -64 53.44 -64 48 C-42.88 48 -21.76 48 0 48 C0 32.16 0 16.32 0 0 Z " fill="#55D3F1" transform="translate(448,352)"/>
<path d="M0 0 C10.56 0 21.12 0 32 0 C32 15.84 32 31.68 32 48 C26.72 48 21.44 48 16 48 C16 42.72 16 37.44 16 32 C5.44 32 -5.12 32 -16 32 C-16 37.28 -16 42.56 -16 48 C-21.28 48 -26.56 48 -32 48 C-32 37.44 -32 26.88 -32 16 C-21.44 16 -10.88 16 0 16 C0 10.72 0 5.44 0 0 Z " fill="#000690" transform="translate(64,240)"/>
<path d="M0 0 C5.28 0 10.56 0 16 0 C16 21.12 16 42.24 16 64 C-10.4 64 -36.8 64 -64 64 C-64 58.72 -64 53.44 -64 48 C-42.88 48 -21.76 48 0 48 C0 32.16 0 16.32 0 0 Z " fill="#55D3F1" transform="translate(368,96)"/>
<path d="M0 0 C5.28 0 10.56 0 16 0 C16 21.12 16 42.24 16 64 C-10.4 64 -36.8 64 -64 64 C-64 58.72 -64 53.44 -64 48 C-42.88 48 -21.76 48 0 48 C0 32.16 0 16.32 0 0 Z " fill="#55D3F1" transform="translate(160,16)"/>
<path d="M0 0 C10.56 0 21.12 0 32 0 C32 5.28 32 10.56 32 16 C26.72 16 21.44 16 16 16 C16 21.28 16 26.56 16 32 C21.28 32 26.56 32 32 32 C32 37.28 32 42.56 32 48 C21.44 48 10.88 48 0 48 C0 42.72 0 37.44 0 32 C-5.28 32 -10.56 32 -16 32 C-16 26.72 -16 21.44 -16 16 C-10.72 16 -5.44 16 0 16 C0 10.72 0 5.44 0 0 Z " fill="#3038D6" transform="translate(224,400)"/>
<path d="M0 0 C21.12 0 42.24 0 64 0 C64 5.28 64 10.56 64 16 C48.16 16 32.32 16 16 16 C16 26.56 16 37.12 16 48 C10.72 48 5.44 48 0 48 C0 32.16 0 16.32 0 0 Z " fill="#000690" transform="translate(384,352)"/>
<path d="M0 0 C5.28 0 10.56 0 16 0 C16 31.68 16 63.36 16 96 C10.72 96 5.44 96 0 96 C0 64.32 0 32.64 0 0 Z " fill="#DF3CF0" transform="translate(0,320)"/>
<path d="M0 0 C31.68 0 63.36 0 96 0 C96 5.28 96 10.56 96 16 C64.32 16 32.64 16 0 16 C0 10.72 0 5.44 0 0 Z " fill="#DF3CF0" transform="translate(96,224)"/>
<path d="M0 0 C26.4 0 52.8 0 80 0 C80 5.28 80 10.56 80 16 C58.88 16 37.76 16 16 16 C16 21.28 16 26.56 16 32 C10.72 32 5.44 32 0 32 C0 21.44 0 10.88 0 0 Z " fill="#000690" transform="translate(144,192)"/>
<path d="M0 0 C21.12 0 42.24 0 64 0 C64 5.28 64 10.56 64 16 C48.16 16 32.32 16 16 16 C16 26.56 16 37.12 16 48 C10.72 48 5.44 48 0 48 C0 32.16 0 16.32 0 0 Z " fill="#000690" transform="translate(304,96)"/>
<path d="M0 0 C21.12 0 42.24 0 64 0 C64 5.28 64 10.56 64 16 C48.16 16 32.32 16 16 16 C16 26.56 16 37.12 16 48 C10.72 48 5.44 48 0 48 C0 32.16 0 16.32 0 0 Z " fill="#000690" transform="translate(96,16)"/>
<path d="M0 0 C10.56 0 21.12 0 32 0 C32 5.28 32 10.56 32 16 C26.72 16 21.44 16 16 16 C16 21.28 16 26.56 16 32 C10.72 32 5.44 32 0 32 C0 37.28 0 42.56 0 48 C-5.28 48 -10.56 48 -16 48 C-16 37.44 -16 26.88 -16 16 C-10.72 16 -5.44 16 0 16 C0 10.72 0 5.44 0 0 Z " fill="#3038D6" transform="translate(208,384)"/>
<path d="M0 0 C26.4 0 52.8 0 80 0 C80 5.28 80 10.56 80 16 C53.6 16 27.2 16 0 16 C0 10.72 0 5.44 0 0 Z " fill="#000690" transform="translate(256,272)"/>
<path d="M0 0 C5.28 0 10.56 0 16 0 C16 15.84 16 31.68 16 48 C0.16 48 -15.68 48 -32 48 C-32 42.72 -32 37.44 -32 32 C-21.44 32 -10.88 32 0 32 C0 21.44 0 10.88 0 0 Z " fill="#000690" transform="translate(256,176)"/>
<path d="M0 0 C10.56 0 21.12 0 32 0 C32 15.84 32 31.68 32 48 C26.72 48 21.44 48 16 48 C16 37.44 16 26.88 16 16 C10.72 16 5.44 16 0 16 C0 10.72 0 5.44 0 0 Z " fill="#000690" transform="translate(48,272)"/>
<path d="M0 0 C10.56 0 21.12 0 32 0 C32 10.56 32 21.12 32 32 C21.44 32 10.88 32 0 32 C0 21.44 0 10.88 0 0 Z " fill="#55D3F1" transform="translate(336,256)"/>
<path d="M0 0 C10.56 0 21.12 0 32 0 C32 10.56 32 21.12 32 32 C21.44 32 10.88 32 0 32 C0 21.44 0 10.88 0 0 Z " fill="#55D3F1" transform="translate(448,176)"/>
<path d="M0 0 C10.56 0 21.12 0 32 0 C32 10.56 32 21.12 32 32 C21.44 32 10.88 32 0 32 C0 21.44 0 10.88 0 0 Z " fill="#55D3F1" transform="translate(224,176)"/>
<path d="M0 0 C15.84 0 31.68 0 48 0 C48 5.28 48 10.56 48 16 C32.16 16 16.32 16 0 16 C0 10.72 0 5.44 0 0 Z " fill="#000690" transform="translate(144,496)"/>
<path d="M0 0 C15.84 0 31.68 0 48 0 C48 5.28 48 10.56 48 16 C32.16 16 16.32 16 0 16 C0 10.72 0 5.44 0 0 Z " fill="#9720F1" transform="translate(96,496)"/>
<path d="M0 0 C5.28 0 10.56 0 16 0 C16 5.28 16 10.56 16 16 C21.28 16 26.56 16 32 16 C32 21.28 32 26.56 32 32 C21.44 32 10.88 32 0 32 C0 21.44 0 10.88 0 0 Z " fill="#000690" transform="translate(192,464)"/>
<path d="M0 0 C5.28 0 10.56 0 16 0 C16 5.28 16 10.56 16 16 C21.28 16 26.56 16 32 16 C32 21.28 32 26.56 32 32 C21.44 32 10.88 32 0 32 C0 21.44 0 10.88 0 0 Z " fill="#9720F1" transform="translate(32,448)"/>
<path d="M0 0 C5.28 0 10.56 0 16 0 C16 5.28 16 10.56 16 16 C21.28 16 26.56 16 32 16 C32 21.28 32 26.56 32 32 C21.44 32 10.88 32 0 32 C0 21.44 0 10.88 0 0 Z " fill="#0089DA" transform="translate(48,416)"/>
<path d="M0 0 C10.56 0 21.12 0 32 0 C32 10.56 32 21.12 32 32 C26.72 32 21.44 32 16 32 C16 26.72 16 21.44 16 16 C10.72 16 5.44 16 0 16 C0 10.72 0 5.44 0 0 Z " fill="#9720F1" transform="translate(224,256)"/>
<path d="M0 0 C10.56 0 21.12 0 32 0 C32 5.28 32 10.56 32 16 C26.72 16 21.44 16 16 16 C16 21.28 16 26.56 16 32 C10.72 32 5.44 32 0 32 C0 21.44 0 10.88 0 0 Z " fill="#DF3CF0" transform="translate(32,256)"/>
<path d="M0 0 C15.84 0 31.68 0 48 0 C48 5.28 48 10.56 48 16 C32.16 16 16.32 16 0 16 C0 10.72 0 5.44 0 0 Z " fill="#55D3F1" transform="translate(432,128)"/>
<path d="M0 0 C15.84 0 31.68 0 48 0 C48 5.28 48 10.56 48 16 C32.16 16 16.32 16 0 16 C0 10.72 0 5.44 0 0 Z " fill="#000690" transform="translate(432,32)"/>
<path d="M0 0 C10.56 0 21.12 0 32 0 C32 5.28 32 10.56 32 16 C21.44 16 10.88 16 0 16 C0 10.72 0 5.44 0 0 Z " fill="#9720F1" transform="translate(64,480)"/>
<path d="M0 0 C10.56 0 21.12 0 32 0 C32 5.28 32 10.56 32 16 C21.44 16 10.88 16 0 16 C0 10.72 0 5.44 0 0 Z " fill="#0089DA" transform="translate(80,432)"/>
<path d="M0 0 C5.28 0 10.56 0 16 0 C16 10.56 16 21.12 16 32 C10.72 32 5.44 32 0 32 C0 21.44 0 10.88 0 0 Z " fill="#DF3CF0" transform="translate(16,416)"/>
<path d="M0 0 C10.56 0 21.12 0 32 0 C32 5.28 32 10.56 32 16 C21.44 16 10.88 16 0 16 C0 10.72 0 5.44 0 0 Z " fill="#3038D6" transform="translate(208,384)"/>
<path d="M0 0 C10.56 0 21.12 0 32 0 C32 5.28 32 10.56 32 16 C21.44 16 10.88 16 0 16 C0 10.72 0 5.44 0 0 Z " fill="#9720F1" transform="translate(432,336)"/>
<path d="M0 0 C10.56 0 21.12 0 32 0 C32 5.28 32 10.56 32 16 C21.44 16 10.88 16 0 16 C0 10.72 0 5.44 0 0 Z " fill="#3038D6" transform="translate(112,288)"/>
<path d="M0 0 C5.28 0 10.56 0 16 0 C16 10.56 16 21.12 16 32 C10.72 32 5.44 32 0 32 C0 21.44 0 10.88 0 0 Z " fill="#DF3CF0" transform="translate(16,288)"/>
<path d="M0 0 C10.56 0 21.12 0 32 0 C32 5.28 32 10.56 32 16 C21.44 16 10.88 16 0 16 C0 10.72 0 5.44 0 0 Z " fill="#9720F1" transform="translate(192,240)"/>
<path d="M0 0 C10.56 0 21.12 0 32 0 C32 5.28 32 10.56 32 16 C21.44 16 10.88 16 0 16 C0 10.72 0 5.44 0 0 Z " fill="#DF3CF0" transform="translate(64,240)"/>
<path d="M0 0 C10.56 0 21.12 0 32 0 C32 5.28 32 10.56 32 16 C21.44 16 10.88 16 0 16 C0 10.72 0 5.44 0 0 Z " fill="#9720F1" transform="translate(160,224)"/>
<path d="M0 0 C10.56 0 21.12 0 32 0 C32 5.28 32 10.56 32 16 C21.44 16 10.88 16 0 16 C0 10.72 0 5.44 0 0 Z " fill="#9720F1" transform="translate(352,80)"/>
<path d="M0 0 C10.56 0 21.12 0 32 0 C32 5.28 32 10.56 32 16 C21.44 16 10.88 16 0 16 C0 10.72 0 5.44 0 0 Z " fill="#9720F1" transform="translate(144,0)"/>
<path d="M0 0 C5.28 0 10.56 0 16 0 C16 5.28 16 10.56 16 16 C10.72 16 5.44 16 0 16 C0 10.72 0 5.44 0 0 Z " fill="#9720F1" transform="translate(480,480)"/>
<path d="M0 0 C5.28 0 10.56 0 16 0 C16 5.28 16 10.56 16 16 C10.72 16 5.44 16 0 16 C0 10.72 0 5.44 0 0 Z " fill="#0089DA" transform="translate(176,480)"/>
<path d="M0 0 C5.28 0 10.56 0 16 0 C16 5.28 16 10.56 16 16 C10.72 16 5.44 16 0 16 C0 10.72 0 5.44 0 0 Z " fill="#0089DA" transform="translate(96,480)"/>
<path d="M0 0 C5.28 0 10.56 0 16 0 C16 5.28 16 10.56 16 16 C10.72 16 5.44 16 0 16 C0 10.72 0 5.44 0 0 Z " fill="#3038D6" transform="translate(208,464)"/>
<path d="M0 0 C5.28 0 10.56 0 16 0 C16 5.28 16 10.56 16 16 C10.72 16 5.44 16 0 16 C0 10.72 0 5.44 0 0 Z " fill="#3038D6" transform="translate(176,464)"/>
<path d="M0 0 C5.28 0 10.56 0 16 0 C16 5.28 16 10.56 16 16 C10.72 16 5.44 16 0 16 C0 10.72 0 5.44 0 0 Z " fill="#000690" transform="translate(96,464)"/>
<path d="M0 0 C5.28 0 10.56 0 16 0 C16 5.28 16 10.56 16 16 C10.72 16 5.44 16 0 16 C0 10.72 0 5.44 0 0 Z " fill="#3038D6" transform="translate(80,464)"/>
<path d="M0 0 C5.28 0 10.56 0 16 0 C16 5.28 16 10.56 16 16 C10.72 16 5.44 16 0 16 C0 10.72 0 5.44 0 0 Z " fill="#000690" transform="translate(64,464)"/>
<path d="M0 0 C5.28 0 10.56 0 16 0 C16 5.28 16 10.56 16 16 C10.72 16 5.44 16 0 16 C0 10.72 0 5.44 0 0 Z " fill="#9720F1" transform="translate(480,448)"/>
<path d="M0 0 C5.28 0 10.56 0 16 0 C16 5.28 16 10.56 16 16 C10.72 16 5.44 16 0 16 C0 10.72 0 5.44 0 0 Z " fill="#3038D6" transform="translate(224,448)"/>
<path d="M0 0 C5.28 0 10.56 0 16 0 C16 5.28 16 10.56 16 16 C10.72 16 5.44 16 0 16 C0 10.72 0 5.44 0 0 Z " fill="#000690" transform="translate(208,448)"/>
<path d="M0 0 C5.28 0 10.56 0 16 0 C16 5.28 16 10.56 16 16 C10.72 16 5.44 16 0 16 C0 10.72 0 5.44 0 0 Z " fill="#3038D6" transform="translate(192,448)"/>
<path d="M0 0 C5.28 0 10.56 0 16 0 C16 5.28 16 10.56 16 16 C10.72 16 5.44 16 0 16 C0 10.72 0 5.44 0 0 Z " fill="#000690" transform="translate(176,448)"/>
<path d="M0 0 C5.28 0 10.56 0 16 0 C16 5.28 16 10.56 16 16 C10.72 16 5.44 16 0 16 C0 10.72 0 5.44 0 0 Z " fill="#000690" transform="translate(48,448)"/>
<path d="M0 0 C5.28 0 10.56 0 16 0 C16 5.28 16 10.56 16 16 C10.72 16 5.44 16 0 16 C0 10.72 0 5.44 0 0 Z " fill="#3038D6" transform="translate(240,432)"/>
<path d="M0 0 C5.28 0 10.56 0 16 0 C16 5.28 16 10.56 16 16 C10.72 16 5.44 16 0 16 C0 10.72 0 5.44 0 0 Z " fill="#000690" transform="translate(224,432)"/>
<path d="M0 0 C5.28 0 10.56 0 16 0 C16 5.28 16 10.56 16 16 C10.72 16 5.44 16 0 16 C0 10.72 0 5.44 0 0 Z " fill="#3038D6" transform="translate(208,432)"/>
<path d="M0 0 C5.28 0 10.56 0 16 0 C16 5.28 16 10.56 16 16 C10.72 16 5.44 16 0 16 C0 10.72 0 5.44 0 0 Z " fill="#000690" transform="translate(192,432)"/>
<path d="M0 0 C5.28 0 10.56 0 16 0 C16 5.28 16 10.56 16 16 C10.72 16 5.44 16 0 16 C0 10.72 0 5.44 0 0 Z " fill="#3038D6" transform="translate(176,432)"/>
<path d="M0 0 C5.28 0 10.56 0 16 0 C16 5.28 16 10.56 16 16 C10.72 16 5.44 16 0 16 C0 10.72 0 5.44 0 0 Z " fill="#FFDDDF" transform="translate(64,432)"/>
<path d="M0 0 C5.28 0 10.56 0 16 0 C16 5.28 16 10.56 16 16 C10.72 16 5.44 16 0 16 C0 10.72 0 5.44 0 0 Z " fill="#000690" transform="translate(32,432)"/>
<path d="M0 0 C5.28 0 10.56 0 16 0 C16 5.28 16 10.56 16 16 C10.72 16 5.44 16 0 16 C0 10.72 0 5.44 0 0 Z " fill="#000690" transform="translate(208,416)"/>
<path d="M0 0 C5.28 0 10.56 0 16 0 C16 5.28 16 10.56 16 16 C10.72 16 5.44 16 0 16 C0 10.72 0 5.44 0 0 Z " fill="#3038D6" transform="translate(192,416)"/>
<path d="M0 0 C5.28 0 10.56 0 16 0 C16 5.28 16 10.56 16 16 C10.72 16 5.44 16 0 16 C0 10.72 0 5.44 0 0 Z " fill="#0089DA" transform="translate(160,416)"/>
<path d="M0 0 C5.28 0 10.56 0 16 0 C16 5.28 16 10.56 16 16 C10.72 16 5.44 16 0 16 C0 10.72 0 5.44 0 0 Z " fill="#0089DA" transform="translate(112,416)"/>
<path d="M0 0 C5.28 0 10.56 0 16 0 C16 5.28 16 10.56 16 16 C10.72 16 5.44 16 0 16 C0 10.72 0 5.44 0 0 Z " fill="#3038D6" transform="translate(96,416)"/>
<path d="M0 0 C5.28 0 10.56 0 16 0 C16 5.28 16 10.56 16 16 C10.72 16 5.44 16 0 16 C0 10.72 0 5.44 0 0 Z " fill="#000690" transform="translate(80,416)"/>
<path d="M0 0 C5.28 0 10.56 0 16 0 C16 5.28 16 10.56 16 16 C10.72 16 5.44 16 0 16 C0 10.72 0 5.44 0 0 Z " fill="#3038D6" transform="translate(64,416)"/>
<path d="M0 0 C5.28 0 10.56 0 16 0 C16 5.28 16 10.56 16 16 C10.72 16 5.44 16 0 16 C0 10.72 0 5.44 0 0 Z " fill="#FFDDDF" transform="translate(48,416)"/>
<path d="M0 0 C5.28 0 10.56 0 16 0 C16 5.28 16 10.56 16 16 C10.72 16 5.44 16 0 16 C0 10.72 0 5.44 0 0 Z " fill="#3038D6" transform="translate(32,416)"/>
<path d="M0 0 C5.28 0 10.56 0 16 0 C16 5.28 16 10.56 16 16 C10.72 16 5.44 16 0 16 C0 10.72 0 5.44 0 0 Z " fill="#9720F1" transform="translate(16,416)"/>
<path d="M0 0 C5.28 0 10.56 0 16 0 C16 5.28 16 10.56 16 16 C10.72 16 5.44 16 0 16 C0 10.72 0 5.44 0 0 Z " fill="#000690" transform="translate(224,400)"/>
<path d="M0 0 C5.28 0 10.56 0 16 0 C16 5.28 16 10.56 16 16 C10.72 16 5.44 16 0 16 C0 10.72 0 5.44 0 0 Z " fill="#0089DA" transform="translate(192,400)"/>
<path d="M0 0 C5.28 0 10.56 0 16 0 C16 5.28 16 10.56 16 16 C10.72 16 5.44 16 0 16 C0 10.72 0 5.44 0 0 Z " fill="#0089DA" transform="translate(80,400)"/>
<path d="M0 0 C5.28 0 10.56 0 16 0 C16 5.28 16 10.56 16 16 C10.72 16 5.44 16 0 16 C0 10.72 0 5.44 0 0 Z " fill="#000690" transform="translate(64,400)"/>
<path d="M0 0 C5.28 0 10.56 0 16 0 C16 5.28 16 10.56 16 16 C10.72 16 5.44 16 0 16 C0 10.72 0 5.44 0 0 Z " fill="#3038D6" transform="translate(48,400)"/>
<path d="M0 0 C5.28 0 10.56 0 16 0 C16 5.28 16 10.56 16 16 C10.72 16 5.44 16 0 16 C0 10.72 0 5.44 0 0 Z " fill="#000690" transform="translate(32,400)"/>
<path d="M0 0 C5.28 0 10.56 0 16 0 C16 5.28 16 10.56 16 16 C10.72 16 5.44 16 0 16 C0 10.72 0 5.44 0 0 Z " fill="#3038D6" transform="translate(16,400)"/>
<path d="M0 0 C5.28 0 10.56 0 16 0 C16 5.28 16 10.56 16 16 C10.72 16 5.44 16 0 16 C0 10.72 0 5.44 0 0 Z " fill="#3038D6" transform="translate(256,384)"/>
<path d="M0 0 C5.28 0 10.56 0 16 0 C16 5.28 16 10.56 16 16 C10.72 16 5.44 16 0 16 C0 10.72 0 5.44 0 0 Z " fill="#000690" transform="translate(240,384)"/>
<path d="M0 0 C5.28 0 10.56 0 16 0 C16 5.28 16 10.56 16 16 C10.72 16 5.44 16 0 16 C0 10.72 0 5.44 0 0 Z " fill="#0089DA" transform="translate(208,384)"/>
<path d="M0 0 C5.28 0 10.56 0 16 0 C16 5.28 16 10.56 16 16 C10.72 16 5.44 16 0 16 C0 10.72 0 5.44 0 0 Z " fill="#0089DA" transform="translate(64,384)"/>
<path d="M0 0 C5.28 0 10.56 0 16 0 C16 5.28 16 10.56 16 16 C10.72 16 5.44 16 0 16 C0 10.72 0 5.44 0 0 Z " fill="#000690" transform="translate(48,384)"/>
<path d="M0 0 C5.28 0 10.56 0 16 0 C16 5.28 16 10.56 16 16 C10.72 16 5.44 16 0 16 C0 10.72 0 5.44 0 0 Z " fill="#3038D6" transform="translate(32,384)"/>
<path d="M0 0 C5.28 0 10.56 0 16 0 C16 5.28 16 10.56 16 16 C10.72 16 5.44 16 0 16 C0 10.72 0 5.44 0 0 Z " fill="#000690" transform="translate(16,384)"/>
<path d="M0 0 C5.28 0 10.56 0 16 0 C16 5.28 16 10.56 16 16 C10.72 16 5.44 16 0 16 C0 10.72 0 5.44 0 0 Z " fill="#FFDDDF" transform="translate(400,368)"/>
<path d="M0 0 C5.28 0 10.56 0 16 0 C16 5.28 16 10.56 16 16 C10.72 16 5.44 16 0 16 C0 10.72 0 5.44 0 0 Z " fill="#3038D6" transform="translate(240,368)"/>
<path d="M0 0 C5.28 0 10.56 0 16 0 C16 5.28 16 10.56 16 16 C10.72 16 5.44 16 0 16 C0 10.72 0 5.44 0 0 Z " fill="#000690" transform="translate(224,368)"/>
<path d="M0 0 C5.28 0 10.56 0 16 0 C16 5.28 16 10.56 16 16 C10.72 16 5.44 16 0 16 C0 10.72 0 5.44 0 0 Z " fill="#3038D6" transform="translate(48,368)"/>
<path d="M0 0 C5.28 0 10.56 0 16 0 C16 5.28 16 10.56 16 16 C10.72 16 5.44 16 0 16 C0 10.72 0 5.44 0 0 Z " fill="#000690" transform="translate(32,368)"/>
<path d="M0 0 C5.28 0 10.56 0 16 0 C16 5.28 16 10.56 16 16 C10.72 16 5.44 16 0 16 C0 10.72 0 5.44 0 0 Z " fill="#3038D6" transform="translate(16,368)"/>
<path d="M0 0 C5.28 0 10.56 0 16 0 C16 5.28 16 10.56 16 16 C10.72 16 5.44 16 0 16 C0 10.72 0 5.44 0 0 Z " fill="#3038D6" transform="translate(256,352)"/>
<path d="M0 0 C5.28 0 10.56 0 16 0 C16 5.28 16 10.56 16 16 C10.72 16 5.44 16 0 16 C0 10.72 0 5.44 0 0 Z " fill="#000690" transform="translate(240,352)"/>
<path d="M0 0 C5.28 0 10.56 0 16 0 C16 5.28 16 10.56 16 16 C10.72 16 5.44 16 0 16 C0 10.72 0 5.44 0 0 Z " fill="#3038D6" transform="translate(224,352)"/>
<path d="M0 0 C5.28 0 10.56 0 16 0 C16 5.28 16 10.56 16 16 C10.72 16 5.44 16 0 16 C0 10.72 0 5.44 0 0 Z " fill="#000690" transform="translate(48,352)"/>
<path d="M0 0 C5.28 0 10.56 0 16 0 C16 5.28 16 10.56 16 16 C10.72 16 5.44 16 0 16 C0 10.72 0 5.44 0 0 Z " fill="#3038D6" transform="translate(32,352)"/>
<path d="M0 0 C5.28 0 10.56 0 16 0 C16 5.28 16 10.56 16 16 C10.72 16 5.44 16 0 16 C0 10.72 0 5.44 0 0 Z " fill="#000690" transform="translate(16,352)"/>
<path d="M0 0 C5.28 0 10.56 0 16 0 C16 5.28 16 10.56 16 16 C10.72 16 5.44 16 0 16 C0 10.72 0 5.44 0 0 Z " fill="#3038D6" transform="translate(240,336)"/>
<path d="M0 0 C5.28 0 10.56 0 16 0 C16 5.28 16 10.56 16 16 C10.72 16 5.44 16 0 16 C0 10.72 0 5.44 0 0 Z " fill="#000690" transform="translate(224,336)"/>
<path d="M0 0 C5.28 0 10.56 0 16 0 C16 5.28 16 10.56 16 16 C10.72 16 5.44 16 0 16 C0 10.72 0 5.44 0 0 Z " fill="#3038D6" transform="translate(48,336)"/>
<path d="M0 0 C5.28 0 10.56 0 16 0 C16 5.28 16 10.56 16 16 C10.72 16 5.44 16 0 16 C0 10.72 0 5.44 0 0 Z " fill="#000690" transform="translate(32,336)"/>
<path d="M0 0 C5.28 0 10.56 0 16 0 C16 5.28 16 10.56 16 16 C10.72 16 5.44 16 0 16 C0 10.72 0 5.44 0 0 Z " fill="#3038D6" transform="translate(16,336)"/>
<path d="M0 0 C5.28 0 10.56 0 16 0 C16 5.28 16 10.56 16 16 C10.72 16 5.44 16 0 16 C0 10.72 0 5.44 0 0 Z " fill="#9720F1" transform="translate(272,320)"/>
<path d="M0 0 C5.28 0 10.56 0 16 0 C16 5.28 16 10.56 16 16 C10.72 16 5.44 16 0 16 C0 10.72 0 5.44 0 0 Z " fill="#3038D6" transform="translate(256,320)"/>
<path d="M0 0 C5.28 0 10.56 0 16 0 C16 5.28 16 10.56 16 16 C10.72 16 5.44 16 0 16 C0 10.72 0 5.44 0 0 Z " fill="#000690" transform="translate(240,320)"/>
<path d="M0 0 C5.28 0 10.56 0 16 0 C16 5.28 16 10.56 16 16 C10.72 16 5.44 16 0 16 C0 10.72 0 5.44 0 0 Z " fill="#3038D6" transform="translate(224,320)"/>
<path d="M0 0 C5.28 0 10.56 0 16 0 C16 5.28 16 10.56 16 16 C10.72 16 5.44 16 0 16 C0 10.72 0 5.44 0 0 Z " fill="#000690" transform="translate(48,320)"/>
<path d="M0 0 C5.28 0 10.56 0 16 0 C16 5.28 16 10.56 16 16 C10.72 16 5.44 16 0 16 C0 10.72 0 5.44 0 0 Z " fill="#000690" transform="translate(16,320)"/>
<path d="M0 0 C5.28 0 10.56 0 16 0 C16 5.28 16 10.56 16 16 C10.72 16 5.44 16 0 16 C0 10.72 0 5.44 0 0 Z " fill="#000690" transform="translate(256,304)"/>
<path d="M0 0 C5.28 0 10.56 0 16 0 C16 5.28 16 10.56 16 16 C10.72 16 5.44 16 0 16 C0 10.72 0 5.44 0 0 Z " fill="#3038D6" transform="translate(240,304)"/>
<path d="M0 0 C5.28 0 10.56 0 16 0 C16 5.28 16 10.56 16 16 C10.72 16 5.44 16 0 16 C0 10.72 0 5.44 0 0 Z " fill="#000690" transform="translate(224,304)"/>
<path d="M0 0 C5.28 0 10.56 0 16 0 C16 5.28 16 10.56 16 16 C10.72 16 5.44 16 0 16 C0 10.72 0 5.44 0 0 Z " fill="#0089DA" transform="translate(208,304)"/>
<path d="M0 0 C5.28 0 10.56 0 16 0 C16 5.28 16 10.56 16 16 C10.72 16 5.44 16 0 16 C0 10.72 0 5.44 0 0 Z " fill="#0089DA" transform="translate(64,304)"/>
<path d="M0 0 C5.28 0 10.56 0 16 0 C16 5.28 16 10.56 16 16 C10.72 16 5.44 16 0 16 C0 10.72 0 5.44 0 0 Z " fill="#3038D6" transform="translate(48,304)"/>
<path d="M0 0 C5.28 0 10.56 0 16 0 C16 5.28 16 10.56 16 16 C10.72 16 5.44 16 0 16 C0 10.72 0 5.44 0 0 Z " fill="#000690" transform="translate(32,304)"/>
<path d="M0 0 C5.28 0 10.56 0 16 0 C16 5.28 16 10.56 16 16 C10.72 16 5.44 16 0 16 C0 10.72 0 5.44 0 0 Z " fill="#9720F1" transform="translate(256,288)"/>
<path d="M0 0 C5.28 0 10.56 0 16 0 C16 5.28 16 10.56 16 16 C10.72 16 5.44 16 0 16 C0 10.72 0 5.44 0 0 Z " fill="#000690" transform="translate(240,288)"/>
<path d="M0 0 C5.28 0 10.56 0 16 0 C16 5.28 16 10.56 16 16 C10.72 16 5.44 16 0 16 C0 10.72 0 5.44 0 0 Z " fill="#3038D6" transform="translate(224,288)"/>
<path d="M0 0 C5.28 0 10.56 0 16 0 C16 5.28 16 10.56 16 16 C10.72 16 5.44 16 0 16 C0 10.72 0 5.44 0 0 Z " fill="#000690" transform="translate(208,288)"/>
<path d="M0 0 C5.28 0 10.56 0 16 0 C16 5.28 16 10.56 16 16 C10.72 16 5.44 16 0 16 C0 10.72 0 5.44 0 0 Z " fill="#0089DA" transform="translate(160,288)"/>
<path d="M0 0 C5.28 0 10.56 0 16 0 C16 5.28 16 10.56 16 16 C10.72 16 5.44 16 0 16 C0 10.72 0 5.44 0 0 Z " fill="#000690" transform="translate(144,288)"/>
<path d="M0 0 C5.28 0 10.56 0 16 0 C16 5.28 16 10.56 16 16 C10.72 16 5.44 16 0 16 C0 10.72 0 5.44 0 0 Z " fill="#0089DA" transform="translate(112,288)"/>
<path d="M0 0 C5.28 0 10.56 0 16 0 C16 5.28 16 10.56 16 16 C10.72 16 5.44 16 0 16 C0 10.72 0 5.44 0 0 Z " fill="#3038D6" transform="translate(64,288)"/>
<path d="M0 0 C5.28 0 10.56 0 16 0 C16 5.28 16 10.56 16 16 C10.72 16 5.44 16 0 16 C0 10.72 0 5.44 0 0 Z " fill="#3038D6" transform="translate(32,288)"/>
<path d="M0 0 C5.28 0 10.56 0 16 0 C16 5.28 16 10.56 16 16 C10.72 16 5.44 16 0 16 C0 10.72 0 5.44 0 0 Z " fill="#9720F1" transform="translate(352,272)"/>
<path d="M0 0 C5.28 0 10.56 0 16 0 C16 5.28 16 10.56 16 16 C10.72 16 5.44 16 0 16 C0 10.72 0 5.44 0 0 Z " fill="#000690" transform="translate(224,272)"/>
<path d="M0 0 C5.28 0 10.56 0 16 0 C16 5.28 16 10.56 16 16 C10.72 16 5.44 16 0 16 C0 10.72 0 5.44 0 0 Z " fill="#3038D6" transform="translate(208,272)"/>
<path d="M0 0 C5.28 0 10.56 0 16 0 C16 5.28 16 10.56 16 16 C10.72 16 5.44 16 0 16 C0 10.72 0 5.44 0 0 Z " fill="#000690" transform="translate(192,272)"/>
<path d="M0 0 C5.28 0 10.56 0 16 0 C16 5.28 16 10.56 16 16 C10.72 16 5.44 16 0 16 C0 10.72 0 5.44 0 0 Z " fill="#3038D6" transform="translate(176,272)"/>
<path d="M0 0 C5.28 0 10.56 0 16 0 C16 5.28 16 10.56 16 16 C10.72 16 5.44 16 0 16 C0 10.72 0 5.44 0 0 Z " fill="#000690" transform="translate(160,272)"/>
<path d="M0 0 C5.28 0 10.56 0 16 0 C16 5.28 16 10.56 16 16 C10.72 16 5.44 16 0 16 C0 10.72 0 5.44 0 0 Z " fill="#3038D6" transform="translate(144,272)"/>
<path d="M0 0 C5.28 0 10.56 0 16 0 C16 5.28 16 10.56 16 16 C10.72 16 5.44 16 0 16 C0 10.72 0 5.44 0 0 Z " fill="#000690" transform="translate(128,272)"/>
<path d="M0 0 C5.28 0 10.56 0 16 0 C16 5.28 16 10.56 16 16 C10.72 16 5.44 16 0 16 C0 10.72 0 5.44 0 0 Z " fill="#3038D6" transform="translate(112,272)"/>
<path d="M0 0 C5.28 0 10.56 0 16 0 C16 5.28 16 10.56 16 16 C10.72 16 5.44 16 0 16 C0 10.72 0 5.44 0 0 Z " fill="#000690" transform="translate(96,272)"/>
<path d="M0 0 C5.28 0 10.56 0 16 0 C16 5.28 16 10.56 16 16 C10.72 16 5.44 16 0 16 C0 10.72 0 5.44 0 0 Z " fill="#3038D6" transform="translate(80,272)"/>
<path d="M0 0 C5.28 0 10.56 0 16 0 C16 5.28 16 10.56 16 16 C10.72 16 5.44 16 0 16 C0 10.72 0 5.44 0 0 Z " fill="#3038D6" transform="translate(48,272)"/>
<path d="M0 0 C5.28 0 10.56 0 16 0 C16 5.28 16 10.56 16 16 C10.72 16 5.44 16 0 16 C0 10.72 0 5.44 0 0 Z " fill="#000690" transform="translate(208,256)"/>
<path d="M0 0 C5.28 0 10.56 0 16 0 C16 5.28 16 10.56 16 16 C10.72 16 5.44 16 0 16 C0 10.72 0 5.44 0 0 Z " fill="#3038D6" transform="translate(192,256)"/>
<path d="M0 0 C5.28 0 10.56 0 16 0 C16 5.28 16 10.56 16 16 C10.72 16 5.44 16 0 16 C0 10.72 0 5.44 0 0 Z " fill="#000690" transform="translate(176,256)"/>
<path d="M0 0 C5.28 0 10.56 0 16 0 C16 5.28 16 10.56 16 16 C10.72 16 5.44 16 0 16 C0 10.72 0 5.44 0 0 Z " fill="#3038D6" transform="translate(160,256)"/>
<path d="M0 0 C5.28 0 10.56 0 16 0 C16 5.28 16 10.56 16 16 C10.72 16 5.44 16 0 16 C0 10.72 0 5.44 0 0 Z " fill="#000690" transform="translate(144,256)"/>
<path d="M0 0 C5.28 0 10.56 0 16 0 C16 5.28 16 10.56 16 16 C10.72 16 5.44 16 0 16 C0 10.72 0 5.44 0 0 Z " fill="#3038D6" transform="translate(128,256)"/>
<path d="M0 0 C5.28 0 10.56 0 16 0 C16 5.28 16 10.56 16 16 C10.72 16 5.44 16 0 16 C0 10.72 0 5.44 0 0 Z " fill="#000690" transform="translate(112,256)"/>
<path d="M0 0 C5.28 0 10.56 0 16 0 C16 5.28 16 10.56 16 16 C10.72 16 5.44 16 0 16 C0 10.72 0 5.44 0 0 Z " fill="#3038D6" transform="translate(96,256)"/>
<path d="M0 0 C5.28 0 10.56 0 16 0 C16 5.28 16 10.56 16 16 C10.72 16 5.44 16 0 16 C0 10.72 0 5.44 0 0 Z " fill="#3038D6" transform="translate(64,256)"/>
<path d="M0 0 C5.28 0 10.56 0 16 0 C16 5.28 16 10.56 16 16 C10.72 16 5.44 16 0 16 C0 10.72 0 5.44 0 0 Z " fill="#3038D6" transform="translate(176,240)"/>
<path d="M0 0 C5.28 0 10.56 0 16 0 C16 5.28 16 10.56 16 16 C10.72 16 5.44 16 0 16 C0 10.72 0 5.44 0 0 Z " fill="#000690" transform="translate(160,240)"/>
<path d="M0 0 C5.28 0 10.56 0 16 0 C16 5.28 16 10.56 16 16 C10.72 16 5.44 16 0 16 C0 10.72 0 5.44 0 0 Z " fill="#3038D6" transform="translate(144,240)"/>
<path d="M0 0 C5.28 0 10.56 0 16 0 C16 5.28 16 10.56 16 16 C10.72 16 5.44 16 0 16 C0 10.72 0 5.44 0 0 Z " fill="#000690" transform="translate(128,240)"/>
<path d="M0 0 C5.28 0 10.56 0 16 0 C16 5.28 16 10.56 16 16 C10.72 16 5.44 16 0 16 C0 10.72 0 5.44 0 0 Z " fill="#000690" transform="translate(96,240)"/>
<path d="M0 0 C5.28 0 10.56 0 16 0 C16 5.28 16 10.56 16 16 C10.72 16 5.44 16 0 16 C0 10.72 0 5.44 0 0 Z " fill="#9720F1" transform="translate(464,192)"/>
<path d="M0 0 C5.28 0 10.56 0 16 0 C16 5.28 16 10.56 16 16 C10.72 16 5.44 16 0 16 C0 10.72 0 5.44 0 0 Z " fill="#9720F1" transform="translate(240,192)"/>
<path d="M0 0 C5.28 0 10.56 0 16 0 C16 5.28 16 10.56 16 16 C10.72 16 5.44 16 0 16 C0 10.72 0 5.44 0 0 Z " fill="#9720F1" transform="translate(192,144)"/>
<path d="M0 0 C5.28 0 10.56 0 16 0 C16 5.28 16 10.56 16 16 C10.72 16 5.44 16 0 16 C0 10.72 0 5.44 0 0 Z " fill="#FFDDDF" transform="translate(320,112)"/>
<path d="M0 0 C5.28 0 10.56 0 16 0 C16 5.28 16 10.56 16 16 C10.72 16 5.44 16 0 16 C0 10.72 0 5.44 0 0 Z " fill="#9720F1" transform="translate(192,112)"/>
<path d="M0 0 C5.28 0 10.56 0 16 0 C16 5.28 16 10.56 16 16 C10.72 16 5.44 16 0 16 C0 10.72 0 5.44 0 0 Z " fill="#FFDDDF" transform="translate(112,32)"/>
</svg>
