<?xml version="1.0" encoding="UTF-8"?>
<svg version="1.1" xmlns="http://www.w3.org/2000/svg" width="512" height="512">
<path d="M0 0 C5.28 0 10.56 0 16 0 C16 5.28 16 10.56 16 16 C21.28 16 26.56 16 32 16 C32 21.28 32 26.56 32 32 C37.28 32 42.56 32 48 32 C48 42.56 48 53.12 48 64 C53.28 64 58.56 64 64 64 C64 58.72 64 53.44 64 48 C79.84 48 95.68 48 112 48 C112 53.28 112 58.56 112 64 C122.56 64 133.12 64 144 64 C144 69.28 144 74.56 144 80 C154.56 80 165.12 80 176 80 C176 85.28 176 90.56 176 96 C186.56 96 197.12 96 208 96 C208 101.28 208 106.56 208 112 C218.56 112 229.12 112 240 112 C240 127.84 240 143.68 240 160 C234.72 160 229.44 160 224 160 C224 170.56 224 181.12 224 192 C218.72 192 213.44 192 208 192 C208 202.56 208 213.12 208 224 C202.72 224 197.44 224 192 224 C192 234.56 192 245.12 192 256 C197.28 256 202.56 256 208 256 C208 261.28 208 266.56 208 272 C223.84 272 239.68 272 256 272 C256 308.96 256 345.92 256 384 C250.72 384 245.44 384 240 384 C240 394.56 240 405.12 240 416 C234.72 416 229.44 416 224 416 C224 426.56 224 437.12 224 448 C218.72 448 213.44 448 208 448 C208 458.56 208 469.12 208 480 C202.72 480 197.44 480 192 480 C192 490.56 192 501.12 192 512 C44.16 512 -103.68 512 -256 512 C-256 485.6 -256 459.2 -256 432 C-250.72 432 -245.44 432 -240 432 C-240 421.44 -240 410.88 -240 400 C-234.72 400 -229.44 400 -224 400 C-224 389.44 -224 378.88 -224 368 C-218.72 368 -213.44 368 -208 368 C-208 357.44 -208 346.88 -208 336 C-202.72 336 -197.44 336 -192 336 C-192 325.44 -192 314.88 -192 304 C-186.72 304 -181.44 304 -176 304 C-176 293.44 -176 282.88 -176 272 C-75.68 272 24.64 272 128 272 C128 266.72 128 261.44 128 256 C133.28 256 138.56 256 144 256 C144 245.44 144 234.88 144 224 C149.28 224 154.56 224 160 224 C160 213.44 160 202.88 160 192 C165.28 192 170.56 192 176 192 C176 181.44 176 170.88 176 160 C181.28 160 186.56 160 192 160 C192 154.72 192 149.44 192 144 C186.72 144 181.44 144 176 144 C176 138.72 176 133.44 176 128 C165.44 128 154.88 128 144 128 C144 122.72 144 117.44 144 112 C133.44 112 122.88 112 112 112 C112 106.72 112 101.44 112 96 C101.44 96 90.88 96 80 96 C80 90.72 80 85.44 80 80 C69.44 80 58.88 80 48 80 C48 85.28 48 90.56 48 96 C53.28 96 58.56 96 64 96 C64 101.28 64 106.56 64 112 C69.28 112 74.56 112 80 112 C80 117.28 80 122.56 80 128 C85.28 128 90.56 128 96 128 C96 138.56 96 149.12 96 160 C80.16 160 64.32 160 48 160 C48 165.28 48 170.56 48 176 C42.72 176 37.44 176 32 176 C32 181.28 32 186.56 32 192 C16.16 192 0.32 192 -16 192 C-16 186.72 -16 181.44 -16 176 C-21.28 176 -26.56 176 -32 176 C-32 170.72 -32 165.44 -32 160 C-47.84 160 -63.68 160 -80 160 C-80 149.44 -80 138.88 -80 128 C-74.72 128 -69.44 128 -64 128 C-64 122.72 -64 117.44 -64 112 C-58.72 112 -53.44 112 -48 112 C-48 106.72 -48 101.44 -48 96 C-42.72 96 -37.44 96 -32 96 C-32 74.88 -32 53.76 -32 32 C-26.72 32 -21.44 32 -16 32 C-16 26.72 -16 21.44 -16 16 C-10.72 16 -5.44 16 0 16 C0 10.72 0 5.44 0 0 Z " fill="#3038D6" transform="translate(256,0)"/>
<path d="M0 0 C95.04 0 190.08 0 288 0 C288 5.28 288 10.56 288 16 C293.28 16 298.56 16 304 16 C304 21.28 304 26.56 304 32 C277.6 32 251.2 32 224 32 C224 37.28 224 42.56 224 48 C255.68 48 287.36 48 320 48 C320 58.56 320 69.12 320 80 C325.28 80 330.56 80 336 80 C336 64.16 336 48.32 336 32 C351.84 32 367.68 32 384 32 C384 42.56 384 53.12 384 64 C378.72 64 373.44 64 368 64 C368 74.56 368 85.12 368 96 C362.72 96 357.44 96 352 96 C352 106.56 352 117.12 352 128 C346.72 128 341.44 128 336 128 C336 138.56 336 149.12 336 160 C330.72 160 325.44 160 320 160 C320 165.28 320 170.56 320 176 C188 176 56 176 -80 176 C-80 154.88 -80 133.76 -80 112 C-74.72 112 -69.44 112 -64 112 C-64 101.44 -64 90.88 -64 80 C-58.72 80 -53.44 80 -48 80 C-48 69.44 -48 58.88 -48 48 C-37.44 48 -26.88 48 -16 48 C-16 63.84 -16 79.68 -16 96 C-21.28 96 -26.56 96 -32 96 C-32 106.56 -32 117.12 -32 128 C-26.72 128 -21.44 128 -16 128 C-16 133.28 -16 138.56 -16 144 C26.24 144 68.48 144 112 144 C112 149.28 112 154.56 112 160 C122.56 160 133.12 160 144 160 C144 149.44 144 138.88 144 128 C138.72 128 133.44 128 128 128 C128 122.72 128 117.44 128 112 C122.72 112 117.44 112 112 112 C112 101.44 112 90.88 112 80 C117.28 80 122.56 80 128 80 C128 58.88 128 37.76 128 16 C91.04 16 54.08 16 16 16 C16 21.28 16 26.56 16 32 C10.72 32 5.44 32 0 32 C0 21.44 0 10.88 0 0 Z " fill="#FFB7DE" transform="translate(96,288)"/>
<path d="M0 0 C15.84 0 31.68 0 48 0 C48 36.96 48 73.92 48 112 C42.72 112 37.44 112 32 112 C32 122.56 32 133.12 32 144 C26.72 144 21.44 144 16 144 C16 154.56 16 165.12 16 176 C10.72 176 5.44 176 0 176 C0 186.56 0 197.12 0 208 C-5.28 208 -10.56 208 -16 208 C-16 218.56 -16 229.12 -16 240 C-163.84 240 -311.68 240 -464 240 C-464 213.6 -464 187.2 -464 160 C-458.72 160 -453.44 160 -448 160 C-448 170.56 -448 181.12 -448 192 C-316 192 -184 192 -48 192 C-48 186.72 -48 181.44 -48 176 C-42.72 176 -37.44 176 -32 176 C-32 165.44 -32 154.88 -32 144 C-26.72 144 -21.44 144 -16 144 C-16 133.44 -16 122.88 -16 112 C-10.72 112 -5.44 112 0 112 C0 101.44 0 90.88 0 80 C5.28 80 10.56 80 16 80 C16 69.44 16 58.88 16 48 C0.16 48 -15.68 48 -32 48 C-32 63.84 -32 79.68 -32 96 C-37.28 96 -42.56 96 -48 96 C-48 85.44 -48 74.88 -48 64 C-79.68 64 -111.36 64 -144 64 C-144 58.72 -144 53.44 -144 48 C-117.6 48 -91.2 48 -64 48 C-64 42.72 -64 37.44 -64 32 C-42.88 32 -21.76 32 0 32 C0 21.44 0 10.88 0 0 Z " fill="#9720F1" transform="translate(464,272)"/>
<path d="M0 0 C100.32 0 200.64 0 304 0 C304 5.28 304 10.56 304 16 C208.96 16 113.92 16 16 16 C16 26.56 16 37.12 16 48 C21.28 48 26.56 48 32 48 C32 42.72 32 37.44 32 32 C68.96 32 105.92 32 144 32 C144 53.12 144 74.24 144 96 C138.72 96 133.44 96 128 96 C128 106.56 128 117.12 128 128 C133.28 128 138.56 128 144 128 C144 133.28 144 138.56 144 144 C149.28 144 154.56 144 160 144 C160 154.56 160 165.12 160 176 C149.44 176 138.88 176 128 176 C128 170.72 128 165.44 128 160 C85.76 160 43.52 160 0 160 C0 154.72 0 149.44 0 144 C-5.28 144 -10.56 144 -16 144 C-16 133.44 -16 122.88 -16 112 C-10.72 112 -5.44 112 0 112 C0 96.16 0 80.32 0 64 C-5.28 64 -10.56 64 -16 64 C-16 53.44 -16 42.88 -16 32 C-10.72 32 -5.44 32 0 32 C0 21.44 0 10.88 0 0 Z " fill="#FFDDDF" transform="translate(80,272)"/>
<path d="M0 0 C10.56 0 21.12 0 32 0 C32 15.84 32 31.68 32 48 C26.72 48 21.44 48 16 48 C16 58.56 16 69.12 16 80 C21.28 80 26.56 80 32 80 C32 85.28 32 90.56 32 96 C74.24 96 116.48 96 160 96 C160 101.28 160 106.56 160 112 C228.64 112 297.28 112 368 112 C368 117.28 368 122.56 368 128 C236 128 104 128 -32 128 C-32 106.88 -32 85.76 -32 64 C-26.72 64 -21.44 64 -16 64 C-16 53.44 -16 42.88 -16 32 C-10.72 32 -5.44 32 0 32 C0 21.44 0 10.88 0 0 Z " fill="#FFB7DE" transform="translate(48,336)"/>
<path d="M0 0 C36.96 0 73.92 0 112 0 C112 21.12 112 42.24 112 64 C106.72 64 101.44 64 96 64 C96 74.56 96 85.12 96 96 C101.28 96 106.56 96 112 96 C112 101.28 112 106.56 112 112 C117.28 112 122.56 112 128 112 C128 122.56 128 133.12 128 144 C117.44 144 106.88 144 96 144 C96 138.72 96 133.44 96 128 C53.76 128 11.52 128 -32 128 C-32 122.72 -32 117.44 -32 112 C-37.28 112 -42.56 112 -48 112 C-48 101.44 -48 90.88 -48 80 C-42.72 80 -37.44 80 -32 80 C-32 85.28 -32 90.56 -32 96 C-5.6 96 20.8 96 48 96 C48 90.72 48 85.44 48 80 C42.72 80 37.44 80 32 80 C32 74.72 32 69.44 32 64 C26.72 64 21.44 64 16 64 C16 53.44 16 42.88 16 32 C26.56 32 37.12 32 48 32 C48 37.28 48 42.56 48 48 C53.28 48 58.56 48 64 48 C64 53.28 64 58.56 64 64 C69.28 64 74.56 64 80 64 C80 53.44 80 42.88 80 32 C85.28 32 90.56 32 96 32 C96 26.72 96 21.44 96 16 C64.32 16 32.64 16 0 16 C0 10.72 0 5.44 0 0 Z " fill="#9720F1" transform="translate(112,304)"/>
<path d="M0 0 C10.56 0 21.12 0 32 0 C32 15.84 32 31.68 32 48 C26.72 48 21.44 48 16 48 C16 58.56 16 69.12 16 80 C10.72 80 5.44 80 0 80 C0 90.56 0 101.12 0 112 C-5.28 112 -10.56 112 -16 112 C-16 122.56 -16 133.12 -16 144 C-10.72 144 -5.44 144 0 144 C0 159.84 0 175.68 0 192 C-26.4 192 -52.8 192 -80 192 C-80 176.16 -80 160.32 -80 144 C-74.72 144 -69.44 144 -64 144 C-64 133.44 -64 122.88 -64 112 C-58.72 112 -53.44 112 -48 112 C-48 101.44 -48 90.88 -48 80 C-42.72 80 -37.44 80 -32 80 C-32 69.44 -32 58.88 -32 48 C-26.72 48 -21.44 48 -16 48 C-16 42.72 -16 37.44 -16 32 C-21.28 32 -26.56 32 -32 32 C-32 26.72 -32 21.44 -32 16 C-21.44 16 -10.88 16 0 16 C0 10.72 0 5.44 0 0 Z " fill="#146AF1" transform="translate(464,112)"/>
<path d="M0 0 C5.28 0 10.56 0 16 0 C16 26.4 16 52.8 16 80 C10.72 80 5.44 80 0 80 C0 85.28 0 90.56 0 96 C-5.28 96 -10.56 96 -16 96 C-16 101.28 -16 106.56 -16 112 C10.4 112 36.8 112 64 112 C64 106.72 64 101.44 64 96 C69.28 96 74.56 96 80 96 C80 85.44 80 74.88 80 64 C85.28 64 90.56 64 96 64 C96 69.28 96 74.56 96 80 C101.28 80 106.56 80 112 80 C112 85.28 112 90.56 112 96 C117.28 96 122.56 96 128 96 C128 106.56 128 117.12 128 128 C112.16 128 96.32 128 80 128 C80 133.28 80 138.56 80 144 C74.72 144 69.44 144 64 144 C64 149.28 64 154.56 64 160 C48.16 160 32.32 160 16 160 C16 154.72 16 149.44 16 144 C10.72 144 5.44 144 0 144 C0 138.72 0 133.44 0 128 C-15.84 128 -31.68 128 -48 128 C-48 117.44 -48 106.88 -48 96 C-42.72 96 -37.44 96 -32 96 C-32 90.72 -32 85.44 -32 80 C-26.72 80 -21.44 80 -16 80 C-16 74.72 -16 69.44 -16 64 C-10.72 64 -5.44 64 0 64 C0 42.88 0 21.76 0 0 Z " fill="#3038D6" transform="translate(224,32)"/>
<path d="M0 0 C15.84 0 31.68 0 48 0 C48 5.28 48 10.56 48 16 C79.68 16 111.36 16 144 16 C144 26.56 144 37.12 144 48 C138.72 48 133.44 48 128 48 C128 53.28 128 58.56 128 64 C80.48 64 32.96 64 -16 64 C-16 53.44 -16 42.88 -16 32 C-10.72 32 -5.44 32 0 32 C0 21.44 0 10.88 0 0 Z " fill="#FFE294" transform="translate(272,320)"/>
<path d="M0 0 C5.28 0 10.56 0 16 0 C16 10.56 16 21.12 16 32 C-131.84 32 -279.68 32 -432 32 C-432 26.72 -432 21.44 -432 16 C-289.44 16 -146.88 16 0 16 C0 10.72 0 5.44 0 0 Z " fill="#000690" transform="translate(432,480)"/>
<path d="M0 0 C5.28 0 10.56 0 16 0 C16 5.28 16 10.56 16 16 C142.72 16 269.44 16 400 16 C400 21.28 400 26.56 400 32 C268 32 136 32 0 32 C0 21.44 0 10.88 0 0 Z " fill="#FFDDDF" transform="translate(16,432)"/>
<path d="M0 0 C10.56 0 21.12 0 32 0 C32 21.12 32 42.24 32 64 C42.56 64 53.12 64 64 64 C64 74.56 64 85.12 64 96 C58.72 96 53.44 96 48 96 C48 101.28 48 106.56 48 112 C21.6 112 -4.8 112 -32 112 C-32 106.72 -32 101.44 -32 96 C-26.72 96 -21.44 96 -16 96 C-16 90.72 -16 85.44 -16 80 C-10.72 80 -5.44 80 0 80 C0 53.6 0 27.2 0 0 Z " fill="#146AF1" transform="translate(240,32)"/>
<path d="M0 0 C31.68 0 63.36 0 96 0 C96 5.28 96 10.56 96 16 C90.72 16 85.44 16 80 16 C80 26.56 80 37.12 80 48 C74.72 48 69.44 48 64 48 C64 42.72 64 37.44 64 32 C58.72 32 53.44 32 48 32 C48 26.72 48 21.44 48 16 C37.44 16 26.88 16 16 16 C16 26.56 16 37.12 16 48 C21.28 48 26.56 48 32 48 C32 53.28 32 58.56 32 64 C37.28 64 42.56 64 48 64 C48 69.28 48 74.56 48 80 C21.6 80 -4.8 80 -32 80 C-32 74.72 -32 69.44 -32 64 C-26.72 64 -21.44 64 -16 64 C-16 53.44 -16 42.88 -16 32 C-10.72 32 -5.44 32 0 32 C0 21.44 0 10.88 0 0 Z " fill="#FFDDDF" transform="translate(112,320)"/>
<path d="M0 0 C5.28 0 10.56 0 16 0 C16 10.56 16 21.12 16 32 C21.28 32 26.56 32 32 32 C32 21.44 32 10.88 32 0 C37.28 0 42.56 0 48 0 C48 10.56 48 21.12 48 32 C53.28 32 58.56 32 64 32 C64 47.84 64 63.68 64 80 C37.6 80 11.2 80 -16 80 C-16 64.16 -16 48.32 -16 32 C-10.72 32 -5.44 32 0 32 C0 21.44 0 10.88 0 0 Z " fill="#3038D6" transform="translate(400,224)"/>
<path d="M0 0 C36.96 0 73.92 0 112 0 C112 21.12 112 42.24 112 64 C106.72 64 101.44 64 96 64 C96 74.56 96 85.12 96 96 C90.72 96 85.44 96 80 96 C80 90.72 80 85.44 80 80 C74.72 80 69.44 80 64 80 C64 74.72 64 69.44 64 64 C69.28 64 74.56 64 80 64 C80 53.44 80 42.88 80 32 C85.28 32 90.56 32 96 32 C96 26.72 96 21.44 96 16 C64.32 16 32.64 16 0 16 C0 10.72 0 5.44 0 0 Z " fill="#9720F1" transform="translate(112,304)"/>
<path d="M0 0 C73.92 0 147.84 0 224 0 C224 5.28 224 10.56 224 16 C150.08 16 76.16 16 0 16 C0 10.72 0 5.44 0 0 Z " fill="#9720F1" transform="translate(160,272)"/>
<path d="M0 0 C5.28 0 10.56 0 16 0 C16 5.28 16 10.56 16 16 C21.28 16 26.56 16 32 16 C32 21.28 32 26.56 32 32 C37.28 32 42.56 32 48 32 C48 42.56 48 53.12 48 64 C58.56 64 69.12 64 80 64 C80 69.28 80 74.56 80 80 C69.44 80 58.88 80 48 80 C48 85.28 48 90.56 48 96 C37.44 96 26.88 96 16 96 C16 74.88 16 53.76 16 32 C5.44 32 -5.12 32 -16 32 C-16 26.72 -16 21.44 -16 16 C-10.72 16 -5.44 16 0 16 C0 10.72 0 5.44 0 0 Z " fill="#3038D6" transform="translate(256,0)"/>
<path d="M0 0 C10.56 0 21.12 0 32 0 C32 15.84 32 31.68 32 48 C26.72 48 21.44 48 16 48 C16 53.28 16 58.56 16 64 C10.72 64 5.44 64 0 64 C0 74.56 0 85.12 0 96 C-10.56 96 -21.12 96 -32 96 C-32 85.44 -32 74.88 -32 64 C-26.72 64 -21.44 64 -16 64 C-16 53.44 -16 42.88 -16 32 C-10.72 32 -5.44 32 0 32 C0 21.44 0 10.88 0 0 Z " fill="#FFDDDF" transform="translate(48,336)"/>
<path d="M0 0 C5.28 0 10.56 0 16 0 C16 10.56 16 21.12 16 32 C-42.08 32 -100.16 32 -160 32 C-160 26.72 -160 21.44 -160 16 C-107.2 16 -54.4 16 0 16 C0 10.72 0 5.44 0 0 Z " fill="#000690" transform="translate(400,368)"/>
<path d="M0 0 C10.56 0 21.12 0 32 0 C32 15.84 32 31.68 32 48 C26.72 48 21.44 48 16 48 C16 58.56 16 69.12 16 80 C10.72 80 5.44 80 0 80 C0 69.44 0 58.88 0 48 C-5.28 48 -10.56 48 -16 48 C-16 42.72 -16 37.44 -16 32 C-21.28 32 -26.56 32 -32 32 C-32 26.72 -32 21.44 -32 16 C-21.44 16 -10.88 16 0 16 C0 10.72 0 5.44 0 0 Z " fill="#000690" transform="translate(464,112)"/>
<path d="M0 0 C52.8 0 105.6 0 160 0 C160 5.28 160 10.56 160 16 C107.2 16 54.4 16 0 16 C0 10.72 0 5.44 0 0 Z " fill="#9720F1" transform="translate(256,400)"/>
<path d="M0 0 C5.28 0 10.56 0 16 0 C16 36.96 16 73.92 16 112 C0.16 112 -15.68 112 -32 112 C-32 106.72 -32 101.44 -32 96 C-26.72 96 -21.44 96 -16 96 C-16 90.72 -16 85.44 -16 80 C-10.72 80 -5.44 80 0 80 C0 53.6 0 27.2 0 0 Z " fill="#55D3F1" transform="translate(240,32)"/>
<path d="M0 0 C10.56 0 21.12 0 32 0 C32 5.28 32 10.56 32 16 C37.28 16 42.56 16 48 16 C48 26.56 48 37.12 48 48 C53.28 48 58.56 48 64 48 C64 53.28 64 58.56 64 64 C53.44 64 42.88 64 32 64 C32 58.72 32 53.44 32 48 C26.72 48 21.44 48 16 48 C16 42.72 16 37.44 16 32 C10.72 32 5.44 32 0 32 C0 21.44 0 10.88 0 0 Z " fill="#9720F1" transform="translate(128,336)"/>
<path d="M0 0 C5.28 0 10.56 0 16 0 C16 26.4 16 52.8 16 80 C10.72 80 5.44 80 0 80 C0 85.28 0 90.56 0 96 C-5.28 96 -10.56 96 -16 96 C-16 101.28 -16 106.56 -16 112 C-21.28 112 -26.56 112 -32 112 C-32 101.44 -32 90.88 -32 80 C-26.72 80 -21.44 80 -16 80 C-16 74.72 -16 69.44 -16 64 C-10.72 64 -5.44 64 0 64 C0 42.88 0 21.76 0 0 Z " fill="#55D3F1" transform="translate(224,32)"/>
<path d="M0 0 C5.28 0 10.56 0 16 0 C16 5.28 16 10.56 16 16 C47.68 16 79.36 16 112 16 C112 21.28 112 26.56 112 32 C75.04 32 38.08 32 0 32 C0 21.44 0 10.88 0 0 Z " fill="#000690" transform="translate(64,384)"/>
<path d="M0 0 C5.28 0 10.56 0 16 0 C16 36.96 16 73.92 16 112 C10.72 112 5.44 112 0 112 C0 75.04 0 38.08 0 0 Z " fill="#000690" transform="translate(496,272)"/>
<path d="M0 0 C26.4 0 52.8 0 80 0 C80 5.28 80 10.56 80 16 C58.88 16 37.76 16 16 16 C16 21.28 16 26.56 16 32 C10.72 32 5.44 32 0 32 C0 21.44 0 10.88 0 0 Z " fill="#DF3CF0" transform="translate(80,272)"/>
<path d="M0 0 C5.28 0 10.56 0 16 0 C16 15.84 16 31.68 16 48 C-5.12 48 -26.24 48 -48 48 C-48 42.72 -48 37.44 -48 32 C-32.16 32 -16.32 32 0 32 C0 21.44 0 10.88 0 0 Z " fill="#000690" transform="translate(448,256)"/>
<path d="M0 0 C10.56 0 21.12 0 32 0 C32 21.12 32 42.24 32 64 C26.72 64 21.44 64 16 64 C16 53.44 16 42.88 16 32 C10.72 32 5.44 32 0 32 C0 21.44 0 10.88 0 0 Z " fill="#146AF1" transform="translate(432,160)"/>
<path d="M0 0 C5.28 0 10.56 0 16 0 C16 10.56 16 21.12 16 32 C26.56 32 37.12 32 48 32 C48 37.28 48 42.56 48 48 C37.44 48 26.88 48 16 48 C16 53.28 16 58.56 16 64 C10.72 64 5.44 64 0 64 C0 42.88 0 21.76 0 0 Z " fill="#000690" transform="translate(288,32)"/>
<path d="M0 0 C5.28 0 10.56 0 16 0 C16 21.12 16 42.24 16 64 C10.72 64 5.44 64 0 64 C0 58.72 0 53.44 0 48 C-5.28 48 -10.56 48 -16 48 C-16 42.72 -16 37.44 -16 32 C-10.72 32 -5.44 32 0 32 C0 21.44 0 10.88 0 0 Z " fill="#9720F1" transform="translate(192,336)"/>
<path d="M0 0 C5.28 0 10.56 0 16 0 C16 26.4 16 52.8 16 80 C10.72 80 5.44 80 0 80 C0 53.6 0 27.2 0 0 Z " fill="#00FFFF" transform="translate(240,32)"/>
<path d="M0 0 C5.28 0 10.56 0 16 0 C16 21.12 16 42.24 16 64 C10.72 64 5.44 64 0 64 C0 42.88 0 21.76 0 0 Z " fill="#DF3CF0" transform="translate(0,432)"/>
<path d="M0 0 C5.28 0 10.56 0 16 0 C16 10.56 16 21.12 16 32 C0.16 32 -15.68 32 -32 32 C-32 26.72 -32 21.44 -32 16 C-21.44 16 -10.88 16 0 16 C0 10.72 0 5.44 0 0 Z " fill="#000690" transform="translate(336,128)"/>
<path d="M0 0 C5.28 0 10.56 0 16 0 C16 21.12 16 42.24 16 64 C10.72 64 5.44 64 0 64 C0 42.88 0 21.76 0 0 Z " fill="#3038D6" transform="translate(224,32)"/>
<path d="M0 0 C5.28 0 10.56 0 16 0 C16 5.28 16 10.56 16 16 C21.28 16 26.56 16 32 16 C32 21.28 32 26.56 32 32 C16.16 32 0.32 32 -16 32 C-16 26.72 -16 21.44 -16 16 C-10.72 16 -5.44 16 0 16 C0 10.72 0 5.44 0 0 Z " fill="#3038D6" transform="translate(256,0)"/>
<path d="M0 0 C10.56 0 21.12 0 32 0 C32 5.28 32 10.56 32 16 C26.72 16 21.44 16 16 16 C16 21.28 16 26.56 16 32 C10.72 32 5.44 32 0 32 C0 21.44 0 10.88 0 0 Z " fill="#9720F1" transform="translate(128,336)"/>
<path d="M0 0 C5.28 0 10.56 0 16 0 C16 15.84 16 31.68 16 48 C10.72 48 5.44 48 0 48 C0 32.16 0 16.32 0 0 Z " fill="#000690" transform="translate(416,320)"/>
<path d="M0 0 C15.84 0 31.68 0 48 0 C48 5.28 48 10.56 48 16 C32.16 16 16.32 16 0 16 C0 10.72 0 5.44 0 0 Z " fill="#9720F1" transform="translate(272,304)"/>
<path d="M0 0 C15.84 0 31.68 0 48 0 C48 5.28 48 10.56 48 16 C32.16 16 16.32 16 0 16 C0 10.72 0 5.44 0 0 Z " fill="#000690" transform="translate(240,176)"/>
<path d="M0 0 C15.84 0 31.68 0 48 0 C48 5.28 48 10.56 48 16 C32.16 16 16.32 16 0 16 C0 10.72 0 5.44 0 0 Z " fill="#FFE84A" transform="translate(240,160)"/>
<path d="M0 0 C10.56 0 21.12 0 32 0 C32 10.56 32 21.12 32 32 C26.72 32 21.44 32 16 32 C16 26.72 16 21.44 16 16 C10.72 16 5.44 16 0 16 C0 10.72 0 5.44 0 0 Z " fill="#000690" transform="translate(432,128)"/>
<path d="M0 0 C5.28 0 10.56 0 16 0 C16 5.28 16 10.56 16 16 C21.28 16 26.56 16 32 16 C32 21.28 32 26.56 32 32 C21.44 32 10.88 32 0 32 C0 21.44 0 10.88 0 0 Z " fill="#3038D6" transform="translate(304,96)"/>
<path d="M0 0 C5.28 0 10.56 0 16 0 C16 10.56 16 21.12 16 32 C10.72 32 5.44 32 0 32 C0 21.44 0 10.88 0 0 Z " fill="#000690" transform="translate(448,448)"/>
<path d="M0 0 C10.56 0 21.12 0 32 0 C32 5.28 32 10.56 32 16 C21.44 16 10.88 16 0 16 C0 10.72 0 5.44 0 0 Z " fill="#9720F1" transform="translate(208,432)"/>
<path d="M0 0 C5.28 0 10.56 0 16 0 C16 10.56 16 21.12 16 32 C10.72 32 5.44 32 0 32 C0 21.44 0 10.88 0 0 Z " fill="#000690" transform="translate(464,416)"/>
<path d="M0 0 C5.28 0 10.56 0 16 0 C16 10.56 16 21.12 16 32 C10.72 32 5.44 32 0 32 C0 21.44 0 10.88 0 0 Z " fill="#DF3CF0" transform="translate(16,400)"/>
<path d="M0 0 C5.28 0 10.56 0 16 0 C16 10.56 16 21.12 16 32 C10.72 32 5.44 32 0 32 C0 21.44 0 10.88 0 0 Z " fill="#000690" transform="translate(480,384)"/>
<path d="M0 0 C5.28 0 10.56 0 16 0 C16 10.56 16 21.12 16 32 C10.72 32 5.44 32 0 32 C0 21.44 0 10.88 0 0 Z " fill="#9720F1" transform="translate(416,368)"/>
<path d="M0 0 C5.28 0 10.56 0 16 0 C16 10.56 16 21.12 16 32 C10.72 32 5.44 32 0 32 C0 21.44 0 10.88 0 0 Z " fill="#DF3CF0" transform="translate(32,368)"/>
<path d="M0 0 C5.28 0 10.56 0 16 0 C16 10.56 16 21.12 16 32 C10.72 32 5.44 32 0 32 C0 21.44 0 10.88 0 0 Z " fill="#9720F1" transform="translate(240,352)"/>
<path d="M0 0 C5.28 0 10.56 0 16 0 C16 10.56 16 21.12 16 32 C10.72 32 5.44 32 0 32 C0 21.44 0 10.88 0 0 Z " fill="#9720F1" transform="translate(80,352)"/>
<path d="M0 0 C5.28 0 10.56 0 16 0 C16 10.56 16 21.12 16 32 C10.72 32 5.44 32 0 32 C0 21.44 0 10.88 0 0 Z " fill="#9720F1" transform="translate(432,336)"/>
<path d="M0 0 C5.28 0 10.56 0 16 0 C16 10.56 16 21.12 16 32 C10.72 32 5.44 32 0 32 C0 21.44 0 10.88 0 0 Z " fill="#9720F1" transform="translate(208,336)"/>
<path d="M0 0 C5.28 0 10.56 0 16 0 C16 10.56 16 21.12 16 32 C10.72 32 5.44 32 0 32 C0 21.44 0 10.88 0 0 Z " fill="#000690" transform="translate(192,336)"/>
<path d="M0 0 C5.28 0 10.56 0 16 0 C16 10.56 16 21.12 16 32 C10.72 32 5.44 32 0 32 C0 21.44 0 10.88 0 0 Z " fill="#DF3CF0" transform="translate(48,336)"/>
<path d="M0 0 C5.28 0 10.56 0 16 0 C16 10.56 16 21.12 16 32 C10.72 32 5.44 32 0 32 C0 21.44 0 10.88 0 0 Z " fill="#9720F1" transform="translate(256,320)"/>
<path d="M0 0 C5.28 0 10.56 0 16 0 C16 10.56 16 21.12 16 32 C10.72 32 5.44 32 0 32 C0 21.44 0 10.88 0 0 Z " fill="#9720F1" transform="translate(96,320)"/>
<path d="M0 0 C5.28 0 10.56 0 16 0 C16 10.56 16 21.12 16 32 C10.72 32 5.44 32 0 32 C0 21.44 0 10.88 0 0 Z " fill="#000690" transform="translate(208,304)"/>
<path d="M0 0 C5.28 0 10.56 0 16 0 C16 10.56 16 21.12 16 32 C10.72 32 5.44 32 0 32 C0 21.44 0 10.88 0 0 Z " fill="#DF3CF0" transform="translate(64,304)"/>
<path d="M0 0 C10.56 0 21.12 0 32 0 C32 5.28 32 10.56 32 16 C21.44 16 10.88 16 0 16 C0 10.72 0 5.44 0 0 Z " fill="#55D3F1" transform="translate(400,272)"/>
<path d="M0 0 C5.28 0 10.56 0 16 0 C16 10.56 16 21.12 16 32 C10.72 32 5.44 32 0 32 C0 21.44 0 10.88 0 0 Z " fill="#000690" transform="translate(432,224)"/>
<path d="M0 0 C5.28 0 10.56 0 16 0 C16 10.56 16 21.12 16 32 C10.72 32 5.44 32 0 32 C0 21.44 0 10.88 0 0 Z " fill="#146AF1" transform="translate(416,224)"/>
<path d="M0 0 C5.28 0 10.56 0 16 0 C16 10.56 16 21.12 16 32 C10.72 32 5.44 32 0 32 C0 21.44 0 10.88 0 0 Z " fill="#000690" transform="translate(448,192)"/>
<path d="M0 0 C5.28 0 10.56 0 16 0 C16 10.56 16 21.12 16 32 C10.72 32 5.44 32 0 32 C0 21.44 0 10.88 0 0 Z " fill="#3038D6" transform="translate(416,192)"/>
<path d="M0 0 C5.28 0 10.56 0 16 0 C16 10.56 16 21.12 16 32 C10.72 32 5.44 32 0 32 C0 21.44 0 10.88 0 0 Z " fill="#000690" transform="translate(464,160)"/>
<path d="M0 0 C5.28 0 10.56 0 16 0 C16 10.56 16 21.12 16 32 C10.72 32 5.44 32 0 32 C0 21.44 0 10.88 0 0 Z " fill="#3038D6" transform="translate(432,160)"/>
<path d="M0 0 C5.28 0 10.56 0 16 0 C16 10.56 16 21.12 16 32 C10.72 32 5.44 32 0 32 C0 21.44 0 10.88 0 0 Z " fill="#146AF1" transform="translate(464,128)"/>
<path d="M0 0 C10.56 0 21.12 0 32 0 C32 5.28 32 10.56 32 16 C21.44 16 10.88 16 0 16 C0 10.72 0 5.44 0 0 Z " fill="#55D3F1" transform="translate(208,128)"/>
<path d="M0 0 C10.56 0 21.12 0 32 0 C32 5.28 32 10.56 32 16 C21.44 16 10.88 16 0 16 C0 10.72 0 5.44 0 0 Z " fill="#55D3F1" transform="translate(432,112)"/>
<path d="M0 0 C10.56 0 21.12 0 32 0 C32 5.28 32 10.56 32 16 C21.44 16 10.88 16 0 16 C0 10.72 0 5.44 0 0 Z " fill="#000690" transform="translate(400,112)"/>
<path d="M0 0 C10.56 0 21.12 0 32 0 C32 5.28 32 10.56 32 16 C21.44 16 10.88 16 0 16 C0 10.72 0 5.44 0 0 Z " fill="#000690" transform="translate(432,96)"/>
<path d="M0 0 C10.56 0 21.12 0 32 0 C32 5.28 32 10.56 32 16 C21.44 16 10.88 16 0 16 C0 10.72 0 5.44 0 0 Z " fill="#55D3F1" transform="translate(400,96)"/>
<path d="M0 0 C10.56 0 21.12 0 32 0 C32 5.28 32 10.56 32 16 C21.44 16 10.88 16 0 16 C0 10.72 0 5.44 0 0 Z " fill="#000690" transform="translate(368,96)"/>
<path d="M0 0 C10.56 0 21.12 0 32 0 C32 5.28 32 10.56 32 16 C21.44 16 10.88 16 0 16 C0 10.72 0 5.44 0 0 Z " fill="#55D3F1" transform="translate(208,96)"/>
<path d="M0 0 C10.56 0 21.12 0 32 0 C32 5.28 32 10.56 32 16 C21.44 16 10.88 16 0 16 C0 10.72 0 5.44 0 0 Z " fill="#000690" transform="translate(400,80)"/>
<path d="M0 0 C10.56 0 21.12 0 32 0 C32 5.28 32 10.56 32 16 C21.44 16 10.88 16 0 16 C0 10.72 0 5.44 0 0 Z " fill="#55D3F1" transform="translate(368,80)"/>
<path d="M0 0 C10.56 0 21.12 0 32 0 C32 5.28 32 10.56 32 16 C21.44 16 10.88 16 0 16 C0 10.72 0 5.44 0 0 Z " fill="#000690" transform="translate(336,80)"/>
<path d="M0 0 C10.56 0 21.12 0 32 0 C32 5.28 32 10.56 32 16 C21.44 16 10.88 16 0 16 C0 10.72 0 5.44 0 0 Z " fill="#3038D6" transform="translate(368,64)"/>
<path d="M0 0 C10.56 0 21.12 0 32 0 C32 5.28 32 10.56 32 16 C21.44 16 10.88 16 0 16 C0 10.72 0 5.44 0 0 Z " fill="#55D3F1" transform="translate(336,64)"/>
<path d="M0 0 C5.28 0 10.56 0 16 0 C16 5.28 16 10.56 16 16 C10.72 16 5.44 16 0 16 C0 10.72 0 5.44 0 0 Z " fill="#000690" transform="translate(224,416)"/>
<path d="M0 0 C5.28 0 10.56 0 16 0 C16 5.28 16 10.56 16 16 C10.72 16 5.44 16 0 16 C0 10.72 0 5.44 0 0 Z " fill="#FF28C2" transform="translate(208,416)"/>
<path d="M0 0 C5.28 0 10.56 0 16 0 C16 5.28 16 10.56 16 16 C10.72 16 5.44 16 0 16 C0 10.72 0 5.44 0 0 Z " fill="#000690" transform="translate(208,400)"/>
<path d="M0 0 C5.28 0 10.56 0 16 0 C16 5.28 16 10.56 16 16 C10.72 16 5.44 16 0 16 C0 10.72 0 5.44 0 0 Z " fill="#FFE84A" transform="translate(192,400)"/>
<path d="M0 0 C5.28 0 10.56 0 16 0 C16 5.28 16 10.56 16 16 C10.72 16 5.44 16 0 16 C0 10.72 0 5.44 0 0 Z " fill="#000690" transform="translate(192,384)"/>
<path d="M0 0 C5.28 0 10.56 0 16 0 C16 5.28 16 10.56 16 16 C10.72 16 5.44 16 0 16 C0 10.72 0 5.44 0 0 Z " fill="#FFE84A" transform="translate(176,384)"/>
<path d="M0 0 C5.28 0 10.56 0 16 0 C16 5.28 16 10.56 16 16 C10.72 16 5.44 16 0 16 C0 10.72 0 5.44 0 0 Z " fill="#9720F1" transform="translate(160,384)"/>
<path d="M0 0 C5.28 0 10.56 0 16 0 C16 5.28 16 10.56 16 16 C10.72 16 5.44 16 0 16 C0 10.72 0 5.44 0 0 Z " fill="#9720F1" transform="translate(64,384)"/>
<path d="M0 0 C5.28 0 10.56 0 16 0 C16 5.28 16 10.56 16 16 C10.72 16 5.44 16 0 16 C0 10.72 0 5.44 0 0 Z " fill="#FFE84A" transform="translate(384,368)"/>
<path d="M0 0 C5.28 0 10.56 0 16 0 C16 5.28 16 10.56 16 16 C10.72 16 5.44 16 0 16 C0 10.72 0 5.44 0 0 Z " fill="#FFDDDF" transform="translate(368,368)"/>
<path d="M0 0 C5.28 0 10.56 0 16 0 C16 5.28 16 10.56 16 16 C10.72 16 5.44 16 0 16 C0 10.72 0 5.44 0 0 Z " fill="#FFE84A" transform="translate(352,368)"/>
<path d="M0 0 C5.28 0 10.56 0 16 0 C16 5.28 16 10.56 16 16 C10.72 16 5.44 16 0 16 C0 10.72 0 5.44 0 0 Z " fill="#FFDDDF" transform="translate(336,368)"/>
<path d="M0 0 C5.28 0 10.56 0 16 0 C16 5.28 16 10.56 16 16 C10.72 16 5.44 16 0 16 C0 10.72 0 5.44 0 0 Z " fill="#FFE84A" transform="translate(320,368)"/>
<path d="M0 0 C5.28 0 10.56 0 16 0 C16 5.28 16 10.56 16 16 C10.72 16 5.44 16 0 16 C0 10.72 0 5.44 0 0 Z " fill="#FFDDDF" transform="translate(304,368)"/>
<path d="M0 0 C5.28 0 10.56 0 16 0 C16 5.28 16 10.56 16 16 C10.72 16 5.44 16 0 16 C0 10.72 0 5.44 0 0 Z " fill="#FFE84A" transform="translate(288,368)"/>
<path d="M0 0 C5.28 0 10.56 0 16 0 C16 5.28 16 10.56 16 16 C10.72 16 5.44 16 0 16 C0 10.72 0 5.44 0 0 Z " fill="#FFDDDF" transform="translate(272,368)"/>
<path d="M0 0 C5.28 0 10.56 0 16 0 C16 5.28 16 10.56 16 16 C10.72 16 5.44 16 0 16 C0 10.72 0 5.44 0 0 Z " fill="#FFE84A" transform="translate(256,368)"/>
<path d="M0 0 C5.28 0 10.56 0 16 0 C16 5.28 16 10.56 16 16 C10.72 16 5.44 16 0 16 C0 10.72 0 5.44 0 0 Z " fill="#000690" transform="translate(176,368)"/>
<path d="M0 0 C5.28 0 10.56 0 16 0 C16 5.28 16 10.56 16 16 C10.72 16 5.44 16 0 16 C0 10.72 0 5.44 0 0 Z " fill="#FFE84A" transform="translate(160,368)"/>
<path d="M0 0 C5.28 0 10.56 0 16 0 C16 5.28 16 10.56 16 16 C10.72 16 5.44 16 0 16 C0 10.72 0 5.44 0 0 Z " fill="#FFB7DE" transform="translate(64,368)"/>
<path d="M0 0 C5.28 0 10.56 0 16 0 C16 5.28 16 10.56 16 16 C10.72 16 5.44 16 0 16 C0 10.72 0 5.44 0 0 Z " fill="#FFE84A" transform="translate(400,352)"/>
<path d="M0 0 C5.28 0 10.56 0 16 0 C16 5.28 16 10.56 16 16 C10.72 16 5.44 16 0 16 C0 10.72 0 5.44 0 0 Z " fill="#FFDDDF" transform="translate(384,352)"/>
<path d="M0 0 C5.28 0 10.56 0 16 0 C16 5.28 16 10.56 16 16 C10.72 16 5.44 16 0 16 C0 10.72 0 5.44 0 0 Z " fill="#FFE84A" transform="translate(368,352)"/>
<path d="M0 0 C5.28 0 10.56 0 16 0 C16 5.28 16 10.56 16 16 C10.72 16 5.44 16 0 16 C0 10.72 0 5.44 0 0 Z " fill="#FFDDDF" transform="translate(352,352)"/>
<path d="M0 0 C5.28 0 10.56 0 16 0 C16 5.28 16 10.56 16 16 C10.72 16 5.44 16 0 16 C0 10.72 0 5.44 0 0 Z " fill="#FFE84A" transform="translate(336,352)"/>
<path d="M0 0 C5.28 0 10.56 0 16 0 C16 5.28 16 10.56 16 16 C10.72 16 5.44 16 0 16 C0 10.72 0 5.44 0 0 Z " fill="#FFDDDF" transform="translate(320,352)"/>
<path d="M0 0 C5.28 0 10.56 0 16 0 C16 5.28 16 10.56 16 16 C10.72 16 5.44 16 0 16 C0 10.72 0 5.44 0 0 Z " fill="#FFE84A" transform="translate(304,352)"/>
<path d="M0 0 C5.28 0 10.56 0 16 0 C16 5.28 16 10.56 16 16 C10.72 16 5.44 16 0 16 C0 10.72 0 5.44 0 0 Z " fill="#FFDDDF" transform="translate(288,352)"/>
<path d="M0 0 C5.28 0 10.56 0 16 0 C16 5.28 16 10.56 16 16 C10.72 16 5.44 16 0 16 C0 10.72 0 5.44 0 0 Z " fill="#FFDDDF" transform="translate(256,352)"/>
<path d="M0 0 C5.28 0 10.56 0 16 0 C16 5.28 16 10.56 16 16 C10.72 16 5.44 16 0 16 C0 10.72 0 5.44 0 0 Z " fill="#FFB7DE" transform="translate(176,352)"/>
<path d="M0 0 C5.28 0 10.56 0 16 0 C16 5.28 16 10.56 16 16 C10.72 16 5.44 16 0 16 C0 10.72 0 5.44 0 0 Z " fill="#000690" transform="translate(160,352)"/>
<path d="M0 0 C5.28 0 10.56 0 16 0 C16 5.28 16 10.56 16 16 C10.72 16 5.44 16 0 16 C0 10.72 0 5.44 0 0 Z " fill="#FFE84A" transform="translate(144,352)"/>
<path d="M0 0 C5.28 0 10.56 0 16 0 C16 5.28 16 10.56 16 16 C10.72 16 5.44 16 0 16 C0 10.72 0 5.44 0 0 Z " fill="#FFDDDF" transform="translate(400,336)"/>
<path d="M0 0 C5.28 0 10.56 0 16 0 C16 5.28 16 10.56 16 16 C10.72 16 5.44 16 0 16 C0 10.72 0 5.44 0 0 Z " fill="#FFE84A" transform="translate(384,336)"/>
<path d="M0 0 C5.28 0 10.56 0 16 0 C16 5.28 16 10.56 16 16 C10.72 16 5.44 16 0 16 C0 10.72 0 5.44 0 0 Z " fill="#FFDDDF" transform="translate(368,336)"/>
<path d="M0 0 C5.28 0 10.56 0 16 0 C16 5.28 16 10.56 16 16 C10.72 16 5.44 16 0 16 C0 10.72 0 5.44 0 0 Z " fill="#FFE84A" transform="translate(352,336)"/>
<path d="M0 0 C5.28 0 10.56 0 16 0 C16 5.28 16 10.56 16 16 C10.72 16 5.44 16 0 16 C0 10.72 0 5.44 0 0 Z " fill="#FFDDDF" transform="translate(336,336)"/>
<path d="M0 0 C5.28 0 10.56 0 16 0 C16 5.28 16 10.56 16 16 C10.72 16 5.44 16 0 16 C0 10.72 0 5.44 0 0 Z " fill="#FFE84A" transform="translate(320,336)"/>
<path d="M0 0 C5.28 0 10.56 0 16 0 C16 5.28 16 10.56 16 16 C10.72 16 5.44 16 0 16 C0 10.72 0 5.44 0 0 Z " fill="#FFDDDF" transform="translate(304,336)"/>
<path d="M0 0 C5.28 0 10.56 0 16 0 C16 5.28 16 10.56 16 16 C10.72 16 5.44 16 0 16 C0 10.72 0 5.44 0 0 Z " fill="#FFE84A" transform="translate(288,336)"/>
<path d="M0 0 C5.28 0 10.56 0 16 0 C16 5.28 16 10.56 16 16 C10.72 16 5.44 16 0 16 C0 10.72 0 5.44 0 0 Z " fill="#FFDDDF" transform="translate(272,336)"/>
<path d="M0 0 C5.28 0 10.56 0 16 0 C16 5.28 16 10.56 16 16 C10.72 16 5.44 16 0 16 C0 10.72 0 5.44 0 0 Z " fill="#FFB7DE" transform="translate(160,336)"/>
<path d="M0 0 C5.28 0 10.56 0 16 0 C16 5.28 16 10.56 16 16 C10.72 16 5.44 16 0 16 C0 10.72 0 5.44 0 0 Z " fill="#000690" transform="translate(144,336)"/>
<path d="M0 0 C5.28 0 10.56 0 16 0 C16 5.28 16 10.56 16 16 C10.72 16 5.44 16 0 16 C0 10.72 0 5.44 0 0 Z " fill="#FFB7DE" transform="translate(80,336)"/>
<path d="M0 0 C5.28 0 10.56 0 16 0 C16 5.28 16 10.56 16 16 C10.72 16 5.44 16 0 16 C0 10.72 0 5.44 0 0 Z " fill="#FFE84A" transform="translate(304,320)"/>
<path d="M0 0 C5.28 0 10.56 0 16 0 C16 5.28 16 10.56 16 16 C10.72 16 5.44 16 0 16 C0 10.72 0 5.44 0 0 Z " fill="#FFE84A" transform="translate(272,320)"/>
<path d="M0 0 C5.28 0 10.56 0 16 0 C16 5.28 16 10.56 16 16 C10.72 16 5.44 16 0 16 C0 10.72 0 5.44 0 0 Z " fill="#FFDDDF" transform="translate(96,288)"/>
<path d="M0 0 C5.28 0 10.56 0 16 0 C16 5.28 16 10.56 16 16 C10.72 16 5.44 16 0 16 C0 10.72 0 5.44 0 0 Z " fill="#3038D6" transform="translate(240,176)"/>
<path d="M0 0 C5.28 0 10.56 0 16 0 C16 5.28 16 10.56 16 16 C10.72 16 5.44 16 0 16 C0 10.72 0 5.44 0 0 Z " fill="#000690" transform="translate(288,160)"/>
<path d="M0 0 C5.28 0 10.56 0 16 0 C16 5.28 16 10.56 16 16 C10.72 16 5.44 16 0 16 C0 10.72 0 5.44 0 0 Z " fill="#146AF1" transform="translate(304,128)"/>
<path d="M0 0 C5.28 0 10.56 0 16 0 C16 5.28 16 10.56 16 16 C10.72 16 5.44 16 0 16 C0 10.72 0 5.44 0 0 Z " fill="#00FFFF" transform="translate(240,128)"/>
<path d="M0 0 C5.28 0 10.56 0 16 0 C16 5.28 16 10.56 16 16 C10.72 16 5.44 16 0 16 C0 10.72 0 5.44 0 0 Z " fill="#00FFFF" transform="translate(208,128)"/>
<path d="M0 0 C5.28 0 10.56 0 16 0 C16 5.28 16 10.56 16 16 C10.72 16 5.44 16 0 16 C0 10.72 0 5.44 0 0 Z " fill="#55D3F1" transform="translate(192,128)"/>
<path d="M0 0 C5.28 0 10.56 0 16 0 C16 5.28 16 10.56 16 16 C10.72 16 5.44 16 0 16 C0 10.72 0 5.44 0 0 Z " fill="#000690" transform="translate(320,112)"/>
<path d="M0 0 C5.28 0 10.56 0 16 0 C16 5.28 16 10.56 16 16 C10.72 16 5.44 16 0 16 C0 10.72 0 5.44 0 0 Z " fill="#146AF1" transform="translate(288,112)"/>
<path d="M0 0 C5.28 0 10.56 0 16 0 C16 5.28 16 10.56 16 16 C10.72 16 5.44 16 0 16 C0 10.72 0 5.44 0 0 Z " fill="#3038D6" transform="translate(272,112)"/>
<path d="M0 0 C5.28 0 10.56 0 16 0 C16 5.28 16 10.56 16 16 C10.72 16 5.44 16 0 16 C0 10.72 0 5.44 0 0 Z " fill="#00FFFF" transform="translate(224,112)"/>
<path d="M0 0 C5.28 0 10.56 0 16 0 C16 5.28 16 10.56 16 16 C10.72 16 5.44 16 0 16 C0 10.72 0 5.44 0 0 Z " fill="#3038D6" transform="translate(192,112)"/>
<path d="M0 0 C5.28 0 10.56 0 16 0 C16 5.28 16 10.56 16 16 C10.72 16 5.44 16 0 16 C0 10.72 0 5.44 0 0 Z " fill="#000690" transform="translate(304,96)"/>
<path d="M0 0 C5.28 0 10.56 0 16 0 C16 5.28 16 10.56 16 16 C10.72 16 5.44 16 0 16 C0 10.72 0 5.44 0 0 Z " fill="#3038D6" transform="translate(288,96)"/>
<path d="M0 0 C5.28 0 10.56 0 16 0 C16 5.28 16 10.56 16 16 C10.72 16 5.44 16 0 16 C0 10.72 0 5.44 0 0 Z " fill="#3038D6" transform="translate(208,96)"/>
<path d="M0 0 C5.28 0 10.56 0 16 0 C16 5.28 16 10.56 16 16 C10.72 16 5.44 16 0 16 C0 10.72 0 5.44 0 0 Z " fill="#000690" transform="translate(272,16)"/>
<path d="M0 0 C5.28 0 10.56 0 16 0 C16 5.28 16 10.56 16 16 C10.72 16 5.44 16 0 16 C0 10.72 0 5.44 0 0 Z " fill="#000690" transform="translate(256,0)"/>
</svg>
