<svg width="100" height="100" viewBox="0 0 100 100" fill="none" xmlns="http://www.w3.org/2000/svg">
<path d="M92.8571 28.5714H78.5715V35.7143H92.8571V42.8571H99.9999V35.7143C99.9999 33.8199 99.2474 32.0031 97.9078 30.6635C96.5683 29.324 94.7515 28.5714 92.8571 28.5714Z" fill="black"/>
<path d="M92.8572 50H100V71.4285H92.8572V50Z" fill="black"/>
<path d="M92.8571 92.8571H85.7144V100H92.8571C94.7515 100 96.5683 99.2474 97.9079 97.9079C99.2474 96.5683 99.9999 94.7515 99.9999 92.8571V78.5714H92.8571V92.8571Z" fill="black"/>
<path d="M64.2851 0H7.14279C3.19794 0 0 3.19796 0 7.14285V64.2857C0 68.2305 3.19794 71.4285 7.14279 71.4285H64.2851C68.23 71.4285 71.4279 68.2305 71.4279 64.2857V7.14285C71.4279 3.19796 68.23 0 64.2851 0Z" fill="black"/>
<path d="M57.1428 92.8571H78.5712V100H57.1428V92.8571Z" fill="black"/>
<path d="M35.7143 78.5714H28.5715V92.8571C28.5715 94.7515 29.3241 96.5683 30.6636 97.9079C32.0031 99.2474 33.8199 100 35.7143 100H49.9999V92.8571H35.7143V78.5714Z" fill="black"/>
</svg>
