<svg width="50" height="50" viewBox="0 0 50 50" fill="none" xmlns="http://www.w3.org/2000/svg">
<path d="M50 41.3462V8.65385C50 6.3587 49.0883 4.15756 47.4653 2.53465C45.8424 0.911742 43.6413 0 41.3462 0H8.65385C6.3587 0 4.15756 0.911742 2.53465 2.53465C0.911742 4.15756 0 6.3587 0 8.65385V41.3462C0 43.6413 0.911742 45.8424 2.53465 47.4653C4.15756 49.0883 6.3587 50 8.65385 50H41.3462C43.6413 50 45.8424 49.0883 47.4653 47.4653C49.0883 45.8424 50 43.6413 50 41.3462ZM1.92308 41.3462V15.3846H48.0769V41.3462C48.0769 43.1313 47.3678 44.8433 46.1055 46.1055C44.8433 47.3678 43.1313 48.0769 41.3462 48.0769H8.65385C6.86873 48.0769 5.15674 47.3678 3.89447 46.1055C2.63221 44.8433 1.92308 43.1313 1.92308 41.3462Z" fill="black"/>
</svg>
