<?xml version="1.0" encoding="UTF-8"?>
<!DOCTYPE svg PUBLIC "-//W3C//DTD SVG 1.1//EN" "http://www.w3.org/Graphics/SVG/1.1/DTD/svg11.dtd">
<svg xmlns="http://www.w3.org/2000/svg" version="1.1" width="256px" height="256px" style="shape-rendering:geometricPrecision; text-rendering:geometricPrecision; image-rendering:optimizeQuality; fill-rule:evenodd; clip-rule:evenodd" xmlns:xlink="http://www.w3.org/1999/xlink">
<g><path style="opacity:1" fill="#000590" d="M 39.5,-0.5 C 44.8333,-0.5 50.1667,-0.5 55.5,-0.5C 55.5,2.16667 55.5,4.83333 55.5,7.5C 52.8333,7.5 50.1667,7.5 47.5,7.5C 44.8333,7.5 42.1667,7.5 39.5,7.5C 39.5,4.83333 39.5,2.16667 39.5,-0.5 Z"/></g>
<g><path style="opacity:1" fill="#000590" d="M 63.5,-0.5 C 68.8333,-0.5 74.1667,-0.5 79.5,-0.5C 79.5,2.16667 79.5,4.83333 79.5,7.5C 76.8333,7.5 74.1667,7.5 71.5,7.5C 68.8333,7.5 66.1667,7.5 63.5,7.5C 63.5,4.83333 63.5,2.16667 63.5,-0.5 Z"/></g>
<g><path style="opacity:1" fill="#000590" d="M 87.5,-0.5 C 92.8333,-0.5 98.1667,-0.5 103.5,-0.5C 103.5,2.16667 103.5,4.83333 103.5,7.5C 100.833,7.5 98.1667,7.5 95.5,7.5C 92.8333,7.5 90.1667,7.5 87.5,7.5C 87.5,4.83333 87.5,2.16667 87.5,-0.5 Z"/></g>
<g><path style="opacity:1" fill="#000590" d="M 111.5,-0.5 C 116.833,-0.5 122.167,-0.5 127.5,-0.5C 127.5,2.16667 127.5,4.83333 127.5,7.5C 124.833,7.5 122.167,7.5 119.5,7.5C 116.833,7.5 114.167,7.5 111.5,7.5C 111.5,4.83333 111.5,2.16667 111.5,-0.5 Z"/></g>
<g><path style="opacity:1" fill="#000590" d="M 135.5,-0.5 C 140.833,-0.5 146.167,-0.5 151.5,-0.5C 151.5,2.16667 151.5,4.83333 151.5,7.5C 148.833,7.5 146.167,7.5 143.5,7.5C 140.833,7.5 138.167,7.5 135.5,7.5C 135.5,4.83333 135.5,2.16667 135.5,-0.5 Z"/></g>
<g><path style="opacity:1" fill="#000590" d="M 159.5,-0.5 C 164.833,-0.5 170.167,-0.5 175.5,-0.5C 175.5,2.16667 175.5,4.83333 175.5,7.5C 172.833,7.5 170.167,7.5 167.5,7.5C 164.833,7.5 162.167,7.5 159.5,7.5C 159.5,4.83333 159.5,2.16667 159.5,-0.5 Z"/></g>
<g><path style="opacity:1" fill="#000590" d="M 183.5,-0.5 C 188.833,-0.5 194.167,-0.5 199.5,-0.5C 199.5,2.16667 199.5,4.83333 199.5,7.5C 196.833,7.5 194.167,7.5 191.5,7.5C 188.833,7.5 186.167,7.5 183.5,7.5C 183.5,4.83333 183.5,2.16667 183.5,-0.5 Z"/></g>
<g><path style="opacity:1" fill="#000590" d="M 207.5,-0.5 C 210.167,-0.5 212.833,-0.5 215.5,-0.5C 215.5,2.16667 215.5,4.83333 215.5,7.5C 212.833,7.5 210.167,7.5 207.5,7.5C 207.5,4.83333 207.5,2.16667 207.5,-0.5 Z"/></g>
<g><path style="opacity:1" fill="#de3cf0" d="M 39.5,7.5 C 39.5,10.1667 39.5,12.8333 39.5,15.5C 36.8333,15.5 34.1667,15.5 31.5,15.5C 31.5,12.8333 31.5,10.1667 31.5,7.5C 34.1667,7.5 36.8333,7.5 39.5,7.5 Z"/></g>
<g><path style="opacity:1" fill="#feddde" d="M 39.5,7.5 C 42.1667,7.5 44.8333,7.5 47.5,7.5C 47.5,10.1667 47.5,12.8333 47.5,15.5C 44.8333,15.5 42.1667,15.5 39.5,15.5C 39.5,12.8333 39.5,10.1667 39.5,7.5 Z"/></g>
<g><path style="opacity:1" fill="#de3cf0" d="M 47.5,7.5 C 50.1667,7.5 52.8333,7.5 55.5,7.5C 58.1667,7.5 60.8333,7.5 63.5,7.5C 63.5,10.1667 63.5,12.8333 63.5,15.5C 58.1667,15.5 52.8333,15.5 47.5,15.5C 47.5,12.8333 47.5,10.1667 47.5,7.5 Z"/></g>
<g><path style="opacity:1" fill="#feddde" d="M 63.5,7.5 C 66.1667,7.5 68.8333,7.5 71.5,7.5C 71.5,10.1667 71.5,12.8333 71.5,15.5C 68.8333,15.5 66.1667,15.5 63.5,15.5C 63.5,12.8333 63.5,10.1667 63.5,7.5 Z"/></g>
<g><path style="opacity:1" fill="#de3cf0" d="M 71.5,7.5 C 74.1667,7.5 76.8333,7.5 79.5,7.5C 82.1667,7.5 84.8333,7.5 87.5,7.5C 87.5,10.1667 87.5,12.8333 87.5,15.5C 82.1667,15.5 76.8333,15.5 71.5,15.5C 71.5,12.8333 71.5,10.1667 71.5,7.5 Z"/></g>
<g><path style="opacity:1" fill="#feddde" d="M 87.5,7.5 C 90.1667,7.5 92.8333,7.5 95.5,7.5C 95.5,10.1667 95.5,12.8333 95.5,15.5C 92.8333,15.5 90.1667,15.5 87.5,15.5C 87.5,12.8333 87.5,10.1667 87.5,7.5 Z"/></g>
<g><path style="opacity:1" fill="#de3cf0" d="M 95.5,7.5 C 98.1667,7.5 100.833,7.5 103.5,7.5C 106.167,7.5 108.833,7.5 111.5,7.5C 111.5,10.1667 111.5,12.8333 111.5,15.5C 106.167,15.5 100.833,15.5 95.5,15.5C 95.5,12.8333 95.5,10.1667 95.5,7.5 Z"/></g>
<g><path style="opacity:1" fill="#feddde" d="M 111.5,7.5 C 114.167,7.5 116.833,7.5 119.5,7.5C 119.5,10.1667 119.5,12.8333 119.5,15.5C 116.833,15.5 114.167,15.5 111.5,15.5C 111.5,12.8333 111.5,10.1667 111.5,7.5 Z"/></g>
<g><path style="opacity:1" fill="#9620f1" d="M 119.5,7.5 C 122.167,7.5 124.833,7.5 127.5,7.5C 130.167,7.5 132.833,7.5 135.5,7.5C 135.5,10.1667 135.5,12.8333 135.5,15.5C 130.167,15.5 124.833,15.5 119.5,15.5C 119.5,12.8333 119.5,10.1667 119.5,7.5 Z"/></g>
<g><path style="opacity:1" fill="#feddde" d="M 135.5,7.5 C 138.167,7.5 140.833,7.5 143.5,7.5C 143.5,10.1667 143.5,12.8333 143.5,15.5C 140.833,15.5 138.167,15.5 135.5,15.5C 135.5,12.8333 135.5,10.1667 135.5,7.5 Z"/></g>
<g><path style="opacity:1" fill="#9620f1" d="M 143.5,7.5 C 146.167,7.5 148.833,7.5 151.5,7.5C 154.167,7.5 156.833,7.5 159.5,7.5C 159.5,10.1667 159.5,12.8333 159.5,15.5C 154.167,15.5 148.833,15.5 143.5,15.5C 143.5,12.8333 143.5,10.1667 143.5,7.5 Z"/></g>
<g><path style="opacity:1" fill="#feddde" d="M 159.5,7.5 C 162.167,7.5 164.833,7.5 167.5,7.5C 167.5,10.1667 167.5,12.8333 167.5,15.5C 164.833,15.5 162.167,15.5 159.5,15.5C 159.5,12.8333 159.5,10.1667 159.5,7.5 Z"/></g>
<g><path style="opacity:1" fill="#9620f1" d="M 167.5,7.5 C 170.167,7.5 172.833,7.5 175.5,7.5C 178.167,7.5 180.833,7.5 183.5,7.5C 183.5,10.1667 183.5,12.8333 183.5,15.5C 178.167,15.5 172.833,15.5 167.5,15.5C 167.5,12.8333 167.5,10.1667 167.5,7.5 Z"/></g>
<g><path style="opacity:1" fill="#feddde" d="M 183.5,7.5 C 186.167,7.5 188.833,7.5 191.5,7.5C 191.5,10.1667 191.5,12.8333 191.5,15.5C 188.833,15.5 186.167,15.5 183.5,15.5C 183.5,12.8333 183.5,10.1667 183.5,7.5 Z"/></g>
<g><path style="opacity:1" fill="#9620f1" d="M 191.5,7.5 C 194.167,7.5 196.833,7.5 199.5,7.5C 202.167,7.5 204.833,7.5 207.5,7.5C 207.5,10.1667 207.5,12.8333 207.5,15.5C 202.167,15.5 196.833,15.5 191.5,15.5C 191.5,12.8333 191.5,10.1667 191.5,7.5 Z"/></g>
<g><path style="opacity:1" fill="#feddde" d="M 207.5,7.5 C 210.167,7.5 212.833,7.5 215.5,7.5C 215.5,10.1667 215.5,12.8333 215.5,15.5C 212.833,15.5 210.167,15.5 207.5,15.5C 207.5,12.8333 207.5,10.1667 207.5,7.5 Z"/></g>
<g><path style="opacity:1" fill="#9620f1" d="M 215.5,7.5 C 218.167,7.5 220.833,7.5 223.5,7.5C 223.5,10.1667 223.5,12.8333 223.5,15.5C 220.833,15.5 218.167,15.5 215.5,15.5C 215.5,12.8333 215.5,10.1667 215.5,7.5 Z"/></g>
<g><path style="opacity:1" fill="#000590" d="M 223.5,7.5 C 226.167,7.5 228.833,7.5 231.5,7.5C 231.5,10.1667 231.5,12.8333 231.5,15.5C 228.833,15.5 226.167,15.5 223.5,15.5C 223.5,12.8333 223.5,10.1667 223.5,7.5 Z"/></g>
<g><path style="opacity:1" fill="#de3cf0" d="M 31.5,15.5 C 31.5,90.1667 31.5,164.833 31.5,239.5C 28.8333,239.5 26.1667,239.5 23.5,239.5C 23.5,164.833 23.5,90.1667 23.5,15.5C 26.1667,15.5 28.8333,15.5 31.5,15.5 Z"/></g>
<g><path style="opacity:1" fill="#feddde" d="M 31.5,15.5 C 34.1667,15.5 36.8333,15.5 39.5,15.5C 39.5,20.8333 39.5,26.1667 39.5,31.5C 42.1667,31.5 44.8333,31.5 47.5,31.5C 47.5,26.1667 47.5,20.8333 47.5,15.5C 52.8333,15.5 58.1667,15.5 63.5,15.5C 63.5,20.8333 63.5,26.1667 63.5,31.5C 66.1667,31.5 68.8333,31.5 71.5,31.5C 71.5,26.1667 71.5,20.8333 71.5,15.5C 76.8333,15.5 82.1667,15.5 87.5,15.5C 87.5,20.8333 87.5,26.1667 87.5,31.5C 90.1667,31.5 92.8333,31.5 95.5,31.5C 95.5,26.1667 95.5,20.8333 95.5,15.5C 100.833,15.5 106.167,15.5 111.5,15.5C 111.5,20.8333 111.5,26.1667 111.5,31.5C 114.167,31.5 116.833,31.5 119.5,31.5C 119.5,26.1667 119.5,20.8333 119.5,15.5C 124.833,15.5 130.167,15.5 135.5,15.5C 135.5,20.8333 135.5,26.1667 135.5,31.5C 138.167,31.5 140.833,31.5 143.5,31.5C 143.5,26.1667 143.5,20.8333 143.5,15.5C 148.833,15.5 154.167,15.5 159.5,15.5C 159.5,20.8333 159.5,26.1667 159.5,31.5C 162.167,31.5 164.833,31.5 167.5,31.5C 167.5,26.1667 167.5,20.8333 167.5,15.5C 172.833,15.5 178.167,15.5 183.5,15.5C 183.5,20.8333 183.5,26.1667 183.5,31.5C 186.167,31.5 188.833,31.5 191.5,31.5C 191.5,26.1667 191.5,20.8333 191.5,15.5C 196.833,15.5 202.167,15.5 207.5,15.5C 207.5,90.1667 207.5,164.833 207.5,239.5C 151.5,239.5 95.5,239.5 39.5,239.5C 36.8333,239.5 34.1667,239.5 31.5,239.5C 31.5,164.833 31.5,90.1667 31.5,15.5 Z"/></g>
<g><path style="opacity:1" fill="#000590" d="M 39.5,15.5 C 42.1667,15.5 44.8333,15.5 47.5,15.5C 47.5,20.8333 47.5,26.1667 47.5,31.5C 44.8333,31.5 42.1667,31.5 39.5,31.5C 39.5,26.1667 39.5,20.8333 39.5,15.5 Z"/></g>
<g><path style="opacity:1" fill="#000590" d="M 63.5,15.5 C 66.1667,15.5 68.8333,15.5 71.5,15.5C 71.5,20.8333 71.5,26.1667 71.5,31.5C 68.8333,31.5 66.1667,31.5 63.5,31.5C 63.5,26.1667 63.5,20.8333 63.5,15.5 Z"/></g>
<g><path style="opacity:1" fill="#000590" d="M 87.5,15.5 C 90.1667,15.5 92.8333,15.5 95.5,15.5C 95.5,20.8333 95.5,26.1667 95.5,31.5C 92.8333,31.5 90.1667,31.5 87.5,31.5C 87.5,26.1667 87.5,20.8333 87.5,15.5 Z"/></g>
<g><path style="opacity:1" fill="#000590" d="M 111.5,15.5 C 114.167,15.5 116.833,15.5 119.5,15.5C 119.5,20.8333 119.5,26.1667 119.5,31.5C 116.833,31.5 114.167,31.5 111.5,31.5C 111.5,26.1667 111.5,20.8333 111.5,15.5 Z"/></g>
<g><path style="opacity:1" fill="#000590" d="M 135.5,15.5 C 138.167,15.5 140.833,15.5 143.5,15.5C 143.5,20.8333 143.5,26.1667 143.5,31.5C 140.833,31.5 138.167,31.5 135.5,31.5C 135.5,26.1667 135.5,20.8333 135.5,15.5 Z"/></g>
<g><path style="opacity:1" fill="#000590" d="M 159.5,15.5 C 162.167,15.5 164.833,15.5 167.5,15.5C 167.5,20.8333 167.5,26.1667 167.5,31.5C 164.833,31.5 162.167,31.5 159.5,31.5C 159.5,26.1667 159.5,20.8333 159.5,15.5 Z"/></g>
<g><path style="opacity:1" fill="#000590" d="M 183.5,15.5 C 186.167,15.5 188.833,15.5 191.5,15.5C 191.5,20.8333 191.5,26.1667 191.5,31.5C 188.833,31.5 186.167,31.5 183.5,31.5C 183.5,26.1667 183.5,20.8333 183.5,15.5 Z"/></g>
<g><path style="opacity:1" fill="#9620f1" d="M 207.5,15.5 C 210.167,15.5 212.833,15.5 215.5,15.5C 215.5,90.1667 215.5,164.833 215.5,239.5C 212.833,239.5 210.167,239.5 207.5,239.5C 207.5,164.833 207.5,90.1667 207.5,15.5 Z"/></g>
<g><path style="opacity:1" fill="#000590" d="M 215.5,15.5 C 218.167,15.5 220.833,15.5 223.5,15.5C 223.5,90.1667 223.5,164.833 223.5,239.5C 220.833,239.5 218.167,239.5 215.5,239.5C 215.5,164.833 215.5,90.1667 215.5,15.5 Z"/></g>
<g><path style="opacity:1" fill="#9620f1" d="M 223.5,15.5 C 226.167,15.5 228.833,15.5 231.5,15.5C 231.5,90.1667 231.5,164.833 231.5,239.5C 228.833,239.5 226.167,239.5 223.5,239.5C 223.5,164.833 223.5,90.1667 223.5,15.5 Z"/></g>
<g><path style="opacity:1" fill="#000590" d="M 231.5,15.5 C 234.167,15.5 236.833,15.5 239.5,15.5C 239.5,90.1667 239.5,164.833 239.5,239.5C 236.833,239.5 234.167,239.5 231.5,239.5C 231.5,164.833 231.5,90.1667 231.5,15.5 Z"/></g>
<g><path style="opacity:1" fill="#000590" d="M 47.5,55.5 C 63.5,55.5 79.5,55.5 95.5,55.5C 95.5,58.1667 95.5,60.8333 95.5,63.5C 79.5,63.5 63.5,63.5 47.5,63.5C 47.5,60.8333 47.5,58.1667 47.5,55.5 Z"/></g>
<g><path style="opacity:1" fill="#000590" d="M 151.5,55.5 C 154.167,55.5 156.833,55.5 159.5,55.5C 159.5,58.1667 159.5,60.8333 159.5,63.5C 156.833,63.5 154.167,63.5 151.5,63.5C 151.5,60.8333 151.5,58.1667 151.5,55.5 Z"/></g>
<g><path style="opacity:1" fill="#000590" d="M 167.5,55.5 C 175.5,55.5 183.5,55.5 191.5,55.5C 191.5,58.1667 191.5,60.8333 191.5,63.5C 183.5,63.5 175.5,63.5 167.5,63.5C 167.5,60.8333 167.5,58.1667 167.5,55.5 Z"/></g>
<g><path style="opacity:1" fill="#000590" d="M 47.5,71.5 C 63.5,71.5 79.5,71.5 95.5,71.5C 95.5,74.1667 95.5,76.8333 95.5,79.5C 79.5,79.5 63.5,79.5 47.5,79.5C 47.5,76.8333 47.5,74.1667 47.5,71.5 Z"/></g>
<g><path style="opacity:1" fill="#000590" d="M 47.5,103.5 C 63.5,103.5 79.5,103.5 95.5,103.5C 95.5,106.167 95.5,108.833 95.5,111.5C 79.5,111.5 63.5,111.5 47.5,111.5C 47.5,108.833 47.5,106.167 47.5,103.5 Z"/></g>
<g><path style="opacity:1" fill="#000590" d="M 47.5,127.5 C 95.5,127.5 143.5,127.5 191.5,127.5C 191.5,130.167 191.5,132.833 191.5,135.5C 143.5,135.5 95.5,135.5 47.5,135.5C 47.5,132.833 47.5,130.167 47.5,127.5 Z"/></g>
<g><path style="opacity:1" fill="#000590" d="M 47.5,143.5 C 95.5,143.5 143.5,143.5 191.5,143.5C 191.5,146.167 191.5,148.833 191.5,151.5C 143.5,151.5 95.5,151.5 47.5,151.5C 47.5,148.833 47.5,146.167 47.5,143.5 Z"/></g>
<g><path style="opacity:1" fill="#000590" d="M 47.5,159.5 C 95.5,159.5 143.5,159.5 191.5,159.5C 191.5,162.167 191.5,164.833 191.5,167.5C 143.5,167.5 95.5,167.5 47.5,167.5C 47.5,164.833 47.5,162.167 47.5,159.5 Z"/></g>
<g><path style="opacity:1" fill="#000590" d="M 47.5,175.5 C 95.5,175.5 143.5,175.5 191.5,175.5C 191.5,178.167 191.5,180.833 191.5,183.5C 143.5,183.5 95.5,183.5 47.5,183.5C 47.5,180.833 47.5,178.167 47.5,175.5 Z"/></g>
<g><path style="opacity:1" fill="#000590" d="M 47.5,199.5 C 63.5,199.5 79.5,199.5 95.5,199.5C 95.5,202.167 95.5,204.833 95.5,207.5C 79.5,207.5 63.5,207.5 47.5,207.5C 47.5,204.833 47.5,202.167 47.5,199.5 Z"/></g>
<g><path style="opacity:1" fill="#000590" d="M 47.5,215.5 C 63.5,215.5 79.5,215.5 95.5,215.5C 95.5,218.167 95.5,220.833 95.5,223.5C 79.5,223.5 63.5,223.5 47.5,223.5C 47.5,220.833 47.5,218.167 47.5,215.5 Z"/></g>
<g><path style="opacity:1" fill="#de3cf0" d="M 31.5,239.5 C 34.1667,239.5 36.8333,239.5 39.5,239.5C 39.5,242.167 39.5,244.833 39.5,247.5C 36.8333,247.5 34.1667,247.5 31.5,247.5C 31.5,244.833 31.5,242.167 31.5,239.5 Z"/></g>
<g><path style="opacity:1" fill="#9620f1" d="M 39.5,239.5 C 95.5,239.5 151.5,239.5 207.5,239.5C 207.5,242.167 207.5,244.833 207.5,247.5C 151.5,247.5 95.5,247.5 39.5,247.5C 39.5,244.833 39.5,242.167 39.5,239.5 Z"/></g>
<g><path style="opacity:1" fill="#000590" d="M 207.5,239.5 C 210.167,239.5 212.833,239.5 215.5,239.5C 215.5,242.167 215.5,244.833 215.5,247.5C 218.167,247.5 220.833,247.5 223.5,247.5C 223.5,250.167 223.5,252.833 223.5,255.5C 162.167,255.5 100.833,255.5 39.5,255.5C 39.5,252.833 39.5,250.167 39.5,247.5C 95.5,247.5 151.5,247.5 207.5,247.5C 207.5,244.833 207.5,242.167 207.5,239.5 Z"/></g>
<g><path style="opacity:1" fill="#9620f1" d="M 215.5,239.5 C 218.167,239.5 220.833,239.5 223.5,239.5C 223.5,242.167 223.5,244.833 223.5,247.5C 220.833,247.5 218.167,247.5 215.5,247.5C 215.5,244.833 215.5,242.167 215.5,239.5 Z"/></g>
<g><path style="opacity:1" fill="#000590" d="M 223.5,239.5 C 226.167,239.5 228.833,239.5 231.5,239.5C 231.5,242.167 231.5,244.833 231.5,247.5C 228.833,247.5 226.167,247.5 223.5,247.5C 223.5,244.833 223.5,242.167 223.5,239.5 Z"/></g>
</svg>
