<?xml version="1.0" encoding="UTF-8"?>
<!DOCTYPE svg PUBLIC "-//W3C//DTD SVG 1.1//EN" "http://www.w3.org/Graphics/SVG/1.1/DTD/svg11.dtd">
<svg xmlns="http://www.w3.org/2000/svg" version="1.1" width="256px" height="256px" style="shape-rendering:geometricPrecision; text-rendering:geometricPrecision; image-rendering:optimizeQuality; fill-rule:evenodd; clip-rule:evenodd" xmlns:xlink="http://www.w3.org/1999/xlink">
<g><path style="opacity:1" fill="#de3cf0" d="M 135.5,7.5 C 135.5,10.1667 135.5,12.8333 135.5,15.5C 132.833,15.5 130.167,15.5 127.5,15.5C 124.833,15.5 122.167,15.5 119.5,15.5C 116.833,15.5 114.167,15.5 111.5,15.5C 108.833,15.5 106.167,15.5 103.5,15.5C 100.833,15.5 98.1667,15.5 95.5,15.5C 95.5,12.8333 95.5,10.1667 95.5,7.5C 108.833,7.5 122.167,7.5 135.5,7.5 Z"/></g>
<g><path style="opacity:1" fill="#9620f1" d="M 135.5,7.5 C 146.167,7.5 156.833,7.5 167.5,7.5C 167.5,10.1667 167.5,12.8333 167.5,15.5C 164.833,15.5 162.167,15.5 159.5,15.5C 156.833,15.5 154.167,15.5 151.5,15.5C 148.833,15.5 146.167,15.5 143.5,15.5C 140.833,15.5 138.167,15.5 135.5,15.5C 135.5,12.8333 135.5,10.1667 135.5,7.5 Z"/></g>
<g><path style="opacity:1" fill="#de3cf0" d="M 95.5,15.5 C 95.5,18.1667 95.5,20.8333 95.5,23.5C 92.8333,23.5 90.1667,23.5 87.5,23.5C 84.8333,23.5 82.1667,23.5 79.5,23.5C 79.5,20.8333 79.5,18.1667 79.5,15.5C 84.8333,15.5 90.1667,15.5 95.5,15.5 Z"/></g>
<g><path style="opacity:1" fill="#9ae933" d="M 95.5,15.5 C 98.1667,15.5 100.833,15.5 103.5,15.5C 103.5,18.1667 103.5,20.8333 103.5,23.5C 100.833,23.5 98.1667,23.5 95.5,23.5C 95.5,20.8333 95.5,18.1667 95.5,15.5 Z"/></g>
<g><path style="opacity:1" fill="#00b359" d="M 103.5,15.5 C 106.167,15.5 108.833,15.5 111.5,15.5C 111.5,18.1667 111.5,20.8333 111.5,23.5C 108.833,23.5 106.167,23.5 103.5,23.5C 103.5,20.8333 103.5,18.1667 103.5,15.5 Z"/></g>
<g><path style="opacity:1" fill="#9ae933" d="M 111.5,15.5 C 114.167,15.5 116.833,15.5 119.5,15.5C 119.5,18.1667 119.5,20.8333 119.5,23.5C 116.833,23.5 114.167,23.5 111.5,23.5C 111.5,20.8333 111.5,18.1667 111.5,15.5 Z"/></g>
<g><path style="opacity:1" fill="#00fffe" d="M 119.5,15.5 C 122.167,15.5 124.833,15.5 127.5,15.5C 127.5,18.1667 127.5,20.8333 127.5,23.5C 124.833,23.5 122.167,23.5 119.5,23.5C 119.5,20.8333 119.5,18.1667 119.5,15.5 Z"/></g>
<g><path style="opacity:1" fill="#9ae933" d="M 127.5,15.5 C 130.167,15.5 132.833,15.5 135.5,15.5C 135.5,18.1667 135.5,20.8333 135.5,23.5C 132.833,23.5 130.167,23.5 127.5,23.5C 127.5,20.8333 127.5,18.1667 127.5,15.5 Z"/></g>
<g><path style="opacity:1" fill="#1469f1" d="M 135.5,15.5 C 138.167,15.5 140.833,15.5 143.5,15.5C 143.5,18.1667 143.5,20.8333 143.5,23.5C 140.833,23.5 138.167,23.5 135.5,23.5C 135.5,20.8333 135.5,18.1667 135.5,15.5 Z"/></g>
<g><path style="opacity:1" fill="#9ae933" d="M 143.5,15.5 C 146.167,15.5 148.833,15.5 151.5,15.5C 151.5,18.1667 151.5,20.8333 151.5,23.5C 148.833,23.5 146.167,23.5 143.5,23.5C 143.5,20.8333 143.5,18.1667 143.5,15.5 Z"/></g>
<g><path style="opacity:1" fill="#00b359" d="M 151.5,15.5 C 154.167,15.5 156.833,15.5 159.5,15.5C 159.5,18.1667 159.5,20.8333 159.5,23.5C 156.833,23.5 154.167,23.5 151.5,23.5C 151.5,20.8333 151.5,18.1667 151.5,15.5 Z"/></g>
<g><path style="opacity:1" fill="#008200" d="M 159.5,15.5 C 162.167,15.5 164.833,15.5 167.5,15.5C 167.5,18.1667 167.5,20.8333 167.5,23.5C 164.833,23.5 162.167,23.5 159.5,23.5C 159.5,20.8333 159.5,18.1667 159.5,15.5 Z"/></g>
<g><path style="opacity:1" fill="#9620f1" d="M 167.5,15.5 C 172.833,15.5 178.167,15.5 183.5,15.5C 183.5,18.1667 183.5,20.8333 183.5,23.5C 180.833,23.5 178.167,23.5 175.5,23.5C 172.833,23.5 170.167,23.5 167.5,23.5C 167.5,20.8333 167.5,18.1667 167.5,15.5 Z"/></g>
<g><path style="opacity:1" fill="#de3cf0" d="M 79.5,23.5 C 79.5,26.1667 79.5,28.8333 79.5,31.5C 76.8333,31.5 74.1667,31.5 71.5,31.5C 68.8333,31.5 66.1667,31.5 63.5,31.5C 63.5,28.8333 63.5,26.1667 63.5,23.5C 68.8333,23.5 74.1667,23.5 79.5,23.5 Z"/></g>
<g><path style="opacity:1" fill="#00fffe" d="M 79.5,23.5 C 82.1667,23.5 84.8333,23.5 87.5,23.5C 87.5,26.1667 87.5,28.8333 87.5,31.5C 84.8333,31.5 82.1667,31.5 79.5,31.5C 79.5,28.8333 79.5,26.1667 79.5,23.5 Z"/></g>
<g><path style="opacity:1" fill="#9ae933" d="M 87.5,23.5 C 90.1667,23.5 92.8333,23.5 95.5,23.5C 95.5,26.1667 95.5,28.8333 95.5,31.5C 92.8333,31.5 90.1667,31.5 87.5,31.5C 87.5,28.8333 87.5,26.1667 87.5,23.5 Z"/></g>
<g><path style="opacity:1" fill="#00b359" d="M 95.5,23.5 C 98.1667,23.5 100.833,23.5 103.5,23.5C 103.5,26.1667 103.5,28.8333 103.5,31.5C 100.833,31.5 98.1667,31.5 95.5,31.5C 95.5,28.8333 95.5,26.1667 95.5,23.5 Z"/></g>
<g><path style="opacity:1" fill="#00fffe" d="M 103.5,23.5 C 106.167,23.5 108.833,23.5 111.5,23.5C 111.5,26.1667 111.5,28.8333 111.5,31.5C 108.833,31.5 106.167,31.5 103.5,31.5C 103.5,28.8333 103.5,26.1667 103.5,23.5 Z"/></g>
<g><path style="opacity:1" fill="#1469f1" d="M 111.5,23.5 C 114.167,23.5 116.833,23.5 119.5,23.5C 119.5,26.1667 119.5,28.8333 119.5,31.5C 119.5,36.8333 119.5,42.1667 119.5,47.5C 116.833,47.5 114.167,47.5 111.5,47.5C 111.5,44.8333 111.5,42.1667 111.5,39.5C 108.833,39.5 106.167,39.5 103.5,39.5C 103.5,36.8333 103.5,34.1667 103.5,31.5C 106.167,31.5 108.833,31.5 111.5,31.5C 111.5,28.8333 111.5,26.1667 111.5,23.5 Z"/></g>
<g><path style="opacity:1" fill="#9ae933" d="M 119.5,23.5 C 122.167,23.5 124.833,23.5 127.5,23.5C 127.5,26.1667 127.5,28.8333 127.5,31.5C 124.833,31.5 122.167,31.5 119.5,31.5C 119.5,28.8333 119.5,26.1667 119.5,23.5 Z"/></g>
<g><path style="opacity:1" fill="#00b359" d="M 127.5,23.5 C 130.167,23.5 132.833,23.5 135.5,23.5C 138.167,23.5 140.833,23.5 143.5,23.5C 146.167,23.5 148.833,23.5 151.5,23.5C 151.5,26.1667 151.5,28.8333 151.5,31.5C 154.167,31.5 156.833,31.5 159.5,31.5C 159.5,28.8333 159.5,26.1667 159.5,23.5C 162.167,23.5 164.833,23.5 167.5,23.5C 170.167,23.5 172.833,23.5 175.5,23.5C 175.5,26.1667 175.5,28.8333 175.5,31.5C 178.167,31.5 180.833,31.5 183.5,31.5C 186.167,31.5 188.833,31.5 191.5,31.5C 191.5,34.1667 191.5,36.8333 191.5,39.5C 194.167,39.5 196.833,39.5 199.5,39.5C 199.5,47.5 199.5,55.5 199.5,63.5C 202.167,63.5 204.833,63.5 207.5,63.5C 207.5,66.1667 207.5,68.8333 207.5,71.5C 204.833,71.5 202.167,71.5 199.5,71.5C 199.5,74.1667 199.5,76.8333 199.5,79.5C 202.167,79.5 204.833,79.5 207.5,79.5C 207.5,82.1667 207.5,84.8333 207.5,87.5C 204.833,87.5 202.167,87.5 199.5,87.5C 199.5,90.1667 199.5,92.8333 199.5,95.5C 202.167,95.5 204.833,95.5 207.5,95.5C 207.5,98.1667 207.5,100.833 207.5,103.5C 196.833,103.5 186.167,103.5 175.5,103.5C 175.5,106.167 175.5,108.833 175.5,111.5C 180.833,111.5 186.167,111.5 191.5,111.5C 191.5,119.5 191.5,127.5 191.5,135.5C 188.833,135.5 186.167,135.5 183.5,135.5C 183.5,138.167 183.5,140.833 183.5,143.5C 180.833,143.5 178.167,143.5 175.5,143.5C 175.5,146.167 175.5,148.833 175.5,151.5C 175.5,156.833 175.5,162.167 175.5,167.5C 172.833,167.5 170.167,167.5 167.5,167.5C 167.5,170.167 167.5,172.833 167.5,175.5C 164.833,175.5 162.167,175.5 159.5,175.5C 159.5,178.167 159.5,180.833 159.5,183.5C 159.5,186.167 159.5,188.833 159.5,191.5C 159.5,194.167 159.5,196.833 159.5,199.5C 156.833,199.5 154.167,199.5 151.5,199.5C 151.5,202.167 151.5,204.833 151.5,207.5C 148.833,207.5 146.167,207.5 143.5,207.5C 143.5,210.167 143.5,212.833 143.5,215.5C 140.833,215.5 138.167,215.5 135.5,215.5C 135.5,218.167 135.5,220.833 135.5,223.5C 132.833,223.5 130.167,223.5 127.5,223.5C 127.5,226.167 127.5,228.833 127.5,231.5C 124.833,231.5 122.167,231.5 119.5,231.5C 119.5,228.833 119.5,226.167 119.5,223.5C 116.833,223.5 114.167,223.5 111.5,223.5C 111.5,220.833 111.5,218.167 111.5,215.5C 108.833,215.5 106.167,215.5 103.5,215.5C 103.5,207.5 103.5,199.5 103.5,191.5C 106.167,191.5 108.833,191.5 111.5,191.5C 111.5,186.167 111.5,180.833 111.5,175.5C 108.833,175.5 106.167,175.5 103.5,175.5C 103.5,170.167 103.5,164.833 103.5,159.5C 92.8333,159.5 82.1667,159.5 71.5,159.5C 71.5,156.833 71.5,154.167 71.5,151.5C 68.8333,151.5 66.1667,151.5 63.5,151.5C 63.5,140.833 63.5,130.167 63.5,119.5C 66.1667,119.5 68.8333,119.5 71.5,119.5C 71.5,114.167 71.5,108.833 71.5,103.5C 68.8333,103.5 66.1667,103.5 63.5,103.5C 60.8333,103.5 58.1667,103.5 55.5,103.5C 55.5,100.833 55.5,98.1667 55.5,95.5C 58.1667,95.5 60.8333,95.5 63.5,95.5C 63.5,92.8333 63.5,90.1667 63.5,87.5C 66.1667,87.5 68.8333,87.5 71.5,87.5C 71.5,84.8333 71.5,82.1667 71.5,79.5C 68.8333,79.5 66.1667,79.5 63.5,79.5C 63.5,76.8333 63.5,74.1667 63.5,71.5C 66.1667,71.5 68.8333,71.5 71.5,71.5C 71.5,68.8333 71.5,66.1667 71.5,63.5C 74.1667,63.5 76.8333,63.5 79.5,63.5C 82.1667,63.5 84.8333,63.5 87.5,63.5C 87.5,60.8333 87.5,58.1667 87.5,55.5C 87.5,52.8333 87.5,50.1667 87.5,47.5C 90.1667,47.5 92.8333,47.5 95.5,47.5C 98.1667,47.5 100.833,47.5 103.5,47.5C 103.5,50.1667 103.5,52.8333 103.5,55.5C 106.167,55.5 108.833,55.5 111.5,55.5C 111.5,52.8333 111.5,50.1667 111.5,47.5C 114.167,47.5 116.833,47.5 119.5,47.5C 119.5,42.1667 119.5,36.8333 119.5,31.5C 122.167,31.5 124.833,31.5 127.5,31.5C 127.5,28.8333 127.5,26.1667 127.5,23.5 Z"/></g>
<g><path style="opacity:1" fill="#1469f1" d="M 151.5,23.5 C 154.167,23.5 156.833,23.5 159.5,23.5C 159.5,26.1667 159.5,28.8333 159.5,31.5C 156.833,31.5 154.167,31.5 151.5,31.5C 151.5,28.8333 151.5,26.1667 151.5,23.5 Z"/></g>
<g><path style="opacity:1" fill="#008200" d="M 175.5,23.5 C 178.167,23.5 180.833,23.5 183.5,23.5C 183.5,26.1667 183.5,28.8333 183.5,31.5C 180.833,31.5 178.167,31.5 175.5,31.5C 175.5,28.8333 175.5,26.1667 175.5,23.5 Z"/></g>
<g><path style="opacity:1" fill="#9620f1" d="M 183.5,23.5 C 188.833,23.5 194.167,23.5 199.5,23.5C 199.5,26.1667 199.5,28.8333 199.5,31.5C 196.833,31.5 194.167,31.5 191.5,31.5C 188.833,31.5 186.167,31.5 183.5,31.5C 183.5,28.8333 183.5,26.1667 183.5,23.5 Z"/></g>
<g><path style="opacity:1" fill="#de3cf0" d="M 63.5,31.5 C 63.5,34.1667 63.5,36.8333 63.5,39.5C 60.8333,39.5 58.1667,39.5 55.5,39.5C 55.5,36.8333 55.5,34.1667 55.5,31.5C 58.1667,31.5 60.8333,31.5 63.5,31.5 Z"/></g>
<g><path style="opacity:1" fill="#9ae933" d="M 63.5,31.5 C 66.1667,31.5 68.8333,31.5 71.5,31.5C 71.5,34.1667 71.5,36.8333 71.5,39.5C 68.8333,39.5 66.1667,39.5 63.5,39.5C 63.5,36.8333 63.5,34.1667 63.5,31.5 Z"/></g>
<g><path style="opacity:1" fill="#00fffe" d="M 71.5,31.5 C 74.1667,31.5 76.8333,31.5 79.5,31.5C 79.5,34.1667 79.5,36.8333 79.5,39.5C 79.5,42.1667 79.5,44.8333 79.5,47.5C 76.8333,47.5 74.1667,47.5 71.5,47.5C 71.5,44.8333 71.5,42.1667 71.5,39.5C 71.5,36.8333 71.5,34.1667 71.5,31.5 Z"/></g>
<g><path style="opacity:1" fill="#9ae933" d="M 79.5,31.5 C 82.1667,31.5 84.8333,31.5 87.5,31.5C 87.5,34.1667 87.5,36.8333 87.5,39.5C 84.8333,39.5 82.1667,39.5 79.5,39.5C 79.5,36.8333 79.5,34.1667 79.5,31.5 Z"/></g>
<g><path style="opacity:1" fill="#00b359" d="M 87.5,31.5 C 90.1667,31.5 92.8333,31.5 95.5,31.5C 95.5,34.1667 95.5,36.8333 95.5,39.5C 92.8333,39.5 90.1667,39.5 87.5,39.5C 87.5,36.8333 87.5,34.1667 87.5,31.5 Z"/></g>
<g><path style="opacity:1" fill="#00fffe" d="M 95.5,31.5 C 98.1667,31.5 100.833,31.5 103.5,31.5C 103.5,34.1667 103.5,36.8333 103.5,39.5C 100.833,39.5 98.1667,39.5 95.5,39.5C 95.5,36.8333 95.5,34.1667 95.5,31.5 Z"/></g>
<g><path style="opacity:1" fill="#008200" d="M 191.5,31.5 C 194.167,31.5 196.833,31.5 199.5,31.5C 199.5,34.1667 199.5,36.8333 199.5,39.5C 196.833,39.5 194.167,39.5 191.5,39.5C 191.5,36.8333 191.5,34.1667 191.5,31.5 Z"/></g>
<g><path style="opacity:1" fill="#000590" d="M 199.5,31.5 C 202.167,31.5 204.833,31.5 207.5,31.5C 207.5,34.1667 207.5,36.8333 207.5,39.5C 204.833,39.5 202.167,39.5 199.5,39.5C 199.5,36.8333 199.5,34.1667 199.5,31.5 Z"/></g>
<g><path style="opacity:1" fill="#de3cf0" d="M 55.5,39.5 C 55.5,42.1667 55.5,44.8333 55.5,47.5C 52.8333,47.5 50.1667,47.5 47.5,47.5C 47.5,44.8333 47.5,42.1667 47.5,39.5C 50.1667,39.5 52.8333,39.5 55.5,39.5 Z"/></g>
<g><path style="opacity:1" fill="#9ae933" d="M 55.5,39.5 C 58.1667,39.5 60.8333,39.5 63.5,39.5C 63.5,42.1667 63.5,44.8333 63.5,47.5C 60.8333,47.5 58.1667,47.5 55.5,47.5C 55.5,44.8333 55.5,42.1667 55.5,39.5 Z"/></g>
<g><path style="opacity:1" fill="#00b359" d="M 63.5,39.5 C 66.1667,39.5 68.8333,39.5 71.5,39.5C 71.5,42.1667 71.5,44.8333 71.5,47.5C 68.8333,47.5 66.1667,47.5 63.5,47.5C 63.5,44.8333 63.5,42.1667 63.5,39.5 Z"/></g>
<g><path style="opacity:1" fill="#1469f1" d="M 79.5,39.5 C 82.1667,39.5 84.8333,39.5 87.5,39.5C 87.5,42.1667 87.5,44.8333 87.5,47.5C 84.8333,47.5 82.1667,47.5 79.5,47.5C 79.5,44.8333 79.5,42.1667 79.5,39.5 Z"/></g>
<g><path style="opacity:1" fill="#00fffe" d="M 87.5,39.5 C 90.1667,39.5 92.8333,39.5 95.5,39.5C 95.5,42.1667 95.5,44.8333 95.5,47.5C 92.8333,47.5 90.1667,47.5 87.5,47.5C 87.5,44.8333 87.5,42.1667 87.5,39.5 Z"/></g>
<g><path style="opacity:1" fill="#1469f1" d="M 95.5,39.5 C 98.1667,39.5 100.833,39.5 103.5,39.5C 103.5,42.1667 103.5,44.8333 103.5,47.5C 100.833,47.5 98.1667,47.5 95.5,47.5C 95.5,44.8333 95.5,42.1667 95.5,39.5 Z"/></g>
<g><path style="opacity:1" fill="#3037d6" d="M 103.5,39.5 C 106.167,39.5 108.833,39.5 111.5,39.5C 111.5,42.1667 111.5,44.8333 111.5,47.5C 108.833,47.5 106.167,47.5 103.5,47.5C 103.5,44.8333 103.5,42.1667 103.5,39.5 Z"/></g>
<g><path style="opacity:1" fill="#008200" d="M 199.5,39.5 C 202.167,39.5 204.833,39.5 207.5,39.5C 207.5,42.1667 207.5,44.8333 207.5,47.5C 210.167,47.5 212.833,47.5 215.5,47.5C 215.5,50.1667 215.5,52.8333 215.5,55.5C 212.833,55.5 210.167,55.5 207.5,55.5C 207.5,58.1667 207.5,60.8333 207.5,63.5C 204.833,63.5 202.167,63.5 199.5,63.5C 199.5,55.5 199.5,47.5 199.5,39.5 Z"/></g>
<g><path style="opacity:1" fill="#000590" d="M 207.5,39.5 C 210.167,39.5 212.833,39.5 215.5,39.5C 215.5,42.1667 215.5,44.8333 215.5,47.5C 215.5,44.8333 215.5,42.1667 215.5,39.5C 212.833,39.5 210.167,39.5 207.5,39.5 Z"/></g>
<g><path style="opacity:1" fill="#de3cf0" d="M 47.5,47.5 C 47.5,50.1667 47.5,52.8333 47.5,55.5C 44.8333,55.5 42.1667,55.5 39.5,55.5C 39.5,52.8333 39.5,50.1667 39.5,47.5C 42.1667,47.5 44.8333,47.5 47.5,47.5 Z"/></g>
<g><path style="opacity:1" fill="#00fffe" d="M 47.5,47.5 C 50.1667,47.5 52.8333,47.5 55.5,47.5C 55.5,50.1667 55.5,52.8333 55.5,55.5C 58.1667,55.5 60.8333,55.5 63.5,55.5C 63.5,58.1667 63.5,60.8333 63.5,63.5C 66.1667,63.5 68.8333,63.5 71.5,63.5C 71.5,66.1667 71.5,68.8333 71.5,71.5C 68.8333,71.5 66.1667,71.5 63.5,71.5C 63.5,74.1667 63.5,76.8333 63.5,79.5C 60.8333,79.5 58.1667,79.5 55.5,79.5C 55.5,82.1667 55.5,84.8333 55.5,87.5C 52.8333,87.5 50.1667,87.5 47.5,87.5C 47.5,90.1667 47.5,92.8333 47.5,95.5C 47.5,98.1667 47.5,100.833 47.5,103.5C 47.5,106.167 47.5,108.833 47.5,111.5C 44.8333,111.5 42.1667,111.5 39.5,111.5C 39.5,114.167 39.5,116.833 39.5,119.5C 42.1667,119.5 44.8333,119.5 47.5,119.5C 47.5,122.167 47.5,124.833 47.5,127.5C 44.8333,127.5 42.1667,127.5 39.5,127.5C 39.5,130.167 39.5,132.833 39.5,135.5C 36.8333,135.5 34.1667,135.5 31.5,135.5C 31.5,132.833 31.5,130.167 31.5,127.5C 28.8333,127.5 26.1667,127.5 23.5,127.5C 23.5,124.833 23.5,122.167 23.5,119.5C 23.5,116.833 23.5,114.167 23.5,111.5C 23.5,108.833 23.5,106.167 23.5,103.5C 20.8333,103.5 18.1667,103.5 15.5,103.5C 15.5,100.833 15.5,98.1667 15.5,95.5C 18.1667,95.5 20.8333,95.5 23.5,95.5C 23.5,90.1667 23.5,84.8333 23.5,79.5C 26.1667,79.5 28.8333,79.5 31.5,79.5C 31.5,74.1667 31.5,68.8333 31.5,63.5C 34.1667,63.5 36.8333,63.5 39.5,63.5C 39.5,60.8333 39.5,58.1667 39.5,55.5C 42.1667,55.5 44.8333,55.5 47.5,55.5C 47.5,52.8333 47.5,50.1667 47.5,47.5 Z"/></g>
<g><path style="opacity:1" fill="#00b359" d="M 55.5,47.5 C 58.1667,47.5 60.8333,47.5 63.5,47.5C 63.5,50.1667 63.5,52.8333 63.5,55.5C 60.8333,55.5 58.1667,55.5 55.5,55.5C 55.5,52.8333 55.5,50.1667 55.5,47.5 Z"/></g>
<g><path style="opacity:1" fill="#9ae933" d="M 63.5,47.5 C 66.1667,47.5 68.8333,47.5 71.5,47.5C 71.5,50.1667 71.5,52.8333 71.5,55.5C 68.8333,55.5 66.1667,55.5 63.5,55.5C 63.5,52.8333 63.5,50.1667 63.5,47.5 Z"/></g>
<g><path style="opacity:1" fill="#00b359" d="M 71.5,47.5 C 74.1667,47.5 76.8333,47.5 79.5,47.5C 79.5,50.1667 79.5,52.8333 79.5,55.5C 76.8333,55.5 74.1667,55.5 71.5,55.5C 71.5,52.8333 71.5,50.1667 71.5,47.5 Z"/></g>
<g><path style="opacity:1" fill="#00fffe" d="M 79.5,47.5 C 82.1667,47.5 84.8333,47.5 87.5,47.5C 87.5,50.1667 87.5,52.8333 87.5,55.5C 84.8333,55.5 82.1667,55.5 79.5,55.5C 79.5,52.8333 79.5,50.1667 79.5,47.5 Z"/></g>
<g><path style="opacity:1" fill="#1469f1" d="M 103.5,47.5 C 106.167,47.5 108.833,47.5 111.5,47.5C 111.5,50.1667 111.5,52.8333 111.5,55.5C 108.833,55.5 106.167,55.5 103.5,55.5C 103.5,52.8333 103.5,50.1667 103.5,47.5 Z"/></g>
<g><path style="opacity:1" fill="#000590" d="M 215.5,47.5 C 218.167,47.5 220.833,47.5 223.5,47.5C 223.5,50.1667 223.5,52.8333 223.5,55.5C 220.833,55.5 218.167,55.5 215.5,55.5C 215.5,52.8333 215.5,50.1667 215.5,47.5 Z"/></g>
<g><path style="opacity:1" fill="#de3cf0" d="M 39.5,55.5 C 39.5,58.1667 39.5,60.8333 39.5,63.5C 36.8333,63.5 34.1667,63.5 31.5,63.5C 31.5,60.8333 31.5,58.1667 31.5,55.5C 34.1667,55.5 36.8333,55.5 39.5,55.5 Z"/></g>
<g><path style="opacity:1" fill="#00b359" d="M 63.5,55.5 C 66.1667,55.5 68.8333,55.5 71.5,55.5C 71.5,58.1667 71.5,60.8333 71.5,63.5C 68.8333,63.5 66.1667,63.5 63.5,63.5C 63.5,60.8333 63.5,58.1667 63.5,55.5 Z"/></g>
<g><path style="opacity:1" fill="#00fffe" d="M 71.5,55.5 C 74.1667,55.5 76.8333,55.5 79.5,55.5C 79.5,58.1667 79.5,60.8333 79.5,63.5C 76.8333,63.5 74.1667,63.5 71.5,63.5C 71.5,60.8333 71.5,58.1667 71.5,55.5 Z"/></g>
<g><path style="opacity:1" fill="#1469f1" d="M 79.5,55.5 C 82.1667,55.5 84.8333,55.5 87.5,55.5C 87.5,58.1667 87.5,60.8333 87.5,63.5C 84.8333,63.5 82.1667,63.5 79.5,63.5C 79.5,60.8333 79.5,58.1667 79.5,55.5 Z"/></g>
<g><path style="opacity:1" fill="#00b359" d="M 215.5,55.5 C 215.5,58.1667 215.5,60.8333 215.5,63.5C 212.833,63.5 210.167,63.5 207.5,63.5C 207.5,60.8333 207.5,58.1667 207.5,55.5C 210.167,55.5 212.833,55.5 215.5,55.5 Z"/></g>
<g><path style="opacity:1" fill="#008200" d="M 215.5,55.5 C 218.167,55.5 220.833,55.5 223.5,55.5C 223.5,58.1667 223.5,60.8333 223.5,63.5C 226.167,63.5 228.833,63.5 231.5,63.5C 231.5,71.5 231.5,79.5 231.5,87.5C 234.167,87.5 236.833,87.5 239.5,87.5C 239.5,90.1667 239.5,92.8333 239.5,95.5C 236.833,95.5 234.167,95.5 231.5,95.5C 231.5,98.1667 231.5,100.833 231.5,103.5C 234.167,103.5 236.833,103.5 239.5,103.5C 239.5,106.167 239.5,108.833 239.5,111.5C 236.833,111.5 234.167,111.5 231.5,111.5C 231.5,114.167 231.5,116.833 231.5,119.5C 234.167,119.5 236.833,119.5 239.5,119.5C 239.5,122.167 239.5,124.833 239.5,127.5C 236.833,127.5 234.167,127.5 231.5,127.5C 231.5,130.167 231.5,132.833 231.5,135.5C 234.167,135.5 236.833,135.5 239.5,135.5C 239.5,138.167 239.5,140.833 239.5,143.5C 234.167,143.5 228.833,143.5 223.5,143.5C 223.5,140.833 223.5,138.167 223.5,135.5C 223.5,132.833 223.5,130.167 223.5,127.5C 223.5,124.833 223.5,122.167 223.5,119.5C 220.833,119.5 218.167,119.5 215.5,119.5C 215.5,116.833 215.5,114.167 215.5,111.5C 215.5,108.833 215.5,106.167 215.5,103.5C 212.833,103.5 210.167,103.5 207.5,103.5C 207.5,100.833 207.5,98.1667 207.5,95.5C 210.167,95.5 212.833,95.5 215.5,95.5C 215.5,92.8333 215.5,90.1667 215.5,87.5C 212.833,87.5 210.167,87.5 207.5,87.5C 207.5,84.8333 207.5,82.1667 207.5,79.5C 210.167,79.5 212.833,79.5 215.5,79.5C 215.5,76.8333 215.5,74.1667 215.5,71.5C 212.833,71.5 210.167,71.5 207.5,71.5C 207.5,68.8333 207.5,66.1667 207.5,63.5C 210.167,63.5 212.833,63.5 215.5,63.5C 215.5,60.8333 215.5,58.1667 215.5,55.5 Z"/></g>
<g><path style="opacity:1" fill="#000590" d="M 223.5,55.5 C 226.167,55.5 228.833,55.5 231.5,55.5C 231.5,58.1667 231.5,60.8333 231.5,63.5C 231.5,60.8333 231.5,58.1667 231.5,55.5C 228.833,55.5 226.167,55.5 223.5,55.5 Z"/></g>
<g><path style="opacity:1" fill="#de3cf0" d="M 31.5,63.5 C 31.5,68.8333 31.5,74.1667 31.5,79.5C 28.8333,79.5 26.1667,79.5 23.5,79.5C 23.5,74.1667 23.5,68.8333 23.5,63.5C 26.1667,63.5 28.8333,63.5 31.5,63.5 Z"/></g>
<g><path style="opacity:1" fill="#1469f1" d="M 143.5,87.5 C 143.5,90.1667 143.5,92.8333 143.5,95.5C 146.167,95.5 148.833,95.5 151.5,95.5C 151.5,98.1667 151.5,100.833 151.5,103.5C 146.167,103.5 140.833,103.5 135.5,103.5C 135.5,106.167 135.5,108.833 135.5,111.5C 124.833,111.5 114.167,111.5 103.5,111.5C 103.5,108.833 103.5,106.167 103.5,103.5C 92.8333,103.5 82.1667,103.5 71.5,103.5C 71.5,100.833 71.5,98.1667 71.5,95.5C 74.1667,95.5 76.8333,95.5 79.5,95.5C 79.5,92.8333 79.5,90.1667 79.5,87.5C 82.1667,87.5 84.8333,87.5 87.5,87.5C 87.5,84.8333 87.5,82.1667 87.5,79.5C 90.1667,79.5 92.8333,79.5 95.5,79.5C 95.5,76.8333 95.5,74.1667 95.5,71.5C 98.1667,71.5 100.833,71.5 103.5,71.5C 103.5,74.1667 103.5,76.8333 103.5,79.5C 108.833,79.5 114.167,79.5 119.5,79.5C 119.5,82.1667 119.5,84.8333 119.5,87.5C 122.167,87.5 124.833,87.5 127.5,87.5C 127.5,84.8333 127.5,82.1667 127.5,79.5C 130.167,79.5 132.833,79.5 135.5,79.5C 135.5,82.1667 135.5,84.8333 135.5,87.5C 138.167,87.5 140.833,87.5 143.5,87.5 Z"/></g>
<g><path style="opacity:1" fill="#1469f1" d="M 167.5,79.5 C 167.5,82.1667 167.5,84.8333 167.5,87.5C 159.5,87.5 151.5,87.5 143.5,87.5C 143.5,82.1667 143.5,76.8333 143.5,71.5C 148.833,71.5 154.167,71.5 159.5,71.5C 159.5,74.1667 159.5,76.8333 159.5,79.5C 162.167,79.5 164.833,79.5 167.5,79.5 Z"/></g>
<g><path style="opacity:1" fill="#1469f1" d="M 167.5,79.5 C 167.5,76.8333 167.5,74.1667 167.5,71.5C 170.167,71.5 172.833,71.5 175.5,71.5C 175.5,74.1667 175.5,76.8333 175.5,79.5C 172.833,79.5 170.167,79.5 167.5,79.5 Z"/></g>
<g><path style="opacity:1" fill="#008200" d="M 207.5,71.5 C 207.5,74.1667 207.5,76.8333 207.5,79.5C 204.833,79.5 202.167,79.5 199.5,79.5C 199.5,76.8333 199.5,74.1667 199.5,71.5C 202.167,71.5 204.833,71.5 207.5,71.5 Z"/></g>
<g><path style="opacity:1" fill="#00b359" d="M 207.5,71.5 C 210.167,71.5 212.833,71.5 215.5,71.5C 215.5,74.1667 215.5,76.8333 215.5,79.5C 212.833,79.5 210.167,79.5 207.5,79.5C 207.5,76.8333 207.5,74.1667 207.5,71.5 Z"/></g>
<g><path style="opacity:1" fill="#de3cf0" d="M 23.5,79.5 C 23.5,84.8333 23.5,90.1667 23.5,95.5C 20.8333,95.5 18.1667,95.5 15.5,95.5C 15.5,90.1667 15.5,84.8333 15.5,79.5C 18.1667,79.5 20.8333,79.5 23.5,79.5 Z"/></g>
<g><path style="opacity:1" fill="#00b359" d="M 63.5,79.5 C 63.5,82.1667 63.5,84.8333 63.5,87.5C 60.8333,87.5 58.1667,87.5 55.5,87.5C 55.5,84.8333 55.5,82.1667 55.5,79.5C 58.1667,79.5 60.8333,79.5 63.5,79.5 Z"/></g>
<g><path style="opacity:1" fill="#9ae933" d="M 63.5,79.5 C 66.1667,79.5 68.8333,79.5 71.5,79.5C 71.5,82.1667 71.5,84.8333 71.5,87.5C 68.8333,87.5 66.1667,87.5 63.5,87.5C 63.5,84.8333 63.5,82.1667 63.5,79.5 Z"/></g>
<g><path style="opacity:1" fill="#050b96" d="M 231.5,63.5 C 234.167,63.5 236.833,63.5 239.5,63.5C 239.5,68.8333 239.5,74.1667 239.5,79.5C 242.167,79.5 244.833,79.5 247.5,79.5C 247.5,84.8333 247.5,90.1667 247.5,95.5C 244.833,95.5 242.167,95.5 239.5,95.5C 239.5,92.8333 239.5,90.1667 239.5,87.5C 236.833,87.5 234.167,87.5 231.5,87.5C 231.5,79.5 231.5,71.5 231.5,63.5 Z"/></g>
<g><path style="opacity:1" fill="#00b359" d="M 55.5,87.5 C 55.5,90.1667 55.5,92.8333 55.5,95.5C 52.8333,95.5 50.1667,95.5 47.5,95.5C 47.5,92.8333 47.5,90.1667 47.5,87.5C 50.1667,87.5 52.8333,87.5 55.5,87.5 Z"/></g>
<g><path style="opacity:1" fill="#9ae933" d="M 55.5,87.5 C 58.1667,87.5 60.8333,87.5 63.5,87.5C 63.5,90.1667 63.5,92.8333 63.5,95.5C 60.8333,95.5 58.1667,95.5 55.5,95.5C 55.5,92.8333 55.5,90.1667 55.5,87.5 Z"/></g>
<g><path style="opacity:1" fill="#008200" d="M 207.5,87.5 C 207.5,90.1667 207.5,92.8333 207.5,95.5C 204.833,95.5 202.167,95.5 199.5,95.5C 199.5,92.8333 199.5,90.1667 199.5,87.5C 202.167,87.5 204.833,87.5 207.5,87.5 Z"/></g>
<g><path style="opacity:1" fill="#00b359" d="M 207.5,87.5 C 210.167,87.5 212.833,87.5 215.5,87.5C 215.5,90.1667 215.5,92.8333 215.5,95.5C 212.833,95.5 210.167,95.5 207.5,95.5C 207.5,92.8333 207.5,90.1667 207.5,87.5 Z"/></g>
<g><path style="opacity:1" fill="#de3cf0" d="M 15.5,95.5 C 15.5,98.1667 15.5,100.833 15.5,103.5C 15.5,106.167 15.5,108.833 15.5,111.5C 15.5,114.167 15.5,116.833 15.5,119.5C 15.5,122.167 15.5,124.833 15.5,127.5C 15.5,130.167 15.5,132.833 15.5,135.5C 15.5,138.167 15.5,140.833 15.5,143.5C 15.5,146.167 15.5,148.833 15.5,151.5C 15.5,154.167 15.5,156.833 15.5,159.5C 15.5,162.167 15.5,164.833 15.5,167.5C 12.8333,167.5 10.1667,167.5 7.5,167.5C 7.5,143.5 7.5,119.5 7.5,95.5C 10.1667,95.5 12.8333,95.5 15.5,95.5 Z"/></g>
<g><path style="opacity:1" fill="#9ae933" d="M 47.5,95.5 C 50.1667,95.5 52.8333,95.5 55.5,95.5C 55.5,98.1667 55.5,100.833 55.5,103.5C 52.8333,103.5 50.1667,103.5 47.5,103.5C 47.5,100.833 47.5,98.1667 47.5,95.5 Z"/></g>
<g><path style="opacity:1" fill="#1469f1" d="M 175.5,103.5 C 172.833,103.5 170.167,103.5 167.5,103.5C 167.5,100.833 167.5,98.1667 167.5,95.5C 170.167,95.5 172.833,95.5 175.5,95.5C 175.5,98.1667 175.5,100.833 175.5,103.5 Z"/></g>
<g><path style="opacity:1" fill="#3037d6" d="M 239.5,95.5 C 239.5,98.1667 239.5,100.833 239.5,103.5C 236.833,103.5 234.167,103.5 231.5,103.5C 231.5,100.833 231.5,98.1667 231.5,95.5C 234.167,95.5 236.833,95.5 239.5,95.5 Z"/></g>
<g><path style="opacity:1" fill="#008200" d="M 239.5,95.5 C 242.167,95.5 244.833,95.5 247.5,95.5C 247.5,98.1667 247.5,100.833 247.5,103.5C 244.833,103.5 242.167,103.5 239.5,103.5C 239.5,100.833 239.5,98.1667 239.5,95.5 Z"/></g>
<g><path style="opacity:1" fill="#0a0f9b" d="M 247.5,95.5 C 250.167,95.5 252.833,95.5 255.5,95.5C 255.5,119.5 255.5,143.5 255.5,167.5C 252.833,167.5 250.167,167.5 247.5,167.5C 247.5,156.833 247.5,146.167 247.5,135.5C 247.5,132.833 247.5,130.167 247.5,127.5C 244.833,127.5 242.167,127.5 239.5,127.5C 239.5,124.833 239.5,122.167 239.5,119.5C 242.167,119.5 244.833,119.5 247.5,119.5C 247.5,116.833 247.5,114.167 247.5,111.5C 244.833,111.5 242.167,111.5 239.5,111.5C 239.5,108.833 239.5,106.167 239.5,103.5C 242.167,103.5 244.833,103.5 247.5,103.5C 247.5,100.833 247.5,98.1667 247.5,95.5 Z"/></g>
<g><path style="opacity:1" fill="#00b359" d="M 15.5,103.5 C 18.1667,103.5 20.8333,103.5 23.5,103.5C 23.5,106.167 23.5,108.833 23.5,111.5C 20.8333,111.5 18.1667,111.5 15.5,111.5C 15.5,108.833 15.5,106.167 15.5,103.5 Z"/></g>
<g><path style="opacity:1" fill="#1469f1" d="M 47.5,103.5 C 50.1667,103.5 52.8333,103.5 55.5,103.5C 55.5,106.167 55.5,108.833 55.5,111.5C 52.8333,111.5 50.1667,111.5 47.5,111.5C 47.5,108.833 47.5,106.167 47.5,103.5 Z"/></g>
<g><path style="opacity:1" fill="#9ae933" d="M 55.5,103.5 C 58.1667,103.5 60.8333,103.5 63.5,103.5C 63.5,106.167 63.5,108.833 63.5,111.5C 60.8333,111.5 58.1667,111.5 55.5,111.5C 55.5,108.833 55.5,106.167 55.5,103.5 Z"/></g>
<g><path style="opacity:1" fill="#1469f1" d="M 63.5,103.5 C 66.1667,103.5 68.8333,103.5 71.5,103.5C 71.5,108.833 71.5,114.167 71.5,119.5C 68.8333,119.5 66.1667,119.5 63.5,119.5C 63.5,130.167 63.5,140.833 63.5,151.5C 66.1667,151.5 68.8333,151.5 71.5,151.5C 71.5,154.167 71.5,156.833 71.5,159.5C 82.1667,159.5 92.8333,159.5 103.5,159.5C 103.5,164.833 103.5,170.167 103.5,175.5C 106.167,175.5 108.833,175.5 111.5,175.5C 111.5,180.833 111.5,186.167 111.5,191.5C 108.833,191.5 106.167,191.5 103.5,191.5C 103.5,199.5 103.5,207.5 103.5,215.5C 103.5,218.167 103.5,220.833 103.5,223.5C 100.833,223.5 98.1667,223.5 95.5,223.5C 95.5,226.167 95.5,228.833 95.5,231.5C 92.8333,231.5 90.1667,231.5 87.5,231.5C 87.5,228.833 87.5,226.167 87.5,223.5C 84.8333,223.5 82.1667,223.5 79.5,223.5C 79.5,220.833 79.5,218.167 79.5,215.5C 82.1667,215.5 84.8333,215.5 87.5,215.5C 87.5,212.833 87.5,210.167 87.5,207.5C 84.8333,207.5 82.1667,207.5 79.5,207.5C 79.5,204.833 79.5,202.167 79.5,199.5C 76.8333,199.5 74.1667,199.5 71.5,199.5C 71.5,202.167 71.5,204.833 71.5,207.5C 68.8333,207.5 66.1667,207.5 63.5,207.5C 63.5,210.167 63.5,212.833 63.5,215.5C 60.8333,215.5 58.1667,215.5 55.5,215.5C 52.8333,215.5 50.1667,215.5 47.5,215.5C 47.5,212.833 47.5,210.167 47.5,207.5C 47.5,204.833 47.5,202.167 47.5,199.5C 44.8333,199.5 42.1667,199.5 39.5,199.5C 39.5,196.833 39.5,194.167 39.5,191.5C 39.5,188.833 39.5,186.167 39.5,183.5C 42.1667,183.5 44.8333,183.5 47.5,183.5C 47.5,175.5 47.5,167.5 47.5,159.5C 47.5,156.833 47.5,154.167 47.5,151.5C 44.8333,151.5 42.1667,151.5 39.5,151.5C 39.5,148.833 39.5,146.167 39.5,143.5C 42.1667,143.5 44.8333,143.5 47.5,143.5C 47.5,140.833 47.5,138.167 47.5,135.5C 50.1667,135.5 52.8333,135.5 55.5,135.5C 55.5,132.833 55.5,130.167 55.5,127.5C 52.8333,127.5 50.1667,127.5 47.5,127.5C 47.5,124.833 47.5,122.167 47.5,119.5C 50.1667,119.5 52.8333,119.5 55.5,119.5C 55.5,116.833 55.5,114.167 55.5,111.5C 58.1667,111.5 60.8333,111.5 63.5,111.5C 63.5,108.833 63.5,106.167 63.5,103.5 Z"/></g>
<g><path style="opacity:1" fill="#1469f1" d="M 175.5,103.5 C 186.167,103.5 196.833,103.5 207.5,103.5C 210.167,103.5 212.833,103.5 215.5,103.5C 215.5,106.167 215.5,108.833 215.5,111.5C 215.5,114.167 215.5,116.833 215.5,119.5C 212.833,119.5 210.167,119.5 207.5,119.5C 207.5,122.167 207.5,124.833 207.5,127.5C 210.167,127.5 212.833,127.5 215.5,127.5C 215.5,130.167 215.5,132.833 215.5,135.5C 212.833,135.5 210.167,135.5 207.5,135.5C 207.5,138.167 207.5,140.833 207.5,143.5C 210.167,143.5 212.833,143.5 215.5,143.5C 215.5,146.167 215.5,148.833 215.5,151.5C 212.833,151.5 210.167,151.5 207.5,151.5C 207.5,154.167 207.5,156.833 207.5,159.5C 204.833,159.5 202.167,159.5 199.5,159.5C 199.5,162.167 199.5,164.833 199.5,167.5C 202.167,167.5 204.833,167.5 207.5,167.5C 207.5,170.167 207.5,172.833 207.5,175.5C 204.833,175.5 202.167,175.5 199.5,175.5C 199.5,178.167 199.5,180.833 199.5,183.5C 196.833,183.5 194.167,183.5 191.5,183.5C 191.5,186.167 191.5,188.833 191.5,191.5C 188.833,191.5 186.167,191.5 183.5,191.5C 183.5,188.833 183.5,186.167 183.5,183.5C 180.833,183.5 178.167,183.5 175.5,183.5C 175.5,180.833 175.5,178.167 175.5,175.5C 172.833,175.5 170.167,175.5 167.5,175.5C 167.5,172.833 167.5,170.167 167.5,167.5C 170.167,167.5 172.833,167.5 175.5,167.5C 175.5,162.167 175.5,156.833 175.5,151.5C 178.167,151.5 180.833,151.5 183.5,151.5C 183.5,148.833 183.5,146.167 183.5,143.5C 186.167,143.5 188.833,143.5 191.5,143.5C 191.5,140.833 191.5,138.167 191.5,135.5C 191.5,127.5 191.5,119.5 191.5,111.5C 186.167,111.5 180.833,111.5 175.5,111.5C 175.5,108.833 175.5,106.167 175.5,103.5 Z"/></g>
<g><path style="opacity:1" fill="#3037d6" d="M 207.5,103.5 C 210.167,103.5 212.833,103.5 215.5,103.5C 215.5,106.167 215.5,108.833 215.5,111.5C 212.833,111.5 210.167,111.5 207.5,111.5C 207.5,108.833 207.5,106.167 207.5,103.5 Z"/></g>
<g><path style="opacity:1" fill="#9ae933" d="M 15.5,111.5 C 18.1667,111.5 20.8333,111.5 23.5,111.5C 23.5,114.167 23.5,116.833 23.5,119.5C 20.8333,119.5 18.1667,119.5 15.5,119.5C 15.5,116.833 15.5,114.167 15.5,111.5 Z"/></g>
<g><path style="opacity:1" fill="#1469f1" d="M 47.5,111.5 C 47.5,114.167 47.5,116.833 47.5,119.5C 44.8333,119.5 42.1667,119.5 39.5,119.5C 39.5,116.833 39.5,114.167 39.5,111.5C 42.1667,111.5 44.8333,111.5 47.5,111.5 Z"/></g>
<g><path style="opacity:1" fill="#00fffe" d="M 47.5,111.5 C 50.1667,111.5 52.8333,111.5 55.5,111.5C 55.5,114.167 55.5,116.833 55.5,119.5C 52.8333,119.5 50.1667,119.5 47.5,119.5C 47.5,116.833 47.5,114.167 47.5,111.5 Z"/></g>
<g><path style="opacity:1" fill="#1469f1" d="M 151.5,119.5 C 148.833,119.5 146.167,119.5 143.5,119.5C 143.5,116.833 143.5,114.167 143.5,111.5C 146.167,111.5 148.833,111.5 151.5,111.5C 151.5,114.167 151.5,116.833 151.5,119.5 Z"/></g>
<g><path style="opacity:1" fill="#3037d6" d="M 239.5,111.5 C 239.5,114.167 239.5,116.833 239.5,119.5C 236.833,119.5 234.167,119.5 231.5,119.5C 231.5,116.833 231.5,114.167 231.5,111.5C 234.167,111.5 236.833,111.5 239.5,111.5 Z"/></g>
<g><path style="opacity:1" fill="#008200" d="M 239.5,111.5 C 242.167,111.5 244.833,111.5 247.5,111.5C 247.5,114.167 247.5,116.833 247.5,119.5C 244.833,119.5 242.167,119.5 239.5,119.5C 239.5,116.833 239.5,114.167 239.5,111.5 Z"/></g>
<g><path style="opacity:1" fill="#00b359" d="M 15.5,119.5 C 18.1667,119.5 20.8333,119.5 23.5,119.5C 23.5,122.167 23.5,124.833 23.5,127.5C 20.8333,127.5 18.1667,127.5 15.5,127.5C 15.5,124.833 15.5,122.167 15.5,119.5 Z"/></g>
<g><path style="opacity:1" fill="#1469f1" d="M 151.5,119.5 C 154.167,119.5 156.833,119.5 159.5,119.5C 159.5,122.167 159.5,124.833 159.5,127.5C 159.5,124.833 159.5,122.167 159.5,119.5C 156.833,119.5 154.167,119.5 151.5,119.5 Z"/></g>
<g><path style="opacity:1" fill="#3037d6" d="M 215.5,119.5 C 215.5,122.167 215.5,124.833 215.5,127.5C 212.833,127.5 210.167,127.5 207.5,127.5C 207.5,124.833 207.5,122.167 207.5,119.5C 210.167,119.5 212.833,119.5 215.5,119.5 Z"/></g>
<g><path style="opacity:1" fill="#1469f1" d="M 215.5,119.5 C 218.167,119.5 220.833,119.5 223.5,119.5C 223.5,122.167 223.5,124.833 223.5,127.5C 220.833,127.5 218.167,127.5 215.5,127.5C 215.5,124.833 215.5,122.167 215.5,119.5 Z"/></g>
<g><path style="opacity:1" fill="#9ae933" d="M 15.5,127.5 C 18.1667,127.5 20.8333,127.5 23.5,127.5C 23.5,130.167 23.5,132.833 23.5,135.5C 20.8333,135.5 18.1667,135.5 15.5,135.5C 15.5,132.833 15.5,130.167 15.5,127.5 Z"/></g>
<g><path style="opacity:1" fill="#00b359" d="M 23.5,127.5 C 26.1667,127.5 28.8333,127.5 31.5,127.5C 31.5,130.167 31.5,132.833 31.5,135.5C 28.8333,135.5 26.1667,135.5 23.5,135.5C 23.5,132.833 23.5,130.167 23.5,127.5 Z"/></g>
<g><path style="opacity:1" fill="#1469f1" d="M 47.5,127.5 C 47.5,130.167 47.5,132.833 47.5,135.5C 44.8333,135.5 42.1667,135.5 39.5,135.5C 39.5,132.833 39.5,130.167 39.5,127.5C 42.1667,127.5 44.8333,127.5 47.5,127.5 Z"/></g>
<g><path style="opacity:1" fill="#00fffe" d="M 47.5,127.5 C 50.1667,127.5 52.8333,127.5 55.5,127.5C 55.5,130.167 55.5,132.833 55.5,135.5C 52.8333,135.5 50.1667,135.5 47.5,135.5C 47.5,132.833 47.5,130.167 47.5,127.5 Z"/></g>
<g><path style="opacity:1" fill="#1469f1" d="M 159.5,127.5 C 162.167,127.5 164.833,127.5 167.5,127.5C 167.5,130.167 167.5,132.833 167.5,135.5C 167.5,132.833 167.5,130.167 167.5,127.5C 164.833,127.5 162.167,127.5 159.5,127.5 Z"/></g>
<g><path style="opacity:1" fill="#3037d6" d="M 215.5,127.5 C 218.167,127.5 220.833,127.5 223.5,127.5C 223.5,130.167 223.5,132.833 223.5,135.5C 220.833,135.5 218.167,135.5 215.5,135.5C 215.5,132.833 215.5,130.167 215.5,127.5 Z"/></g>
<g><path style="opacity:1" fill="#3037d6" d="M 239.5,127.5 C 239.5,130.167 239.5,132.833 239.5,135.5C 236.833,135.5 234.167,135.5 231.5,135.5C 231.5,132.833 231.5,130.167 231.5,127.5C 234.167,127.5 236.833,127.5 239.5,127.5 Z"/></g>
<g><path style="opacity:1" fill="#008200" d="M 239.5,127.5 C 242.167,127.5 244.833,127.5 247.5,127.5C 247.5,130.167 247.5,132.833 247.5,135.5C 244.833,135.5 242.167,135.5 239.5,135.5C 239.5,132.833 239.5,130.167 239.5,127.5 Z"/></g>
<g><path style="opacity:1" fill="#00b359" d="M 15.5,135.5 C 18.1667,135.5 20.8333,135.5 23.5,135.5C 23.5,138.167 23.5,140.833 23.5,143.5C 20.8333,143.5 18.1667,143.5 15.5,143.5C 15.5,140.833 15.5,138.167 15.5,135.5 Z"/></g>
<g><path style="opacity:1" fill="#9ae933" d="M 23.5,135.5 C 26.1667,135.5 28.8333,135.5 31.5,135.5C 31.5,138.167 31.5,140.833 31.5,143.5C 28.8333,143.5 26.1667,143.5 23.5,143.5C 23.5,140.833 23.5,138.167 23.5,135.5 Z"/></g>
<g><path style="opacity:1" fill="#00b359" d="M 31.5,135.5 C 34.1667,135.5 36.8333,135.5 39.5,135.5C 39.5,138.167 39.5,140.833 39.5,143.5C 36.8333,143.5 34.1667,143.5 31.5,143.5C 31.5,140.833 31.5,138.167 31.5,135.5 Z"/></g>
<g><path style="opacity:1" fill="#00fffe" d="M 39.5,135.5 C 42.1667,135.5 44.8333,135.5 47.5,135.5C 47.5,138.167 47.5,140.833 47.5,143.5C 44.8333,143.5 42.1667,143.5 39.5,143.5C 39.5,140.833 39.5,138.167 39.5,135.5 Z"/></g>
<g><path style="opacity:1" fill="#3037d6" d="M 167.5,135.5 C 170.167,135.5 172.833,135.5 175.5,135.5C 175.5,138.167 175.5,140.833 175.5,143.5C 175.5,140.833 175.5,138.167 175.5,135.5C 172.833,135.5 170.167,135.5 167.5,135.5 Z"/></g>
<g><path style="opacity:1" fill="#3037d6" d="M 191.5,135.5 C 191.5,138.167 191.5,140.833 191.5,143.5C 188.833,143.5 186.167,143.5 183.5,143.5C 183.5,140.833 183.5,138.167 183.5,135.5C 186.167,135.5 188.833,135.5 191.5,135.5 Z"/></g>
<g><path style="opacity:1" fill="#3037d6" d="M 215.5,135.5 C 215.5,138.167 215.5,140.833 215.5,143.5C 212.833,143.5 210.167,143.5 207.5,143.5C 207.5,140.833 207.5,138.167 207.5,135.5C 210.167,135.5 212.833,135.5 215.5,135.5 Z"/></g>
<g><path style="opacity:1" fill="#1469f1" d="M 215.5,135.5 C 218.167,135.5 220.833,135.5 223.5,135.5C 223.5,138.167 223.5,140.833 223.5,143.5C 220.833,143.5 218.167,143.5 215.5,143.5C 215.5,140.833 215.5,138.167 215.5,135.5 Z"/></g>
<g><path style="opacity:1" fill="#2d34d0" d="M 239.5,135.5 C 242.167,135.5 244.833,135.5 247.5,135.5C 247.5,146.167 247.5,156.833 247.5,167.5C 244.833,167.5 242.167,167.5 239.5,167.5C 239.5,172.833 239.5,178.167 239.5,183.5C 236.833,183.5 234.167,183.5 231.5,183.5C 231.5,188.833 231.5,194.167 231.5,199.5C 231.5,202.167 231.5,204.833 231.5,207.5C 228.833,207.5 226.167,207.5 223.5,207.5C 223.5,210.167 223.5,212.833 223.5,215.5C 220.833,215.5 218.167,215.5 215.5,215.5C 215.5,218.167 215.5,220.833 215.5,223.5C 212.833,223.5 210.167,223.5 207.5,223.5C 207.5,226.167 207.5,228.833 207.5,231.5C 204.833,231.5 202.167,231.5 199.5,231.5C 194.167,231.5 188.833,231.5 183.5,231.5C 183.5,234.167 183.5,236.833 183.5,239.5C 178.167,239.5 172.833,239.5 167.5,239.5C 167.5,242.167 167.5,244.833 167.5,247.5C 143.5,247.5 119.5,247.5 95.5,247.5C 90.1667,247.5 84.8333,247.5 79.5,247.5C 79.5,244.833 79.5,242.167 79.5,239.5C 82.1667,239.5 84.8333,239.5 87.5,239.5C 87.5,236.833 87.5,234.167 87.5,231.5C 90.1667,231.5 92.8333,231.5 95.5,231.5C 95.5,234.167 95.5,236.833 95.5,239.5C 98.1667,239.5 100.833,239.5 103.5,239.5C 103.5,236.833 103.5,234.167 103.5,231.5C 106.167,231.5 108.833,231.5 111.5,231.5C 111.5,234.167 111.5,236.833 111.5,239.5C 114.167,239.5 116.833,239.5 119.5,239.5C 119.5,236.833 119.5,234.167 119.5,231.5C 122.167,231.5 124.833,231.5 127.5,231.5C 127.5,228.833 127.5,226.167 127.5,223.5C 130.167,223.5 132.833,223.5 135.5,223.5C 138.167,223.5 140.833,223.5 143.5,223.5C 143.5,220.833 143.5,218.167 143.5,215.5C 143.5,212.833 143.5,210.167 143.5,207.5C 146.167,207.5 148.833,207.5 151.5,207.5C 154.167,207.5 156.833,207.5 159.5,207.5C 159.5,204.833 159.5,202.167 159.5,199.5C 162.167,199.5 164.833,199.5 167.5,199.5C 167.5,196.833 167.5,194.167 167.5,191.5C 170.167,191.5 172.833,191.5 175.5,191.5C 175.5,188.833 175.5,186.167 175.5,183.5C 178.167,183.5 180.833,183.5 183.5,183.5C 183.5,186.167 183.5,188.833 183.5,191.5C 183.5,194.167 183.5,196.833 183.5,199.5C 180.833,199.5 178.167,199.5 175.5,199.5C 175.5,202.167 175.5,204.833 175.5,207.5C 172.833,207.5 170.167,207.5 167.5,207.5C 167.5,210.167 167.5,212.833 167.5,215.5C 175.5,215.5 183.5,215.5 191.5,215.5C 191.5,212.833 191.5,210.167 191.5,207.5C 194.167,207.5 196.833,207.5 199.5,207.5C 199.5,202.167 199.5,196.833 199.5,191.5C 202.167,191.5 204.833,191.5 207.5,191.5C 207.5,188.833 207.5,186.167 207.5,183.5C 204.833,183.5 202.167,183.5 199.5,183.5C 199.5,180.833 199.5,178.167 199.5,175.5C 202.167,175.5 204.833,175.5 207.5,175.5C 207.5,172.833 207.5,170.167 207.5,167.5C 210.167,167.5 212.833,167.5 215.5,167.5C 215.5,164.833 215.5,162.167 215.5,159.5C 218.167,159.5 220.833,159.5 223.5,159.5C 223.5,156.833 223.5,154.167 223.5,151.5C 220.833,151.5 218.167,151.5 215.5,151.5C 215.5,148.833 215.5,146.167 215.5,143.5C 218.167,143.5 220.833,143.5 223.5,143.5C 228.833,143.5 234.167,143.5 239.5,143.5C 239.5,140.833 239.5,138.167 239.5,135.5 Z"/></g>
<g><path style="opacity:1" fill="#9ae933" d="M 15.5,143.5 C 18.1667,143.5 20.8333,143.5 23.5,143.5C 23.5,146.167 23.5,148.833 23.5,151.5C 20.8333,151.5 18.1667,151.5 15.5,151.5C 15.5,148.833 15.5,146.167 15.5,143.5 Z"/></g>
<g><path style="opacity:1" fill="#00b359" d="M 23.5,143.5 C 26.1667,143.5 28.8333,143.5 31.5,143.5C 31.5,146.167 31.5,148.833 31.5,151.5C 28.8333,151.5 26.1667,151.5 23.5,151.5C 23.5,148.833 23.5,146.167 23.5,143.5 Z"/></g>
<g><path style="opacity:1" fill="#9ae933" d="M 31.5,143.5 C 34.1667,143.5 36.8333,143.5 39.5,143.5C 39.5,146.167 39.5,148.833 39.5,151.5C 36.8333,151.5 34.1667,151.5 31.5,151.5C 31.5,148.833 31.5,146.167 31.5,143.5 Z"/></g>
<g><path style="opacity:1" fill="#3037d6" d="M 175.5,143.5 C 178.167,143.5 180.833,143.5 183.5,143.5C 183.5,146.167 183.5,148.833 183.5,151.5C 180.833,151.5 178.167,151.5 175.5,151.5C 175.5,148.833 175.5,146.167 175.5,143.5 Z"/></g>
<g><path style="opacity:1" fill="#00b359" d="M 15.5,151.5 C 18.1667,151.5 20.8333,151.5 23.5,151.5C 23.5,154.167 23.5,156.833 23.5,159.5C 20.8333,159.5 18.1667,159.5 15.5,159.5C 15.5,156.833 15.5,154.167 15.5,151.5 Z"/></g>
<g><path style="opacity:1" fill="#9ae933" d="M 23.5,151.5 C 26.1667,151.5 28.8333,151.5 31.5,151.5C 31.5,154.167 31.5,156.833 31.5,159.5C 28.8333,159.5 26.1667,159.5 23.5,159.5C 23.5,156.833 23.5,154.167 23.5,151.5 Z"/></g>
<g><path style="opacity:1" fill="#00b359" d="M 31.5,151.5 C 34.1667,151.5 36.8333,151.5 39.5,151.5C 39.5,154.167 39.5,156.833 39.5,159.5C 36.8333,159.5 34.1667,159.5 31.5,159.5C 31.5,156.833 31.5,154.167 31.5,151.5 Z"/></g>
<g><path style="opacity:1" fill="#9ae933" d="M 39.5,151.5 C 42.1667,151.5 44.8333,151.5 47.5,151.5C 47.5,154.167 47.5,156.833 47.5,159.5C 44.8333,159.5 42.1667,159.5 39.5,159.5C 39.5,156.833 39.5,154.167 39.5,151.5 Z"/></g>
<g><path style="opacity:1" fill="#3037d6" d="M 215.5,151.5 C 215.5,154.167 215.5,156.833 215.5,159.5C 212.833,159.5 210.167,159.5 207.5,159.5C 207.5,156.833 207.5,154.167 207.5,151.5C 210.167,151.5 212.833,151.5 215.5,151.5 Z"/></g>
<g><path style="opacity:1" fill="#1469f1" d="M 215.5,151.5 C 218.167,151.5 220.833,151.5 223.5,151.5C 223.5,154.167 223.5,156.833 223.5,159.5C 220.833,159.5 218.167,159.5 215.5,159.5C 215.5,156.833 215.5,154.167 215.5,151.5 Z"/></g>
<g><path style="opacity:1" fill="#9ae933" d="M 15.5,159.5 C 18.1667,159.5 20.8333,159.5 23.5,159.5C 23.5,162.167 23.5,164.833 23.5,167.5C 20.8333,167.5 18.1667,167.5 15.5,167.5C 15.5,164.833 15.5,162.167 15.5,159.5 Z"/></g>
<g><path style="opacity:1" fill="#00b359" d="M 23.5,159.5 C 26.1667,159.5 28.8333,159.5 31.5,159.5C 31.5,162.167 31.5,164.833 31.5,167.5C 28.8333,167.5 26.1667,167.5 23.5,167.5C 23.5,164.833 23.5,162.167 23.5,159.5 Z"/></g>
<g><path style="opacity:1" fill="#9ae933" d="M 31.5,159.5 C 34.1667,159.5 36.8333,159.5 39.5,159.5C 39.5,162.167 39.5,164.833 39.5,167.5C 36.8333,167.5 34.1667,167.5 31.5,167.5C 31.5,164.833 31.5,162.167 31.5,159.5 Z"/></g>
<g><path style="opacity:1" fill="#00b359" d="M 39.5,159.5 C 42.1667,159.5 44.8333,159.5 47.5,159.5C 47.5,167.5 47.5,175.5 47.5,183.5C 44.8333,183.5 42.1667,183.5 39.5,183.5C 39.5,180.833 39.5,178.167 39.5,175.5C 36.8333,175.5 34.1667,175.5 31.5,175.5C 31.5,172.833 31.5,170.167 31.5,167.5C 34.1667,167.5 36.8333,167.5 39.5,167.5C 39.5,164.833 39.5,162.167 39.5,159.5 Z"/></g>
<g><path style="opacity:1" fill="#3037d6" d="M 207.5,159.5 C 207.5,162.167 207.5,164.833 207.5,167.5C 204.833,167.5 202.167,167.5 199.5,167.5C 199.5,164.833 199.5,162.167 199.5,159.5C 202.167,159.5 204.833,159.5 207.5,159.5 Z"/></g>
<g><path style="opacity:1" fill="#1469f1" d="M 207.5,159.5 C 210.167,159.5 212.833,159.5 215.5,159.5C 215.5,162.167 215.5,164.833 215.5,167.5C 212.833,167.5 210.167,167.5 207.5,167.5C 207.5,164.833 207.5,162.167 207.5,159.5 Z"/></g>
<g><path style="opacity:1" fill="#de3cf0" d="M 15.5,167.5 C 18.1667,167.5 20.8333,167.5 23.5,167.5C 23.5,170.167 23.5,172.833 23.5,175.5C 23.5,178.167 23.5,180.833 23.5,183.5C 20.8333,183.5 18.1667,183.5 15.5,183.5C 15.5,178.167 15.5,172.833 15.5,167.5 Z"/></g>
<g><path style="opacity:1" fill="#9ae933" d="M 23.5,167.5 C 26.1667,167.5 28.8333,167.5 31.5,167.5C 31.5,170.167 31.5,172.833 31.5,175.5C 28.8333,175.5 26.1667,175.5 23.5,175.5C 23.5,172.833 23.5,170.167 23.5,167.5 Z"/></g>
<g><path style="opacity:1" fill="#000590" d="M 247.5,167.5 C 247.5,172.833 247.5,178.167 247.5,183.5C 244.833,183.5 242.167,183.5 239.5,183.5C 239.5,178.167 239.5,172.833 239.5,167.5C 242.167,167.5 244.833,167.5 247.5,167.5 Z"/></g>
<g><path style="opacity:1" fill="#00b359" d="M 23.5,175.5 C 26.1667,175.5 28.8333,175.5 31.5,175.5C 31.5,178.167 31.5,180.833 31.5,183.5C 28.8333,183.5 26.1667,183.5 23.5,183.5C 23.5,180.833 23.5,178.167 23.5,175.5 Z"/></g>
<g><path style="opacity:1" fill="#9ae933" d="M 31.5,175.5 C 34.1667,175.5 36.8333,175.5 39.5,175.5C 39.5,178.167 39.5,180.833 39.5,183.5C 36.8333,183.5 34.1667,183.5 31.5,183.5C 31.5,180.833 31.5,178.167 31.5,175.5 Z"/></g>
<g><path style="opacity:1" fill="#1469f1" d="M 167.5,175.5 C 167.5,178.167 167.5,180.833 167.5,183.5C 164.833,183.5 162.167,183.5 159.5,183.5C 159.5,180.833 159.5,178.167 159.5,175.5C 162.167,175.5 164.833,175.5 167.5,175.5 Z"/></g>
<g><path style="opacity:1" fill="#3037d6" d="M 167.5,175.5 C 170.167,175.5 172.833,175.5 175.5,175.5C 175.5,178.167 175.5,180.833 175.5,183.5C 172.833,183.5 170.167,183.5 167.5,183.5C 167.5,180.833 167.5,178.167 167.5,175.5 Z"/></g>
<g><path style="opacity:1" fill="#de3cf0" d="M 23.5,183.5 C 26.1667,183.5 28.8333,183.5 31.5,183.5C 31.5,186.167 31.5,188.833 31.5,191.5C 31.5,194.167 31.5,196.833 31.5,199.5C 28.8333,199.5 26.1667,199.5 23.5,199.5C 23.5,194.167 23.5,188.833 23.5,183.5 Z"/></g>
<g><path style="opacity:1" fill="#00b359" d="M 31.5,183.5 C 34.1667,183.5 36.8333,183.5 39.5,183.5C 39.5,186.167 39.5,188.833 39.5,191.5C 36.8333,191.5 34.1667,191.5 31.5,191.5C 31.5,188.833 31.5,186.167 31.5,183.5 Z"/></g>
<g><path style="opacity:1" fill="#3037d6" d="M 159.5,183.5 C 162.167,183.5 164.833,183.5 167.5,183.5C 167.5,186.167 167.5,188.833 167.5,191.5C 164.833,191.5 162.167,191.5 159.5,191.5C 159.5,188.833 159.5,186.167 159.5,183.5 Z"/></g>
<g><path style="opacity:1" fill="#1469f1" d="M 167.5,183.5 C 170.167,183.5 172.833,183.5 175.5,183.5C 175.5,186.167 175.5,188.833 175.5,191.5C 172.833,191.5 170.167,191.5 167.5,191.5C 167.5,188.833 167.5,186.167 167.5,183.5 Z"/></g>
<g><path style="opacity:1" fill="#3037d6" d="M 199.5,183.5 C 199.5,186.167 199.5,188.833 199.5,191.5C 196.833,191.5 194.167,191.5 191.5,191.5C 191.5,188.833 191.5,186.167 191.5,183.5C 194.167,183.5 196.833,183.5 199.5,183.5 Z"/></g>
<g><path style="opacity:1" fill="#008200" d="M 199.5,183.5 C 202.167,183.5 204.833,183.5 207.5,183.5C 207.5,186.167 207.5,188.833 207.5,191.5C 204.833,191.5 202.167,191.5 199.5,191.5C 199.5,188.833 199.5,186.167 199.5,183.5 Z"/></g>
<g><path style="opacity:1" fill="#000590" d="M 239.5,183.5 C 239.5,188.833 239.5,194.167 239.5,199.5C 236.833,199.5 234.167,199.5 231.5,199.5C 231.5,194.167 231.5,188.833 231.5,183.5C 234.167,183.5 236.833,183.5 239.5,183.5 Z"/></g>
<g><path style="opacity:1" fill="#9ae933" d="M 31.5,191.5 C 34.1667,191.5 36.8333,191.5 39.5,191.5C 39.5,194.167 39.5,196.833 39.5,199.5C 36.8333,199.5 34.1667,199.5 31.5,199.5C 31.5,196.833 31.5,194.167 31.5,191.5 Z"/></g>
<g><path style="opacity:1" fill="#3037d6" d="M 71.5,199.5 C 68.8333,199.5 66.1667,199.5 63.5,199.5C 63.5,196.833 63.5,194.167 63.5,191.5C 66.1667,191.5 68.8333,191.5 71.5,191.5C 71.5,194.167 71.5,196.833 71.5,199.5 Z"/></g>
<g><path style="opacity:1" fill="#1469f1" d="M 159.5,191.5 C 162.167,191.5 164.833,191.5 167.5,191.5C 167.5,194.167 167.5,196.833 167.5,199.5C 164.833,199.5 162.167,199.5 159.5,199.5C 159.5,196.833 159.5,194.167 159.5,191.5 Z"/></g>
<g><path style="opacity:1" fill="#008200" d="M 183.5,191.5 C 186.167,191.5 188.833,191.5 191.5,191.5C 194.167,191.5 196.833,191.5 199.5,191.5C 199.5,196.833 199.5,202.167 199.5,207.5C 196.833,207.5 194.167,207.5 191.5,207.5C 191.5,210.167 191.5,212.833 191.5,215.5C 183.5,215.5 175.5,215.5 167.5,215.5C 167.5,212.833 167.5,210.167 167.5,207.5C 170.167,207.5 172.833,207.5 175.5,207.5C 175.5,204.833 175.5,202.167 175.5,199.5C 178.167,199.5 180.833,199.5 183.5,199.5C 183.5,196.833 183.5,194.167 183.5,191.5 Z"/></g>
<g><path style="opacity:1" fill="#de3cf0" d="M 31.5,199.5 C 34.1667,199.5 36.8333,199.5 39.5,199.5C 39.5,202.167 39.5,204.833 39.5,207.5C 36.8333,207.5 34.1667,207.5 31.5,207.5C 31.5,204.833 31.5,202.167 31.5,199.5 Z"/></g>
<g><path style="opacity:1" fill="#00b359" d="M 39.5,199.5 C 42.1667,199.5 44.8333,199.5 47.5,199.5C 47.5,202.167 47.5,204.833 47.5,207.5C 44.8333,207.5 42.1667,207.5 39.5,207.5C 39.5,204.833 39.5,202.167 39.5,199.5 Z"/></g>
<g><path style="opacity:1" fill="#3037d6" d="M 71.5,199.5 C 74.1667,199.5 76.8333,199.5 79.5,199.5C 79.5,202.167 79.5,204.833 79.5,207.5C 76.8333,207.5 74.1667,207.5 71.5,207.5C 71.5,204.833 71.5,202.167 71.5,199.5 Z"/></g>
<g><path style="opacity:1" fill="#1469f1" d="M 159.5,199.5 C 159.5,202.167 159.5,204.833 159.5,207.5C 156.833,207.5 154.167,207.5 151.5,207.5C 151.5,204.833 151.5,202.167 151.5,199.5C 154.167,199.5 156.833,199.5 159.5,199.5 Z"/></g>
<g><path style="opacity:1" fill="#de3cf0" d="M 39.5,207.5 C 42.1667,207.5 44.8333,207.5 47.5,207.5C 47.5,210.167 47.5,212.833 47.5,215.5C 44.8333,215.5 42.1667,215.5 39.5,215.5C 39.5,212.833 39.5,210.167 39.5,207.5 Z"/></g>
<g><path style="opacity:1" fill="#3037d6" d="M 71.5,207.5 C 71.5,210.167 71.5,212.833 71.5,215.5C 68.8333,215.5 66.1667,215.5 63.5,215.5C 63.5,212.833 63.5,210.167 63.5,207.5C 66.1667,207.5 68.8333,207.5 71.5,207.5 Z"/></g>
<g><path style="opacity:1" fill="#1469f1" d="M 71.5,207.5 C 74.1667,207.5 76.8333,207.5 79.5,207.5C 79.5,210.167 79.5,212.833 79.5,215.5C 76.8333,215.5 74.1667,215.5 71.5,215.5C 71.5,212.833 71.5,210.167 71.5,207.5 Z"/></g>
<g><path style="opacity:1" fill="#3037d6" d="M 79.5,207.5 C 82.1667,207.5 84.8333,207.5 87.5,207.5C 87.5,210.167 87.5,212.833 87.5,215.5C 84.8333,215.5 82.1667,215.5 79.5,215.5C 79.5,212.833 79.5,210.167 79.5,207.5 Z"/></g>
<g><path style="opacity:1" fill="#de3cf0" d="M 47.5,215.5 C 50.1667,215.5 52.8333,215.5 55.5,215.5C 55.5,218.167 55.5,220.833 55.5,223.5C 52.8333,223.5 50.1667,223.5 47.5,223.5C 47.5,220.833 47.5,218.167 47.5,215.5 Z"/></g>
<g><path style="opacity:1" fill="#3037d6" d="M 55.5,215.5 C 58.1667,215.5 60.8333,215.5 63.5,215.5C 63.5,218.167 63.5,220.833 63.5,223.5C 60.8333,223.5 58.1667,223.5 55.5,223.5C 55.5,220.833 55.5,218.167 55.5,215.5 Z"/></g>
<g><path style="opacity:1" fill="#1469f1" d="M 63.5,215.5 C 66.1667,215.5 68.8333,215.5 71.5,215.5C 71.5,218.167 71.5,220.833 71.5,223.5C 68.8333,223.5 66.1667,223.5 63.5,223.5C 63.5,220.833 63.5,218.167 63.5,215.5 Z"/></g>
<g><path style="opacity:1" fill="#3037d6" d="M 71.5,215.5 C 74.1667,215.5 76.8333,215.5 79.5,215.5C 79.5,218.167 79.5,220.833 79.5,223.5C 76.8333,223.5 74.1667,223.5 71.5,223.5C 71.5,220.833 71.5,218.167 71.5,215.5 Z"/></g>
<g><path style="opacity:1" fill="#3037d6" d="M 103.5,215.5 C 106.167,215.5 108.833,215.5 111.5,215.5C 111.5,218.167 111.5,220.833 111.5,223.5C 108.833,223.5 106.167,223.5 103.5,223.5C 103.5,220.833 103.5,218.167 103.5,215.5 Z"/></g>
<g><path style="opacity:1" fill="#1469f1" d="M 143.5,215.5 C 143.5,218.167 143.5,220.833 143.5,223.5C 140.833,223.5 138.167,223.5 135.5,223.5C 135.5,220.833 135.5,218.167 135.5,215.5C 138.167,215.5 140.833,215.5 143.5,215.5 Z"/></g>
<g><path style="opacity:1" fill="#9620f1" d="M 55.5,223.5 C 58.1667,223.5 60.8333,223.5 63.5,223.5C 63.5,226.167 63.5,228.833 63.5,231.5C 60.8333,231.5 58.1667,231.5 55.5,231.5C 55.5,228.833 55.5,226.167 55.5,223.5 Z"/></g>
<g><path style="opacity:1" fill="#3037d6" d="M 63.5,223.5 C 66.1667,223.5 68.8333,223.5 71.5,223.5C 71.5,226.167 71.5,228.833 71.5,231.5C 68.8333,231.5 66.1667,231.5 63.5,231.5C 63.5,228.833 63.5,226.167 63.5,223.5 Z"/></g>
<g><path style="opacity:1" fill="#1469f1" d="M 71.5,223.5 C 74.1667,223.5 76.8333,223.5 79.5,223.5C 79.5,226.167 79.5,228.833 79.5,231.5C 76.8333,231.5 74.1667,231.5 71.5,231.5C 71.5,228.833 71.5,226.167 71.5,223.5 Z"/></g>
<g><path style="opacity:1" fill="#3037d6" d="M 79.5,223.5 C 82.1667,223.5 84.8333,223.5 87.5,223.5C 87.5,226.167 87.5,228.833 87.5,231.5C 84.8333,231.5 82.1667,231.5 79.5,231.5C 79.5,228.833 79.5,226.167 79.5,223.5 Z"/></g>
<g><path style="opacity:1" fill="#3037d6" d="M 103.5,223.5 C 103.5,226.167 103.5,228.833 103.5,231.5C 100.833,231.5 98.1667,231.5 95.5,231.5C 95.5,228.833 95.5,226.167 95.5,223.5C 98.1667,223.5 100.833,223.5 103.5,223.5 Z"/></g>
<g><path style="opacity:1" fill="#1469f1" d="M 103.5,223.5 C 106.167,223.5 108.833,223.5 111.5,223.5C 111.5,226.167 111.5,228.833 111.5,231.5C 108.833,231.5 106.167,231.5 103.5,231.5C 103.5,228.833 103.5,226.167 103.5,223.5 Z"/></g>
<g><path style="opacity:1" fill="#3037d6" d="M 111.5,223.5 C 114.167,223.5 116.833,223.5 119.5,223.5C 119.5,226.167 119.5,228.833 119.5,231.5C 116.833,231.5 114.167,231.5 111.5,231.5C 111.5,228.833 111.5,226.167 111.5,223.5 Z"/></g>
<g><path style="opacity:1" fill="#9620f1" d="M 63.5,231.5 C 66.1667,231.5 68.8333,231.5 71.5,231.5C 71.5,234.167 71.5,236.833 71.5,239.5C 68.8333,239.5 66.1667,239.5 63.5,239.5C 63.5,236.833 63.5,234.167 63.5,231.5 Z"/></g>
<g><path style="opacity:1" fill="#000590" d="M 71.5,231.5 C 74.1667,231.5 76.8333,231.5 79.5,231.5C 79.5,234.167 79.5,236.833 79.5,239.5C 76.8333,239.5 74.1667,239.5 71.5,239.5C 71.5,236.833 71.5,234.167 71.5,231.5 Z"/></g>
<g><path style="opacity:1" fill="#1469f1" d="M 79.5,231.5 C 82.1667,231.5 84.8333,231.5 87.5,231.5C 87.5,234.167 87.5,236.833 87.5,239.5C 84.8333,239.5 82.1667,239.5 79.5,239.5C 79.5,236.833 79.5,234.167 79.5,231.5 Z"/></g>
<g><path style="opacity:1" fill="#1469f1" d="M 95.5,231.5 C 98.1667,231.5 100.833,231.5 103.5,231.5C 103.5,234.167 103.5,236.833 103.5,239.5C 100.833,239.5 98.1667,239.5 95.5,239.5C 95.5,236.833 95.5,234.167 95.5,231.5 Z"/></g>
<g><path style="opacity:1" fill="#1469f1" d="M 111.5,231.5 C 114.167,231.5 116.833,231.5 119.5,231.5C 119.5,234.167 119.5,236.833 119.5,239.5C 116.833,239.5 114.167,239.5 111.5,239.5C 111.5,236.833 111.5,234.167 111.5,231.5 Z"/></g>
<g><path style="opacity:1" fill="#000590" d="M 199.5,231.5 C 199.5,234.167 199.5,236.833 199.5,239.5C 194.167,239.5 188.833,239.5 183.5,239.5C 183.5,236.833 183.5,234.167 183.5,231.5C 188.833,231.5 194.167,231.5 199.5,231.5 Z"/></g>
<g><path style="opacity:1" fill="#000590" d="M 183.5,239.5 C 183.5,242.167 183.5,244.833 183.5,247.5C 178.167,247.5 172.833,247.5 167.5,247.5C 167.5,244.833 167.5,242.167 167.5,239.5C 172.833,239.5 178.167,239.5 183.5,239.5 Z"/></g>
<g><path style="opacity:1" fill="#000590" d="M 95.5,247.5 C 119.5,247.5 143.5,247.5 167.5,247.5C 167.5,250.167 167.5,252.833 167.5,255.5C 143.5,255.5 119.5,255.5 95.5,255.5C 95.5,252.833 95.5,250.167 95.5,247.5 Z"/></g>
</svg>
